<?xml version="1.0" encoding="UTF-8" standalone="no"?>
<svg
   xmlns:dc="http://purl.org/dc/elements/1.1/"
   xmlns:cc="http://creativecommons.org/ns#"
   xmlns:rdf="http://www.w3.org/1999/02/22-rdf-syntax-ns#"
   xmlns:svg="http://www.w3.org/2000/svg"
   xmlns="http://www.w3.org/2000/svg"
   xmlns:sodipodi="http://sodipodi.sourceforge.net/DTD/sodipodi-0.dtd"
   xmlns:inkscape="http://www.inkscape.org/namespaces/inkscape"
   id="bf042621-51ff-4860-a13c-709397cb72f6"
   data-name="Layer 1"
   width="600"
   height="410"
   viewBox="0 0 599.99999 410.00001"
   version="1.1"
   sodipodi:docname="assembleia.svg"
   inkscape:version="0.92.3 (2405546, 2018-03-11)">
  <metadata
     id="metadata159">
    <rdf:RDF>
      <cc:Work
         rdf:about="">
        <dc:format>image/svg+xml</dc:format>
        <dc:type
           rdf:resource="http://purl.org/dc/dcmitype/StillImage" />
        <dc:title></dc:title>
      </cc:Work>
    </rdf:RDF>
  </metadata>
  <defs
     id="defs157" />
  <sodipodi:namedview
     pagecolor="#ffffff"
     bordercolor="#666666"
     borderopacity="1"
     objecttolerance="10"
     gridtolerance="10"
     guidetolerance="10"
     inkscape:pageopacity="0"
     inkscape:pageshadow="2"
     inkscape:window-width="1920"
     inkscape:window-height="1015"
     id="namedview155"
     showgrid="false"
     fit-margin-top="0"
     fit-margin-left="0"
     fit-margin-right="0"
     fit-margin-bottom="0"
     inkscape:zoom="0.94944655"
     inkscape:cx="408.66506"
     inkscape:cy="278.85668"
     inkscape:window-x="0"
     inkscape:window-y="28"
     inkscape:window-maximized="1"
     inkscape:current-layer="bf042621-51ff-4860-a13c-709397cb72f6" />
  <path
     d="M 492.24806,300.20188 H 444.2383 c 0,1.38 -49.48,2.5 -49.48,2.5 a 12.85957,12.85957 0 0 0 -2.10987,2 12.41031,12.41031 0 0 0 -2.90039,8 v 2 a 12.50461,12.50461 0 0 0 12.5,12.5 h 90 a 12.51087,12.51087 0 0 0 12.5,-12.5 v -2 a 12.51734,12.51734 0 0 0 -12.49998,-12.5 z"
     id="path34"
     inkscape:connector-curvature="0"
     style="fill:#3f3d56" />
  <rect
     x="441.24332"
     y="326.70526"
     width="13"
     height="84"
     id="rect36"
     style="fill:#3f3d56" />
  <path
     d="m 491.24327,410.2486 c 0,1.40462 -19.69947,0.5433 -44,0.5433 -24.30053,0 -44,0.86132 -44,-0.5433 0,-1.40462 19.69947,-12.54331 44,-12.54331 24.30053,0 44,11.13868 44,12.54331 z"
     id="path38"
     inkscape:connector-curvature="0"
     style="fill:#3f3d56" />
  <polygon
     points="629.1,440.257 616.84,440.256 611.007,392.968 629.102,392.969 "
     id="polygon40"
     transform="translate(-246.86606,-41.056522)"
     style="fill:#ffb8b8" />
  <path
     d="m 361.21663,395.69668 h 23.64384 v 14.88687 h -38.53072 v 0 a 14.88688,14.88688 0 0 1 14.88688,-14.88687 z"
     id="path42"
     inkscape:connector-curvature="0"
     style="fill:#2f2e41" />
  <polygon
     points="609.962,433.414 598.265,429.743 606.857,382.878 624.121,388.296 "
     id="polygon44"
     transform="translate(-246.86606,-41.056522)"
     style="fill:#ffb8b8" />
  <path
     d="m 344.09224,382.72276 22.55912,7.07939 -4.45739,14.20389 -36.76302,-11.53677 v 0 a 14.88687,14.88687 0 0 1 18.66129,-9.74651 z"
     id="path46"
     inkscape:connector-curvature="0"
     style="fill:#2f2e41" />
  <path
     d="m 459.41442,292.00466 a 37.87092,37.87092 0 0 0 -1.52,-7.02 l -2.29,-2.88 -5.96,-7.48 -0.25976,0.01 c -0.44043,0.02 -2.27051,0.12 -5.1001,0.34 h -0.0303 c -1.75,0.14 -3.89014,0.32 -6.31983,0.55 -0.64014,0.07 -1.31006,0.13 -2,0.2 v 10.44 h 12.5 a 2.5044,2.5044 0 0 1 2.48,2.18 c 0.01,0.11 0.02,0.21 0.02,0.32 a 2.501,2.501 0 0 1 -2.5,2.5 h -72.6001 a 28.4056,28.4056 0 0 0 -2.66015,2 14.88157,14.88157 0 0 0 -5.25,7.86 c -4.23975,18.64 -11.96973,53.4 -14.25,63.61005 a 4.53816,4.53816 0 0 0 1.35009,4.28 4.43615,4.43615 0 0 0 1.47022,0.91 l 9.02,3.38 a 4.79293,4.79293 0 0 0 1.1499,0.27 c 0.0498,0 0.0898,0.01 0.14014,0.01 a 2.6135,2.6135 0 0 0 0.27978,0.01 4.53212,4.53212 0 0 0 4.21,-2.9 l 7.12012,-18.68 10.97022,-28.8 4.33984,-11.39 c 5.02979,1.18 47.23,10.52 61.35986,-4.53 a 16.06759,16.06759 0 0 0 3.24024,-5.11005 20.80163,20.80163 0 0 0 1.0898,-10.08 z"
     id="path48"
     inkscape:connector-curvature="0"
     style="fill:#2f2e41" />
  <path
     d="m 471.65417,294.72463 c -0.21973,-0.89 -0.46973,-1.81 -0.75977,-2.74 l -8.25,-10.36 -0.25976,0.01 c -0.52051,0.03 -2.99024,0.16 -6.78028,0.47 -4.2998,0.36 -10.31006,0.94 -17.06006,1.85 -0.1997,0.02 -0.40966,0.05 -0.60986,0.08 -0.66016,0.09 -1.33008,0.18 -2,0.28 v 1.85 h 12.5 a 2.5044,2.5044 0 0 1 2.48,2.18 c 0.01,0.11 0.02,0.21 0.02,0.32 a 2.501,2.501 0 0 1 -2.5,2.5 h -44.18017 c -1.92969,0.63 -3.79,1.29 -5.56983,2 -9.33984,3.7 -16.33008,8.55 -17.76025,14.86 -0.48,2.12 -1.00977,4.45 -1.56983,6.93 -2.08008,9.22 -4.60986,20.51 -6.8999,30.77 v 0.01 c -0.47021,2.12 -0.93994,4.18 -1.39014,6.18 -1.91015,8.6 -3.52978,15.89 -4.39013,19.72 -0.02,0.11 -0.0396,0.21 -0.0601,0.32 v 0.02 a 4.66711,4.66711 0 0 0 0.28027,2.29 l 0.01,0.01 v 0.01 a 4.42979,4.42979 0 0 0 1.30029,1.79 4.59324,4.59324 0 0 0 1.29,0.75 l 9.02,3.38 a 4.5805,4.5805 0 0 0 1.56982,0.29 4.435,4.435 0 0 0 2.14991,-0.55 4.501,4.501 0 0 0 2.06005,-2.35 l 19.41993,-50.96 3.01025,-7.91 c 5.02979,1.18 47.23,10.51 61.35986,-4.53 a 16.89106,16.89106 0 0 0 4.48,-11.07 29.6861,29.6861 0 0 0 -0.91011,-8.39994 z"
     id="path50"
     inkscape:connector-curvature="0"
     style="fill:#2f2e41" />
  <path
     d="m 470.5443,206.50466 c -0.15966,-0.19 -0.33007,-0.38 -0.50976,-0.56 a 24.47215,24.47215 0 0 0 -20.97022,-7.39 79.36185,79.36185 0 0 0 -9.91015,1.95 24.981,24.981 0 0 0 -11.17969,6.26995 24.41423,24.41423 0 0 0 -7.41016,18.2 c 0.04,1.37 0.0498,2.77 0.0303,4.19 0,0.66 -0.0103,1.33 -0.02,2 h 9.85986 a 5.32005,5.32005 0 0 1 1.27,0.15 5.511,5.511 0 0 1 4.23,5.35 v 46.52 c 0.66992,0.19 1.33984,0.38 2,0.58 0.21,0.0699 0.41016,0.12994 0.60986,0.18994 0.23,0.07 0.46,0.14 0.68018,0.21 q 3.04469,0.945 5.94971,2 h 3.26025 a 2.5044,2.5044 0 0 1 2.48,2.18 c 0.68018,0.27 1.33985,0.54 1.98975,0.81 2.31006,0.96 4.5,1.92 6.51025,2.85 2.71,1.24 5.12012,2.42 7.14014,3.45 a 4.58719,4.58719 0 0 0 2.0498,0.5 4.404,4.404 0 0 0 2.6001,-0.86 5.531,5.531 0 0 0 0.44971,-0.37 4.5045,4.5045 0 0 0 1.37011,-3.98 128.08706,128.08706 0 0 1 -0.8999,-23.7 c 0.27979,-6.65 0.87989,-13.47 1.66016,-20.06 0.41992,-3.57 0.88965,-7.07 1.37988,-10.44 0.47022,-3.22 0.97022,-6.31 1.46,-9.23 a 24.607,24.607 0 0 0 -6.08016,-20.80989 z"
     id="path52"
     inkscape:connector-curvature="0"
     style="fill:#ff7a5c" />
  <path
     d="m 429.55456,207.32466 a 11.8589,11.8589 0 0 0 -1.58008,-0.55 11.49858,11.49858 0 0 0 -13.54,6.53 l -6.87012,15.86 -0.85986,2 h 23.73 a 5.32005,5.32005 0 0 1 1.27,0.15 l 0.79981,-1.85 3.04,-7.02 a 11.51151,11.51151 0 0 0 -5.98975,-15.12 z"
     id="path54"
     inkscape:connector-curvature="0"
     style="fill:#ff7a5c" />
  <circle
     cx="450.89047"
     cy="166.18504"
     r="24.561029"
     id="circle56"
     style="fill:#ffb8b8" />
  <path
     d="m 475.16442,236.54463 -14.02,0.38 -1.02,9.85 -0.23,2.28 -21.96,9.86 -2,0.9 v 17.53 l 2,-0.57 6.31983,-1.8 h 0.0303 l 27.83984,-7.93 0.31983,-0.09 a 10.879,10.879 0 0 0 7.86035,-10.35 l 0.0698,-11.63 0.0601,-8.57 z"
     id="path58"
     inkscape:connector-curvature="0"
     style="fill:#ffb8b8" />
  <path
     d="m 479.72448,217.06465 a 11.501627,11.501627 0 0 0 -22.96,1.41 l 1.52978,24.96 a 4.48639,4.48639 0 0 0 1.83008,3.34 4.4354,4.4354 0 0 0 2.93994,0.87 l 10.72022,-0.66 3.25,-0.2 a 4.385,4.385 0 0 0 3.1001,-1.51 3.13661,3.13661 0 0 0 0.23974,-0.3 4.46893,4.46893 0 0 0 0.87989,-2.96 z"
     id="path60"
     inkscape:connector-curvature="0"
     style="fill:#ff7a5c" />
  <path
     d="m 439.22448,284.16463 h -1.29 v -0.13 c -0.66016,0.09 -1.33008,0.18 -2,0.28 v 1.85 h 9.23975 q -2.90995,-1.05001 -5.94975,-2 z m 0,0 h -1.29 v -0.13 c -0.66016,0.09 -1.33008,0.18 -2,0.28 v 1.85 h 9.23975 q -2.90995,-1.05001 -5.94975,-2 z m 9.21,0 h -10.5 v -47.5 a 7.51079,7.51079 0 0 0 -5.43017,-7.2 7.05091,7.05091 0 0 0 -2.06983,-0.3 h -89 a 7.50906,7.50906 0 0 0 -7.5,7.5 v 49 a 7.50264,7.50264 0 0 0 7.5,7.5 h 107 a 4.50458,4.50458 0 0 0 4.46973,-4.01 3.90311,3.90311 0 0 0 0.0303,-0.49 4.50681,4.50681 0 0 0 -4.50004,-4.5 z m 2.5,4.5 a 2.501,2.501 0 0 1 -2.5,2.5 h -107 a 5.50324,5.50324 0 0 1 -5.5,-5.5 v -49 a 5.50328,5.50328 0 0 1 5.5,-5.5 h 89 a 5.32005,5.32005 0 0 1 1.27,0.15 5.511,5.511 0 0 1 4.23,5.35 v 49.5 h 12.5 a 2.5044,2.5044 0 0 1 2.48,2.18 c 0.01,0.10998 0.02,0.21001 0.02,0.32 z m -11.71,-4.5 h -1.29 v -0.13 c -0.66016,0.09 -1.33008,0.18 -2,0.28 v 1.85 h 9.23975 q -2.90995,-1.05001 -5.94975,-2 z"
     id="path62"
     inkscape:connector-curvature="0"
     style="fill:#3f3d56" />
  <circle
     cx="385.93143"
     cy="261.16605"
     r="6"
     id="circle64"
     style="fill:#ff7a5c" />
  <path
     d="m 445.64612,156.44226 c -5.70477,5.09634 -13.35364,10.56649 -20.33919,6.83271 -4.58683,-2.45166 -6.62894,-7.82807 -5.55768,-12.91748 1.92644,-9.15224 9.83844,-14.09737 17.49912,-18.09485 9.95887,-5.19672 20.9487,-9.72862 32.10037,-8.37761 11.15167,1.35101 22.04719,10.56576 21.52059,21.78662 -0.42347,9.02359 -7.792,17.44162 -5.45946,26.1688 2.34752,8.78321 13.00847,12.18439 22.089,12.6312 9.08053,0.44681 19.07664,-0.32741 26.28,5.2194 9.18922,7.076 9.04206,21.87216 2.50039,31.4491 -6.54167,9.57694 -17.58849,14.9659 -28.43879,19.06252 -14.376,5.42776 -30.17738,9.34947 -45.01669,5.359 -14.83931,-3.99047 -27.83036,-18.22717 -25.65383,-33.43873 0.91936,-6.42534 4.29979,-12.19318 7.562,-17.80464 3.26221,-5.61146 6.54354,-11.46254 7.22857,-17.91707 0.57085,-5.37878 -1.13769,-11.31634 -5.10477,-14.78115 a 4.437,4.437 0 0 1 -1.25635,-5.067 z"
     id="path66"
     inkscape:connector-curvature="0"
     style="fill:#2f2e41" />
  <path
     d="m 96.898554,311.64861 v 2 a 12.51087,12.51087 0 0 0 12.500006,12.5 h 90 a 12.50461,12.50461 0 0 0 12.5,-12.5 v -2 a 12.41031,12.41031 0 0 0 -2.90039,-8 12.85957,12.85957 0 0 0 -2.10987,-2 c 0,0 -49.48,-1.12 -49.48,-2.5 h -48.00974 a 12.51734,12.51734 0 0 0 -12.500006,12.5 z"
     id="path70"
     inkscape:connector-curvature="0"
     style="fill:#3f3d56" />
  <rect
     x="-160.40332"
     y="-409.65198"
     width="13"
     height="84"
     transform="scale(-1)"
     id="rect72"
     style="fill:#3f3d56" />
  <path
     d="m 110.40335,409.19533 c 0,1.40462 19.69947,0.5433 44,0.5433 24.30053,0 44,0.86132 44,-0.5433 0,-1.40462 -19.69947,-12.54331 -44,-12.54331 -24.30053,0 -44,11.13868 -44,12.54331 z"
     id="path74"
     inkscape:connector-curvature="0"
     style="fill:#3f3d56" />
  <polygon
     points="181.622,393.73 163.528,393.731 163.53,441.018 175.79,441.018 "
     id="polygon76"
     transform="translate(56.468547,-42.109767)"
     style="fill:#a0616a" />
  <path
     d="m 255.90286,410.29113 -38.53072,0.002 -6.8e-4,-14.88687 23.64384,-10e-4 a 14.88688,14.88688 0 0 1 14.88756,14.8862 v 0 z"
     id="path78"
     inkscape:connector-curvature="0"
     style="fill:#2f2e41" />
  <polygon
     points="185.773,383.64 168.509,389.058 182.668,434.176 194.365,430.505 "
     id="polygon80"
     transform="translate(56.468547,-42.109767)"
     style="fill:#a0616a" />
  <path
     d="m 276.80142,392.17769 -36.76301,11.53677 -4.45739,-14.20389 22.55913,-7.07939 a 14.88687,14.88687 0 0 1 18.66128,9.74651 v 0 z"
     id="path82"
     inkscape:connector-curvature="0"
     style="fill:#2f2e41" />
  <path
     d="m 230.93453,370.3013 -22.42729,-58.8711 c -5.03149,1.18164 -47.22656,10.51856 -61.35888,-4.52832 -4.84327,-5.15723 -5.78785,-12.6289 -2.80762,-22.208 l 8.24756,-10.36425 0.25634,0.0137 c 3.11841,0.16406 76.43531,4.27344 81.46119,26.38867 4.23755,18.64453 11.97656,53.40527 14.24731,63.61523 a 4.51574,4.51574 0 0 1 -2.814,5.1836 l -9.01929,3.38183 a 4.462,4.462 0 0 1 -1.572,0.28614 4.513,4.513 0 0 1 -4.21332,-2.89747 z"
     id="path84"
     inkscape:connector-curvature="0"
     style="fill:#2f2e41" />
  <path
     d="m 217.93453,377.3013 -22.42729,-58.8711 c -5.03174,1.18164 -47.22656,10.51758 -61.35888,-4.52832 -4.84327,-5.15723 -5.78785,-12.6289 -2.80762,-22.208 l 8.24756,-10.36425 0.25634,0.0137 c 3.11841,0.16406 76.43531,4.27344 81.46119,26.38867 4.23755,18.64453 11.97656,53.40527 14.24731,63.61523 a 4.51574,4.51574 0 0 1 -2.814,5.1836 l -9.01929,3.38183 a 4.462,4.462 0 0 1 -1.572,0.28614 4.513,4.513 0 0 1 -4.21332,-2.89747 z"
     id="path86"
     inkscape:connector-curvature="0"
     style="fill:#2f2e41" />
  <path
     d="m 197.761,263.08347 a 19.1964,19.1964 0 0 1 -16.4845,-9.37158 l -7.12255,-12.06592 16.92932,-9.25293 7.18835,9.856 48.77356,-5.13867 a 10.55928,10.55928 0 0 1 0.79919,-1.23389 v 0 a 11.01566,11.01566 0 0 1 7.8733,-4.314 10.89328,10.89328 0 0 1 8.49267,3.0122 11.02275,11.02275 0 0 1 1.8599,13.56352 11.00369,11.00369 0 0 1 -16.1134,3.15088 10.40153,10.40153 0 0 1 -0.82287,-0.7002 l -46.7146,11.91065 a 18.83681,18.83681 0 0 1 -4.65837,0.58394 z"
     id="path88"
     inkscape:connector-curvature="0"
     style="fill:#a0616a" />
  <path
     d="m 131.02364,294.80227 a 4.5069,4.5069 0 0 1 -1.8186,-4.34863 c 2.78247,-18.34277 -0.41895,-44.61914 -3.59473,-63.43262 a 24.79543,24.79543 0 0 1 27.55933,-28.76172 79.86812,79.86812 0 0 1 9.91284,1.9541 v 0 a 24.59627,24.59627 0 0 1 18.582,24.46778 c -0.47485,18.1543 3.21142,40.80566 4.81836,49.70117 a 4.5186,4.5186 0 0 1 -0.83374,3.51074 4.39222,4.39222 0 0 1 -3.09546,1.75 c -17.80811,1.81739 -37.01221,10.502 -46.87451,15.5166 a 4.50062,4.50062 0 0 1 -2.04956,0.501 4.42884,4.42884 0 0 1 -2.60593,-0.85842 z"
     id="path90"
     inkscape:connector-curvature="0"
     style="fill:#cccccc" />
  <path
     d="m 179.09444,247.49075 a 4.4709,4.4709 0 0 1 -2.47363,-2.39746 l -9.9314,-22.94239 a 11.49973,11.49973 0 1 1 21.10718,-9.13574 l 9.93164,22.94239 a 4.5057,4.5057 0 0 1 -2.342,5.917 l -12.8479,5.56152 a 4.46851,4.46851 0 0 1 -3.44385,0.0547 z"
     id="path92"
     inkscape:connector-curvature="0"
     style="fill:#cccccc" />
  <circle
     cx="151.34193"
     cy="165.89352"
     r="24.561029"
     id="circle94"
     style="fill:#a0616a" />
  <path
     d="m 136.49919,187.7142 a 3.97442,3.97442 0 0 1 -5.69016,0.32692 44.42586,44.42586 0 0 1 -12.67228,-16.54878 c -3.19306,-7.611 -3.661,-16.899 -0.027,-24.03305 3.072,-6.03078 8.58662,-9.86968 14.09195,-13.00724 a 22.99346,22.99346 0 0 1 6.84781,-2.89428 8.9936,8.9936 0 0 1 7.154,1.40677 7.54425,7.54425 0 0 1 2.878,7.22724 22.35408,22.35408 0 0 1 9.80208,-7.35654 11.36522,11.36522 0 0 1 7.55375,-0.50594 c 3.53554,1.18009 6.15253,4.75026 7.60882,8.58606 a 19.14072,19.14072 0 0 1 1.25546,9.26372 11.12859,11.12859 0 0 1 -4.2691,7.67143 c -2.88387,1.98988 -6.59927,1.78778 -9.95313,0.90708 -3.35386,-0.8807 -6.60888,-2.37392 -10.02126,-2.79024 -3.41238,-0.41632 -7.19422,0.4863 -9.22732,3.52991 -1.43176,2.14338 -1.7693,4.96687 -2.06144,7.65827 l -1.51947,13.99863 a 18.54776,18.54776 0 0 1 -1.27762,5.83956 3.25061,3.25061 0 0 1 -0.47309,0.72048 z"
     id="path96"
     inkscape:connector-curvature="0"
     style="fill:#2f2e41" />
  <path
     d="M 225.33662,338.98446 H 185.4641 a 4.24661,4.24661 0 0 1 -3.35526,-1.62624 4.31805,4.31805 0 0 1 -0.80709,-3.70456 102.32847,102.32847 0 0 0 -3e-4,-47.52515 4.31916,4.31916 0 0 1 0.80739,-3.70456 4.24661,4.24661 0 0 1 3.35526,-1.62624 h 39.87252 a 4.30257,4.30257 0 0 1 4.2371,3.6057 167.50643,167.50643 0 0 1 0,50.97535 4.30257,4.30257 0 0 1 -4.2371,3.6057 z"
     id="path98"
     inkscape:connector-curvature="0"
     style="fill:#cccccc" />
  <path
     d="m 194.73418,302.47432 v -1.17188 a 3.00328,3.00328 0 0 1 3,-3 h 20.92358 a 3.00328,3.00328 0 0 1 3,3 v 1.17188 a 3.00328,3.00328 0 0 1 -3,3 h -20.92358 a 3.00328,3.00328 0 0 1 -3,-3 z"
     id="path100"
     inkscape:connector-curvature="0"
     style="fill:#ffffff" />
  <path
     d="m 194.73418,314.81904 v -1.17236 a 3.00328,3.00328 0 0 1 3,-3 h 20.92358 a 3.00328,3.00328 0 0 1 3,3 v 1.17236 a 3.00328,3.00328 0 0 1 -3,3 h -20.92358 a 3.00328,3.00328 0 0 1 -3,-3 z"
     id="path102"
     inkscape:connector-curvature="0"
     style="fill:#ffffff" />
  <path
     d="m 207.59656,266.73133 a 4.39088,4.39088 0 0 1 -0.82066,-3.766 104.00137,104.00137 0 0 0 -3e-4,-48.30591 4.392,4.392 0 0 1 0.821,-3.766 4.31762,4.31762 0 0 1 3.41038,-1.65235 h 40.52726 a 4.37255,4.37255 0 0 1 4.30671,3.66494 170.23877,170.23877 0 0 1 0,51.81279 4.37255,4.37255 0 0 1 -4.30671,3.66494 h -40.5273 a 4.31762,4.31762 0 0 1 -3.41038,-1.65241 z"
     id="path104"
     inkscape:connector-curvature="0"
     style="fill:#ff7a5c" />
  <path
     d="m 243.71359,231.06279 h -21.34935 a 3.00328,3.00328 0 0 1 -3,-3 v -1.27393 a 3.00328,3.00328 0 0 1 3,-3 h 21.34936 a 3.00328,3.00328 0 0 1 3,3 v 1.27393 a 3.00328,3.00328 0 0 1 -3.00001,3 z"
     id="path106"
     inkscape:connector-curvature="0"
     style="fill:#ffffff" />
  <path
     d="m 243.71359,243.6102 h -21.34935 a 3.00328,3.00328 0 0 1 -3,-3 v -1.274 a 3.00328,3.00328 0 0 1 3,-3 h 21.34936 a 3.00328,3.00328 0 0 1 3,3 v 1.274 a 3.00328,3.00328 0 0 1 -3.00001,3 z"
     id="path108"
     inkscape:connector-curvature="0"
     style="fill:#ffffff" />
  <path
     d="m 189.00165,288.72946 a 11.01879,11.01879 0 0 1 -6.53393,-6.15771 10.25939,10.25939 0 0 1 -0.35913,-1.019 l -52.322,-14.89307 a 10.88006,10.88006 0 0 1 -7.86109,-10.34277 l -0.12768,-20.20166 19.28589,0.51611 1.25683,12.13428 44.7407,20.08687 a 10.56725,10.56725 0 0 1 1.31153,-0.66455 h 2.4e-4 a 11.01,11.01 0 1 1 0.60864,20.5415 z"
     id="path110"
     inkscape:connector-curvature="0"
     style="fill:#a0616a" />
  <path
     d="m 122.09781,244.9839 a 4.47088,4.47088 0 0 1 -1.11986,-3.25769 l 1.534,-24.95261 a 11.49972,11.49972 0 1 1 22.956,1.41237 l -1.53371,24.95271 a 4.5057,4.5057 0 0 1 -4.76751,4.21507 l -13.97358,-0.85916 a 4.46853,4.46853 0 0 1 -3.09531,-1.51069 z"
     id="path112"
     inkscape:connector-curvature="0"
     style="fill:#cccccc" />
  <path
     d="M 183.73762,108.8476 H 101.73761 A 9.01031,9.01031 0 0 1 92.737614,99.847605 V 10.847603 a 9.0103,9.0103 0 0 1 8.999996,-8.9999998 h 82.00001 a 9.01031,9.01031 0 0 1 9,8.9999998 v 89.000002 a 9.01032,9.01032 0 0 1 -9,8.999995 z M 101.73761,3.8476032 a 7.00785,7.00785 0 0 0 -6.999996,6.9999998 v 89.000002 a 7.00786,7.00786 0 0 0 6.999996,6.999995 h 82.00001 a 7.00787,7.00787 0 0 0 7,-6.999995 V 10.847603 a 7.00786,7.00786 0 0 0 -7,-6.9999998 z"
     id="path114"
     inkscape:connector-curvature="0"
     style="fill:#3f3d56" />
  <path
     d="m 333.73762,108.8476 h -82 a 9.01031,9.01031 0 0 1 -9,-8.999995 V 10.847603 a 9.0103,9.0103 0 0 1 9,-8.9999998 h 82 a 9.01031,9.01031 0 0 1 9,8.9999998 v 89.000002 a 9.01032,9.01032 0 0 1 -9,8.999995 z m -82,-104.9999968 a 7.00785,7.00785 0 0 0 -7,6.9999998 v 89.000002 a 7.00786,7.00786 0 0 0 7,6.999995 h 82 a 7.00787,7.00787 0 0 0 7,-6.999995 V 10.847603 a 7.00786,7.00786 0 0 0 -7,-6.9999998 z"
     id="path116"
     inkscape:connector-curvature="0"
     style="fill:#3f3d56" />
  <path
     d="m 118.25264,38.847603 h -8 a 4.505,4.505 0 0 1 -4.50001,-4.5 v -8 a 4.505,4.505 0 0 1 4.50001,-4.5 h 8 a 4.505,4.505 0 0 1 4.5,4.5 v 8 a 4.505,4.505 0 0 1 -4.5,4.5 z"
     id="path118"
     inkscape:connector-curvature="0"
     style="fill:#ff7a5c" />
  <path
     d="m 118.25264,63.847603 h -8 a 4.505,4.505 0 0 1 -4.50001,-4.5 v -8 a 4.505,4.505 0 0 1 4.50001,-4.5 h 8 a 4.505,4.505 0 0 1 4.5,4.5 v 8 a 4.505,4.505 0 0 1 -4.5,4.5 z"
     id="path120"
     inkscape:connector-curvature="0"
     style="fill:#cccccc" />
  <path
     d="m 176.72259,33.984563 h -37.34935 a 3.00328,3.00328 0 0 1 -3,-3 v -1.27393 a 3.00328,3.00328 0 0 1 3,-3 h 37.34936 a 3.00328,3.00328 0 0 1 3,3 v 1.27393 a 3.00328,3.00328 0 0 1 -3.00001,3 z"
     id="path122"
     inkscape:connector-curvature="0"
     style="fill:#ff7a5c" />
  <path
     d="m 268.94234,32.012897 h -8 a 4.505,4.505 0 0 1 -4.5,-4.5 v -8 a 4.505,4.505 0 0 1 4.5,-4.5 h 8 a 4.505,4.505 0 0 1 4.5,4.5 v 8 a 4.505,4.505 0 0 1 -4.5,4.5 z"
     id="path124"
     inkscape:connector-curvature="0"
     style="fill:#cccccc" />
  <path
     d="m 327.4123,27.149857 h -37.34937 a 3.00328,3.00328 0 0 1 -3,-3 v -1.27393 a 3.00329,3.00329 0 0 1 3,-3 h 37.34937 a 3.00329,3.00329 0 0 1 3,3 v 1.27393 a 3.00328,3.00328 0 0 1 -3,3 z"
     id="path126"
     inkscape:connector-curvature="0"
     style="fill:#cccccc" />
  <path
     d="m 327.4123,51.149857 h -69.34937 a 3.00328,3.00328 0 0 1 -3,-3 v -1.27393 a 3.00329,3.00329 0 0 1 3,-3 h 69.34937 a 3.00329,3.00329 0 0 1 3,3 v 1.27393 a 3.00328,3.00328 0 0 1 -3,3 z"
     id="path128"
     inkscape:connector-curvature="0"
     style="fill:#ff7a5c" />
  <path
     d="m 327.4123,73.416083 h -69.34937 a 3.00328,3.00328 0 0 1 -3,-3 v -1.27393 a 3.00329,3.00329 0 0 1 3,-3 h 69.34937 a 3.00329,3.00329 0 0 1 3,3 v 1.27393 a 3.00328,3.00328 0 0 1 -3,3 z"
     id="path130"
     inkscape:connector-curvature="0"
     style="fill:#cccccc" />
  <path
     d="m 327.4123,90.416083 h -69.34937 a 3.00328,3.00328 0 0 1 -3,-3 v -1.27393 a 3.00329,3.00329 0 0 1 3,-3 h 69.34937 a 3.00329,3.00329 0 0 1 3,3 v 1.27393 a 3.00328,3.00328 0 0 1 -3,3 z"
     id="path132"
     inkscape:connector-curvature="0"
     style="fill:#cccccc" />
  <path
     d="m 483.73762,108.8476 h -82 a 9.01031,9.01031 0 0 1 -9,-8.999995 V 10.847603 a 9.0103,9.0103 0 0 1 9,-8.9999998 h 82 a 9.01031,9.01031 0 0 1 9,8.9999998 v 89.000002 a 9.01032,9.01032 0 0 1 -9,8.999995 z m -82,-104.9999968 a 7.00785,7.00785 0 0 0 -7,6.9999998 v 89.000002 a 7.00786,7.00786 0 0 0 7,6.999995 h 82 a 7.00787,7.00787 0 0 0 7,-6.999995 V 10.847603 a 7.00786,7.00786 0 0 0 -7,-6.9999998 z"
     id="path134"
     inkscape:connector-curvature="0"
     style="fill:#3f3d56" />
  <path
     d="m 477.4123,30.309593 h -37.34937 a 3.00328,3.00328 0 0 1 -3,-3 v -1.27393 a 3.00329,3.00329 0 0 1 3,-3 h 37.34937 a 3.00329,3.00329 0 0 1 3,3 v 1.27393 a 3.00328,3.00328 0 0 1 -3,3 z"
     id="path136"
     inkscape:connector-curvature="0"
     style="fill:#cccccc" />
  <path
     d="m 477.4123,54.309593 h -69.34937 a 3.00328,3.00328 0 0 1 -3,-3 v -1.27393 a 3.00329,3.00329 0 0 1 3,-3 h 69.34937 a 3.00329,3.00329 0 0 1 3,3 v 1.27393 a 3.00328,3.00328 0 0 1 -3,3 z"
     id="path138"
     inkscape:connector-curvature="0"
     style="fill:#cccccc" />
  <path
     d="m 477.4123,73.416083 h -69.34937 a 3.00328,3.00328 0 0 1 -3,-3 v -1.27393 a 3.00329,3.00329 0 0 1 3,-3 h 69.34937 a 3.00329,3.00329 0 0 1 3,3 v 1.27393 a 3.00328,3.00328 0 0 1 -3,3 z"
     id="path140"
     inkscape:connector-curvature="0"
     style="fill:#cccccc" />
  <path
     d="m 477.4123,90.416083 h -69.34937 a 3.00328,3.00328 0 0 1 -3,-3 v -1.27393 a 3.00329,3.00329 0 0 1 3,-3 h 69.34937 a 3.00329,3.00329 0 0 1 3,3 v 1.27393 a 3.00328,3.00328 0 0 1 -3,3 z"
     id="path142"
     inkscape:connector-curvature="0"
     style="fill:#cccccc" />
  <path
     d="m 176.72259,58.984563 h -37.34935 a 3.00328,3.00328 0 0 1 -3,-3 v -1.27393 a 3.00328,3.00328 0 0 1 3,-3 h 37.34936 a 3.00328,3.00328 0 0 1 3,3 v 1.27393 a 3.00328,3.00328 0 0 1 -3.00001,3 z"
     id="path144"
     inkscape:connector-curvature="0"
     style="fill:#cccccc" />
  <path
     d="m 118.25264,88.847603 h -8 a 4.505,4.505 0 0 1 -4.50001,-4.5 v -8 a 4.505,4.505 0 0 1 4.50001,-4.5 h 8 a 4.505,4.505 0 0 1 4.5,4.5 v 8 a 4.505,4.505 0 0 1 -4.5,4.5 z"
     id="path146"
     inkscape:connector-curvature="0"
     style="fill:#cccccc" />
  <path
     d="m 176.72259,83.984563 h -37.34935 a 3.00328,3.00328 0 0 1 -3,-3 v -1.27393 a 3.00328,3.00328 0 0 1 3,-3 h 37.34936 a 3.00328,3.00328 0 0 1 3,3 v 1.27393 a 3.00328,3.00328 0 0 1 -3.00001,3 z"
     id="path148"
     inkscape:connector-curvature="0"
     style="fill:#cccccc" />
  <path
     d="m 423.73424,25.741113 c 0,-0.02307 0.003,-0.04535 0.003,-0.06848 a 8.99989,8.99989 0 0 0 -9,-9 v 9.06848 z"
     id="path150"
     inkscape:connector-curvature="0"
     style="fill:#ff7a5c" />
  <path
     d="m 413.73762,26.741113 v -9.06848 a 9,9 0 1 0 8.99658,9.06848 z"
     id="path152"
     inkscape:connector-curvature="0"
     style="fill:#cccccc" />
</svg>
