<?xml version="1.0" encoding="UTF-8" standalone="no"?>
<svg
   xmlns:dc="http://purl.org/dc/elements/1.1/"
   xmlns:cc="http://creativecommons.org/ns#"
   xmlns:rdf="http://www.w3.org/1999/02/22-rdf-syntax-ns#"
   xmlns:svg="http://www.w3.org/2000/svg"
   xmlns="http://www.w3.org/2000/svg"
   xmlns:sodipodi="http://sodipodi.sourceforge.net/DTD/sodipodi-0.dtd"
   xmlns:inkscape="http://www.inkscape.org/namespaces/inkscape"
   id="bf042621-51ff-4860-a13c-709397cb72f6"
   data-name="Layer 1"
   width="200"
   height="200"
   viewBox="0 0 200 200"
   version="1.1"
   sodipodi:docname="assembleia.svg"
   inkscape:version="0.92.3 (2405546, 2018-03-11)">
  <metadata
     id="metadata159">
    <rdf:RDF>
      <cc:Work
         rdf:about="">
        <dc:format>image/svg+xml</dc:format>
        <dc:type
           rdf:resource="http://purl.org/dc/dcmitype/StillImage" />
        <dc:title></dc:title>
      </cc:Work>
    </rdf:RDF>
  </metadata>
  <defs
     id="defs157" />
  <sodipodi:namedview
     pagecolor="#ffffff"
     bordercolor="#666666"
     borderopacity="1"
     objecttolerance="10"
     gridtolerance="10"
     guidetolerance="10"
     inkscape:pageopacity="0"
     inkscape:pageshadow="2"
     inkscape:window-width="1920"
     inkscape:window-height="1015"
     id="namedview155"
     showgrid="false"
     fit-margin-top="0"
     fit-margin-left="0"
     fit-margin-right="0"
     fit-margin-bottom="0"
     inkscape:zoom="2.6854404"
     inkscape:cx="97.475018"
     inkscape:cy="129.10993"
     inkscape:window-x="0"
     inkscape:window-y="28"
     inkscape:window-maximized="1"
     inkscape:current-layer="bf042621-51ff-4860-a13c-709397cb72f6" />
  <path
     d="m 177.93939,138.6737 h -20.24182 c 0,0.54376 -20.86169,0.98507 -20.86169,0.98507 a 5.4218338,5.0670345 0 0 0 -0.88956,0.78805 5.2324172,4.8900134 0 0 0 -1.22286,3.15224 v 0.78805 a 5.272176,4.9271704 0 0 0 5.27023,4.92535 h 37.94568 a 5.2748152,4.9296369 0 0 0 5.27024,-4.92535 v -0.78805 a 5.2775431,4.9321862 0 0 0 -5.27022,-4.92536 z"
     id="path34"
     inkscape:connector-curvature="0"
     style="fill:#3f3d56;stroke-width:0.40759006" />
  <rect
     x="156.43481"
     y="149.11679"
     width="5.4810414"
     height="33.098377"
     id="rect36"
     style="fill:#3f3d56;stroke-width:0.40759006" />
  <path
     d="m 177.51574,182.03522 c 0,0.55345 -8.30565,0.21407 -18.55121,0.21407 -10.24555,0 -18.55122,0.33938 -18.55122,-0.21407 0,-0.55346 8.30567,-4.94241 18.55122,-4.94241 10.24556,0 18.55121,4.38894 18.55121,4.94241 z"
     id="path38"
     inkscape:connector-curvature="0"
     style="fill:#3f3d56;stroke-width:0.40759006" />
  <polygon
     points="629.102,392.969 629.1,440.257 616.84,440.256 611.007,392.968 "
     id="polygon40"
     transform="matrix(0.42161858,0,0,0.3940283,-133.68486,4.2082382)"
     style="fill:#ffb8b8" />
  <path
     d="m 122.6941,176.30135 h 9.96868 v 5.86584 h -16.24526 v 0 a 6.2765853,5.8658522 0 0 1 6.27658,-5.86584 z"
     id="path42"
     inkscape:connector-curvature="0"
     style="fill:#2f2e41;stroke-width:0.40759006" />
  <polygon
     points="624.121,388.296 609.962,433.414 598.265,429.743 606.857,382.878 "
     id="polygon44"
     transform="matrix(0.42161858,0,0,0.3940283,-133.68486,4.2082382)"
     style="fill:#ffb8b8" />
  <path
     d="m 115.47414,171.18926 9.51133,2.78949 -1.87931,5.59672 -15.49998,-4.54582 v 0 a 6.276581,5.8658482 0 0 1 7.86796,-3.84039 z"
     id="path46"
     inkscape:connector-curvature="0"
     style="fill:#2f2e41;stroke-width:0.40759006" />
  <path
     d="m 164.09611,135.44376 a 15.967083,14.922215 0 0 0 -0.64086,-2.76608 l -0.96551,-1.13479 -2.51284,-2.94734 -0.10947,0.004 c -0.1857,0.007 -0.9573,0.0473 -2.15032,0.13403 h -0.013 c -0.73782,0.0551 -1.64015,0.12609 -2.66455,0.2167 -0.26991,0.0276 -0.55236,0.0513 -0.84324,0.0789 v 4.11365 h 5.27023 a 1.0559015,0.98680449 0 0 1 1.04561,0.85899 c 0.005,0.0433 0.009,0.0827 0.009,0.12609 a 1.0544681,0.98546479 0 0 1 -1.05404,0.98507 h -30.60957 a 11.976329,11.19261 0 0 0 -1.12157,0.78806 6.2743464,5.8637598 0 0 0 -2.2135,3.09706 c -1.78755,7.34469 -5.04665,21.04112 -6.00805,25.06417 a 1.9133727,1.7881635 0 0 0 0.56923,1.68644 1.8703634,1.7479687 0 0 0 0.61985,0.35857 l 3.80301,1.33181 a 2.0207883,1.8885501 0 0 0 0.48482,0.10644 c 0.0211,0 0.038,0.004 0.0591,0.004 a 1.1019002,1.029793 0 0 0 0.11792,0.004 1.9108261,1.7857835 0 0 0 1.77502,-1.14269 l 3.00197,-7.36046 4.62525,-11.34801 1.82976,-4.48798 c 2.12064,0.46495 19.91304,4.14518 25.87046,-1.78495 a 6.7743946,6.3310851 0 0 0 1.36615,-2.01351 8.7703537,8.196431 0 0 0 0.45947,-3.9718 z"
     id="path48"
     inkscape:connector-curvature="0"
     style="fill:#2f2e41;stroke-width:0.40759006" />
  <path
     d="m 169.25662,136.51551 c -0.0926,-0.35069 -0.19804,-0.7132 -0.32034,-1.07964 l -3.47835,-4.08214 -0.10947,0.004 c -0.21947,0.0112 -1.26075,0.063 -2.8587,0.1852 -1.81287,0.14179 -4.3469,0.37038 -7.19284,0.72895 -0.0842,0.007 -0.17271,0.0197 -0.25712,0.0316 -0.27834,0.0353 -0.5608,0.0709 -0.84324,0.11018 v 0.72897 h 5.27023 a 1.0559015,0.98680449 0 0 1 1.04562,0.85897 c 0.005,0.0433 0.009,0.0827 0.009,0.1261 a 1.0544681,0.98546479 0 0 1 -1.05402,0.98508 h -18.6275 c -0.81359,0.24822 -1.59793,0.50828 -2.34834,0.78804 -3.93786,1.4579 -6.88508,3.36894 -7.48806,5.85527 -0.20237,0.83533 -0.42574,1.75341 -0.66188,2.73061 -0.87699,3.63295 -1.9436,8.08153 -2.90912,12.12426 v 0.004 c -0.19825,0.83535 -0.3963,1.64704 -0.58609,2.43509 -0.80536,3.38865 -1.48823,6.26112 -1.85098,7.77024 -0.009,0.0433 -0.0167,0.0827 -0.0253,0.1261 v 0.007 a 1.9677403,1.8389735 0 0 0 0.1182,0.90232 l 0.004,0.004 v 0.004 a 1.8676818,1.7454627 0 0 0 0.54823,0.70532 1.9365953,1.8098666 0 0 0 0.5439,0.29552 l 3.80298,1.33182 a 1.9312239,1.8048466 0 0 0 0.66188,0.11418 1.8698784,1.7475155 0 0 0 0.90643,-0.2167 1.8977051,1.7735214 0 0 0 0.86855,-0.92597 l 8.18781,-20.07969 1.26917,-3.11675 c 2.12065,0.46494 19.91306,4.14122 25.87046,-1.78495 a 7.1215848,6.6555558 0 0 0 1.88886,-4.36191 12.516211,11.697164 0 0 0 -0.38372,-3.30981 z"
     id="path50"
     inkscape:connector-curvature="0"
     style="fill:#2f2e41;stroke-width:0.40759006" />
  <path
     d="m 168.78867,101.75436 c -0.0674,-0.0749 -0.13911,-0.14973 -0.21492,-0.22066 a 10.317913,9.6427198 0 0 0 -8.84143,-2.911886 33.460431,31.270816 0 0 0 -4.17831,0.768371 10.532453,9.8432212 0 0 0 -4.71357,2.470535 10.293493,9.6198978 0 0 0 -3.12426,7.17131 c 0.0169,0.53983 0.0211,1.09146 0.0132,1.65099 0,0.26005 -0.005,0.52406 -0.009,0.78805 h 4.1571 a 2.243032,2.0962503 0 0 1 0.53546,0.0592 2.32354,2.17149 0 0 1 1.78346,2.10805 v 18.33019 c 0.28245,0.0749 0.5649,0.14972 0.84323,0.22851 0.0886,0.0276 0.17293,0.0513 0.25714,0.0749 0.0969,0.0276 0.19394,0.0552 0.28677,0.0827 q 1.28369,0.37236 2.50851,0.78807 h 1.37458 a 1.0559015,0.98680449 0 0 1 1.04562,0.85897 c 0.28676,0.10644 0.5649,0.21277 0.83891,0.31918 0.97396,0.37825 1.89729,0.75652 2.74484,1.12295 1.14259,0.48862 2.15874,0.95357 3.01041,1.35941 a 1.9340447,1.8074826 0 0 0 0.86425,0.19701 1.8568083,1.7353006 0 0 0 1.09624,-0.33885 2.3319724,2.1793706 0 0 0 0.18959,-0.14576 1.899181,1.7749005 0 0 0 0.57768,-1.56824 54.003885,50.469928 0 0 1 -0.37942,-9.33846 c 0.11791,-2.62031 0.37098,-5.30758 0.69997,-7.90422 0.17703,-1.40667 0.37508,-2.78578 0.58178,-4.11364 0.19824,-1.26878 0.40905,-2.48632 0.61556,-3.63688 a 10.374769,9.6958545 0 0 0 -2.5635,-8.19969 z"
     id="path52"
     inkscape:connector-curvature="0"
     style="fill:#ff7a5c;stroke-width:0.40759006" />
  <path
     d="m 151.50665,102.07746 a 4.9999326,4.6727422 0 0 0 -0.66621,-0.21673 4.848015,4.530766 0 0 0 -5.7087,2.573 l -2.89658,6.2493 -0.36253,0.78805 h 10.005 a 2.243032,2.0962503 0 0 1 0.53547,0.0592 l 0.33721,-0.72895 1.28171,-2.76609 a 4.8534665,4.5358608 0 0 0 -2.52537,-5.95769 z"
     id="path54"
     inkscape:connector-curvature="0"
     style="fill:#ff7a5c;stroke-width:0.40759006" />
  <ellipse
     cx="160.50223"
     cy="85.867271"
     id="circle56"
     style="fill:#ffb8b8;stroke-width:0.40759006"
     rx="10.355387"
     ry="9.6777411" />
  <path
     d="m 170.7366,113.59095 -5.91108,0.14973 -0.43006,3.88117 -0.0969,0.89839 -9.25875,3.88511 -0.84324,0.35463 v 6.90731 l 0.84324,-0.22459 2.66457,-0.70925 h 0.0131 l 11.7378,-3.12464 0.1349,-0.0356 a 4.5867887,4.2866339 0 0 0 3.31408,-4.0782 l 0.0296,-4.58253 0.0253,-3.37683 z"
     id="path58"
     inkscape:connector-curvature="0"
     style="fill:#ffb8b8;stroke-width:0.40759006" />
  <path
     d="m 172.6592,105.91528 a 4.8492997,4.5319666 0 0 0 -9.68036,0.55558 l 0.64499,9.83494 a 1.8915454,1.7677646 0 0 0 0.7716,1.31605 1.8700471,1.7476732 0 0 0 1.23953,0.34281 l 4.51984,-0.26006 1.37027,-0.0789 a 1.8487975,1.7278141 0 0 0 1.30705,-0.59495 1.3224531,1.2359131 0 0 0 0.10109,-0.11818 1.884184,1.760885 0 0 0 0.37098,-1.16633 z"
     id="path60"
     inkscape:connector-curvature="0"
     style="fill:#ff7a5c;stroke-width:0.40759006" />
  <path
     d="m 155.58366,132.35456 h -0.54389 v -0.0513 c -0.27834,0.0353 -0.56078,0.0709 -0.84325,0.11018 v 0.72896 h 3.89565 q -1.22688,-0.41374 -2.50851,-0.78806 z m 0,0 h -0.54389 v -0.0513 c -0.27834,0.0353 -0.56078,0.0709 -0.84325,0.11018 v 0.72896 h 3.89565 q -1.22688,-0.41374 -2.50851,-0.78806 z m 3.88311,0 h -4.427 v -18.71633 a 3.1666886,2.9594637 0 0 0 -2.28946,-2.837 2.9727946,2.7782581 0 0 0 -0.87269,-0.11817 h -37.52404 a 3.1659592,2.9587823 0 0 0 -3.16214,2.95522 v 19.30737 a 3.1632525,2.9562526 0 0 0 3.16214,2.95521 h 45.11319 a 1.8992147,1.7749321 0 0 0 1.88453,-1.58004 1.6456237,1.5379359 0 0 0 0.0131,-0.19308 1.9001549,1.7758107 0 0 0 -1.89729,-1.77313 z m 1.05405,1.77315 a 1.0544681,0.98546479 0 0 1 -1.05405,0.98507 h -45.11319 a 2.3202683,2.1684324 0 0 1 -2.3189,-2.16718 v -19.30737 a 2.3202851,2.168448 0 0 1 2.3189,-2.16715 h 37.52404 a 2.243032,2.0962503 0 0 1 0.53547,0.0592 2.32354,2.17149 0 0 1 1.78343,2.10806 v 19.5044 h 5.27025 a 1.0559015,0.98680449 0 0 1 1.0456,0.85897 c 0.005,0.0433 0.009,0.0827 0.009,0.1261 z m -4.93716,-1.77315 h -0.54389 v -0.0513 c -0.27834,0.0353 -0.56078,0.0709 -0.84325,0.11018 v 0.72896 h 3.89565 q -1.22688,-0.41374 -2.50851,-0.78806 z"
     id="path62"
     inkscape:connector-curvature="0"
     style="fill:#3f3d56;stroke-width:0.40759006" />
  <ellipse
     cx="133.11432"
     cy="123.2925"
     id="circle64"
     style="fill:#ff7a5c;stroke-width:0.40759006"
     rx="2.5297117"
     ry="2.3641698" />
  <path
     d="m 158.29114,82.028343 c -2.40525,2.008113 -5.63015,4.163496 -8.57537,2.692288 -1.93391,-0.966023 -2.7949,-3.084481 -2.34324,-5.089852 0.81223,-3.606239 4.14808,-5.554764 7.37797,-7.129892 4.19884,-2.047655 8.83235,-3.833352 13.5341,-3.301014 4.70175,0.532339 9.29551,4.163212 9.07349,8.584542 -0.17854,3.555549 -3.28526,6.872502 -2.30182,10.311253 0.98976,3.460843 5.48463,4.800992 9.31314,4.977047 3.82853,0.176057 8.04306,-0.128948 11.08014,2.056602 3.87433,2.788141 3.8123,8.618243 1.0542,12.391833 -2.75809,3.77359 -7.41563,5.89698 -11.99032,7.51117 -6.06119,2.13869 -12.72334,3.68395 -18.97988,2.1116 -6.25651,-1.57236 -11.73379,-7.18201 -10.81612,-13.17582 0.38763,-2.53176 1.81287,-4.804448 3.18828,-7.015523 1.37541,-2.211075 2.75888,-4.516565 3.0477,-7.059825 0.24068,-2.119394 -0.47967,-4.458969 -2.15226,-5.824193 a 1.8707217,1.7483036 0 0 1 -0.52972,-1.996552 z"
     id="path66"
     inkscape:connector-curvature="0"
     style="fill:#2f2e41;stroke-width:0.40759006" />
  <path
     d="m 11.252682,143.18404 v 0.78805 a 5.2748152,4.9296369 0 0 0 5.270235,4.92535 h 37.945685 a 5.272176,4.9271704 0 0 0 5.270221,-4.92535 v -0.78805 a 5.2324172,4.8900134 0 0 0 -1.222858,-3.15224 5.4218338,5.0670345 0 0 0 -0.889561,-0.78804 c 0,0 -20.861676,-0.44132 -20.861676,-0.98508 H 16.522917 a 5.2775431,4.9321862 0 0 0 -5.270235,4.92536 z"
     id="path70"
     inkscape:connector-curvature="0"
     style="fill:#3f3d56;stroke-width:0.40759006" />
  <rect
     x="-38.027493"
     y="-181.80014"
     width="5.4810414"
     height="33.098377"
     transform="scale(-1)"
     id="rect72"
     style="fill:#3f3d56;stroke-width:0.40759006" />
  <path
     d="m 16.946563,181.6202 c 0,0.55347 8.305656,0.21407 18.551223,0.21407 10.245552,0 18.551208,0.3394 18.551208,-0.21407 0,-0.55346 -8.305656,-4.94241 -18.551208,-4.94241 -10.245567,0 -18.551223,4.38894 -18.551223,4.94241 z"
     id="path74"
     inkscape:connector-curvature="0"
     style="fill:#3f3d56;stroke-width:0.40759006" />
  <polygon
     points="175.79,441.018 181.622,393.73 163.528,393.731 163.53,441.018 "
     id="polygon76"
     transform="matrix(0.42161858,0,0,0.3940283,-5.793354,3.7932262)"
     style="fill:#a0616a" />
  <path
     d="m 78.291861,182.05198 -16.24527,8e-4 -2.9e-4,-5.86587 9.968682,-3.8e-4 a 6.2765853,5.8658522 0 0 1 6.276878,5.86557 v 0 z"
     id="path78"
     inkscape:connector-curvature="0"
     style="fill:#2f2e41;stroke-width:0.40759006" />
  <polygon
     points="194.365,430.505 185.773,383.64 168.509,389.058 182.668,434.176 "
     id="polygon80"
     transform="matrix(0.42161858,0,0,0.3940283,-5.793354,3.7932262)"
     style="fill:#a0616a" />
  <path
     d="m 87.103075,174.91478 -15.49996,4.54581 -1.879316,-5.59675 9.51135,-2.78948 a 6.276581,5.8658482 0 0 1 7.86794,3.84042 v 0 z"
     id="path82"
     inkscape:connector-curvature="0"
     style="fill:#2f2e41;stroke-width:0.40759006" />
  <path
     d="m 67.76475,166.29485 -9.455764,-23.19688 c -2.121378,0.46561 -19.911593,4.14462 -25.870043,-1.78427 -2.042021,-2.0321 -2.440269,-4.97615 -1.183753,-8.7506 l 3.477333,-4.08381 0.108039,0.005 c 1.314774,0.0648 32.226537,1.68387 34.345548,10.39789 1.786629,7.34648 5.049533,21.04319 6.006936,25.0662 a 1.9039199,1.7793295 0 0 1 -1.186439,2.04248 l -3.802702,1.33255 a 1.8812621,1.7581542 0 0 1 -0.662789,0.1128 1.9027647,1.7782498 0 0 1 -1.776406,-1.14168 z"
     id="path84"
     inkscape:connector-curvature="0"
     style="fill:#2f2e41;stroke-width:0.40759006" />
  <path
     d="m 62.283702,169.05306 -9.455765,-23.1969 c -2.121465,0.46561 -19.911592,4.14423 -25.870043,-1.78427 -2.042006,-2.0321 -2.440255,-4.97615 -1.183738,-8.75057 l 3.477319,-4.08382 0.108039,0.005 c 1.314789,0.0648 32.226553,1.68385 34.345549,10.39788 1.786629,7.34647 5.049547,21.04318 6.006935,25.0662 a 1.9039199,1.7793295 0 0 1 -1.186439,2.04249 l -3.802687,1.33253 a 1.8812621,1.7581542 0 0 1 -0.662789,0.1128 1.9027647,1.7782498 0 0 1 -1.776422,-1.14167 z"
     id="path86"
     inkscape:connector-curvature="0"
     style="fill:#2f2e41;stroke-width:0.40759006" />
  <path
     d="m 53.778166,124.04798 a 8.093559,7.5639249 0 0 1 -6.950165,-3.69266 l -3.002996,-4.75431 7.137717,-3.6459 3.03073,3.88353 20.563839,-2.02479 a 4.4519887,4.1606552 0 0 1 0.336957,-0.48618 v 0 a 4.644407,4.3404819 0 0 1 3.319534,-1.69983 4.5928092,4.2922607 0 0 1 3.580664,1.18689 4.6473962,4.3432754 0 0 1 0.784168,5.34439 4.6393602,4.3357654 0 0 1 -6.793703,1.24155 4.3854783,4.0984973 0 0 1 -0.346946,-0.27591 l -19.69574,4.69315 a 7.9419492,7.4222364 0 0 1 -1.964059,0.23007 z"
     id="path88"
     inkscape:connector-curvature="0"
     style="fill:#a0616a;stroke-width:0.40759006" />
  <path
     d="m 25.640462,136.54611 a 1.9001927,1.7758462 0 0 1 -0.766758,-1.71349 c 1.173139,-7.22758 -0.17663,-17.5812 -1.515612,-24.99424 a 10.454214,9.7701012 0 0 1 11.619528,-11.332927 33.673883,31.4703 0 0 1 4.179446,0.769955 v 0 a 10.370245,9.6916267 0 0 1 7.834513,9.641002 c -0.200199,7.1533 1.353994,16.07859 2.031507,19.58366 a 1.9051258,1.7804564 0 0 1 -0.35152,1.38334 1.8518416,1.730659 0 0 1 -1.305103,0.68953 c -7.508231,0.7161 -15.605033,4.1381 -19.763162,6.11399 a 1.897545,1.7733716 0 0 1 -0.864134,0.19741 1.8672813,1.7450883 0 0 1 -1.098705,-0.33823 z"
     id="path90"
     inkscape:connector-curvature="0"
     style="fill:#cccccc;stroke-width:0.40759006" />
  <path
     d="m 45.908004,117.90403 a 1.8850146,1.7616613 0 0 1 -1.04293,-0.94467 l -4.187257,-9.03995 a 4.8485,4.5312191 0 1 1 8.899166,-3.59974 l 4.187373,9.03994 a 1.8996869,1.7753733 0 0 1 -0.98743,2.33148 l -5.41691,2.19139 a 1.8840069,1.7607194 0 0 1 -1.451997,0.0216 z"
     id="path92"
     inkscape:connector-curvature="0"
     style="fill:#cccccc;stroke-width:0.40759006" />
  <ellipse
     cx="34.207043"
     cy="85.752411"
     id="circle94"
     style="fill:#a0616a;stroke-width:0.40759006"
     rx="10.355387"
     ry="9.6777411" />
  <path
     d="m 27.949057,94.350373 a 1.6756894,1.566034 0 0 1 -2.399088,0.12879 18.730769,17.505047 0 0 1 -5.342869,-6.520692 c -1.346241,-2.998944 -1.543535,-6.658683 -0.01162,-9.469706 1.295214,-2.376292 3.620291,-3.888929 5.941433,-5.125221 a 9.6944701,9.0600742 0 0 1 2.887161,-1.140428 3.7918689,3.543733 0 0 1 3.016269,0.554306 3.180796,2.9726479 0 0 1 1.213419,2.84774 9.4248956,8.8081403 0 0 1 4.132731,-2.898686 4.791788,4.4782184 0 0 1 3.184811,-0.199355 c 1.490635,0.464993 2.594016,1.871742 3.208016,3.383157 a 8.0700833,7.5419856 0 0 1 0.529327,3.650174 4.6920203,4.3849794 0 0 1 -1.799929,3.022751 c -1.215903,0.784067 -2.782381,0.704446 -4.196435,0.357425 -1.414053,-0.34702 -2.786417,-0.935395 -4.225142,-1.099444 -1.438724,-0.164034 -3.033228,0.191615 -3.890407,1.390887 -0.603661,0.84456 -0.745979,1.95709 -0.869145,3.01758 l -0.640645,5.515858 a 7.8200802,7.3083424 0 0 1 -0.538664,2.300954 1.3705176,1.2808323 0 0 1 -0.199458,0.283878 z"
     id="path96"
     inkscape:connector-curvature="0"
     style="fill:#2f2e41;stroke-width:0.40759006" />
  <path
     d="M 65.404562,153.95513 H 48.593575 a 1.7904497,1.6732846 0 0 1 -1.414649,-0.64078 1.8205702,1.701434 0 0 1 -0.340281,-1.4597 43.143585,40.320314 0 0 0 -1.31e-4,-18.72626 1.8210381,1.7018712 0 0 1 0.340412,-1.45969 1.7904497,1.6732846 0 0 1 1.414649,-0.6408 h 16.810987 a 1.8140434,1.6953344 0 0 1 1.786441,1.42075 70.623824,66.002275 0 0 1 0,20.08572 1.8140434,1.6953344 0 0 1 -1.786441,1.42076 z"
     id="path98"
     inkscape:connector-curvature="0"
     style="fill:#cccccc;stroke-width:0.40759006" />
  <path
     d="m 52.502002,139.5691 v -0.46175 a 1.2662386,1.1833773 0 0 1 1.264868,-1.18208 h 8.821769 a 1.2662386,1.1833773 0 0 1 1.264851,1.18208 v 0.46175 a 1.2662386,1.1833773 0 0 1 -1.264851,1.18208 H 53.76687 a 1.2662386,1.1833773 0 0 1 -1.264868,-1.18208 z"
     id="path100"
     inkscape:connector-curvature="0"
     style="fill:#ffffff;stroke-width:0.40759006" />
  <path
     d="m 52.502002,144.43328 v -0.46195 a 1.2662386,1.1833773 0 0 1 1.264868,-1.18208 h 8.821769 a 1.2662386,1.1833773 0 0 1 1.264851,1.18208 v 0.46195 a 1.2662386,1.1833773 0 0 1 -1.264851,1.18208 H 53.76687 a 1.2662386,1.1833773 0 0 1 -1.264868,-1.18208 z"
     id="path102"
     inkscape:connector-curvature="0"
     style="fill:#ffffff;stroke-width:0.40759006" />
  <path
     d="m 57.925026,125.48535 a 1.8512766,1.7301311 0 0 1 -0.346003,-1.4839 43.848911,40.979485 0 0 0 -1.3e-4,-19.0339 1.8517488,1.7305723 0 0 1 0.346148,-1.4839 1.8203889,1.7012644 0 0 1 1.437882,-0.65107 h 17.087043 a 1.8435482,1.7229085 0 0 1 1.815787,1.44409 71.775829,67.078893 0 0 1 0,20.4157 1.8435482,1.7229085 0 0 1 -1.815787,1.44408 H 59.362908 a 1.8203889,1.7012644 0 0 1 -1.437882,-0.6511 z"
     id="path104"
     inkscape:connector-curvature="0"
     style="fill:#ff7a5c;stroke-width:0.40759006" />
  <path
     d="m 73.152633,111.43095 h -9.001276 a 1.2662386,1.1833773 0 0 1 -1.264852,-1.18209 v -0.50197 a 1.2662386,1.1833773 0 0 1 1.264852,-1.18208 h 9.00129 a 1.2662386,1.1833773 0 0 1 1.264852,1.18208 v 0.50197 a 1.2662386,1.1833773 0 0 1 -1.264866,1.18209 z"
     id="path106"
     inkscape:connector-curvature="0"
     style="fill:#ffffff;stroke-width:0.40759006" />
  <path
     d="m 73.152633,116.37497 h -9.001276 a 1.2662386,1.1833773 0 0 1 -1.264852,-1.18208 v -0.50199 a 1.2662386,1.1833773 0 0 1 1.264852,-1.18208 h 9.00129 a 1.2662386,1.1833773 0 0 1 1.264852,1.18208 v 0.50199 a 1.2662386,1.1833773 0 0 1 -1.264866,1.18208 z"
     id="path108"
     inkscape:connector-curvature="0"
     style="fill:#ffffff;stroke-width:0.40759006" />
  <path
     d="m 50.085067,134.15324 a 4.6457267,4.3417152 0 0 1 -2.754834,-2.42632 4.3255495,4.0424901 0 0 1 -0.151409,-0.4015 l -22.059935,-5.86831 a 4.5872355,4.2870517 0 0 1 -3.314381,-4.07534 l -0.05388,-7.96001 8.13129,0.20336 0.52991,4.78125 18.863507,7.91478 a 4.4553489,4.1637957 0 0 1 0.552968,-0.26185 h 1.02e-4 a 4.6420206,4.3382517 0 1 1 0.256612,8.09394 z"
     id="path110"
     inkscape:connector-curvature="0"
     style="fill:#a0616a;stroke-width:0.40759006" />
  <path
     d="m 21.877156,116.91626 a 1.8850061,1.7616533 0 0 1 -0.472145,-1.28362 l 0.646758,-9.83203 a 4.8484956,4.5312151 0 1 1 9.678673,0.55651 l -0.646641,9.83206 a 1.8996869,1.7753733 0 0 1 -2.010061,1.66085 l -5.891523,-0.33851 a 1.8840153,1.7607274 0 0 1 -1.305047,-0.59526 z"
     id="path112"
     inkscape:connector-curvature="0"
     style="fill:#cccccc;stroke-width:0.40759006" />
  <path
     d="M 47.86566,63.274709 H 13.292918 A 3.7989141,3.5503172 0 0 1 9.4983624,59.728455 V 24.659927 A 3.7989098,3.5503132 0 0 1 13.292918,21.113675 H 47.86566 a 3.7989141,3.5503172 0 0 1 3.794555,3.546252 V 59.728455 A 3.7989183,3.5503212 0 0 1 47.86566,63.274709 Z M 13.292918,21.90173 a 2.9546399,2.7612914 0 0 0 -2.951316,2.758197 v 35.068528 a 2.9546441,2.7612951 0 0 0 2.951316,2.75819 H 47.86566 a 2.9546482,2.7612991 0 0 0 2.951317,-2.75819 V 24.659927 A 2.9546441,2.7612951 0 0 0 47.86566,21.90173 Z"
     id="path114"
     inkscape:connector-curvature="0"
     style="fill:#3f3d56;stroke-width:0.40759006" />
  <path
     d="M 111.10844,63.274709 H 76.535712 A 3.7989141,3.5503172 0 0 1 72.741156,59.728455 V 24.659927 a 3.7989098,3.5503132 0 0 1 3.794556,-3.546252 h 34.572728 a 3.7989141,3.5503172 0 0 1 3.79457,3.546252 v 35.068528 a 3.7989183,3.5503212 0 0 1 -3.79457,3.546254 z M 76.535712,21.90173 a 2.9546399,2.7612914 0 0 0 -2.95133,2.758197 v 35.068528 a 2.9546441,2.7612951 0 0 0 2.95133,2.75819 h 34.572728 a 2.9546482,2.7612991 0 0 0 2.95133,-2.75819 V 24.659927 a 2.9546441,2.7612951 0 0 0 -2.95133,-2.758197 z"
     id="path116"
     inkscape:connector-curvature="0"
     style="fill:#3f3d56;stroke-width:0.40759006" />
  <path
     d="m 20.255962,35.692721 h -3.372943 a 1.8993916,1.7750974 0 0 1 -1.897292,-1.773118 v -3.152239 a 1.8993916,1.7750974 0 0 1 1.897292,-1.77312 h 3.372943 a 1.8993916,1.7750974 0 0 1 1.897294,1.77312 v 3.152239 a 1.8993916,1.7750974 0 0 1 -1.897294,1.773118 z"
     id="path118"
     inkscape:connector-curvature="0"
     style="fill:#ff7a5c;stroke-width:0.40759006" />
  <path
     d="m 20.255962,45.543438 h -3.372943 a 1.8993916,1.7750974 0 0 1 -1.897292,-1.773136 v -3.152223 a 1.8993916,1.7750974 0 0 1 1.897292,-1.773134 h 3.372943 a 1.8993916,1.7750974 0 0 1 1.897294,1.773134 v 3.152223 a 1.8993916,1.7750974 0 0 1 -1.897294,1.773136 z"
     id="path120"
     inkscape:connector-curvature="0"
     style="fill:#cccccc;stroke-width:0.40759006" />
  <path
     d="M 44.907984,33.776553 H 29.160807 a 1.2662386,1.1833773 0 0 1 -1.264852,-1.182095 v -0.501965 a 1.2662386,1.1833773 0 0 1 1.264852,-1.18208 h 15.747177 a 1.2662386,1.1833773 0 0 1 1.264866,1.18208 v 0.501965 a 1.2662386,1.1833773 0 0 1 -1.264866,1.182095 z"
     id="path122"
     inkscape:connector-curvature="0"
     style="fill:#ff7a5c;stroke-width:0.40759006" />
  <path
     d="m 83.789551,32.999655 h -3.372958 a 1.8993916,1.7750974 0 0 1 -1.897277,-1.773119 v -3.152239 a 1.8993916,1.7750974 0 0 1 1.897277,-1.773118 h 3.372958 a 1.8993916,1.7750974 0 0 1 1.897277,1.773118 v 3.152239 a 1.8993916,1.7750974 0 0 1 -1.897277,1.773119 z"
     id="path124"
     inkscape:connector-curvature="0"
     style="fill:#cccccc;stroke-width:0.40759006" />
  <path
     d="M 108.44157,31.083487 H 92.69438 a 1.2662386,1.1833773 0 0 1 -1.264856,-1.182096 v -0.501964 a 1.2662429,1.1833813 0 0 1 1.264856,-1.18208 h 15.74719 a 1.2662429,1.1833813 0 0 1 1.26485,1.18208 v 0.501964 a 1.2662386,1.1833773 0 0 1 -1.26485,1.182096 z"
     id="path126"
     inkscape:connector-curvature="0"
     style="fill:#cccccc;stroke-width:0.40759006" />
  <path
     d="M 108.44157,40.540155 H 79.202579 A 1.2662386,1.1833773 0 0 1 77.937727,39.358076 V 38.85611 a 1.2662429,1.1833813 0 0 1 1.264852,-1.182079 h 29.238991 a 1.2662429,1.1833813 0 0 1 1.26485,1.182079 v 0.501966 a 1.2662386,1.1833773 0 0 1 -1.26485,1.182079 z"
     id="path128"
     inkscape:connector-curvature="0"
     style="fill:#ff7a5c;stroke-width:0.40759006" />
  <path
     d="M 108.44157,49.313679 H 79.202579 A 1.2662386,1.1833773 0 0 1 77.937727,48.1316 v -0.501966 a 1.2662429,1.1833813 0 0 1 1.264852,-1.182079 h 29.238991 a 1.2662429,1.1833813 0 0 1 1.26485,1.182079 V 48.1316 a 1.2662386,1.1833773 0 0 1 -1.26485,1.182079 z"
     id="path130"
     inkscape:connector-curvature="0"
     style="fill:#cccccc;stroke-width:0.40759006" />
  <path
     d="M 108.44157,56.012156 H 79.202579 a 1.2662386,1.1833773 0 0 1 -1.264852,-1.18208 v -0.501965 a 1.2662429,1.1833813 0 0 1 1.264852,-1.18208 h 29.238991 a 1.2662429,1.1833813 0 0 1 1.26485,1.18208 v 0.501965 a 1.2662386,1.1833773 0 0 1 -1.26485,1.18208 z"
     id="path132"
     inkscape:connector-curvature="0"
     style="fill:#cccccc;stroke-width:0.40759006" />
  <path
     d="m 174.35123,63.274709 h -34.57272 a 3.7989141,3.5503172 0 0 1 -3.79458,-3.546254 V 24.659927 a 3.7989098,3.5503132 0 0 1 3.79458,-3.546252 h 34.57272 a 3.7989141,3.5503172 0 0 1 3.79456,3.546252 v 35.068528 a 3.7989183,3.5503212 0 0 1 -3.79456,3.546254 z M 139.77851,21.90173 a 2.9546399,2.7612914 0 0 0 -2.95133,2.758197 v 35.068528 a 2.9546441,2.7612951 0 0 0 2.95133,2.75819 h 34.57272 a 2.9546482,2.7612991 0 0 0 2.95133,-2.75819 V 24.659927 a 2.9546441,2.7612951 0 0 0 -2.95133,-2.758197 z"
     id="path134"
     inkscape:connector-curvature="0"
     style="fill:#3f3d56;stroke-width:0.40759006" />
  <path
     d="m 171.68435,32.328503 h -15.74718 a 1.2662386,1.1833773 0 0 1 -1.26487,-1.18208 v -0.501965 a 1.2662429,1.1833813 0 0 1 1.26487,-1.182095 h 15.74718 a 1.2662429,1.1833813 0 0 1 1.26486,1.182095 v 0.501965 a 1.2662386,1.1833773 0 0 1 -1.26486,1.18208 z"
     id="path136"
     inkscape:connector-curvature="0"
     style="fill:#cccccc;stroke-width:0.40759006" />
  <path
     d="m 171.68435,41.785186 h -29.23898 a 1.2662386,1.1833773 0 0 1 -1.26486,-1.18208 v -0.501965 a 1.2662429,1.1833813 0 0 1 1.26486,-1.182095 h 29.23898 a 1.2662429,1.1833813 0 0 1 1.26486,1.182095 v 0.501965 a 1.2662386,1.1833773 0 0 1 -1.26486,1.18208 z"
     id="path138"
     inkscape:connector-curvature="0"
     style="fill:#cccccc;stroke-width:0.40759006" />
  <path
     d="M 171.68435,49.313679 H 142.44537 A 1.2662386,1.1833773 0 0 1 141.18051,48.1316 v -0.501966 a 1.2662429,1.1833813 0 0 1 1.26486,-1.182079 h 29.23898 a 1.2662429,1.1833813 0 0 1 1.26486,1.182079 V 48.1316 a 1.2662386,1.1833773 0 0 1 -1.26486,1.182079 z"
     id="path140"
     inkscape:connector-curvature="0"
     style="fill:#cccccc;stroke-width:0.40759006" />
  <path
     d="m 171.68435,56.012156 h -29.23898 a 1.2662386,1.1833773 0 0 1 -1.26486,-1.18208 v -0.501965 a 1.2662429,1.1833813 0 0 1 1.26486,-1.18208 h 29.23898 a 1.2662429,1.1833813 0 0 1 1.26486,1.18208 v 0.501965 a 1.2662386,1.1833773 0 0 1 -1.26486,1.18208 z"
     id="path142"
     inkscape:connector-curvature="0"
     style="fill:#cccccc;stroke-width:0.40759006" />
  <path
     d="M 44.907984,43.627253 H 29.160807 a 1.2662386,1.1833773 0 0 1 -1.264852,-1.18208 v -0.501965 a 1.2662386,1.1833773 0 0 1 1.264852,-1.182095 h 15.747177 a 1.2662386,1.1833773 0 0 1 1.264866,1.182095 v 0.501965 a 1.2662386,1.1833773 0 0 1 -1.264866,1.18208 z"
     id="path144"
     inkscape:connector-curvature="0"
     style="fill:#cccccc;stroke-width:0.40759006" />
  <path
     d="m 20.255962,55.394137 h -3.372943 a 1.8993916,1.7750974 0 0 1 -1.897292,-1.77312 V 50.46878 a 1.8993916,1.7750974 0 0 1 1.897292,-1.77312 h 3.372943 a 1.8993916,1.7750974 0 0 1 1.897294,1.77312 v 3.152237 a 1.8993916,1.7750974 0 0 1 -1.897294,1.77312 z"
     id="path146"
     inkscape:connector-curvature="0"
     style="fill:#cccccc;stroke-width:0.40759006" />
  <path
     d="M 44.907984,53.477968 H 29.160807 a 1.2662386,1.1833773 0 0 1 -1.264852,-1.182094 v -0.501966 a 1.2662386,1.1833773 0 0 1 1.264852,-1.18208 h 15.747177 a 1.2662386,1.1833773 0 0 1 1.264866,1.18208 v 0.501966 a 1.2662386,1.1833773 0 0 1 -1.264866,1.182094 z"
     id="path148"
     inkscape:connector-curvature="0"
     style="fill:#cccccc;stroke-width:0.40759006" />
  <path
     d="m 149.05269,30.528387 c 0,-0.0095 10e-4,-0.01792 10e-4,-0.02697 a 3.7945208,3.5462115 0 0 0 -3.79457,-3.546255 v 3.573239 z"
     id="path150"
     inkscape:connector-curvature="0"
     style="fill:#ff7a5c;stroke-width:0.40759006" />
  <path
     d="m 144.83793,30.922419 v -3.573233 a 3.7945674,3.5462548 0 1 0 3.79312,3.573233 z"
     id="path152"
     inkscape:connector-curvature="0"
     style="fill:#cccccc;stroke-width:0.40759006" />
</svg>
