<?xml version="1.0" encoding="UTF-8" standalone="no"?>
<svg
   xmlns:dc="http://purl.org/dc/elements/1.1/"
   xmlns:cc="http://creativecommons.org/ns#"
   xmlns:rdf="http://www.w3.org/1999/02/22-rdf-syntax-ns#"
   xmlns:svg="http://www.w3.org/2000/svg"
   xmlns="http://www.w3.org/2000/svg"
   xmlns:sodipodi="http://sodipodi.sourceforge.net/DTD/sodipodi-0.dtd"
   xmlns:inkscape="http://www.inkscape.org/namespaces/inkscape"
   id="b5c524f0-66c4-4225-a3aa-c25cef687e0c"
   data-name="Layer 1"
   width="200"
   height="200"
   viewBox="0 0 200 200"
   version="1.1"
   sodipodi:docname="orcamento.svg"
   inkscape:version="0.92.3 (2405546, 2018-03-11)">
  <metadata
     id="metadata57">
    <rdf:RDF>
      <cc:Work
         rdf:about="">
        <dc:format>image/svg+xml</dc:format>
        <dc:type
           rdf:resource="http://purl.org/dc/dcmitype/StillImage" />
        <dc:title></dc:title>
      </cc:Work>
    </rdf:RDF>
  </metadata>
  <defs
     id="defs55" />
  <sodipodi:namedview
     pagecolor="#ffffff"
     bordercolor="#666666"
     borderopacity="1"
     objecttolerance="10"
     gridtolerance="10"
     guidetolerance="10"
     inkscape:pageopacity="0"
     inkscape:pageshadow="2"
     inkscape:window-width="1920"
     inkscape:window-height="1015"
     id="namedview53"
     showgrid="false"
     inkscape:zoom="1.5807757"
     inkscape:cx="79.216088"
     inkscape:cy="87.07162"
     inkscape:window-x="0"
     inkscape:window-y="28"
     inkscape:window-maximized="1"
     inkscape:current-layer="b5c524f0-66c4-4225-a3aa-c25cef687e0c"
     fit-margin-top="0"
     fit-margin-left="0"
     fit-margin-right="0"
     fit-margin-bottom="0" />
  <path
     d="m 135.32393,165.89108 c -1.92169,-2.11708 -4.52307,-3.66612 -7.79356,-4.24586 -2.85183,-0.50556 -5.78428,-0.41939 -8.6832,-0.40181 l -36.655479,0.22238 c -3.139305,0.0191 -6.149254,2.1588 -6.003418,4.72315 0.144737,2.54269 2.638407,4.74356 6.003418,4.72315 q 16.106317,-0.0977 32.212449,-0.19542 c 2.53141,-0.0154 5.06429,-0.0512 7.59588,-0.0447 0.5685,9.7e-4 1.13461,0.025 1.70256,0.0301 0.1376,9.7e-4 0.2369,2.7e-4 0.30707,-0.002 0.0176,0.004 0.0324,0.008 0.0554,0.0131 0.29626,0.064 0.60021,0.1081 0.89827,0.16889 -0.10444,0.002 0.19329,0.14858 0.34278,0.19808 0.0206,0.0319 0.0643,0.0883 0.13741,0.17569 0.10205,0.15054 0.40416,0.6077 0.41662,0.59331 a 26.925989,21.183876 0 0 1 1.12069,2.77275 c 0.69767,2.08031 0.85101,2.51515 0.95142,4.46691 0.12695,2.46548 2.67046,4.84059 6.0034,4.72315 3.14388,-0.11079 6.13954,-2.07889 6.00342,-4.72315 -0.22936,-4.45576 -1.22347,-9.46095 -4.61505,-13.19754 z"
     id="path2"
     inkscape:connector-curvature="0"
     style="fill:#e6e6e6;stroke-width:0.332809" />
  <path
     d="m 84.346412,176.54931 c -0.688509,-3.28248 -1.363808,-6.56706 -2.065681,-9.84762 -0.712151,-3.32811 -2.166642,-6.37571 -5.458554,-8.55998 -0.879583,-0.58358 -1.791599,-1.12844 -2.707475,-1.67163 -0.322069,-0.19094 -0.643605,-0.38216 -0.961833,-0.57731 -0.01903,-0.0116 -0.03119,-0.019 -0.0477,-0.0292 -0.03498,-0.0236 -0.07691,-0.0518 -0.133375,-0.0893 -1.372051,-0.91358 -2.697782,-1.86778 -3.960621,-2.88206 q -1.682136,-1.35121 -3.217345,-2.81766 -0.383635,-0.36625 -0.757388,-0.73907 c -0.04292,-0.0427 -0.273712,-0.27747 -0.425779,-0.43062 -0.141455,-0.15329 -0.399947,-0.4301 -0.443372,-0.47844 q -0.436671,-0.4858 -0.85778,-0.98064 a 58.580612,46.087979 0 0 1 -4.947945,-7.11883 q -0.205285,-0.36934 -0.400857,-0.74303 c -0.03499,-0.076 -0.08025,-0.17368 -0.140328,-0.30369 -0.278112,-0.60171 -0.555692,-1.20268 -0.809983,-1.81152 q -0.810415,-1.93976 -1.393483,-3.93681 -0.288283,-0.9861 -0.51903,-1.98221 -0.119003,-0.51225 -0.222597,-1.02663 c -0.01136,-0.057 -0.07881,-0.42691 -0.118543,-0.63596 -0.0293,-0.21007 -0.08394,-0.582 -0.09124,-0.63945 q -0.06592,-0.51851 -0.117064,-1.03801 -0.115144,-1.16902 -0.155711,-2.34194 -0.06924,-2.08449 0.0949,-4.16868 c 0.0623,-0.78069 0.150968,-1.55937 0.26016,-2.33657 0.0063,-0.0478 0.01172,-0.0857 0.01651,-0.11998 0.0063,-0.0347 0.01434,-0.0741 0.02345,-0.12319 0.08079,-0.42952 0.165809,-0.85844 0.260899,-1.28602 a 59.769188,47.023088 0 0 1 1.403006,-4.81568 q 0.408106,-1.12428 0.886562,-2.23032 0.213254,-0.49099 0.440062,-0.97822 c -0.0099,0.0209 0.443551,-0.89023 0.449592,-0.92085 1.799129,-3.3443 4.741841,-6.39308 4.745871,-10.192103 0.0027,-2.57214 -2.763171,-5.03607 -6.003418,-4.91721 a 6.2380741,4.9077709 0 0 0 -6.003408,4.91721 c 0,0.0577 -3.16e-4,0.10703 -3.16e-4,0.15487 -0.03021,0.0801 -0.05554,0.14689 -0.07826,0.20597 -0.350842,0.59985 -0.780652,1.169833 -1.165757,1.754783 -1.054561,1.60098 -1.954666,3.25448 -2.809706,4.93226 a 59.968526,47.179917 0 0 0 -3.200311,8.45098 68.325578,53.754783 0 0 0 -0.363113,19.19967 c 2.327671,11.16222 10.003793,21.84723 20.675375,29.02946 0.926119,0.62326 1.874779,1.22557 2.832429,1.81573 0.396267,0.24416 0.795853,0.48385 1.19745,0.72197 0.189811,0.11259 0.976143,0.60044 0.630243,0.36407 0.743836,0.49943 1.056933,0.75078 1.248016,1.11864 0.02768,0.0849 0.06537,0.20002 0.116523,0.35744 0.134666,0.41487 0.262541,0.82877 0.368812,1.24945 0.928868,3.67563 1.574494,7.41286 2.350394,11.11228 0.533313,2.54183 4.510813,4.19618 7.384989,3.43438 3.345382,-0.88678 4.764365,-3.32521 4.192929,-6.04877 z"
     id="path4"
     inkscape:connector-curvature="0"
     style="fill:#e6e6e6;stroke-width:0.332809" />
  <path
     d="m 135.93118,186.08275 a 9.5207623,7.4904078 0 0 1 -9.5454,-7.45372 v -5.38779 c -7.16991,0.63148 -31.721746,0.48518 -38.759466,-0.40444 v 5.57674 a 9.5457621,7.5100771 0 0 1 -19.09099,0 V 167.46415 A 61.275028,48.207798 0 0 1 37.017408,125.43159 c 0,-14.70969 8.473445,-28.431743 23.247744,-37.64756 A 61.563022,48.434376 0 0 1 93.78014,77.400972 c 1.661065,-0.102478 3.332217,-0.15437 4.967368,-0.15437 5.760372,0 31.750042,0.700081 38.270932,2.176065 L 151.88735,67.815 a 1.5608871,1.2280194 0 0 1 1.70722,-0.267668 1.5385393,1.2104376 0 0 1 0.96973,1.135527 v 1.845577 l 2.89525,-2.255924 a 1.5573226,1.2252151 0 0 1 1.70588,-0.268104 1.539196,1.2109542 0 0 1 0.97082,1.135963 v 20.623862 a 61.069385,48.046014 0 0 1 -14.65969,79.073297 v 9.79151 a 9.5207623,7.4904078 0 0 1 -9.54538,7.45371 z m -8.79501,-13.51103 v 6.05731 a 8.795269,6.9196302 0 0 0 17.58995,0 v -10.16441 l 0.21425,-0.08 a 60.95575,47.956602 0 0 0 24.96322,-17.17504 60.156162,47.327535 0 0 0 -10.39311,-61.093963 l -0.12468,-0.088 V 69.140362 a 0.78912598,0.62084059 0 0 0 -0.50345,-0.58909 0.80640826,0.63443738 0 0 0 -0.89351,0.139666 l -4.175,3.253219 v -3.261288 a 0.78912598,0.62084059 0 0 0 -0.50347,-0.589099 0.80834065,0.63595764 0 0 0 -0.89498,0.140682 l -15.18725,11.856165 -0.21582,-0.05318 c -6.06194,-1.492703 -32.4607,-2.200428 -38.264872,-2.200428 -1.61564,0 -3.267084,0.05134 -4.908374,0.152647 A 60.812644,47.844019 0 0 0 60.731453,88.246599 C 46.137714,97.349837 37.767782,110.90325 37.767782,125.43161 a 60.527388,47.619595 0 0 0 31.324407,41.60058 l 0.193562,0.0843 v 11.29706 a 8.7953735,6.9197128 0 0 0 17.590127,0 v -6.28348 l 0.44457,0.0658 c 6.324477,0.93619 32.955642,1.08379 39.391702,0.4196 z"
     id="path6"
     inkscape:connector-curvature="0"
     style="fill:#3f3d56;stroke-width:0.332809" />
  <path
     d="m 85.063577,45.099588 -41.551204,9.824154 a 5.2088233,4.0980135 0 0 0 2.99804,7.849295 l 36.361789,-8.59909 0.761789,-0.18008 a 25.333144,19.930715 0 0 1 3.110513,-8.814585 2.3131484,1.8198569 0 0 0 -0.750418,-0.153508 2.3889827,1.8795192 0 0 0 -0.930509,0.07381 z"
     id="path8"
     inkscape:connector-curvature="0"
     style="fill:#ff7a5c;stroke-width:0.332809" />
  <path
     d="m 45.791823,64.867528 a 2.6313217,2.070178 0 0 1 -2.490594,-1.417319 l -2.598282,-6.168434 a 2.6262938,2.0662225 0 0 1 1.667159,-2.61152 l 33.818429,-8.817568 a 2.6263651,2.0662786 0 0 1 3.319386,1.311238 l 2.598282,6.168433 a 2.6173563,2.0591909 0 0 1 -1.573313,2.585715 q -0.0468,0.01385 -0.09462,0.02606 L 46.620625,64.76141 a 2.6276183,2.0672645 0 0 1 -0.828801,0.106091 z"
     id="path10"
     inkscape:connector-curvature="0"
     style="fill:#2f2e41;stroke-width:0.332809" />
  <path
     d="M 109.12594,34.144828 A 26.276663,20.673023 0 0 0 82.872184,54.173947 c -0.0072,0.209585 -0.01118,0.422135 -0.01118,0.634676 A 26.264926,20.663789 0 1 0 109.12593,34.144828 Z m 0,40.737182 A 25.541141,20.094354 0 0 1 83.61144,54.808623 q 0,-0.4118 0.02254,-0.814746 a 25.51375,20.072805 0 1 1 25.49196,20.888133 z"
     id="path12"
     inkscape:connector-curvature="0"
     style="fill:#3f3d56;stroke-width:0.332809" />
  <path
     d="m 131.26352,54.808623 a 22.137585,17.416624 0 0 1 -44.275167,0 c 0,-0.552018 0.03373,-1.095182 0.09747,-1.632437 a 22.137581,17.416622 0 0 1 44.177697,1.632437 z"
     id="path14"
     inkscape:connector-curvature="0"
     style="fill:#e6e6e6;stroke-width:0.332809" />
  <path
     d="m 115.71838,55.965791 a 5.2708197,4.1467886 0 0 0 -2.0523,-1.278197 19.938351,15.68639 0 0 0 -3.08435,-0.797038 v -4.740865 a 8.7784399,6.9063905 0 0 1 4.38622,1.573404 l 1.2233,-2.051617 a 8.0898531,6.3646478 0 0 0 -2.38649,-1.160123 11.728907,9.2276542 0 0 0 -3.02791,-0.611059 v -2.402904 h -2.83279 v 2.42652 a 7.7565693,6.1024393 0 0 0 -3.0955,0.817691 6.1530466,4.8408765 0 0 0 -2.09758,1.617683 5.1671103,4.0651961 0 0 0 -0.74656,2.151984 4.6761889,3.6789662 0 0 0 0.85923,2.302537 5.4444263,4.2833733 0 0 0 2.1386,1.334293 19.770759,15.554538 0 0 0 3.13692,0.817691 v 4.543088 a 9.3758741,7.3764178 0 0 1 -5.21925,-1.638346 l -1.22312,2.054572 a 9.2228989,7.2560662 0 0 0 2.79156,1.245726 12.817817,10.084348 0 0 0 3.45571,0.566781 v 2.382241 h 2.8328 v -2.42652 a 7.3311041,5.7677064 0 0 0 4.20613,-1.517318 5.0989939,4.011606 0 0 0 1.56847,-2.981482 4.5231583,3.5585702 0 0 0 -0.83309,-2.228742 z m -7.57919,-2.577065 a 5.4400555,4.2799342 0 0 1 -1.88743,-0.797038 1.996307,1.5705837 0 0 1 -0.6678,-1.233917 2.5235229,1.9853681 0 0 1 0.68283,-1.419896 3.4527908,2.7164647 0 0 1 1.8724,-0.764568 z m 4.22114,6.28179 a 3.2108874,2.5261483 0 0 1 -1.7786,0.729133 v -3.908402 a 4.9676881,3.9083018 0 0 1 1.7786,0.699617 1.7476495,1.3749538 0 0 1 0.61155,1.092227 2.5529134,2.0084908 0 0 1 -0.61155,1.387425 z"
     id="path16"
     inkscape:connector-curvature="0"
     style="fill:#ff7a5c;stroke-width:0.332809" />
  <path
     d="m 46.997759,89.867457 a 2.6351902,2.0732216 0 0 1 -2.542073,-1.539691 l -1.414599,-4.212465 a 2.6279561,2.0675302 0 0 1 1.866709,-2.524309 l 44.62812,-9.277948 a 2.6322598,2.0709161 0 0 1 3.208454,1.471663 l 1.198369,3.568886 -0.224516,0.01366 a 60.095107,47.2795 0 0 0 -31.558266,9.408256 l -0.0651,0.0248 -14.430779,2.9991 a 2.6124522,2.0553327 0 0 1 -0.666328,0.068 z"
     id="path18"
     inkscape:connector-curvature="0"
     style="fill:#2f2e41;stroke-width:0.332809" />
  <path
     d="M 39.606466,110.67479 A 36.811422,28.961187 0 0 1 24.927312,106.3082 35.842997,28.199283 0 0 1 18.85864,102.40322 c -1.811481,-1.45363 -3.544453,-3.105823 -4.4417,-5.041723 a 9.4925201,7.4681887 0 0 1 0.124278,-5.54064 9.1302591,7.1831818 0 0 1 4.941092,-3.87461 c 2.247387,-0.705109 4.962643,-0.780541 7.149842,-0.0087 a 6.4121166,5.0446982 0 0 1 2.613115,1.65482 4.290537,3.3755568 0 0 1 0.679249,1.10939 2.8792814,2.265259 0 0 1 0.0339,1.10969 3.38305,2.6615964 0 0 1 -1.79123,1.68941 9.0307034,7.1048575 0 0 1 -3.058775,0.73393 c -1.073155,0.11512 -2.614737,0.21988 -3.477477,-0.45785 a 1.7519982,1.3783751 0 0 1 -0.409955,-0.4755 1.1685641,0.9193615 0 0 1 -0.06465,-0.43041 c -0.01262,0.0641 0.05203,-0.13944 0.04833,-0.13133 -0.0137,0.03 -0.07276,0.10345 0.01118,-0.01 a 1.2745356,1.002734 0 0 1 0.08746,-0.10716 c -0.0285,0.0291 -0.09114,0.0774 0.02065,-0.006 a 0.73611586,0.57913516 0 0 1 0.343042,-0.16662 c 0.05194,-0.0119 0.104621,-0.0214 0.156702,-0.0326 0.132366,-0.0285 -0.131934,9.7e-4 0.0036,-0.002 0.0523,-9.7e-4 0.105135,-2.9e-4 0.157216,-0.002 0.132817,-0.005 -0.131058,-0.0285 -0.0036,-0.004 0.04941,0.01 0.09839,0.0194 0.14709,0.0314 0.105838,0.0263 -0.07493,-0.0611 -0.0036,0.004 0.08404,0.0766 -0.08827,-0.0745 0.0072,-2.9e-4 a 1.7351361,1.365109 0 0 1 0.134206,0.1164 0.88521812,0.69644052 0 0 0 1.243832,0 0.9002679,0.7082809 0 0 0 0,-0.97858 c -0.867275,-0.84584 -2.580376,-0.63685 -3.457695,0.0781 -1.118887,0.91171 -0.675805,2.35661 0.412561,3.15212 1.232093,0.90057 2.977085,0.96317 4.561966,0.81212 a 11.187733,8.8018884 0 0 0 3.853141,-0.85666 5.4024291,4.2503318 0 0 0 2.635486,-2.24 4.9429882,3.8888691 0 0 0 -0.396376,-3.178951 c -1.399352,-2.069671 -4.296828,-3.130774 -7.160778,-3.314573 a 11.185936,8.8004748 0 0 0 -8.186696,2.114427 11.314264,8.901435 0 0 0 -3.710191,5.926077 c -0.249997,2.36039 0.914046,4.65269 2.611186,6.557613 a 31.753343,24.981771 0 0 0 6.295875,5.12263 38.449312,30.249789 0 0 0 16.063621,5.96024 q 1.047736,0.17028 2.106734,0.29153 a 0.90854512,0.71479294 0 0 0 1.081891,-0.48328 0.88597223,0.69703389 0 0 0 -0.614283,-0.85118 z"
     id="path20"
     inkscape:connector-curvature="0"
     style="fill:#3f3d56;stroke-width:0.332809" />
  <path
     d="m 123.42359,80.601233 q -11.50519,-0.127751 -22.93791,0.45943 c -2.605218,0.133834 -4.859281,0.85826 -4.859281,2.075845 0,1.017996 2.236133,2.210608 4.859281,2.075825 q 11.4269,-0.587055 22.93791,-0.45943 c 6.25627,0.06946 6.25259,-4.082244 0,-4.15167 z"
     id="path22"
     inkscape:connector-curvature="0"
     style="fill:#cccccc;stroke-width:0.332809" />
  <path
     d="m 112.08701,84.547288 c -0.82894,0 -20.301175,-0.02441 -20.301175,-2.140475 0,-2.115977 19.472235,-2.14033 20.301175,-2.14033 0.82892,0 20.30118,0.02431 20.30118,2.14033 0,2.116113 -19.47226,2.140475 -20.30118,2.140475 z M 92.547237,82.406813 c 0.53287,0.641554 7.690513,1.550078 19.539773,1.550078 11.84925,0 19.0068,-0.908515 19.53976,-1.550078 -0.53288,-0.641428 -7.69051,-1.549933 -19.53976,-1.549933 -11.84926,0 -19.006903,0.908515 -19.539773,1.549933 z"
     id="path24"
     inkscape:connector-curvature="0"
     style="fill:#3f3d56;stroke-width:0.332809" />
  <path
     d="m 173.86731,140.17725 c 4.31057,-0.0942 9.6753,-0.21188 13.80822,-2.58713 a 10.604231,8.3428219 0 0 0 4.17258,-6.22963 c 0.0843,-1.87586 -0.77708,-3.51329 -2.42572,-4.60923 -2.15862,-1.43508 -5.31076,-1.77168 -8.70771,-0.98629 l 3.51949,-20.23515 -2.58359,-0.2785 -4.13752,23.78901 2.1575,-0.7789 c 2.50131,-0.90261 5.93487,-1.36194 8.06851,0.0566 a 4.5833836,3.6059523 0 0 1 1.50301,2.97032 8.0148889,6.3056705 0 0 1 -3.10489,4.6448 c -3.21629,1.84831 -7.49247,2.08673 -12.34245,2.19342 z"
     id="path26"
     inkscape:connector-curvature="0"
     style="fill:#3f3d56;stroke-width:0.332809" />
  <rect
     x="152.67885"
     y="107.27492"
     width="14.045071"
     height="2.0516691"
     id="rect28"
     style="fill:#3f3d56;stroke-width:0.332809" />
  <path
     d="m 53.353307,99.303657 a 2.6311566,2.0700482 0 0 1 -2.590464,-1.74682 l -0.857313,-4.30442 a 2.6293556,2.0686313 0 0 1 2.188301,-2.36143 l 45.600225,-5.621279 a 2.6292693,2.0685634 0 0 1 3.001334,1.721585 l 0.85724,4.304554 a 2.6292167,2.0685221 0 0 1 -2.188162,2.36144 l -45.600241,5.62113 a 2.6623293,2.0945732 0 0 1 -0.41092,0.0253 z"
     id="path30"
     inkscape:connector-curvature="0"
     style="fill:#2f2e41;stroke-width:0.332809" />
  <ellipse
     cx="34.481659"
     cy="33.804516"
     id="circle32"
     style="fill:#ff7a5c;stroke-width:0.332809"
     rx="19.135876"
     ry="15.055046" />
  <path
     d="m 45.316055,37.699911 a 4.5382606,3.5704518 0 0 0 1.638496,-0.789996 3.051778,2.40097 0 0 0 0.846012,-1.913763 2.0530018,1.615188 0 0 0 -0.942573,-1.229229 c -0.692531,-0.33507 -1.607631,-0.322409 -2.531531,0.01453 l -0.106632,-5.876741 -0.750319,0.0087 0.125323,6.908735 0.571184,-0.294733 c 0.66237,-0.341211 1.614096,-0.588644 2.298809,-0.257284 a 1.3183981,1.0372425 0 0 1 0.590164,0.793938 2.3061319,1.8143368 0 0 1 -0.628954,1.42688 c -0.813436,0.635006 -2.017451,0.847779 -3.391638,1.042379 l 0.132979,0.580991 a 12.367989,9.7304481 0 0 0 2.14868,-0.414125 z"
     id="path34"
     inkscape:connector-curvature="0"
     style="fill:#2f2e41;stroke-width:0.332809" />
  <rect
     x="41.906986"
     y="33.530876"
     width="4.0243721"
     height="0.59438008"
     transform="matrix(0.99297667,-0.11831034,0.18902336,0.98197259,0,0)"
     id="rect36"
     style="fill:#2f2e41;stroke-width:0.33323592" />
  <rect
     x="29.204363"
     y="33.530556"
     width="4.0243721"
     height="0.59438008"
     transform="matrix(0.99297667,-0.11831034,0.18902336,0.98197259,0,0)"
     id="rect38"
     style="fill:#2f2e41;stroke-width:0.33323592" />
  <path
     d="M 47.127473,99.040467 A 3.3883296,2.6657498 0 0 1 43.96276,97.312087 L 30.769105,69.513704 A 17.459258,13.735976 0 0 1 41.006496,51.860269 l 10.727972,-3.151603 a 3.3610439,2.6442831 0 0 1 2.580745,0.07052 3.3138307,2.6071385 0 0 1 1.754269,1.471799 L 80.509546,86.55546 a 3.3774819,2.6572157 0 0 1 -1.97234,3.435557 l -30.229586,8.88069 a 3.3679594,2.6497236 0 0 1 -1.180147,0.16879 z"
     id="path40"
     inkscape:connector-curvature="0"
     style="fill:#2f2e41;stroke-width:0.332809" />
  <path
     d="M 48.479615,49.664772 72.72928,75.177373 56.320599,49.932557 a 3.0313478,2.3848965 0 0 0 -3.883077,-1.430523 z"
     id="path42"
     inkscape:connector-curvature="0"
     style="fill:#e6e6e6;stroke-width:0.332809" />
  <path
     d="M 86.875932,69.040063 43.578097,66.845835 a 5.2077507,4.0971693 0 1 1 0.669483,-8.17739 l 43.297836,2.194073 a 2.4386835,1.9186211 0 0 1 2.277115,2.038056 l -0.3559,4.348014 a 2.4390962,1.9189457 0 0 1 -2.590699,1.791475 z"
     id="path44"
     inkscape:connector-curvature="0"
     style="fill:#ff7a5c;stroke-width:0.332809" />
  <path
     d="m 75.30612,70.446727 q -0.08575,0 -0.17194,-0.0039 h -9e-5 L 39.580344,68.641109 a 2.6261889,2.0661398 0 0 1 -2.452255,-2.1948 l 0.607971,-7.426626 a 2.626369,2.0662815 0 0 1 2.790059,-1.929166 l 35.55371,1.801589 a 2.6293255,2.0686077 0 0 1 2.452166,2.194809 l -0.607892,7.426762 a 2.6335692,2.0719463 0 0 1 -1.705768,1.803914 2.5987269,2.0445343 0 0 1 -0.912215,0.129582 z"
     id="path46"
     inkscape:connector-curvature="0"
     style="fill:#2f2e41;stroke-width:0.332809" />
  <path
     d="m 34.26229,23.793146 c 2.517392,-1.703383 5.974365,-0.179595 8.861309,-0.446343 2.761989,-0.255212 4.94294,-2.20439 5.500085,-4.275149 0.650007,-2.415893 -0.943854,-4.836272 -3.293094,-6.342536 -2.573017,-1.649737 -5.985465,-2.12333 -9.219157,-1.818115 -3.706222,0.349803 -7.095742,1.708992 -10.137133,3.353004 a 45.719871,35.969863 0 0 0 -8.045186,5.363481 c -2.157896,1.874997 -3.986185,4.109939 -4.57,6.633008 -0.530555,2.292947 -0.125441,4.83385 1.597469,6.776287 a 9.0821421,7.1453258 0 0 0 3.554831,2.304097 c 1.477375,0.570752 3.053312,0.978774 4.484612,1.624086 2.164134,0.975722 4.267487,2.998851 3.589582,5.104231 a 3.674392,2.890808 0 0 1 -0.835221,1.236871 c -0.484271,0.42295 -1.357785,-0.135945 -0.872252,-0.560009 0.852804,-0.744797 0.819216,-1.738091 0.364736,-2.62732 a 6.1055932,4.803543 0 0 0 -2.714093,-2.348075 c -1.498222,-0.673918 -3.152334,-1.089902 -4.687912,-1.703751 a 10.139215,7.9769726 0 0 1 -3.7189,-2.424699 c -1.837873,-2.009412 -2.387624,-4.624516 -1.970798,-7.043694 0.451054,-2.617933 2.160727,-4.996861 4.303934,-6.990405 2.332405,-2.169527 5.197412,-4.005979 8.124291,-5.655784 3.140557,-1.770252 6.610262,-3.266878 10.449716,-3.808182 3.328205,-0.469233 6.935721,-0.180341 9.846091,1.246598 2.716644,1.331958 4.799854,3.623181 5.007032,6.183399 a 8.3430054,6.563814 0 0 1 -3.893321,5.886836 7.1669483,5.6385578 0 0 1 -4.281184,0.780309 c -1.599001,-0.0805 -3.199545,-0.465756 -4.808762,-0.358813 a 3.3546953,2.6392884 0 0 0 -1.97665,0.628331 C 34.372293,24.88298 33.716786,24.162275 34.26229,23.793155 Z"
     id="path48"
     inkscape:connector-curvature="0"
     style="fill:#2f2e41;stroke-width:0.332809" />
</svg>
