<?xml version="1.0" encoding="UTF-8" standalone="no"?>
<svg
   xmlns:dc="http://purl.org/dc/elements/1.1/"
   xmlns:cc="http://creativecommons.org/ns#"
   xmlns:rdf="http://www.w3.org/1999/02/22-rdf-syntax-ns#"
   xmlns:svg="http://www.w3.org/2000/svg"
   xmlns="http://www.w3.org/2000/svg"
   xmlns:sodipodi="http://sodipodi.sourceforge.net/DTD/sodipodi-0.dtd"
   xmlns:inkscape="http://www.inkscape.org/namespaces/inkscape"
   id="b5c524f0-66c4-4225-a3aa-c25cef687e0c"
   data-name="Layer 1"
   width="600"
   height="410"
   viewBox="0 0 600.00002 410.00001"
   version="1.1"
   sodipodi:docname="arquivo_orcamento.svg"
   inkscape:version="0.92.3 (2405546, 2018-03-11)">
  <metadata
     id="metadata57">
    <rdf:RDF>
      <cc:Work
         rdf:about="">
        <dc:format>image/svg+xml</dc:format>
        <dc:type
           rdf:resource="http://purl.org/dc/dcmitype/StillImage" />
        <dc:title></dc:title>
      </cc:Work>
    </rdf:RDF>
  </metadata>
  <defs
     id="defs55" />
  <sodipodi:namedview
     pagecolor="#ffffff"
     bordercolor="#666666"
     borderopacity="1"
     objecttolerance="10"
     gridtolerance="10"
     guidetolerance="10"
     inkscape:pageopacity="0"
     inkscape:pageshadow="2"
     inkscape:window-width="1920"
     inkscape:window-height="1015"
     id="namedview53"
     showgrid="false"
     inkscape:zoom="0.79038786"
     inkscape:cx="235.0317"
     inkscape:cy="11.64488"
     inkscape:window-x="0"
     inkscape:window-y="28"
     inkscape:window-maximized="1"
     inkscape:current-layer="b5c524f0-66c4-4225-a3aa-c25cef687e0c" />
  <path
     d="m 368.24139,365.11322 c -4.05104,-4.92264 -9.53495,-8.52446 -16.42936,-9.87247 -6.01187,-1.17552 -12.19369,-0.97518 -18.30484,-0.93429 l -77.27235,0.51707 c -6.61786,0.0443 -12.96305,5.01966 -12.65562,10.98228 0.30511,5.9123 5.56195,11.02975 12.65562,10.98229 q 33.95327,-0.2272 67.90616,-0.45439 c 5.33639,-0.0357 10.67586,-0.11924 16.01264,-0.10402 1.19843,0.003 2.39185,0.0582 3.58912,0.07 0.29005,0.003 0.49939,6.2e-4 0.64731,-0.005 0.0371,0.0101 0.0683,0.0187 0.11664,0.0303 0.62452,0.1488 1.26525,0.25136 1.89359,0.3927 -0.22015,0.005 0.40746,0.34547 0.72261,0.46058 0.0434,0.0742 0.13557,0.20549 0.28967,0.4085 0.21514,0.35006 0.85199,1.41305 0.87826,1.37958 a 56.7619,49.256819 0 0 1 2.3625,6.44721 c 1.47073,4.83713 1.79399,5.84825 2.00565,10.38647 0.26763,5.73275 5.62952,11.25535 12.65561,10.98229 6.62752,-0.25761 12.94258,-4.83384 12.65562,-10.98229 -0.48351,-10.36054 -2.57914,-21.99864 -9.72883,-30.68697 z"
     id="path2"
     inkscape:connector-curvature="0"
     style="fill:#e6e6e6;stroke-width:0.73683149" />
  <path
     d="m 260.77716,389.89579 c -1.45144,-7.63244 -2.87502,-15.26975 -4.35461,-22.89774 -1.50127,-7.73852 -4.56743,-14.8248 -11.50701,-19.90368 -1.85424,-1.35692 -3.77683,-2.62386 -5.70755,-3.88688 -0.67896,-0.44396 -1.35678,-0.88858 -2.02763,-1.34235 -0.0401,-0.0271 -0.0657,-0.0442 -0.10044,-0.0677 -0.0738,-0.055 -0.1622,-0.12047 -0.28117,-0.20778 -2.89239,-2.12426 -5.68712,-4.34297 -8.34928,-6.70138 q -3.54606,-3.14182 -6.78239,-6.55163 -0.80873,-0.85161 -1.59662,-1.71849 c -0.0904,-0.0994 -0.57701,-0.64515 -0.89758,-1.00127 -0.29819,-0.35643 -0.84312,-1.00008 -0.93465,-1.11247 q -0.92054,-1.12959 -1.80827,-2.28019 A 123.4921,107.16392 0 0 1 205.99935,305.6715 q -0.43276,-0.8588 -0.84504,-1.72769 c -0.0738,-0.17677 -0.16917,-0.40384 -0.29582,-0.70613 -0.58629,-1.39911 -1.17145,-2.7965 -1.7075,-4.21216 q -1.70842,-4.51034 -2.93756,-9.15388 -0.60772,-2.29289 -1.09416,-4.60906 -0.25086,-1.19109 -0.46925,-2.38711 c -0.0239,-0.13237 -0.16612,-0.99265 -0.2499,-1.47874 -0.0617,-0.48845 -0.17689,-1.35326 -0.19233,-1.48686 q -0.13904,-1.20561 -0.24678,-2.41359 -0.24274,-2.71819 -0.32826,-5.44546 -0.14599,-4.84688 0.20006,-9.69304 c 0.13129,-1.81528 0.31825,-3.62585 0.54843,-5.43301 0.0139,-0.11105 0.0247,-0.19937 0.0347,-0.27896 0.0139,-0.0807 0.0302,-0.17237 0.0495,-0.28646 0.17031,-0.99871 0.34953,-1.99604 0.54998,-2.99024 a 125.9977,109.33824 0 0 1 2.95765,-11.19743 q 0.86031,-2.61418 1.86892,-5.18596 0.44956,-1.14164 0.9277,-2.27455 c -0.021,0.0487 0.93503,-2.06998 0.94777,-2.14117 3.79268,-7.77619 9.99613,-14.86521 10.00462,-23.6987 0.005,-5.98076 -5.82496,-11.7099 -12.65562,-11.43352 a 13.150304,11.411565 0 0 0 -12.65562,11.43352 c 0,0.1343 -6.6e-4,0.24888 -6.6e-4,0.3601 -0.0637,0.18619 -0.11701,0.34155 -0.16492,0.47893 -0.73959,1.39476 -1.64567,2.72008 -2.45749,4.08019 -2.22309,3.72261 -4.12057,7.56735 -5.92306,11.46854 a 126.41792,109.7029 0 0 0 -6.74648,19.65023 144.03518,124.9908 0 0 0 -0.76548,44.64314 c 4.90691,25.95444 21.08872,50.79925 43.58516,67.49938 1.95234,1.44922 3.95218,2.84971 5.97096,4.22194 0.83537,0.56774 1.67773,1.12506 2.52432,1.67875 0.40013,0.26179 2.05778,1.39613 1.32859,0.84654 1.56806,1.16126 2.2281,1.74571 2.63092,2.60105 0.0584,0.1974 0.13788,0.46511 0.24563,0.83113 0.28388,0.96464 0.55346,1.92706 0.77748,2.90522 1.95813,8.54658 3.31915,17.23642 4.9548,25.8383 1.12427,5.91029 9.50911,9.75699 15.56808,7.98564 7.05231,-2.06196 10.04362,-7.73179 8.83899,-14.06462 z"
     id="path4"
     inkscape:connector-curvature="0"
     style="fill:#e6e6e6;stroke-width:0.73683149" />
  <path
     d="m 369.5215,412.06298 a 20.070444,17.416721 0 0 1 -20.12239,-17.33143 v -12.52768 c -15.11467,1.46831 -66.87167,1.12813 -81.70769,-0.94043 v 12.96706 a 20.123146,17.462456 0 0 1 -40.24516,0 v -25.45955 a 129.17212,112.09293 0 0 1 -66.44201,-97.73426 c 0,-34.20302 17.86263,-66.10957 49.0079,-87.53824 a 129.77923,112.61977 0 0 1 70.65197,-24.14272 c 3.50165,-0.23829 7.02455,-0.35895 10.47157,-0.35895 12.14328,0 66.93133,1.62784 80.67784,5.0598 l 31.34473,-26.99018 a 3.290461,2.8553949 0 0 1 3.59894,-0.62238 3.2433504,2.8145134 0 0 1 2.04426,2.64033 v 4.29133 l 6.10342,-5.24548 a 3.2829467,2.8488742 0 0 1 3.59608,-0.62339 3.2447348,2.8157146 0 0 1 2.04656,2.64135 v 47.95467 a 128.73861,111.71675 0 0 1 -30.90368,183.8615 v 22.76726 a 20.070444,17.416721 0 0 1 -20.12234,17.33139 z m -18.54048,-31.41589 v 14.08446 a 18.541053,16.089547 0 0 0 37.08086,0 v -23.63431 l 0.45165,-0.18601 a 128.49906,111.50885 0 0 0 52.62425,-39.93547 126.81347,110.04614 0 0 0 -21.90942,-142.0559 l -0.26284,-0.20478 v -48.56696 a 1.6635337,1.4435806 0 0 0 -1.06131,-1.36977 1.699966,1.4751959 0 0 0 -1.88358,0.32477 l -8.8012,7.56439 v -7.58317 a 1.6635337,1.4435806 0 0 0 -1.06134,-1.36976 1.7040396,1.4787308 0 0 0 -1.88668,0.3271 l -32.0158,27.568 -0.45497,-0.12368 c -12.77901,-3.47083 -68.42947,-5.11644 -80.66508,-5.11644 -3.40589,0 -6.88725,0.11931 -10.3472,0.35493 a 128.19738,111.24707 0 0 0 -69.79322,23.84948 c -30.76464,21.16691 -48.40906,52.68134 -48.40906,86.46272 a 127.59604,110.72524 0 0 0 66.03408,96.72983 l 0.40805,0.19607 v 26.26794 a 18.541273,16.089739 0 0 0 37.08124,0 v -14.61036 l 0.93718,0.15284 c 13.33245,2.17682 69.47285,2.52002 83.04051,0.97564 z"
     id="path6"
     inkscape:connector-curvature="0"
     style="fill:#3f3d56;stroke-width:0.73683149" />
  <path
     d="m 262.28898,84.248455 -87.59289,22.843155 a 10.980569,9.5287137 0 0 0 6.32009,18.25119 l 76.65323,-19.99463 1.60591,-0.41872 a 53.404071,46.342964 0 0 1 6.55719,-20.495703 4.8762813,4.2315374 0 0 0 -1.58195,-0.356924 5.0361455,4.3702643 0 0 0 -1.96158,0.171632 z"
     id="path8"
     inkscape:connector-curvature="0"
     style="fill:#ff7a5c;stroke-width:0.73683149" />
  <path
     d="m 179.50133,130.21293 a 5.5470134,4.8135849 0 0 1 -5.25035,-3.29556 l -5.47736,-14.34287 a 5.5364142,4.8043873 0 0 1 3.5145,-6.0723 l 71.29165,-20.502639 a 5.5365645,4.8045177 0 0 1 6.99751,3.048882 l 5.47736,14.342867 a 5.5175733,4.7880374 0 0 1 -3.31666,6.01231 q -0.0987,0.0322 -0.19947,0.0607 L 181.2485,129.9663 a 5.5392064,4.8068103 0 0 1 -1.74717,0.24667 z"
     id="path10"
     inkscape:connector-curvature="0"
     style="fill:#2f2e41;stroke-width:0.73683149" />
  <path
     d="m 313.01416,58.776411 a 55.393076,48.068981 0 0 0 -55.34479,46.571759 c -0.0158,0.48734 -0.0236,0.98155 -0.0236,1.47575 A 55.368334,48.047511 0 1 0 313.0141,58.776411 Z m 0,94.722229 a 53.842542,46.723458 0 0 1 -53.78638,-46.67472 q 0,-0.95751 0.0475,-1.89444 a 53.784801,46.673352 0 1 1 53.73885,48.56916 z"
     id="path12"
     inkscape:connector-curvature="0"
     style="fill:#3f3d56;stroke-width:0.73683149" />
  <path
     d="m 359.68176,106.82392 a 46.6676,40.497191 0 0 1 -93.3352,0 c 0,-1.28355 0.0711,-2.54651 0.20546,-3.79575 a 46.667596,40.497188 0 0 1 93.12974,3.79575 z"
     id="path14"
     inkscape:connector-curvature="0"
     style="fill:#e6e6e6;stroke-width:0.73683149" />
  <path
     d="m 326.91149,109.51458 a 11.111263,9.6421265 0 0 0 -4.3264,-2.97208 42.031463,36.474046 0 0 0 -6.50201,-1.85326 V 93.665768 a 18.505576,16.058762 0 0 1 9.24647,3.658474 l 2.57878,-4.770431 a 17.053986,14.7991 0 0 0 -5.03088,-2.697525 24.72537,21.456172 0 0 0 -6.38305,-1.420834 v -5.587238 h -5.97171 v 5.64215 a 16.3514,14.189412 0 0 0 -6.52555,1.901309 12.97106,11.256022 0 0 0 -4.42183,3.761433 10.892636,9.4524075 0 0 0 -1.57383,5.003807 9.8577389,8.5543445 0 0 0 1.81133,5.353867 11.477238,9.9597136 0 0 0 4.50834,3.1025 41.678167,36.167462 0 0 0 6.61283,1.9013 v 10.56359 a 19.765009,17.151671 0 0 1 -11.00256,-3.80948 l -2.57841,4.7773 a 19.442527,16.871829 0 0 0 5.88482,2.89657 27.02087,23.44816 0 0 0 7.28489,1.31787 v 5.5392 h 5.97171 v -5.64215 a 15.454489,13.41109 0 0 0 8.86685,-3.52806 10.749042,9.3277996 0 0 0 3.30642,-6.93257 9.5351395,8.2743991 0 0 0 -1.75621,-5.18227 z m -15.97747,-5.99221 a 11.468024,9.9517171 0 0 1 -3.97883,-1.85326 4.2083573,3.6519266 0 0 1 -1.40776,-2.869122 5.3197659,4.6163843 0 0 1 1.43943,-3.301551 7.2787288,6.3163327 0 0 1 3.94716,-1.777758 z m 8.89848,14.60644 a 6.768779,5.8738082 0 0 1 -3.74942,1.6954 v -9.08785 a 10.47224,9.0875964 0 0 1 3.74942,1.62675 3.6841695,3.1970471 0 0 1 1.28919,2.53965 5.3817231,4.6701495 0 0 1 -1.28919,3.22605 z"
     id="path16"
     inkscape:connector-curvature="0"
     style="fill:#ff7a5c;stroke-width:0.73683149" />
  <path
     d="m 182.04353,188.34284 a 5.5551683,4.8206616 0 0 1 -5.35887,-3.58009 l -2.98208,-9.79484 a 5.5399183,4.807428 0 0 1 3.93517,-5.86953 L 271.717,147.52526 a 5.5489908,4.8153009 0 0 1 6.76364,3.42191 l 2.52625,8.29839 -0.4733,0.0318 a 126.68476,109.93445 0 0 0 -66.52707,21.87611 l -0.13721,0.0576 -30.42111,6.97353 a 5.5072352,4.7790663 0 0 1 -1.40467,0.15816 z"
     id="path18"
     inkscape:connector-curvature="0"
     style="fill:#2f2e41;stroke-width:0.73683149" />
  <path
     d="m 166.46217,236.72414 a 77.601095,67.340646 0 0 1 -30.94471,-10.15323 75.559587,65.569065 0 0 1 -12.79319,-9.07985 c -3.81873,-3.38003 -7.47196,-7.22168 -9.36342,-11.72303 a 20.010907,17.365057 0 0 1 0.26199,-12.88313 19.247235,16.702358 0 0 1 10.41618,-9.00927 c 4.73764,-1.63952 10.4616,-1.8149 15.07237,-0.0193 a 13.517198,11.729949 0 0 1 5.50863,3.84781 9.0447572,7.848856 0 0 1 1.43191,2.57957 6.06973,5.2671878 0 0 1 0.0714,2.58023 7.1317101,6.1887528 0 0 1 -3.77603,3.92822 19.037365,16.520238 0 0 1 -6.44811,1.70656 c -2.2623,0.26769 -5.51206,0.51126 -7.33077,-1.0646 a 3.6933368,3.2050023 0 0 1 -0.86422,-1.10563 2.4634163,2.1377024 0 0 1 -0.13634,-1.00081 c -0.0266,0.14911 0.10971,-0.32423 0.10195,-0.30535 -0.0288,0.0699 -0.15332,0.24052 0.0236,-0.0215 a 2.6868117,2.3315604 0 0 1 0.18438,-0.24916 c -0.06,0.0675 -0.19213,0.18002 0.0435,-0.0131 a 1.5517846,1.346607 0 0 1 0.72316,-0.38741 c 0.10948,-0.0277 0.22055,-0.0497 0.33034,-0.0758 0.27902,-0.0662 -0.27813,0.003 0.007,-0.004 0.11016,-0.003 0.22163,-6.8e-4 0.33143,-0.005 0.27999,-0.011 -0.27628,-0.0662 -0.008,-0.008 0.1042,0.0227 0.20741,0.045 0.31008,0.0729 0.22311,0.061 -0.15799,-0.14204 -0.007,0.0101 0.17718,0.17808 -0.18605,-0.17321 0.0154,-6.9e-4 a 3.6577903,3.1741559 0 0 1 0.2829,0.27065 1.8661028,1.6193658 0 0 0 2.62209,0 1.8978288,1.6468971 0 0 0 0,-2.27539 c -1.82827,-1.96676 -5.4396,-1.48079 -7.28907,0.18145 -2.35869,2.11992 -1.42463,5.47961 0.86971,7.32931 2.59734,2.09402 6.27592,2.23959 9.61696,1.88836 a 23.584538,20.46618 0 0 0 8.12269,-1.9919 11.388705,9.8828857 0 0 0 5.55579,-5.20847 10.420171,9.0424112 0 0 0 -0.83558,-7.3917 c -2.94979,-4.81242 -9.05788,-7.2797 -15.09529,-7.70708 a 23.580749,20.462893 0 0 0 -17.25814,4.91649 23.851271,20.697646 0 0 0 -7.82134,13.77934 c -0.52701,5.4884 1.92688,10.81844 5.50457,15.24775 a 66.938307,58.087697 0 0 0 13.27215,11.91119 81.053885,70.336909 0 0 0 33.86325,13.85876 q 2.20871,0.39595 4.44114,0.67787 a 1.9152777,1.6620389 0 0 0 2.28071,-1.12373 1.8676925,1.6207455 0 0 0 -1.29495,-1.97916 z"
     id="path20"
     inkscape:connector-curvature="0"
     style="fill:#3f3d56;stroke-width:0.73683149" />
  <path
     d="m 343.15462,166.797 q -24.25377,-0.29706 -48.35475,1.06826 c -5.49198,0.31119 -10.2437,1.99563 -10.2437,4.82675 0,2.36706 4.71393,5.14012 10.2437,4.82672 q 24.08874,-1.36503 48.35475,-1.06826 c 13.18867,0.16155 13.1809,-9.49206 0,-9.65347 z"
     id="path22"
     inkscape:connector-curvature="0"
     style="fill:#cccccc;stroke-width:0.73683149" />
  <path
     d="m 319.2563,175.97236 c -1.74745,0 -42.79632,-0.0567 -42.79632,-4.97704 0,-4.92007 41.04887,-4.97669 42.79632,-4.97669 1.74745,0 42.79633,0.0566 42.79633,4.97669 0,4.9204 -41.04888,4.97704 -42.79633,4.97704 z m -41.19122,-4.97704 c 1.12333,1.49176 16.21213,3.60425 41.19122,3.60425 24.97909,0 40.06769,-2.11248 41.19121,-3.60425 -1.12332,-1.49143 -16.21212,-3.6039 -41.19121,-3.6039 -24.97909,0 -40.06789,2.11248 -41.19122,3.60391 z"
     id="path24"
     inkscape:connector-curvature="0"
     style="fill:#3f3d56;stroke-width:0.73683149" />
  <path
     d="m 449.49358,305.32335 c 9.08699,-0.21896 20.39622,-0.49266 29.10871,-6.01559 a 22.354474,19.398757 0 0 0 8.79609,-14.48517 c 0.17782,-4.36175 -1.63812,-8.1691 -5.11359,-10.7174 -4.55052,-3.33685 -11.19547,-4.11952 -18.35647,-2.2933 l 7.41935,-47.05086 -5.4464,-0.64757 -8.7222,55.31429 4.54817,-1.81109 c 5.27295,-2.09876 12.51113,-3.16679 17.00899,0.1316 a 9.6620989,8.3845721 0 0 1 3.16845,6.90658 16.895956,14.661966 0 0 1 -6.54532,10.80011 c -6.78017,4.29769 -15.79467,4.85208 -26.01877,5.10015 z"
     id="path26"
     inkscape:connector-curvature="0"
     style="fill:#3f3d56;stroke-width:0.73683149" />
  <rect
     x="404.82675"
     y="228.81876"
     width="29.608007"
     height="4.7705479"
     id="rect28"
     style="fill:#3f3d56;stroke-width:0.73683149" />
  <path
     d="m 195.44149,210.28394 a 5.5466654,4.813283 0 0 1 -5.4609,-4.06172 l -1.80726,-10.00865 a 5.5428687,4.8099883 0 0 1 4.61309,-5.4908 l 96.12852,-13.07063 a 5.5426868,4.8098304 0 0 1 6.32702,4.00304 l 1.80712,10.00897 a 5.542576,4.8097343 0 0 1 -4.6128,5.49083 l -96.12854,13.07029 a 5.6123796,4.8703085 0 0 1 -0.86625,0.0587 z"
     id="path30"
     inkscape:connector-curvature="0"
     style="fill:#2f2e41;stroke-width:0.73683149" />
  <ellipse
     cx="155.65869"
     cy="57.985085"
     id="circle32"
     style="fill:#ff7a5c;stroke-width:0.73683149"
     rx="40.33979"
     ry="35.006042" />
  <path
     d="m 178.49838,67.042684 a 9.5669763,8.3020265 0 0 0 3.45406,-1.836884 6.4333654,5.5827433 0 0 0 1.78346,-4.449886 4.3278738,3.7556405 0 0 0 -1.98701,-2.858224 c -1.4599,-0.779091 -3.389,-0.749658 -5.33664,0.03384 l -0.2248,-13.664624 -1.58171,0.01956 0.26418,16.064212 1.2041,-0.685322 c 1.39632,-0.793389 3.40262,-1.368717 4.84605,-0.59824 a 2.7792769,2.4117997 0 0 1 1.24411,1.846076 4.8614901,4.2187019 0 0 1 -1.32588,3.31779 c -1.71478,1.476506 -4.25293,1.971245 -7.14981,2.423737 l 0.28033,1.350916 a 26.072601,22.625271 0 0 0 4.52956,-0.962926 z"
     id="path34"
     inkscape:connector-curvature="0"
     style="fill:#2f2e41;stroke-width:0.73683149" />
  <rect
     x="173.83052"
     y="68.078445"
     width="8.4965134"
     height="1.3776516"
     transform="matrix(0.99147475,-0.13029896,0.17191968,0.98511097,0,0)"
     id="rect36"
     style="fill:#2f2e41;stroke-width:0.73715818" />
  <rect
     x="147.01192"
     y="68.07769"
     width="8.4965134"
     height="1.3776516"
     transform="matrix(0.99147475,-0.13029896,0.17191968,0.98511097,0,0)"
     id="rect38"
     style="fill:#2f2e41;stroke-width:0.73715818" />
  <path
     d="m 182.31699,209.67198 a 7.1428397,6.1984103 0 0 1 -6.67145,-4.01884 l -27.81316,-64.6369 a 36.805358,31.938938 0 0 1 21.58114,-41.047843 l 22.61534,-7.328101 a 7.0853198,6.1484958 0 0 1 5.44038,0.163891 6.9857909,6.0621269 0 0 1 3.69813,3.422245 l 51.5214,84.415268 a 7.1199723,6.1785667 0 0 1 -4.15783,7.98837 l -63.72612,20.64943 a 7.0998979,6.1611461 0 0 1 -2.48783,0.39248 z"
     id="path40"
     inkscape:connector-curvature="0"
     style="fill:#2f2e41;stroke-width:0.73683149" />
  <path
     d="m 185.1674,94.863434 51.12001,59.321976 -34.59067,-58.699328 a 6.3902968,5.5453692 0 0 0 -8.1858,-3.326261 z"
     id="path42"
     inkscape:connector-curvature="0"
     style="fill:#e6e6e6;stroke-width:0.73683149" />
  <path
     d="m 266.10956,139.91493 -91.27491,-5.10204 a 10.978309,9.5267516 0 1 1 1.41131,-19.0141 l 91.27492,5.10167 a 5.1409183,4.461184 0 0 1 4.80032,4.7389 l -0.75026,10.11002 a 5.1417883,4.4619389 0 0 1 -5.46138,4.16555 z"
     id="path44"
     inkscape:connector-curvature="0"
     style="fill:#ff7a5c;stroke-width:0.73683149" />
  <path
     d="m 241.71958,143.18569 q -0.18075,0 -0.36246,-0.0101 h -2e-4 l -74.94982,-4.18942 a 5.5361929,4.8041951 0 0 1 -5.16954,-5.10337 l 1.28165,-17.26841 a 5.5365725,4.8045246 0 0 1 5.88164,-4.4857 l 74.94975,4.18907 a 5.5428053,4.8099334 0 0 1 5.16935,5.10336 l -1.28148,17.26875 a 5.5517513,4.8176964 0 0 1 -3.59589,4.19445 5.4783012,4.753958 0 0 1 -1.923,0.30132 z"
     id="path46"
     inkscape:connector-curvature="0"
     style="fill:#2f2e41;stroke-width:0.73683149" />
  <path
     d="m 155.19626,34.706626 c 5.30684,-3.960701 12.59439,-0.417595 18.68027,-1.037827 5.82248,-0.593421 10.42008,-5.12566 11.59458,-9.940597 1.37025,-5.617441 -1.98972,-11.245308 -6.94209,-14.7476827 -5.42409,-3.8359622 -12.61778,-4.9371769 -19.43463,-4.2274946 -7.81299,0.8133758 -14.95834,3.9737691 -21.36981,7.7964233 a 96.380742,83.637243 0 0 0 -16.95982,12.471191 c -4.54899,4.359735 -8.40316,9.556444 -9.63389,15.423086 -1.11843,5.331564 -0.26443,11.239685 3.36759,15.756248 a 19.145801,16.614335 0 0 0 7.49384,5.357497 c 3.11441,1.3271 6.43659,2.27584 9.45387,3.776322 4.56216,2.268747 8.99618,6.972948 7.56709,11.868379 a 7.7458797,6.7217164 0 0 1 -1.7607,2.875987 c -1.02088,0.98343 -2.86231,-0.316118 -1.83876,-1.302143 1.79776,-1.731803 1.72696,-4.041427 0.76889,-6.109055 a 12.871025,11.169214 0 0 0 -5.7215,-5.459754 c -3.15836,-1.566994 -6.64535,-2.534232 -9.88246,-3.961559 a 21.374186,18.548083 0 0 1 -7.8397,-5.637931 c -3.87437,-4.672277 -5.03328,-10.75293 -4.15459,-16.378023 0.95085,-6.087214 4.55497,-11.618712 9.073,-16.254095 4.91687,-5.044604 10.95652,-9.314725 17.12659,-13.150852 6.62051,-4.116195 13.93489,-7.5961598 22.02874,-8.8548055 7.0161,-1.0910493 14.62099,-0.4193245 20.75626,2.8985965 5.72687,3.0970672 10.11843,8.424629 10.55517,14.377669 a 17.587649,15.262202 0 0 1 -8.20739,13.68809 15.108437,13.110793 0 0 1 -9.02503,1.814364 c -3.37081,-0.187242 -6.74487,-1.082978 -10.13722,-0.834298 a 7.0719365,6.1368821 0 0 0 -4.16692,1.460987 c -1.15948,0.865364 -2.54134,-0.810423 -1.39139,-1.668682 z"
     id="path48"
     inkscape:connector-curvature="0"
     style="fill:#2f2e41;stroke-width:0.73683149" />
</svg>
