<?xml version="1.0" encoding="UTF-8" standalone="no"?>
<svg
   xmlns:dc="http://purl.org/dc/elements/1.1/"
   xmlns:cc="http://creativecommons.org/ns#"
   xmlns:rdf="http://www.w3.org/1999/02/22-rdf-syntax-ns#"
   xmlns:svg="http://www.w3.org/2000/svg"
   xmlns="http://www.w3.org/2000/svg"
   xmlns:sodipodi="http://sodipodi.sourceforge.net/DTD/sodipodi-0.dtd"
   xmlns:inkscape="http://www.inkscape.org/namespaces/inkscape"
   id="b97bb7d6-95f0-447b-bc12-1d70469e6c4d"
   data-name="Layer 1"
   width="200"
   height="200"
   viewBox="0 0 200.00001 199.99999"
   version="1.1"
   sodipodi:docname="outro.svg"
   inkscape:version="0.92.3 (2405546, 2018-03-11)">
  <metadata
     id="metadata86">
    <rdf:RDF>
      <cc:Work
         rdf:about="">
        <dc:format>image/svg+xml</dc:format>
        <dc:type
           rdf:resource="http://purl.org/dc/dcmitype/StillImage" />
        <dc:title></dc:title>
      </cc:Work>
    </rdf:RDF>
  </metadata>
  <defs
     id="defs84" />
  <sodipodi:namedview
     pagecolor="#ffffff"
     bordercolor="#666666"
     borderopacity="1"
     objecttolerance="10"
     gridtolerance="10"
     guidetolerance="10"
     inkscape:pageopacity="0"
     inkscape:pageshadow="2"
     inkscape:window-width="1920"
     inkscape:window-height="1015"
     id="namedview82"
     showgrid="false"
     inkscape:zoom="2.1465873"
     inkscape:cx="132.97492"
     inkscape:cy="52.466345"
     inkscape:window-x="0"
     inkscape:window-y="28"
     inkscape:window-maximized="1"
     inkscape:current-layer="b97bb7d6-95f0-447b-bc12-1d70469e6c4d" />
  <path
     d="M 125.68114,112.56435 46.411762,131.80103 A 10.481736,9.8778221 0 0 1 33.661717,124.70661 L 9.6885654,36.974928 A 10.481733,9.8778192 0 0 1 17.216732,24.959486 l 73.747217,-17.89659 18.875821,7.963226 23.36955,85.522788 a 10.481733,9.8778192 0 0 1 -7.52818,12.01544 z"
     id="path2"
     inkscape:connector-curvature="0"
     style="fill:#f2f2f2;stroke-width:0.30799383" />
  <path
     d="m 17.968336,27.71014 a 7.4642449,7.0341864 0 0 0 -5.360969,8.55645 l 23.973152,87.73169 a 7.4642481,7.0341894 0 0 0 9.079578,5.05209 l 79.269393,-19.23669 a 7.4642481,7.0341894 0 0 0 5.36097,-8.55644 L 107.283,17.059587 90.694576,10.061311 Z"
     id="path4"
     inkscape:connector-curvature="0"
     style="fill:#ffffff;stroke-width:0.30799383" />
  <path
     d="M 109.63836,15.478693 97.370345,18.45583 A 3.4870334,3.2861252 0 0 1 93.123908,16.093006 L 90.790602,7.5540827 a 0.21793861,0.2053819 0 0 1 0.299505,-0.2389218 l 18.582343,7.7769351 a 0.21793861,0.2053819 0 0 1 -0.0341,0.386597 z"
     id="path6"
     inkscape:connector-curvature="0"
     style="fill:#f2f2f2;stroke-width:0.30799383" />
  <path
     d="m 103.1842,90.399683 -36.090232,8.758195 a 1.7435157,1.6430617 0 0 1 -0.869583,-3.182296 l 36.090235,-8.758211 a 1.7435203,1.643066 0 1 1 0.86958,3.182312 z"
     id="path8"
     inkscape:connector-curvature="0"
     style="fill:#cccccc;stroke-width:0.30799383" />
  <path
     d="M 111.61641,94.079646 68.561386,104.52802 a 1.7435172,1.6430631 0 0 1 -0.869569,-3.18231 L 110.74684,90.897332 a 1.7435209,1.6430666 0 0 1 0.86958,3.182314 z"
     id="path10"
     inkscape:connector-curvature="0"
     style="fill:#cccccc;stroke-width:0.30799383" />
  <ellipse
     id="a597741b-ffcf-4aba-98b0-6652ef5d57c9"
     data-name="Ellipse 44"
     cx="52.363983"
     cy="103.89892"
     style="fill:#e6e6e6;stroke-width:0.30799383"
     rx="6.1623683"
     ry="5.8073182" />
  <path
     d="M 99.346771,75.20152 51.41535,86.828957 A 5.3996596,5.0885537 0 0 1 44.847479,83.173691 L 34.802823,46.400816 a 5.3996564,5.0885507 0 0 1 3.878739,-6.189442 l 47.93145,-11.627431 a 5.3996564,5.0885507 0 0 1 6.56786,3.655263 l 10.044648,36.77287 a 5.3996596,5.0885537 0 0 1 -3.878749,6.189444 z"
     id="path13"
     inkscape:connector-curvature="0"
     style="fill:#ffffff;stroke-width:0.30799383" />
  <path
     d="M 99.346771,75.20152 51.41535,86.828957 A 5.3996596,5.0885537 0 0 1 44.847479,83.173691 L 34.802823,46.400816 a 5.3996564,5.0885507 0 0 1 3.878739,-6.189442 l 47.93145,-11.627431 a 5.3996564,5.0885507 0 0 1 6.56786,3.655263 l 10.044648,36.77287 A 5.3996596,5.0885537 0 0 1 99.346771,75.20152 Z M 38.839764,40.790471 a 4.7644325,4.4899259 0 0 0 -3.422427,5.461278 L 45.461992,83.02463 a 4.7644325,4.4899259 0 0 0 5.795167,3.225233 l 47.93145,-11.627437 a 4.7644325,4.4899259 0 0 0 3.422421,-5.461275 L 92.566358,32.388273 a 4.7644325,4.4899259 0 0 0 -5.795181,-3.225229 z"
     id="path15"
     inkscape:connector-curvature="0"
     style="fill:#e6e6e6;stroke-width:0.30799383" />
  <path
     id="b056fd3f-f1a0-44f0-b006-deff0bee637d"
     data-name="Path 411"
     d="M 84.181361,40.948425 59.99098,46.816636 a 0.86642113,0.81650157 0 0 1 -1.049675,-0.513826 0.83462121,0.78653384 0 0 1 0.587855,-0.9984 l 24.624306,-5.97348 c 0.994698,0.474969 0.732962,1.446455 0.02755,1.617567 z"
     inkscape:connector-curvature="0"
     style="fill:#f2f2f2;stroke-width:0.30799383" />
  <path
     id="f1ea6668-a825-428d-96fe-a2c4e1b5a672"
     data-name="Path 412"
     d="M 85.273604,44.947108 61.08324,50.81532 a 0.86642746,0.81650755 0 0 1 -1.049675,-0.513829 0.83462439,0.78653684 0 0 1 0.587853,-0.998401 l 24.624303,-5.97348 c 0.994714,0.47497 0.732963,1.446456 0.02767,1.617567 z"
     inkscape:connector-curvature="0"
     style="fill:#f2f2f2;stroke-width:0.30799383" />
  <path
     id="ee9aa382-a9c9-40d0-8ed3-22ec2dd616d6"
     data-name="Path 413"
     d="m 56.475751,54.360623 -7.382664,1.790924 a 0.93975157,0.88560703 0 0 1 -1.143206,-0.636235 l -2.242641,-8.21019 a 0.93975157,0.88560703 0 0 1 0.675132,-1.077334 l 7.382665,-1.79092 a 0.94006883,0.88590601 0 0 1 1.143194,0.636234 l 2.242654,8.210199 a 0.93975157,0.88560703 0 0 1 -0.675134,1.077331 z"
     inkscape:connector-curvature="0"
     style="fill:#e6e6e6;stroke-width:0.30799383" />
  <path
     id="be954d2b-d8b8-4d26-80a0-a319e99a4b10"
     data-name="Path 414"
     d="m 87.439641,53.151501 -36.918927,8.955963 a 0.86642113,0.81650157 0 0 1 -1.049675,-0.513823 0.83461488,0.78652787 0 0 1 0.587842,-0.998406 l 37.353173,-9.06131 c 0.994702,0.474971 0.732962,1.446455 0.02755,1.61757 z"
     inkscape:connector-curvature="0"
     style="fill:#f2f2f2;stroke-width:0.30799383" />
  <path
     id="baaae9e4-1b4d-40c2-8a9d-f2abb078b489"
     data-name="Path 415"
     d="m 88.53222,57.151341 -36.918939,8.955974 a 0.86641795,0.81649858 0 0 1 -1.049663,-0.513824 0.83461171,0.78652487 0 0 1 0.587843,-0.998406 l 37.353173,-9.061302 c 0.994701,0.47497 0.732963,1.446456 0.02755,1.617568 z"
     inkscape:connector-curvature="0"
     style="fill:#f2f2f2;stroke-width:0.30799383" />
  <path
     id="a91bf4c9-37f6-4391-92ed-1882bd0ce21c"
     data-name="Path 416"
     d="M 89.624083,61.148587 52.705145,70.104559 A 0.86641795,0.81649858 0 0 1 51.65547,69.590736 0.83461171,0.78652487 0 0 1 52.243324,68.59233 l 37.353162,-9.061312 c 0.994713,0.474973 0.732961,1.446457 0.02755,1.617569 z"
     inkscape:connector-curvature="0"
     style="fill:#f2f2f2;stroke-width:0.30799383" />
  <path
     id="efb98e07-468b-4c85-9a64-ee4cc5493d6f"
     data-name="Path 417"
     d="M 90.716577,65.148139 53.797639,74.10411 a 0.86642113,0.81650157 0 0 1 -1.049676,-0.513823 0.83461805,0.78653085 0 0 1 0.587855,-0.998405 l 37.353161,-9.0613 c 0.994713,0.474975 0.732962,1.446459 0.02767,1.61757 z"
     inkscape:connector-curvature="0"
     style="fill:#f2f2f2;stroke-width:0.30799383" />
  <path
     id="aeb1db98-32e5-40b8-ab89-fdad6a3263dc"
     data-name="Path 418"
     d="M 91.808515,69.145682 54.889576,78.101644 A 0.86642429,0.81650455 0 0 1 53.839901,77.58782 0.83461488,0.78652787 0 0 1 54.427755,76.589411 L 91.78093,67.528112 c 0.9947,0.474974 0.732961,1.446458 0.02755,1.61757 z"
     inkscape:connector-curvature="0"
     style="fill:#f2f2f2;stroke-width:0.30799383" />
  <path
     id="be265de5-288f-49a7-867d-c42e7cdbf4db"
     data-name="Path 395"
     d="m 52.818639,105.93459 a 0.63913576,0.60231144 0 0 1 -0.404227,-0.0263 l -0.0074,-0.003 -1.678755,-0.6707 a 0.64358879,0.60650792 0 1 1 0.503664,-1.11629 l 1.087799,0.43603 1.425477,-3.1601 a 0.64331421,0.60624913 0 0 1 0.843751,-0.32069 l 2.1e-4,8e-5 -0.0087,0.0206 0.0087,-0.0208 a 0.6440915,0.60698165 0 0 1 0.34021,0.79534 l -1.677037,3.7156 a 0.64369493,0.60660792 0 0 1 -0.433148,0.34935 z"
     inkscape:connector-curvature="0"
     style="fill:#ffffff;stroke-width:0.30799383" />
  <path
     d="M 156.08575,145.99661 H 74.230274 A 10.481733,9.8778192 0 0 1 63.760388,136.12995 V 45.536121 a 10.481733,9.8778192 0 0 1 10.469886,-9.866656 h 76.153136 l 16.17222,12.147621 v 88.312864 a 10.481733,9.8778192 0 0 1 -10.46988,9.86666 z"
     id="path26"
     inkscape:connector-curvature="0"
     style="fill:#e6e6e6;stroke-width:0.30799383" />
  <path
     d="m 74.230248,38.509866 a 7.4642481,7.0341894 0 0 0 -7.455835,7.026255 v 90.593829 a 7.4642449,7.0341864 0 0 0 7.455835,7.02627 h 81.855472 a 7.4642449,7.0341864 0 0 0 7.45582,-7.02627 V 49.185459 L 149.3291,38.509866 Z"
     id="path28"
     inkscape:connector-curvature="0"
     style="fill:#ffffff;stroke-width:0.30799383" />
  <path
     d="M 140.16486,64.85212 H 102.8972 a 1.7435152,1.6430611 0 0 1 0,-3.286121 h 37.26766 a 1.7435152,1.6430611 0 1 1 0,3.286121 z"
     id="path30"
     inkscape:connector-curvature="0"
     style="fill:#ff7a5c;stroke-width:0.30799383" />
  <path
     d="M 147.35685,70.397457 H 102.8972 a 1.7435185,1.6430641 0 0 1 0,-3.28612 h 44.45965 a 1.7435185,1.6430641 0 1 1 0,3.28612 z"
     id="path32"
     inkscape:connector-curvature="0"
     style="fill:#ff7a5c;stroke-width:0.30799383" />
  <path
     d="m 140.16508,86.416375 h -37.26646 a 1.7433947,1.6429475 0 1 0 0,3.285889 h 37.26646 a 1.7433947,1.6429475 0 0 0 0,-3.285889 z"
     id="path34"
     inkscape:connector-curvature="0"
     style="fill:#cccccc;stroke-width:0.30799383" />
  <path
     d="m 147.35754,91.962636 h -44.45891 a 1.7433987,1.6429514 0 1 0 0,3.285898 h 44.45891 a 1.7433987,1.6429514 0 0 0 0,-3.285898 z"
     id="path36"
     inkscape:connector-curvature="0"
     style="fill:#cccccc;stroke-width:0.30799383" />
  <path
     d="M 140.16486,114.55475 H 102.8972 a 1.7435211,1.6430667 0 0 1 0,-3.28613 h 37.26766 a 1.7435211,1.6430667 0 1 1 0,3.28613 z"
     id="path38"
     inkscape:connector-curvature="0"
     style="fill:#cccccc;stroke-width:0.30799383" />
  <path
     d="M 147.35685,120.10008 H 102.8972 a 1.7435185,1.6430641 0 0 1 0,-3.28612 h 44.45965 a 1.7435185,1.6430641 0 1 1 0,3.28612 z"
     id="path40"
     inkscape:connector-curvature="0"
     style="fill:#cccccc;stroke-width:0.30799383" />
  <ellipse
     id="abdb8e2f-a218-463c-85f4-c869fef49971"
     data-name="Ellipse 44"
     cx="87.378006"
     cy="65.98172"
     style="fill:#ff7a5c;stroke-width:0.30799383"
     rx="6.1623683"
     ry="5.8073182" />
  <path
     id="ba7dbbd6-0052-44b1-a552-47a8298b8d3e"
     data-name="Path 395"
     d="m 86.767348,68.19705 a 0.63910721,0.60228454 0 0 1 -0.384499,-0.120498 l -0.0074,-0.0055 -1.448242,-1.044026 a 0.64358705,0.60650627 0 1 1 0.78316,-0.962635 l 0.938059,0.677893 2.216662,-2.725264 a 0.64331736,0.60625212 0 0 1 0.901961,-0.11222 l 1.86e-4,1.35e-4 -0.01384,0.01805 0.01408,-0.01805 a 0.6440915,0.60698165 0 0 1 0.118966,0.850158 l -2.607289,3.204079 a 0.64371396,0.60662586 0 0 1 -0.511903,0.236531 z"
     inkscape:connector-curvature="0"
     style="fill:#ffffff;stroke-width:0.30799383" />
  <path
     d="m 94.173732,90.832456 a 6.1621813,5.8071423 0 0 1 -6.161346,5.809363 1.3249991,1.248658 0 0 1 -0.158635,-0.0053 6.1620036,5.8069748 0 1 1 6.319981,-5.803377 z"
     id="path44"
     inkscape:connector-curvature="0"
     style="fill:#cccccc;stroke-width:0.30799383" />
  <ellipse
     id="e4a71040-498e-4958-ad41-c2d79154b8f7"
     data-name="Ellipse 44"
     cx="87.378006"
     cy="115.68437"
     style="fill:#cccccc;stroke-width:0.30799383"
     rx="6.1623683"
     ry="5.8073182" />
  <path
     d="m 166.24082,48.208029 h -12.66824 a 3.4870334,3.2861252 0 0 1 -3.48702,-3.286125 v -8.817501 a 0.21793861,0.2053819 0 0 1 0.35326,-0.160988 l 15.93733,11.898238 a 0.21793861,0.2053819 0 0 1 -0.13533,0.366376 z"
     id="path47"
     inkscape:connector-curvature="0"
     style="fill:#cccccc;stroke-width:0.30799383" />
  <path
     d="m 94.173732,90.832456 a 6.1621813,5.8071423 0 0 1 -6.161346,5.809363 1.3249991,1.248658 0 0 1 -0.158635,-0.0053 13.341414,12.572737 0 0 1 1.196105,-11.529028 6.1655666,5.8103324 0 0 1 5.123876,5.725651 z"
     id="path49"
     inkscape:connector-curvature="0"
     style="fill:#ff7a5c;stroke-width:0.30799383" />
  <path
     d="m 101.15365,88.060811 a 1.7481156,1.6473965 0 0 1 1.74498,-1.644436 h 9.28648 a 13.189698,12.429763 0 0 1 1.1453,3.285889 h -10.43178 a 1.7453902,1.6448281 0 0 1 -1.74498,-1.641453 z"
     id="path51"
     inkscape:connector-curvature="0"
     style="fill:#ff7a5c;stroke-width:0.30799383" />
  <path
     d="m 113.54622,91.962636 a 13.301352,12.534984 0 0 1 -0.46322,3.285898 h -10.18438 a 1.7433987,1.6429514 0 1 1 0,-3.285898 z"
     id="path53"
     inkscape:connector-curvature="0"
     style="fill:#ff7a5c;stroke-width:0.30799383" />
  <path
     d="m 136.52338,112.22738 a 1.9036568,1.7939761 0 0 1 -2.61643,0.59735 l -22.2104,-12.76694 a 1.9036169,1.7939384 0 0 1 1.98255,-3.063042 l 22.21041,12.766942 a 1.90366,1.7939791 0 0 1 0.63387,2.46569 z"
     id="path55"
     inkscape:connector-curvature="0"
     style="fill:#3f3d56;stroke-width:0.30799383" />
  <path
     d="M 114.31297,99.460436 A 15.228925,14.351497 0 1 1 109.242,79.734968 15.246173,14.367751 0 0 1 114.31297,99.460436 Z M 91.560859,86.382111 a 11.421693,10.763623 0 1 0 15.698581,-3.584106 11.43461,10.775795 0 0 0 -15.698581,3.584106 z"
     id="path57"
     inkscape:connector-curvature="0"
     style="fill:#3f3d56;stroke-width:0.30799383" />
  <ellipse
     cx="163.10623"
     cy="86.944687"
     id="circle59"
     style="fill:#a0616a;stroke-width:0.30799383"
     rx="7.79246"
     ry="7.3434911" />
  <path
     d="m 162.60259,128.11298 a 3.4905964,3.289483 0 0 1 2.64048,-4.23109 3.3210224,3.129679 0 0 1 0.46297,-0.0537 l 8.20826,-12.41507 -7.49781,-6.71734 a 2.9925091,2.8200932 0 1 1 4.16276,-4.05213 l 10.3523,9.61965 0.0209,0.0241 a 2.7109644,2.55477 0 0 1 -0.18862,3.04507 l -11.50101,12.81858 a 3.2681907,3.0798913 0 0 1 0.0856,0.31272 3.4907868,3.2896623 0 0 1 -3.13304,3.92161 q -0.1486,0.0122 -0.29574,0.0122 a 3.5016058,3.299858 0 0 1 -3.31708,-2.28445 z"
     id="path61"
     inkscape:connector-curvature="0"
     style="fill:#a0616a;stroke-width:0.30799383" />
  <polygon
     points="431.891,609 426.059,561.712 444.153,561.713 444.151,609.001 "
     id="polygon63"
     style="fill:#a0616a"
     transform="matrix(0.31726927,0,0,0.29898955,9.3565705,7.0628853)" />
  <path
     d="m 151.26393,192.70097 -12.54181,-3e-4 v -0.1495 a 4.8815207,4.600268 0 0 1 4.88165,-4.60031 h 3.2e-4 l 7.66008,2.9e-4 z"
     id="path65"
     inkscape:connector-curvature="0"
     style="fill:#2f2e41;stroke-width:0.30799383" />
  <polygon
     points="555.473,598.322 526.268,560.676 541.815,551.419 566.007,592.05 "
     id="polygon67"
     style="fill:#a0616a"
     transform="matrix(0.31726927,0,0,0.29898955,9.3565705,7.0628853)" />
  <path
     d="m 191.7144,186.65441 -10.77634,6.04656 -0.0811,-0.12851 a 4.8815049,4.6002531 0 0 1 1.69687,-6.30632 l 2.6e-4,-1.5e-4 6.5818,-3.69298 z"
     id="path69"
     inkscape:connector-curvature="0"
     style="fill:#2f2e41;stroke-width:0.30799383" />
  <path
     d="m 144.04139,182.92121 c -2.6057,-28.91411 -4.15579,-55.77497 5.36949,-66.73248 l 0.0736,-0.0849 16.03022,6.04286 0.0265,0.054 c 0.0541,0.111 5.3853,11.16217 4.1417,18.59545 l 3.95403,17.14051 12.89246,20.34354 a 1.4281432,1.3458596 0 0 1 -0.65066,1.92184 l -5.6027,2.32301 a 1.4345075,1.3518573 0 0 1 -1.79208,-0.52791 l -14.02461,-21.55118 -7.9215,-16.52997 a 0.47599273,0.44856802 0 0 0 -0.90703,0.13723 l -4.39104,38.89754 a 1.42511,1.3430012 0 0 1 -1.41966,1.20325 h -4.35556 a 1.4373725,1.3545571 0 0 1 -1.42315,-1.23274 z"
     id="path71"
     inkscape:connector-curvature="0"
     style="fill:#2f2e41;stroke-width:0.30799383" />
  <path
     d="m 149.46489,116.41794 -0.0764,-0.0344 -0.0123,-0.0792 c -0.59883,-3.94963 0.10996,-8.33812 2.10663,-13.04341 a 10.989046,10.355903 0 0 1 12.75484,-6.201991 v 0 a 10.975743,10.343367 0 0 1 6.99913,5.072021 10.857239,10.231691 0 0 1 0.75281,8.19973 c -2.51715,6.93662 -5.78249,13.42679 -5.81518,13.4916 l -0.0684,0.13543 z"
     id="path73"
     inkscape:connector-curvature="0"
     style="fill:#ff7a5c;stroke-width:0.30799383" />
  <path
     d="m 131.97507,106.58016 a 3.4905964,3.289483 0 0 1 5.13018,0.84907 3.3213524,3.1299899 0 0 1 0.21553,0.38986 l 15.21437,2.89785 4.05098,-8.97076 a 2.9925091,2.8200932 0 1 1 5.48536,2.2555 l -5.93611,12.5068 -0.0166,0.0267 a 2.7109674,2.554773 0 0 1 -3.09268,0.89987 L 136.25755,111.772 a 3.2687395,3.0804085 0 0 1 -0.28081,0.18513 3.49079,3.2896653 0 0 1 -4.99505,-1.39225 q -0.0642,-0.12688 -0.11575,-0.25675 a 3.5016058,3.299858 0 0 1 1.10903,-3.72803 z"
     id="path75"
     inkscape:connector-curvature="0"
     style="fill:#a0616a;stroke-width:0.30799383" />
  <path
     d="m 191.25704,94.808918 c -0.75057,-1.253296 -1.84413,-2.401242 -3.28981,-2.86452 -1.86705,-0.59828 -3.88871,0.03881 -5.80829,0.464078 -1.47899,0.327677 -3.02412,0.528249 -4.51488,0.251729 -1.49061,-0.276548 -2.92854,-1.094071 -3.60678,-2.375197 -0.9978,-1.884714 -0.15724,-4.132221 -0.21796,-6.237684 a 8.0378201,7.5747146 0 0 0 -10.1283,-7.119136 c -1.83808,-0.499888 -3.50234,-0.546133 -4.63929,0.78549 a 5.3936092,5.0828522 0 0 0 -5.39356,5.082835 h 5.15732 a 5.1237718,4.8285615 0 0 0 0.77861,3.567266 c 0.91046,1.260488 2.49354,2.172305 2.79826,3.669798 0.29542,1.451154 -0.75135,2.82804 -1.84939,3.882879 -1.0979,1.054839 -2.37163,2.100052 -2.71445,3.541911 a 4.6602762,4.3917707 0 0 0 0.66739,3.158753 10.915106,10.286224 0 0 0 2.34342,2.43251 34.392572,32.411017 0 0 0 14.28904,6.88882 c 3.71335,0.84249 7.77495,1.06087 11.22215,-0.489 a 11.144283,10.502196 0 0 0 4.90652,-14.640521 z"
     id="path77"
     inkscape:connector-curvature="0"
     style="fill:#2f2e41;stroke-width:0.30799383" />
  <path
     d="m 192.42135,193.01213 h -60.28117 a 0.31727086,0.29899106 0 0 1 0,-0.59798 h 60.28117 a 0.31727086,0.29899106 0 0 1 0,0.59798 z"
     id="path79"
     inkscape:connector-curvature="0"
     style="fill:#cccccc;stroke-width:0.30799383" />
</svg>
