<?xml version="1.0" encoding="UTF-8" standalone="no"?>
<!-- Created with Inkscape (http://www.inkscape.org/) -->

<svg
   xmlns:dc="http://purl.org/dc/elements/1.1/"
   xmlns:cc="http://creativecommons.org/ns#"
   xmlns:rdf="http://www.w3.org/1999/02/22-rdf-syntax-ns#"
   xmlns:svg="http://www.w3.org/2000/svg"
   xmlns="http://www.w3.org/2000/svg"
   xmlns:sodipodi="http://sodipodi.sourceforge.net/DTD/sodipodi-0.dtd"
   xmlns:inkscape="http://www.inkscape.org/namespaces/inkscape"
   version="1.1"
   id="svg2"
   width="239.8349"
   height="245.30171"
   viewBox="0 0 239.8349 245.30171"
   sodipodi:docname="logo2.svg"
   inkscape:version="0.92.3 (2405546, 2018-03-11)">
  <metadata
     id="metadata8">
    <rdf:RDF>
      <cc:Work
         rdf:about="">
        <dc:format>image/svg+xml</dc:format>
        <dc:type
           rdf:resource="http://purl.org/dc/dcmitype/StillImage" />
        <dc:title></dc:title>
      </cc:Work>
    </rdf:RDF>
  </metadata>
  <defs
     id="defs6" />
  <sodipodi:namedview
     pagecolor="#ffffff"
     bordercolor="#666666"
     borderopacity="1"
     objecttolerance="10"
     gridtolerance="10"
     guidetolerance="10"
     inkscape:pageopacity="0"
     inkscape:pageshadow="2"
     inkscape:window-width="1920"
     inkscape:window-height="1015"
     id="namedview4"
     showgrid="false"
     inkscape:zoom="0.91507936"
     inkscape:cx="-36.136959"
     inkscape:cy="113.5796"
     inkscape:window-x="1920"
     inkscape:window-y="28"
     inkscape:window-maximized="1"
     inkscape:current-layer="svg2"
     fit-margin-top="0"
     fit-margin-left="0"
     fit-margin-right="0"
     fit-margin-bottom="0" />
  <g
     id="g838"
     transform="translate(-348.62367,337.644)">
    <path
       sodipodi:nodetypes="ccscsssssccssscsscsscsscssscsscsssccscssssscs"
       inkscape:connector-curvature="0"
       id="path817"
       d="m 419.27031,-93.23096 c -4.10871,-1.67097 -55.50771,-31.56125 -59.81015,-34.78167 -2.46225,-1.843 -5.90638,-6.42113 -7.65364,-10.17362 l -3.17683,-6.82271 -0.006,-57.33333 c -0.004,-36.86155 0.50687,-59.17893 1.42959,-62.50212 2.65222,-9.55199 8.97261,-14.14442 59.75279,-43.41665 51.59004,-29.73908 55.2028,-31.28561 66.20858,-28.34201 3.01315,0.8059 27.62823,14.29149 54.70019,29.96798 42.49939,24.61002 49.76802,29.27777 53.22172,34.17781 l 4,5.67511 0.37168,61.86456 c 0.35436,58.98109 0.2513,62.09862 -2.21122,66.8866 -4.12584,8.02206 -8.46447,11.21225 -39.35407,28.93708 l -29.19363,16.75164 h -8.83757 c -8.39228,0 -9.62507,-0.43794 -24.46695,-8.69152 l -15.62939,-8.69152 -14.31,8.34762 c -13.50631,7.8788 -14.83583,8.36482 -23.67275,8.65387 -5.14952,0.16844 -10.26276,-0.0598 -11.36276,-0.50712 z m 80.40824,-42.70985 c 16.16614,-9.31252 30.8896,-18.21919 32.71878,-19.79259 l 3.32579,-2.86073 -30.55973,-16.27235 c -39.05645,-20.79664 -33.60745,-20.83973 -73.55092,0.58168 -25.53701,13.69532 -29.37107,16.15169 -27.74639,17.77637 2.70205,2.70206 62.37315,37.24483 64.57852,37.38362 1.01253,0.0637 15.06781,-7.50348 31.23395,-16.816 z m -64.75129,-48.36446 25.65695,-13.66281 9.67638,0.57929 c 9.39424,0.56239 10.51616,1.03318 38.47782,16.14623 15.84079,8.56181 29.42082,15.56693 30.17783,15.56693 2.50813,0 2.98423,-5.72241 2.99509,-36 0.012,-33.2662 -0.82194,-38.49966 -7.1118,-44.6331 -2.30773,-2.25037 -16.64169,-11.20094 -31.85324,-19.89017 l -27.65734,-15.79859 -7.67599,0.61389 c -6.85338,0.54811 -10.46231,2.22677 -33.67598,15.66407 -14.3,8.27759 -27.7239,16.62376 -29.83088,18.54704 -7.05711,6.44179 -7.50246,9.13347 -7.50246,45.34498 0,18.29692 0.37027,34.23202 0.82282,35.41135 0.7235,1.88539 1.48803,1.75972 6.33334,-1.04103 3.03078,-1.75189 17.05614,-9.33353 31.16746,-16.84808 z"
       style="fill:#000000;stroke-width:1.33333337" />
  </g>
</svg>
