<?xml version="1.0" encoding="UTF-8" standalone="no"?>
<svg
   xmlns:dc="http://purl.org/dc/elements/1.1/"
   xmlns:cc="http://creativecommons.org/ns#"
   xmlns:rdf="http://www.w3.org/1999/02/22-rdf-syntax-ns#"
   xmlns:svg="http://www.w3.org/2000/svg"
   xmlns="http://www.w3.org/2000/svg"
   xmlns:sodipodi="http://sodipodi.sourceforge.net/DTD/sodipodi-0.dtd"
   xmlns:inkscape="http://www.inkscape.org/namespaces/inkscape"
   id="b4c217a0-9b86-49d5-974d-fd03b0c4b3dd"
   data-name="Layer 1"
   width="900"
   height="600"
   viewBox="0 0 899.99998 600"
   version="1.1"
   sodipodi:docname="pagamentos2.svg"
   inkscape:version="0.92.3 (2405546, 2018-03-11)">
  <metadata
     id="metadata241">
    <rdf:RDF>
      <cc:Work
         rdf:about="">
        <dc:format>image/svg+xml</dc:format>
        <dc:type
           rdf:resource="http://purl.org/dc/dcmitype/StillImage" />
        <dc:title>apartment rent</dc:title>
      </cc:Work>
    </rdf:RDF>
  </metadata>
  <defs
     id="defs239" />
  <sodipodi:namedview
     pagecolor="#ffffff"
     bordercolor="#666666"
     borderopacity="1"
     objecttolerance="10"
     gridtolerance="10"
     guidetolerance="10"
     inkscape:pageopacity="0"
     inkscape:pageshadow="2"
     inkscape:window-width="1920"
     inkscape:window-height="1015"
     id="namedview237"
     showgrid="false"
     inkscape:zoom="0.61942257"
     inkscape:cx="508.44241"
     inkscape:cy="57.934725"
     inkscape:window-x="0"
     inkscape:window-y="28"
     inkscape:window-maximized="1"
     inkscape:current-layer="b4c217a0-9b86-49d5-974d-fd03b0c4b3dd" />
  <title
     id="title2">apartment rent</title>
  <rect
     x="534.27924"
     y="247.45868"
     width="67.038803"
     height="41.424789"
     id="rect4"
     style="fill:#ff7a5c;stroke-width:0.76623625" />
  <rect
     x="429.82346"
     y="312.23199"
     width="67.038803"
     height="41.424789"
     id="rect6"
     style="fill:#ff7a5c;stroke-width:0.76623625" />
  <path
     d="M 797.29404,261.01589 V 172.89407 H 746.62522 V 115.65255 H 712.3263 v 57.24152 h -50.66886 v 88.12182 H 633.5947 V 62.930084 H 576.68967 V 44.100635 H 501.07614 V 25.271186 h -74.834 v 18.829449 h -70.9364 V 62.930084 H 293.72359 V 260.26272 h -32.73988 v -88.12183 h -50.66886 v -57.24152 h -34.29892 v 57.24152 h -50.66884 v 88.12183 H 92.607202 V 572.83157 H 167.44121 V 462.11441 h 51.44838 V 572.83157 H 420.00597 V 444.03814 h 87.30634 v 128.79343 h 121.60527 v 0.75318 h 74.83399 V 462.86759 h 51.44834 v 110.71716 h 74.83405 V 261.01589 Z m -677.79336,37.6589 h 29.62178 v 22.59534 h -29.62178 z m 0.38976,63.26695 h 29.62179 v 22.59534 h -29.62179 z m 30.01155,85.86229 h -29.6218 v -22.59534 h 29.6218 z M 227.46432,243.6928 h -68.59784 v -13.5572 h 68.59784 z m 0,-19.58263 h -68.59784 v -13.5572 h 68.59784 z m 0,-19.58262 h -68.59784 v -13.55721 h 68.59784 z m 9.74401,94.14724 h 29.62179 v 22.59534 h -29.62179 z m 0.38975,63.26695 h 29.6218 v 22.59534 h -29.6218 z m 30.01156,85.86229 h -29.62179 v -22.59534 h 29.62179 z m 121.2155,-37.6589 h -54.56646 v -23.34852 h 54.56646 z m 0,-67.03284 h -54.56646 v -23.34852 h 54.56646 z m 0,-67.03284 h -54.56646 v -23.34851 h 54.56646 z m 0,-67.03284 H 334.25868 V 185.6981 h 54.56646 z m 0,-67.03284 h -54.56646 v -23.34851 h 54.56646 z m 102.11723,268.13136 h -54.56646 v -23.34852 h 54.56646 z m 0,-67.03284 h -54.56646 v -23.34852 h 54.56646 z m 0,-67.03284 h -54.56646 v -23.34851 h 54.56646 z m 0,-67.03284 H 436.37591 V 185.6981 h 54.56646 z m 0,-67.03284 h -54.56646 v -23.34851 h 54.56646 z m 102.11724,268.13136 h -54.56646 v -23.34852 h 54.56646 z m 0,-67.03284 h -54.56646 v -23.34852 h 54.56646 z m 0,-67.03284 h -54.56646 v -23.34851 h 54.56646 z m 0,-67.03284 H 538.49315 V 185.6981 h 54.56646 z m 0,-67.03284 h -54.56646 v -23.34851 h 54.56646 z m 62.75143,157.4142 h 29.62179 v 22.59534 h -29.62179 z m 0.38976,63.26695 h 29.6218 v 22.59534 h -29.6218 z m 30.01156,85.86229 h -29.6218 v -22.59534 h 29.6218 z m 77.56229,-204.11123 h -68.5978 v -13.55721 h 68.5978 z m 0,-19.58263 h -68.5978 v -13.5572 h 68.5978 z m 0,-19.58263 h -68.5978 v -13.5572 h 68.5978 z m 9.744,94.14725 h 29.6218 v 22.59534 h -29.6218 z m 0.38976,63.26695 h 29.6218 v 22.59534 h -29.6218 z m 30.01155,85.86229 h -29.62178 v -22.59534 h 29.62178 z"
     id="path8"
     inkscape:connector-curvature="0"
     style="fill:#f2f2f2;stroke-width:0.76623625" />
  <path
     d="m 138.74595,496.54182 c -0.21805,2.97949 -0.55937,6.3121 -1.08701,9.81391 l 9.53019,-10.21217 0.0525,0.17097 a 27.771531,26.833027 0 0 0 -2.78756,-7.02813 l 0.061,0.16154 z"
     id="path10"
     inkscape:connector-curvature="0"
     style="fill:#ff7a5c;stroke-width:0.76623625" />
  <path
     d="m 138.78321,496.01909 5.58839,-6.87151 a 14.629152,14.134778 0 0 0 -4.9984,-5.14657 c -0.10239,-0.0589 -0.20535,-0.11432 -0.30831,-0.16931 0.0306,0.81153 0.17692,5.57584 -0.28168,12.18739 z"
     id="path12"
     inkscape:connector-curvature="0"
     style="fill:#ff7a5c;stroke-width:0.76623625" />
  <path
     d="m 133.7414,522.95827 q -0.36833,1.08371 -0.76073,2.12829 l 14.03503,-7.95113 0.0197,0.19956 q 0.43985,-1.85463 0.73267,-3.70893 l -14.01391,9.42301 z"
     id="path14"
     inkscape:connector-curvature="0"
     style="fill:#ff7a5c;stroke-width:0.76623625" />
  <path
     d="m 135.69334,516.28471 12.64047,-10.07243 0.0359,0.18848 a 43.658852,42.183456 0 0 0 -1.08384,-9.9021 l -9.71189,10.40666 q -0.76506,4.91992 -1.88066,9.37939 z"
     id="path16"
     inkscape:connector-curvature="0"
     style="fill:#ff7a5c;stroke-width:0.76623625" />
  <path
     d="m 137.35725,506.70725 -15.12511,-16.30583 0.081,-0.18433 a 36.451512,35.219678 0 0 0 -3.62912,6.17262 l 17.26004,17.75549 c 0.59138,-2.5913 1.05308,-5.10041 1.41326,-7.43795 z"
     id="path18"
     inkscape:connector-curvature="0"
     style="fill:#ff7a5c;stroke-width:0.76623625" />
  <path
     d="m 118.52067,496.75678 6.1e-4,6.4e-4 c 0.0272,-0.0605 0.051,-0.12637 0.0784,-0.18645 z"
     id="path20"
     inkscape:connector-curvature="0"
     style="fill:#ff7a5c;stroke-width:0.76623625" />
  <path
     d="m 117.67913,498.7569 -0.0778,0.18642 c 0.0247,-0.0641 0.0533,-0.12233 0.0782,-0.18601 z"
     id="path22"
     inkscape:connector-curvature="0"
     style="fill:#ff7a5c;stroke-width:0.76623625" />
  <path
     d="m 135.8444,514.57777 -17.32312,-17.82035 q -0.43919,0.9722 -0.84175,1.99989 l 17.70526,17.70547 q 0.24158,-0.94792 0.45961,-1.88501 z"
     id="path24"
     inkscape:connector-curvature="0"
     style="fill:#ff7a5c;stroke-width:0.76623625" />
  <path
     d="m 147.80512,513.38807 a 52.136111,50.374237 0 0 0 0.56262,-6.76863 l -12.81143,10.20863 q -0.76141,2.96957 -1.67555,5.7097 l 13.89711,-9.34453 z"
     id="path26"
     inkscape:connector-curvature="0"
     style="fill:#ff7a5c;stroke-width:0.76623625" />
  <path
     d="m 115.38227,514.65831 14.02242,17.67629 a 62.708853,60.589688 0 0 0 3.04709,-6.63724 l -17.11011,-17.36382 a 50.43009,48.725869 0 0 0 -0.0563,6.52323 z"
     id="path28"
     inkscape:connector-curvature="0"
     style="fill:#ff7a5c;stroke-width:0.76623625" />
  <path
     d="m 138.80866,483.81682 0.12566,-0.0543 c -3.07094,-1.58529 -6.39551,-1.41505 -9.58197,0.19216 l 9.18384,12.05241 c 0.49429,-7.15336 0.2758,-12.11907 0.27247,-12.19028 z"
     id="path30"
     inkscape:connector-curvature="0"
     style="fill:#ff7a5c;stroke-width:0.76623625" />
  <path
     d="m 132.52567,526.2691 a 62.278652,60.174024 0 0 1 -2.75404,5.98492 l 14.10499,-7.05112 0.0142,0.19611 a 24.701333,23.866583 0 0 0 2.473,-5.52871 q 0.33615,-1.14273 0.61343,-2.2918 l -14.20236,8.04581 c -0.0829,0.21537 -0.16484,0.43199 -0.24924,0.64479 z"
     id="path32"
     inkscape:connector-curvature="0"
     style="fill:#ff7a5c;stroke-width:0.76623625" />
  <path
     d="m 138.49826,496.53999 -9.39447,-12.32902 0.0881,-0.17561 a 21.024185,20.313699 0 0 0 -6.76585,6.03228 l 15.00187,16.17299 c 0.51922,-3.46237 0.8554,-6.75583 1.07036,-9.70064 z"
     id="path34"
     inkscape:connector-curvature="0"
     style="fill:#ff7a5c;stroke-width:0.76623625" />
  <path
     d="m 132.6054,525.29916 a 84.624007,81.764247 0 0 0 2.67063,-8.41454 l -17.74927,-17.74947 q -0.63381,1.66301 -1.16424,3.45954 a 30.321023,29.296363 0 0 0 -0.97849,5.24908 l 17.20792,17.46297 z"
     id="path36"
     inkscape:connector-curvature="0"
     style="fill:#ff7a5c;stroke-width:0.76623625" />
  <path
     d="m 150.83642,544.44843 c -2.13468,2.16038 -4.59753,4.51681 -7.31557,6.88866 l 14.08138,-1.99222 -0.0725,0.16406 a 27.77033,26.831867 0 0 0 2.49247,-7.13086 l -0.0598,0.162 z"
     id="path38"
     inkscape:connector-curvature="0"
     style="fill:#ff7a5c;stroke-width:0.76623625" />
  <path
     d="m 159.59804,535.17613 c -0.04,-0.10846 -0.0827,-0.2146 -0.1257,-0.32042 -0.51215,0.6439 -3.54448,4.40355 -8.26214,9.21305 l 8.84022,-1.84842 a 14.629799,14.135403 0 0 0 -0.45238,-7.04421 z"
     id="path40"
     inkscape:connector-curvature="0"
     style="fill:#ff7a5c;stroke-width:0.76623625" />
  <path
     d="m 129.5439,561.70996 q -0.99906,0.60765 -1.99089,1.17036 l 16.0584,2.52541 -0.11662,0.16582 q 1.56302,-1.15737 3.01265,-2.40508 l -17.01376,-1.3787 z"
     id="path42"
     inkscape:connector-curvature="0"
     style="fill:#ff7a5c;stroke-width:0.76623625" />
  <path
     d="m 135.45265,557.77297 16.38458,0.0321 -0.0968,0.16727 a 43.661324,42.185844 0 0 0 5.70191,-8.29442 l -14.34972,2.03005 q -3.83698,3.31779 -7.64,6.06491 z"
     id="path44"
     inkscape:connector-curvature="0"
     style="fill:#ff7a5c;stroke-width:0.76623625" />
  <path
     d="m 129.92882,561.47203 16.87194,1.36715 -0.10757,0.16687 a 52.139579,50.377589 0 0 0 4.90141,-4.86646 l -16.60613,-0.0325 q -2.54677,1.81788 -5.05965,3.36499 z"
     id="path46"
     inkscape:connector-curvature="0"
     style="fill:#ff7a5c;stroke-width:0.76623625" />
  <path
     d="m 109.26366,569.53936 c 0.11946,-0.11686 0.24599,-0.24365 0.37068,-0.36771 a 43.371412,41.905729 0 0 0 10.01278,-2.76397 l 0.45856,-11.74878 q 0.20404,-0.44849 0.39657,-0.90332 l -0.48799,12.50338 a 62.693996,60.575332 0 0 0 6.72822,-3.23411 l -1.56683,-21.84086 c 0.12082,-0.0608 0.24242,-0.1222 0.36777,-0.18623 l 1.56485,21.81264 0.0153,0.002 a 84.628194,81.768291 0 0 0 7.61152,-4.83492 l -1.70616,-21.49298 c 0.12083,-0.0855 0.24128,-0.16908 0.36236,-0.25628 l 1.70606,21.49136 q 0.81179,-0.58123 1.59828,-1.16857 l -1.40745,-21.75716 c 0.12051,-0.0955 0.24094,-0.19119 0.36121,-0.28828 l 1.40852,21.77362 c 2.16603,-1.63138 4.17797,-3.27925 5.9984,-4.85768 l -0.88532,-21.87958 0.18402,-0.0921 c -0.62869,0.15846 -1.26781,0.34653 -1.91226,0.55118 a 31.951547,30.871786 0 0 0 3.25825,-4.29183 l -14.23995,7.1186 a 47.908347,46.289346 0 0 1 -3.31872,5.22154 c -0.2545,0.2321 -0.50903,0.46402 -0.75979,0.70624 l 0.0187,0.2612 c -0.11624,0.14789 -0.23185,0.29689 -0.34942,0.44212 l -0.0252,-0.35218 c -0.17974,0.17822 -0.35503,0.36666 -0.53273,0.54966 a 44.999215,43.478524 0 0 0 4.72609,-6.98138 l -13.91979,-17.54667 c 0.0949,1.56845 0.25349,3.14726 0.45765,4.71319 a 27.468188,26.539935 0 0 0 -4.66621,-5.50835 l 0.10966,0.13542 -3.21705,8.46942 c 0.74578,2.89866 1.48731,6.17003 2.10575,9.65795 l 5.71695,-12.38569 c 0.0261,0.19308 0.0538,0.38556 0.0813,0.57812 L 110.1851,533.144 q 0.84634,4.9075 1.21196,9.48176 l 6.84507,-10.38851 c 0.0392,0.14926 0.0781,0.29862 0.11728,0.44573 l -6.91882,10.50044 q 0.2258,3.05157 0.23304,5.93054 l 8.36733,-10.66645 c 0.0447,0.14043 0.0882,0.27655 0.13161,0.41129 l -8.45588,10.77927 -0.0412,-0.0826 q -0.004,1.14061 -0.0426,2.25125 l 9.43828,-10.26747 q 0.0752,0.21452 0.13968,0.39525 l -9.60165,10.44508 c -0.0101,0.22952 -0.0186,0.46007 -0.0307,0.68765 a 62.301414,60.196017 0 0 1 -0.7046,6.51436 l 0.91085,-0.89123 q -0.2588,0.51875 -0.5041,1.02282 l -0.51832,0.50723 c -0.0594,0.3297 -0.12722,0.65177 -0.1925,0.97612 q -0.28683,0.60868 -0.55286,1.18787 c 0.1712,-0.74077 0.33086,-1.48553 0.46718,-2.23724 L 91.632661,547.61668 c 4.918246,12.15769 14.179729,23.7223 14.772649,24.45636 0.48131,-0.86865 0.91863,-1.76251 1.32015,-2.67498 0.11666,-0.0106 0.23332,-0.0213 0.34989,-0.033 -0.0481,0.11217 -0.0982,0.22236 -0.14734,0.33356 -0.0587,0.006 -0.11831,0.0151 -0.17694,0.0207 0.0457,0.0123 0.10053,0.0267 0.15016,0.0401 -0.2829,0.63724 -0.57598,1.26408 -0.89033,1.8691 0.4114,-0.35737 1.03816,-0.92217 1.78744,-1.63907 4.4329,1.09331 16.37498,3.43148 26.60029,-0.0225 l -15.66664,-3.29285 a 43.810633,42.330108 0 0 1 -10.46833,2.86541 z m 11.00878,-19.15386 0.37568,-0.36756 -0.0214,0.55063 -0.37567,0.36764 z"
     id="path48"
     inkscape:connector-curvature="0"
     style="fill:#ff7a5c;stroke-width:0.76623625" />
  <path
     d="m 159.28483,534.6864 0.13261,0.0356 c -1.31873,-3.11348 -3.99163,-5.03118 -7.50679,-5.757 l -0.88281,14.9423 c 5.10285,-5.20486 8.21256,-9.16401 8.25699,-9.22092 z"
     id="path50"
     inkscape:connector-curvature="0"
     style="fill:#ff7a5c;stroke-width:0.76623625" />
  <path
     d="m 126.42202,563.51076 a 62.299761,60.19442 0 0 1 -6.07193,2.91231 l 15.5181,3.2616 -0.11848,0.1598 a 24.697872,23.863239 0 0 0 5.55431,-2.73409 q 1.01328,-0.67301 1.98535,-1.38711 l -16.24975,-2.55558 c -0.20595,0.11484 -0.41216,0.23113 -0.6176,0.34307 z"
     id="path52"
     inkscape:connector-curvature="0"
     style="fill:#ff7a5c;stroke-width:0.76623625" />
  <path
     d="m 143.41891,551.10615 c 2.68545,-2.34679 5.11846,-4.6762 7.22798,-6.81174 l 0.9032,-15.28516 0.1838,-0.0809 a 21.024567,20.314068 0 0 0 -9.19302,0.47643 z"
     id="path54"
     inkscape:connector-curvature="0"
     style="fill:#ff7a5c;stroke-width:0.76623625" />
  <path
     d="m 110.96891,514.22588 a 14.629705,14.135313 0 0 0 -6.40012,-3.4018 c -0.11624,-0.0255 -0.23186,-0.0474 -0.34737,-0.0689 0.28866,0.76264 1.95203,5.24995 3.63101,11.67472 z"
     id="path56"
     inkscape:connector-curvature="0"
     style="fill:#ff7a5c;stroke-width:0.76623625" />
  <path
     d="m 109.91548,533.02048 -19.600787,-10.99018 0.01801,-0.19946 A 36.451098,35.21928 0 0 0 88.85597,528.785 l 22.09493,11.73127 c -0.26653,-2.641 -0.63013,-5.16514 -1.03539,-7.49579 z"
     id="path58"
     inkscape:connector-curvature="0"
     style="fill:#ff7a5c;stroke-width:0.76623625" />
  <path
     d="m 88.818076,529.18288 7.79e-4,4.1e-4 c 0.0063,-0.0656 0.0081,-0.13539 0.01497,-0.20071 z"
     id="path60"
     inkscape:connector-curvature="0"
     style="fill:#ff7a5c;stroke-width:0.76623625" />
  <path
     d="m 88.657565,531.33636 -0.01434,0.20056 c 0.0031,-0.0682 0.01162,-0.13226 0.01497,-0.20028 z"
     id="path62"
     inkscape:connector-curvature="0"
     style="fill:#ff7a5c;stroke-width:0.76623625" />
  <path
     d="M 110.99455,540.95744 88.81884,529.18329 q -0.106701,1.05578 -0.160675,2.15334 l 22.502345,11.55073 q -0.0735,-0.97364 -0.16596,-1.92992 z"
     id="path64"
     inkscape:connector-curvature="0"
     style="fill:#ff7a5c;stroke-width:0.76623625" />
  <path
     d="M 111.32532,552.54569 89.498255,541.14215 a 50.44402,48.739328 0 0 0 2.033255,6.22062 l 0.02868,-0.21772 18.99055,12.62285 a 62.708464,60.589311 0 0 0 0.77457,-7.22221 z"
     id="path66"
     inkscape:connector-curvature="0"
     style="fill:#ff7a5c;stroke-width:0.76623625" />
  <path
     d="m 103.97302,510.8175 0.10212,-0.0891 c -3.42768,-0.59054 -6.535014,0.56423 -9.051283,3.04439 l 12.589813,8.71942 c -1.81834,-6.95072 -3.61467,-11.60797 -3.64065,-11.67472 z"
     id="path68"
     inkscape:connector-curvature="0"
     style="fill:#ff7a5c;stroke-width:0.76623625" />
  <path
     d="m 107.74804,523.01036 -12.878544,-8.91959 0.02768,-0.19335 a 21.023234,20.31278 0 0 0 -4.504796,7.7575 l 19.44115,10.90074 c -0.61394,-3.44795 -1.34783,-6.68054 -2.08546,-9.5453 z"
     id="path70"
     inkscape:connector-curvature="0"
     style="fill:#ff7a5c;stroke-width:0.76623625" />
  <path
     d="m 111.34402,552.12111 a 84.621754,81.76207 0 0 0 -0.152,-8.80006 L 88.633711,531.74163 q -0.07078,1.77078 -5.22e-4,3.63785 a 30.325397,29.300588 0 0 0 0.748644,5.28424 l 21.951817,11.46864 z"
     id="path72"
     inkscape:connector-curvature="0"
     style="fill:#ff7a5c;stroke-width:0.76623625" />
  <path
     d="m 806.01587,494.28229 c -0.21803,2.97948 -0.55946,6.31209 -1.08705,9.81391 l 9.53012,-10.21217 0.0522,0.17097 a 27.773144,26.834586 0 0 0 -2.78749,-7.02813 l 0.0608,0.16154 z"
     id="path74"
     inkscape:connector-curvature="0"
     style="fill:#ff7a5c;stroke-width:0.76623625" />
  <path
     d="m 806.05305,493.75955 5.58846,-6.8715 a 14.628434,14.134085 0 0 0 -4.99852,-5.14661 c -0.10235,-0.0589 -0.20532,-0.11432 -0.3083,-0.1693 0.0304,0.81155 0.17703,5.57587 -0.28164,12.18741 z"
     id="path76"
     inkscape:connector-curvature="0"
     style="fill:#ff7a5c;stroke-width:0.76623625" />
  <path
     d="m 801.01126,520.69873 q -0.36832,1.08371 -0.76073,2.12829 l 14.03504,-7.95113 0.0195,0.19956 q 0.4399,-1.85462 0.73268,-3.70892 l -14.01391,9.423 z"
     id="path78"
     inkscape:connector-curvature="0"
     style="fill:#ff7a5c;stroke-width:0.76623625" />
  <path
     d="m 802.96319,514.02517 12.64048,-10.07243 0.0358,0.18849 a 43.661331,42.185851 0 0 0 -1.08385,-9.9021 l -9.71196,10.40666 q -0.76503,4.91992 -1.88068,9.37938 z"
     id="path80"
     inkscape:connector-curvature="0"
     style="fill:#ff7a5c;stroke-width:0.76623625" />
  <path
     d="m 804.62715,504.44771 -15.12513,-16.30582 0.081,-0.18434 a 36.451512,35.219678 0 0 0 -3.62913,6.17263 l 17.26007,17.75549 c 0.59134,-2.59131 1.05306,-5.10042 1.41327,-7.43796 z"
     id="path82"
     inkscape:connector-curvature="0"
     style="fill:#ff7a5c;stroke-width:0.76623625" />
  <path
     d="m 785.7905,494.49725 6.2e-4,6.4e-4 c 0.0273,-0.0605 0.0507,-0.12637 0.0785,-0.18646 z"
     id="path84"
     inkscape:connector-curvature="0"
     style="fill:#ff7a5c;stroke-width:0.76623625" />
  <path
     d="m 803.11426,512.31824 -17.32314,-17.82035 q -0.43918,0.97219 -0.84173,1.99989 l 17.70526,17.70546 q 0.24158,-0.94792 0.45961,-1.885 z"
     id="path86"
     inkscape:connector-curvature="0"
     style="fill:#ff7a5c;stroke-width:0.76623625" />
  <path
     d="m 784.949,496.49737 -0.0779,0.18641 c 0.0249,-0.0641 0.053,-0.12232 0.0782,-0.186 z"
     id="path88"
     inkscape:connector-curvature="0"
     style="fill:#ff7a5c;stroke-width:0.76623625" />
  <path
     d="m 815.07499,511.12854 a 52.120598,50.359248 0 0 0 0.56258,-6.76864 l -12.81135,10.20864 q -0.76143,2.96957 -1.67558,5.7097 l 13.89715,-9.34453 z"
     id="path90"
     inkscape:connector-curvature="0"
     style="fill:#ff7a5c;stroke-width:0.76623625" />
  <path
     d="m 782.65215,512.39878 14.02241,17.67628 a 62.708853,60.589688 0 0 0 3.04714,-6.63723 L 782.61153,506.074 a 50.43009,48.725869 0 0 0 -0.0561,6.52324 z"
     id="path92"
     inkscape:connector-curvature="0"
     style="fill:#ff7a5c;stroke-width:0.76623625" />
  <path
     d="m 806.07854,481.55729 0.12558,-0.0543 c -3.07085,-1.58529 -6.39542,-1.41505 -9.58187,0.19216 l 9.18377,12.0524 c 0.4943,-7.15335 0.27588,-12.11906 0.27252,-12.19027 z"
     id="path94"
     inkscape:connector-curvature="0"
     style="fill:#ff7a5c;stroke-width:0.76623625" />
  <path
     d="m 799.79553,524.00956 a 62.278652,60.174024 0 0 1 -2.75406,5.98492 l 14.10505,-7.05112 0.014,0.19612 a 24.703289,23.868473 0 0 0 2.47318,-5.52872 q 0.33598,-1.14272 0.61333,-2.2918 l -14.20233,8.04582 c -0.0829,0.21537 -0.16486,0.43198 -0.24928,0.64478 z"
     id="path96"
     inkscape:connector-curvature="0"
     style="fill:#ff7a5c;stroke-width:0.76623625" />
  <path
     d="m 805.76813,494.28045 -9.39447,-12.32901 0.0881,-0.17561 a 21.024185,20.313699 0 0 0 -6.76585,6.03227 l 15.00187,16.17299 c 0.51924,-3.46237 0.85537,-6.75582 1.07036,-9.70064 z"
     id="path98"
     inkscape:connector-curvature="0"
     style="fill:#ff7a5c;stroke-width:0.76623625" />
  <path
     d="m 799.87526,523.03963 a 84.624007,81.764247 0 0 0 2.67065,-8.41455 l -17.7493,-17.74947 q -0.63376,1.66302 -1.16422,3.45955 a 30.321023,29.296363 0 0 0 -0.97846,5.24908 l 17.20793,17.46297 z"
     id="path100"
     inkscape:connector-curvature="0"
     style="fill:#ff7a5c;stroke-width:0.76623625" />
  <path
     d="m 818.10631,542.1889 c -2.13472,2.16037 -4.59761,4.51681 -7.31565,6.88865 l 14.08139,-1.99221 -0.0725,0.16406 a 27.770525,26.832055 0 0 0 2.49251,-7.13087 l -0.0601,0.16201 z"
     id="path102"
     inkscape:connector-curvature="0"
     style="fill:#ff7a5c;stroke-width:0.76623625" />
  <path
     d="m 826.86793,532.91659 c -0.0398,-0.10845 -0.0827,-0.21459 -0.12573,-0.32042 -0.51215,0.64391 -3.54445,4.40355 -8.26211,9.21306 l 8.84028,-1.84842 a 14.629799,14.135403 0 0 0 -0.45244,-7.04422 z"
     id="path104"
     inkscape:connector-curvature="0"
     style="fill:#ff7a5c;stroke-width:0.76623625" />
  <path
     d="m 796.81378,559.45043 q -0.99903,0.60764 -1.99082,1.17036 l 16.05828,2.5254 -0.11654,0.16582 q 1.5631,-1.15736 3.01262,-2.40507 l -17.01374,-1.3787 z"
     id="path106"
     inkscape:connector-curvature="0"
     style="fill:#ff7a5c;stroke-width:0.76623625" />
  <path
     d="m 802.72255,555.51344 16.3846,0.0321 -0.0968,0.16728 a 43.661627,42.186138 0 0 0 5.70189,-8.29443 l -14.34973,2.03006 q -3.83704,3.31779 -7.63993,6.06491 z"
     id="path108"
     inkscape:connector-curvature="0"
     style="fill:#ff7a5c;stroke-width:0.76623625" />
  <path
     d="m 797.19871,559.2125 16.87195,1.36715 -0.10765,0.16687 a 52.146237,50.384021 0 0 0 4.90154,-4.86646 l -16.60621,-0.0325 q -2.54677,1.81788 -5.05963,3.36499 z"
     id="path110"
     inkscape:connector-curvature="0"
     style="fill:#ff7a5c;stroke-width:0.76623625" />
  <path
     d="m 776.53353,567.27983 c 0.1195,-0.11687 0.24602,-0.24365 0.37066,-0.36772 a 43.371412,41.905729 0 0 0 10.0128,-2.76397 l 0.45858,-11.74877 q 0.20401,-0.44849 0.39655,-0.90332 l -0.48799,12.50337 a 62.693996,60.575332 0 0 0 6.7282,-3.2341 l -1.56683,-21.84087 c 0.12083,-0.0607 0.24243,-0.12219 0.36778,-0.18622 l 1.56489,21.81263 0.0155,0.002 a 84.628194,81.768291 0 0 0 7.61148,-4.83492 l -1.70613,-21.49298 c 0.12082,-0.0855 0.24126,-0.16907 0.36239,-0.25628 l 1.70606,21.49136 q 0.8118,-0.58123 1.59826,-1.16857 l -1.40743,-21.75715 c 0.12052,-0.0955 0.24087,-0.1912 0.36115,-0.28829 l 1.40852,21.77363 c 2.16613,-1.63139 4.178,-3.27925 5.99841,-4.85768 l -0.8853,-21.87958 0.18405,-0.0921 c -0.62869,0.15847 -1.2679,0.34653 -1.91225,0.55119 a 31.951547,30.871786 0 0 0 3.25824,-4.29183 l -14.23997,7.1186 a 47.908347,46.289346 0 0 1 -3.31874,5.22154 c -0.2545,0.2321 -0.50902,0.46401 -0.75979,0.70624 l 0.0187,0.2612 c -0.11622,0.14788 -0.23182,0.29688 -0.34937,0.44211 l -0.0249,-0.35217 c -0.17976,0.17822 -0.35507,0.36666 -0.53272,0.54966 a 44.999215,43.478524 0 0 0 4.72607,-6.98137 L 782.57057,512.8685 c 0.0949,1.56845 0.25351,3.14726 0.45766,4.7132 a 27.468188,26.539935 0 0 0 -4.6662,-5.50835 l 0.10967,0.13543 -3.21708,8.4694 c 0.74577,2.89868 1.48732,6.17004 2.10579,9.65796 l 5.71693,-12.38569 c 0.0265,0.19307 0.0538,0.38555 0.0813,0.57812 l -5.70314,12.35563 q 0.84634,4.9075 1.212,9.48176 l 6.84505,-10.38852 c 0.039,0.14926 0.0782,0.29862 0.11725,0.44573 l -6.91879,10.50045 q 0.22583,3.05156 0.23307,5.93053 l 8.36731,-10.66644 c 0.0444,0.14043 0.0883,0.27654 0.13165,0.41128 l -8.45585,10.77926 -0.0413,-0.0827 q 0,1.14061 -0.0429,2.25125 l 9.43829,-10.26747 q 0.0756,0.21452 0.13968,0.39525 l -9.60167,10.44507 c -0.0101,0.22954 -0.0187,0.46007 -0.0304,0.68765 a 62.301414,60.196017 0 0 1 -0.70461,6.51437 l 0.91087,-0.89123 q -0.25879,0.51876 -0.50411,1.02281 l -0.5183,0.50719 c -0.0593,0.32972 -0.12722,0.65177 -0.19247,0.97612 q -0.28686,0.60868 -0.55291,1.18789 c 0.17118,-0.74077 0.3309,-1.48554 0.46716,-2.23724 l -18.85146,-12.53056 c 4.91823,12.15769 14.17972,23.72231 14.77262,24.45637 0.48128,-0.86866 0.91867,-1.76251 1.32012,-2.67497 0.1167,-0.0107 0.23339,-0.0213 0.34993,-0.033 -0.0484,0.11216 -0.0982,0.22236 -0.14734,0.33356 -0.0584,0.006 -0.11832,0.0151 -0.17695,0.0207 0.046,0.0124 0.10053,0.0267 0.15014,0.0401 -0.28289,0.63724 -0.57599,1.26409 -0.89029,1.86911 0.41135,-0.35738 1.03816,-0.92217 1.78744,-1.63908 4.4329,1.09332 16.37493,3.43148 26.6003,-0.0225 l -15.66666,-3.29286 a 43.810633,42.330108 0 0 1 -10.46842,2.86539 z m 11.00878,-19.15386 0.37565,-0.36756 -0.021,0.55063 -0.37565,0.36763 z"
     id="path112"
     inkscape:connector-curvature="0"
     style="fill:#ff7a5c;stroke-width:0.76623625" />
  <path
     d="m 826.55464,532.42687 0.1326,0.0357 c -1.31863,-3.11348 -3.99158,-5.03118 -7.50659,-5.757 l -0.88289,14.9423 c 5.10283,-5.20487 8.2126,-9.16401 8.25688,-9.22092 z"
     id="path114"
     inkscape:connector-curvature="0"
     style="fill:#ff7a5c;stroke-width:0.76623625" />
  <path
     d="m 793.69188,561.25123 a 62.299761,60.19442 0 0 1 -6.07193,2.91231 l 15.51809,3.2616 -0.1185,0.15979 a 24.69841,23.863758 0 0 0 5.5544,-2.73408 q 1.01314,-0.67301 1.98536,-1.38712 l -16.24981,-2.55558 c -0.20595,0.11485 -0.41213,0.23114 -0.61761,0.34308 z"
     id="path116"
     inkscape:connector-curvature="0"
     style="fill:#ff7a5c;stroke-width:0.76623625" />
  <path
     d="m 810.68886,548.84662 c 2.68545,-2.34679 5.11849,-4.6762 7.22788,-6.81174 l 0.90323,-15.28514 0.18373,-0.0809 a 21.024263,20.313774 0 0 0 -9.19297,0.47644 z"
     id="path118"
     inkscape:connector-curvature="0"
     style="fill:#ff7a5c;stroke-width:0.76623625" />
  <path
     d="m 778.23881,511.96635 a 14.629705,14.135313 0 0 0 -6.40018,-3.40181 c -0.11622,-0.0255 -0.23182,-0.0474 -0.34735,-0.0689 0.28865,0.76265 1.95208,5.24995 3.63101,11.67472 z"
     id="path120"
     inkscape:connector-curvature="0"
     style="fill:#ff7a5c;stroke-width:0.76623625" />
  <path
     d="m 777.18536,530.76095 -19.60081,-10.99018 0.018,-0.19947 a 36.451098,35.21928 0 0 0 -1.47671,6.95417 l 22.09489,11.73127 c -0.26652,-2.64101 -0.63008,-5.16515 -1.03537,-7.49579 z"
     id="path122"
     inkscape:connector-curvature="0"
     style="fill:#ff7a5c;stroke-width:0.76623625" />
  <path
     d="m 755.92744,529.07682 -0.014,0.20057 c 0,-0.0682 0.0117,-0.13226 0.0148,-0.20029 z"
     id="path124"
     inkscape:connector-curvature="0"
     style="fill:#ff7a5c;stroke-width:0.76623625" />
  <path
     d="m 756.08794,526.92335 7.8e-4,4.1e-4 c 0.008,-0.0656 0.008,-0.13539 0.0148,-0.20071 z"
     id="path126"
     inkscape:connector-curvature="0"
     style="fill:#ff7a5c;stroke-width:0.76623625" />
  <path
     d="m 778.26445,538.69791 -22.17573,-11.77415 q -0.10672,1.05577 -0.16066,2.15333 l 22.50236,11.55074 q -0.0733,-0.97365 -0.16597,-1.92992 z"
     id="path128"
     inkscape:connector-curvature="0"
     style="fill:#ff7a5c;stroke-width:0.76623625" />
  <path
     d="m 778.5952,550.28615 -21.82705,-11.40353 a 50.44402,48.739328 0 0 0 2.03323,6.22061 l 0.0289,-0.21771 18.99054,12.62285 a 62.708464,60.589311 0 0 0 0.77461,-7.22222 z"
     id="path130"
     inkscape:connector-curvature="0"
     style="fill:#ff7a5c;stroke-width:0.76623625" />
  <path
     d="m 771.24292,508.55796 0.10212,-0.0891 c -3.42771,-0.59054 -6.53504,0.56423 -9.05133,3.04438 l 12.58981,8.71943 c -1.81831,-6.95072 -3.61464,-11.60797 -3.6406,-11.67473 z"
     id="path132"
     inkscape:connector-curvature="0"
     style="fill:#ff7a5c;stroke-width:0.76623625" />
  <path
     d="m 775.01791,520.75082 -12.87855,-8.91957 0.0272,-0.19336 a 21.023234,20.31278 0 0 0 -4.50478,7.7575 l 19.44118,10.90075 c -0.61395,-3.44796 -1.34779,-6.68055 -2.08545,-9.54532 z"
     id="path134"
     inkscape:connector-curvature="0"
     style="fill:#ff7a5c;stroke-width:0.76623625" />
  <path
     d="m 778.61392,549.86157 a 84.621754,81.76207 0 0 0 -0.15201,-8.80005 l -22.55832,-11.57943 q -0.071,1.77078 -5.5e-4,3.63785 a 30.325397,29.300588 0 0 0 0.74865,5.28425 l 21.95186,11.46864 z"
     id="path136"
     inkscape:connector-curvature="0"
     style="fill:#ff7a5c;stroke-width:0.76623625" />
  <path
     d="M 92.607202,572.83157 H 830.03396 v 10.19459 A 16.73208,16.166641 0 0 1 813.30188,599.1928 H 109.33929 A 16.73208,16.166641 0 0 1 92.607202,583.02616 Z"
     id="path138"
     inkscape:connector-curvature="0"
     style="fill:#2f2e41;stroke-width:0.76623625" />
  <rect
     x="92.607201"
     y="564.54663"
     width="737.42676"
     height="14.310381"
     id="rect140"
     style="fill:#3f3d56;stroke-width:0.76623625" />
  <path
     d="m 664.10759,74.961349 8.46928,5.189261 -5.14211,-9.033338 a 8.3742214,8.0912252 0 0 1 5.12153,-1.766202 q 0.0682,0 0.13628,0.0015 a 9.8152826,9.4835876 0 0 0 1.7572,-0.125554 l 2.87009,1.75855 -1.23038,-2.16147 a 10.215488,9.8702692 0 0 0 5.02117,-3.681888 l 5.13719,3.147643 -3.24531,-5.701127 c 3.00393,-3.484352 7.05358,-5.620847 11.50955,-5.620847 5.34206,0 10.10082,3.069728 13.17288,7.852566 a 9.8467675,9.5140085 0 0 0 8.7071,4.536097 q 0.14319,-0.0053 0.28729,-0.0053 c 5.89749,0 10.67834,6.4607 10.67834,14.4304 0,7.9697 -4.78085,14.430409 -10.67834,14.430409 a 8.0134747,7.7426695 0 0 1 -3.71947,-0.899736 15.409569,14.888822 0 0 0 -12.92476,-0.244147 13.473044,13.01774 0 0 1 -10.98834,0.02455 15.420708,14.899584 0 0 0 -12.81034,0.23927 8.0065136,7.7359436 0 0 1 -3.68011,0.880033 c -5.89749,0 -10.67835,-6.460707 -10.67835,-14.430393 a 18.964441,18.323562 0 0 1 2.22961,-8.820308 z"
     id="path142"
     inkscape:connector-curvature="0"
     style="fill:#f2f2f2;stroke-width:0.76623625" />
  <path
     d="m 233.22127,117.34256 5.38751,3.30101 -3.27102,-5.74632 a 5.3270274,5.1470073 0 0 1 3.25791,-1.12353 q 0.0434,0 0.0867,7.5e-4 a 6.2431126,6.0321345 0 0 0 1.11784,-0.0798 l 1.82573,1.11865 -0.78265,-1.37495 a 6.498242,6.2786422 0 0 0 3.19408,-2.34214 l 3.26788,2.0023 -2.06454,-3.62667 a 9.5631622,9.2399873 0 0 1 7.32148,-3.57555 c 3.39823,0 6.42537,1.95272 8.37957,4.9952 a 6.2637309,6.0520561 0 0 0 5.53878,2.8855 q 0.0911,-0.003 0.18276,-0.003 c 3.75151,0 6.79274,4.1098 6.79274,9.17951 0,5.0697 -3.04122,9.17949 -6.79274,9.17949 a 5.0974897,4.9252265 0 0 1 -2.36604,-0.57233 9.8024127,9.4711527 0 0 0 -8.22174,-0.15531 8.5705515,8.2809206 0 0 1 -6.98992,0.0157 9.8094908,9.4779915 0 0 0 -8.14895,0.1522 5.0931634,4.9210464 0 0 1 -2.34104,0.55981 c -3.75152,0 -6.79275,-4.10981 -6.79275,-9.1795 a 12.063741,11.656062 0 0 1 1.41841,-5.61067 z"
     id="path144"
     inkscape:connector-curvature="0"
     style="fill:#f2f2f2;stroke-width:0.76623625" />
  <path
     d="m 88.230388,135.03812 5.387503,3.301 -3.271019,-5.74631 a 5.3270274,5.1470073 0 0 1 3.257875,-1.12353 q 0.04342,0 0.0867,7.6e-4 a 6.2431126,6.0321345 0 0 0 1.117834,-0.0798 l 1.825731,1.11865 -0.782639,-1.37496 a 6.4982888,6.2786874 0 0 0 3.194083,-2.34213 l 3.267874,2.00229 -2.0645,-3.62667 a 9.5631622,9.2399873 0 0 1 7.32148,-3.57554 c 3.39823,0 6.42537,1.95271 8.37957,4.99519 a 6.2637309,6.0520561 0 0 0 5.53878,2.88551 q 0.091,-0.003 0.18276,-0.003 c 3.75152,0 6.79275,4.10981 6.79275,9.17951 0,5.06971 -3.04122,9.1795 -6.79275,9.1795 a 5.0974897,4.9252265 0 0 1 -2.36604,-0.57234 9.8024127,9.4711527 0 0 0 -8.22174,-0.1553 8.5705515,8.2809206 0 0 1 -6.98992,0.0157 9.809444,9.4779463 0 0 0 -8.14896,0.15221 5.0931634,4.9210464 0 0 1 -2.341034,0.5598 c -3.751523,0 -6.792745,-4.1098 -6.792745,-9.1795 a 12.063741,11.656062 0 0 1 1.418409,-5.61067 z"
     id="path146"
     inkscape:connector-curvature="0"
     style="fill:#f2f2f2;stroke-width:0.76623625" />
  <path
     d="m 282.739,474.81585 -0.94097,0.90917 c 0,0 0.31367,10.00088 0.62732,12.12227 0.31365,2.12139 1.56828,5.75804 0.62731,8.48558 -0.94096,2.72755 -1.25463,4.84891 -0.94096,5.15197 0.31365,0.30306 -0.31367,1.51528 -0.31367,1.51528 l 2.50928,-1.51528 4.07753,-9.0917 -1.88194,-9.69782 z"
     id="path148"
     inkscape:connector-curvature="0"
     style="fill:#ff7a5c;stroke-width:0.76623625" />
  <path
     d="m 282.739,474.81585 -0.94097,0.90917 c 0,0 0.31367,10.00088 0.62732,12.12227 0.31365,2.12139 1.56828,5.75804 0.62731,8.48558 -0.94096,2.72755 -1.25463,4.84891 -0.94096,5.15197 0.31365,0.30306 -0.31367,1.51528 -0.31367,1.51528 l 2.50928,-1.51528 4.07753,-9.0917 -1.88194,-9.69782 z"
     id="path150"
     inkscape:connector-curvature="0"
     style="opacity:0.1;stroke-width:0.76623625" />
  <path
     d="m 299.36278,569.06643 c 0,0 0,-3.33362 -0.62731,-3.93974 -0.62731,-0.60611 -1.56828,-2.7275 -2.82291,-2.7275 -1.25462,0 -5.64581,1.21223 -5.64581,1.51529 a 5.7280754,5.5345023 0 0 1 -0.62731,2.7275 c -0.62731,0.90917 -4.07754,4.54585 -0.62731,5.15196 a 8.7632256,8.4670836 0 0 0 6.58678,-1.51528 c 0.31365,-0.30306 1.56828,-0.60611 1.88193,-0.30306 0.31366,0.30306 1.88194,-0.90917 1.88194,-0.90917 z"
     id="path152"
     inkscape:connector-curvature="0"
     style="fill:#ff7a5c;stroke-width:0.76623625" />
  <path
     d="m 308.14516,563.61144 1.88193,3.33362 c 0,0 0.62731,3.03057 1.56828,3.33362 h 0.94097 c 0,0 0.94097,3.33363 3.13657,3.03058 2.19558,-0.30306 4.70484,-1.5153 4.70484,-2.1214 0,-0.60612 0,-2.42448 -0.94097,-3.03057 a 44.696994,43.186517 0 0 1 -3.76387,-3.33363 l -1.56829,-1.51528 z"
     id="path154"
     inkscape:connector-curvature="0"
     style="fill:#ff7a5c;stroke-width:0.76623625" />
  <path
     d="m 284.07355,452.59951 a 4.2324632,4.0894325 0 0 0 -2.26577,3.06079 c -0.17461,2.16372 2.03917,4.20257 1.32702,6.26089 -0.40435,1.16866 -1.66367,1.92546 -2.02617,3.10685 a 4.4234537,4.2739686 0 0 0 0.40631,2.77308 21.90739,21.167057 0 0 0 1.80148,3.36445 c 1.32215,2.00583 3.04301,3.90865 3.39637,6.26209 a 2.7656621,2.6722001 0 0 1 -0.61206,2.35635 5.8512864,5.6535496 0 0 1 2.14008,-0.98333 27.233981,26.313643 0 0 0 8.78257,-4.7263 5.4852312,5.2998648 0 0 0 2.03089,-2.60849 c 0.47873,-1.86203 -0.98387,-3.72464 -0.84362,-5.63846 0.0897,-1.22422 0.82093,-2.30525 1.23495,-3.46551 a 9.2655411,8.9524239 0 0 0 -0.80022,-6.97641 8.6143293,8.3232191 0 0 0 -5.12716,-4.30884 10.173738,9.829929 0 0 0 -5.18128,0.14461 19.041029,18.397562 0 0 0 -4.26339,1.37823 z"
     id="path156"
     inkscape:connector-curvature="0"
     style="fill:#2f2e41;stroke-width:0.76623625" />
  <path
     d="m 285.83925,469.40475 a 8.136639,7.8616716 0 0 1 7.09358,-4.13518 c 5.0185,0 4.07754,-0.30306 4.07754,-0.30306 l -1.56829,6.06114 -3.13656,3.03057 z"
     id="path158"
     inkscape:connector-curvature="0"
     style="fill:#ff7a5c;stroke-width:0.76623625" />
  <path
     d="m 287.13019,462.99664 c 0,0 2.8229,4.54585 0.94097,6.3642 -1.88193,1.81833 -0.94097,3.63667 -0.62732,3.93973 0.31367,0.30306 9.09603,0.90917 9.09603,0.90917 l 0.31366,-4.2428 0.94097,-3.63667 c 0,0 -5.0185,-0.90917 -4.39118,-3.03057 0.62731,-2.1214 -6.27313,-0.30306 -6.27313,-0.30306 z"
     id="path160"
     inkscape:connector-curvature="0"
     style="fill:#fbbebe;stroke-width:0.76623625" />
  <path
     d="m 287.13019,462.99664 c 0,0 2.8229,4.54585 0.94097,6.3642 -1.88193,1.81833 -0.94097,3.63667 -0.62732,3.93973 0.31367,0.30306 9.09603,0.90917 9.09603,0.90917 l 0.31366,-4.2428 0.94097,-3.63667 c 0,0 -5.0185,-0.90917 -4.39118,-3.03057 0.62731,-2.1214 -6.27313,-0.30306 -6.27313,-0.30306 z"
     id="path162"
     inkscape:connector-curvature="0"
     style="opacity:0.1;stroke-width:0.76623625" />
  <path
     d="m 309.08613,506.03071 a 21.625468,20.894663 0 0 1 -1.25463,3.03057 c -0.31366,0.30306 -1.25462,-2.12139 -1.25462,-2.12139 l 0.94096,-2.1214 z"
     id="path164"
     inkscape:connector-curvature="0"
     style="fill:#fbbebe;stroke-width:0.76623625" />
  <polygon
     points="333.892,620 335.501,629.255 311.359,629.255 312.566,620 "
     id="polygon166"
     style="fill:#fbbebe"
     transform="matrix(0.77952088,0,0,0.75317797,45.203369,25.271186)" />
  <ellipse
     cx="290.58041"
     cy="459.66302"
     id="circle168"
     style="fill:#fbbebe;stroke-width:0.76623625"
     rx="5.9594684"
     ry="5.7580757" />
  <path
     d="m 291.83501,471.48224 c 0,0 -3.45022,0.30306 -3.45022,-0.30306 0,-0.60612 -0.31365,-2.42448 -0.94097,-2.1214 -0.6273,0.30308 -4.70484,0.6061 -4.39118,1.51528 0.31365,0.90917 0.94097,2.72751 0.31365,2.72751 a 2.0414015,1.9724149 0 0 0 -1.56828,2.42448 c 0.31366,1.51529 3.76387,10.607 3.76387,10.607 0,0 0.31366,3.03057 1.25463,3.93975 a 2.8148499,2.7197256 0 0 1 0,3.33361 c -0.62732,0.60611 1.56828,1.21224 2.50927,2.42448 0.94099,1.21225 8.15506,0.30306 8.46872,0 0.31366,-0.30306 7.84141,-0.30306 8.46872,-0.90916 0.62729,-0.60612 -0.31367,-2.42448 -0.31367,-2.42448 0,0 -0.31365,-2.72751 0,-3.63668 0.31367,-0.90917 -1.25462,-15.75895 -2.19559,-16.66812 -0.94097,-0.90916 2.82291,-3.63668 2.82291,-3.63668 0,0 -0.62732,-2.42448 -4.70484,-2.7275 0,0 -1.25462,-1.81835 -2.50929,-1.81835 -1.25465,0 -3.97875,1.40995 -3.97875,1.40995 0,0 -0.72608,4.0451 -1.66705,4.34815 a 5.1713415,4.9965826 0 0 0 -1.88193,1.51522 z"
     id="path170"
     inkscape:connector-curvature="0"
     style="fill:#ff7a5c;stroke-width:0.76623625" />
  <path
     d="m 304.38128,467.84555 2.1956,0.90917 c 0,0 6.27312,18.78953 5.64581,22.42619 -0.62732,3.63666 -2.1956,16.06201 -3.13656,16.06201 -0.94097,0 -2.82291,-1.81835 -2.82291,-1.81835 v -3.03056 c 0,-0.60611 -0.94097,-2.42448 -0.31366,-2.42448 0.62732,0 1.56828,-0.60611 0.94097,-1.21223 -0.62731,-0.60612 -1.25462,-1.51528 -0.62731,-2.42448 0.62731,-0.90919 0.94097,-1.21222 0.62731,-2.1214 -0.31365,-0.90918 -0.94097,-1.81833 -0.31365,-2.42448 0.62731,-0.60614 -1.56829,-3.63668 -1.56829,-3.63668 l -3.45021,-13.33449 0.62731,-5.45501 z"
     id="path172"
     inkscape:connector-curvature="0"
     style="fill:#ff7a5c;stroke-width:0.76623625" />
  <path
     d="m 305.63591,496.63593 c 0,0 -11.91894,-0.90917 -13.48723,-0.90917 -1.56828,0 -5.08676,-1.42704 -5.08676,-1.42704 0,0 -9.02776,8.70039 -5.89119,22.94406 3.13656,14.24367 3.76387,31.82095 5.6458,36.97292 a 99.297148,95.941527 0 0 1 3.13656,11.21308 c 0,0 3.13656,-5.45502 9.09603,0.60612 0,0 0.62733,-4.54584 -0.31365,-6.3642 -0.94097,-1.81834 -2.1956,-11.51615 -2.1956,-11.51615 0,0 -2.19558,-15.45588 -2.19558,-17.27421 0,-1.81834 -1.25464,-17.27423 -0.94097,-17.57729 0.31366,-0.30306 1.88193,11.81921 2.19559,13.94057 0.31365,2.12136 1.25462,18.48645 2.19559,20.3048 0.94097,1.81833 5.33215,16.36505 7.84141,17.27422 2.50926,0.90918 10.97799,-0.30306 10.6643,-0.90916 -0.31368,-0.60612 -2.50927,-3.93975 -3.13655,-4.84891 l -2.50928,-3.63668 -5.95944,-19.69868 2.82291,-23.94147 c 0,0 1.56828,-15.45587 -1.88194,-15.15281 z"
     id="path174"
     inkscape:connector-curvature="0"
     style="fill:#2f2e41;stroke-width:0.76623625" />
  <path
     d="m 294.21066,458.90538 h -7.64238 a 1.3612696,1.3152672 0 0 1 -1.34462,-1.11012 l -0.75955,-4.64796 h 11.91894 l -1.06555,4.89039 a 1.1310848,1.0928612 0 0 1 -1.10684,0.86769 z"
     id="path176"
     inkscape:connector-curvature="0"
     style="fill:#2f2e41;stroke-width:0.76623625" />
  <path
     d="m 688.08593,457.47049 h 12.05818 v 16.64382 0 a 12.058159,11.650669 0 0 1 -12.05818,-11.65067 z"
     id="path178"
     inkscape:connector-curvature="0"
     style="fill:#2f2e41;stroke-width:0.76623625" />
  <polygon
     points="815.692,703.292 814.587,708.817 822.321,708.817 822.689,703.292 "
     id="polygon180"
     style="fill:#a0616a"
     transform="matrix(0.77952088,0,0,0.75317797,45.203369,25.271186)" />
  <path
     d="m 681.052,558.30436 c 0,0 -1.1484,-0.83219 -1.72261,-0.2774 -0.5742,0.5548 -2.58388,11.37329 -2.87097,11.65068 -0.28708,0.2774 -8.90007,4.43836 -6.89038,4.71576 2.0097,0.27739 9.76138,0.55479 10.90977,0 1.1484,-0.55479 4.3065,-5.82534 4.3065,-5.82534 v 4.71575 h 0.57419 c 0,0 0.5742,-4.99315 2.0097,-6.38017 1.43549,-1.38702 -1.1484,-6.10274 -1.1484,-6.10274 0,0 0.57419,-3.05137 0.28709,-3.05137 -0.28709,0 -5.45489,0.55483 -5.45489,0.55483 z"
     id="path182"
     inkscape:connector-curvature="0"
     style="fill:#ff7a5c;stroke-width:0.76623625" />
  <polygon
     points="838.526,699.425 837.421,704.95 845.156,704.95 845.524,699.425 "
     id="polygon184"
     style="fill:#a0616a"
     transform="matrix(0.77952088,0,0,0.75317797,45.203369,25.271186)" />
  <path
     d="m 691.96178,525.0167 c 0,0 2.87097,8.3219 3.44518,9.15413 0.57421,0.83222 2.58391,16.36643 2.58391,16.36643 0,0 -2.00971,3.05137 0.57419,3.32877 2.58389,0.2774 1.43549,-0.5548 3.15809,0 a 3.2424327,3.1328588 0 0 0 2.87098,-0.2774 c 0,0 0.8613,-1.66439 0.2871,-2.21918 -0.57421,-0.55479 0.5742,-14.97944 0.5742,-14.97944 l -1.7226,-4.99315 -1.4355,-15.81164 c 0,0 1.72259,-4.16096 0.8613,-5.27055 -0.86129,-1.10959 -3.73229,0.83219 -3.73229,0.83219 z"
     id="path186"
     inkscape:connector-curvature="0"
     style="fill:#2f2e41;stroke-width:0.76623625" />
  <path
     d="m 688.22948,503.37972 c 0,0 -0.86129,8.87671 -1.4355,9.4315 -0.5742,0.55479 -6.89038,16.08904 -6.89038,16.08904 0,0 -1.7226,1.94177 -1.1484,9.15412 0.57419,7.21235 2.0097,14.42466 2.0097,14.42466 0,0 -1.1484,4.16096 0.8613,4.16096 2.00968,0 2.87097,-1.10959 3.73228,-0.2774 0.86132,0.83219 1.4355,0 1.72261,-0.5548 0.2871,-0.55479 1.43549,-2.49657 1.43549,-3.05136 0,-0.55479 1.1484,-14.70204 1.1484,-14.70204 0,0 9.4743,-20.24998 10.33557,-21.35957 0.86128,-1.10959 5.74195,-7.21232 5.45489,-11.37329 z"
     id="path188"
     inkscape:connector-curvature="0"
     style="fill:#2f2e41;stroke-width:0.76623625" />
  <ellipse
     cx="695.40698"
     cy="460.10574"
     id="circle190"
     style="fill:#a0616a;stroke-width:0.76623625"
     rx="6.0290875"
     ry="5.8253422" />
  <path
     d="m 694.25857,465.0989 c 0,0 2.29679,4.99315 2.5839,6.38017 0.2871,1.38703 5.74195,-2.77395 5.74195,-2.77395 0,0 -2.87098,-4.71575 -2.0097,-6.93492 z"
     id="path192"
     inkscape:connector-curvature="0"
     style="fill:#a0616a;stroke-width:0.76623625" />
  <path
     d="m 703.44575,467.87288 c 0,0 -4.30649,-3.05138 -7.46459,3.32876 -3.15809,6.38014 -4.01938,6.10274 -4.01938,6.10274 0,0 -3.7323,1.10959 -2.5839,8.87671 1.1484,7.76712 -3.73229,18.03082 -1.7226,18.58562 2.00969,0.55479 20.67116,3.60615 20.67116,1.38698 0,-2.21918 -1.72261,-10.81849 -0.2871,-16.08904 1.4355,-5.27055 -2.0097,-23.57875 -4.59359,-22.19177 z"
     id="path194"
     inkscape:connector-curvature="0"
     style="fill:#3f3d56;stroke-width:0.76623625" />
  <path
     d="m 699.13926,469.25986 c 0,0 -3.44519,4.99315 -3.1581,8.87671 0.2871,3.88356 0.2871,6.38017 0.2871,6.38017 0,0 -5.74199,26.63011 -4.59359,26.63011 1.1484,0 4.59359,1.38699 4.88069,0.5548 0.2871,-0.8322 7.46456,-17.75342 7.46456,-17.75342 0,0 1.72261,-16.92123 -0.28709,-20.80479 -2.0097,-3.88357 -4.59357,-3.88358 -4.59357,-3.88358 z"
     id="path196"
     inkscape:connector-curvature="0"
     style="fill:#3f3d56;stroke-width:0.76623625" />
  <path
     d="m 692.24887,510.31465 c 0,0 -2.87097,9.4315 1.1484,9.70889 4.01937,0.2774 1.72259,-9.15412 1.72259,-9.15412 z"
     id="path198"
     inkscape:connector-curvature="0"
     style="fill:#a0616a;stroke-width:0.76623625" />
  <path
     d="m 699.8902,554.06323 c 0,0 -1.00569,-0.72877 -1.50853,-0.24292 -0.50283,0.48584 -2.26276,9.95984 -2.51419,10.20276 -0.25142,0.24293 -7.794,3.88676 -6.03406,4.12968 1.75994,0.2429 8.54822,0.48584 9.55393,0 1.00572,-0.48585 3.77133,-5.1014 3.77133,-5.1014 v 4.12968 h 0.50284 c 0,0 0.50283,-4.37262 1.75993,-5.58723 1.25709,-1.21461 -1.00567,-5.34431 -1.00567,-5.34431 0,0 0.50283,-2.67215 0.25142,-2.67215 -0.25142,0 -4.777,0.48589 -4.777,0.48589 z"
     id="path200"
     inkscape:connector-curvature="0"
     style="fill:#ff7a5c;stroke-width:0.76623625" />
  <path
     d="m 692.42663,456.28858 a 1.6762271,1.6195812 0 0 1 0.7264,-0.49678 1.5170879,1.4658199 0 0 1 0.7919,0.0658 8.0765457,7.8036091 0 0 1 4.41639,3.10269 2.4795468,2.3957537 0 0 0 0.88999,0.93057 5.2411086,5.0639921 0 0 1 0.71935,0.26487 c 0.67131,0.42861 0.27109,1.42209 -0.11484,2.10426 a 10.995266,10.623696 0 0 0 -1.31646,5.73555 1.6973444,1.6399848 0 0 0 0.30194,0.97203 1.7910661,1.7305394 0 0 0 1.193,0.46019 29.463091,28.467423 0 0 0 4.20162,0.21723 c 1.37414,-0.0239 2.89876,-0.21219 3.78908,-1.2238 0.95715,-1.08755 0.80703,-2.75307 0.18438,-4.0477 -0.62265,-1.29463 -1.63503,-2.3766 -2.35415,-3.62371 a 21.995203,21.251902 0 0 1 -1.6064,-4.12567 17.883144,17.278806 0 0 0 -2.37353,-5.11642 7.0990967,6.8591917 0 0 0 -4.76661,-2.95249 c -2.60816,-0.28119 -5.01325,1.27067 -7.10967,2.79599 -2.35398,1.71272 -4.85896,3.83152 -5.04792,6.67284 -0.1531,2.30194 1.27746,4.38442 2.02486,6.57515 1.15378,3.38184 0.67038,7.05544 0.17484,10.58395 2.1257,-1.23023 4.53067,-2.93886 4.39137,-5.3292 -0.094,-1.61279 -1.35339,-2.89989 -2.13733,-4.32664 -2.15562,-3.92317 0.30214,-6.55337 3.02179,-9.23878 z"
     id="path202"
     inkscape:connector-curvature="0"
     style="fill:#2f2e41;stroke-width:0.76623625" />
  <path
     d="m 777.21093,484.64067 a 20.649282,19.951465 0 0 0 2.73113,-10.11435 c 0,-9.14073 -5.85841,-16.55074 -13.08511,-16.55074 -7.22671,0 -13.0852,7.41001 -13.0852,16.55074 a 20.649672,19.951842 0 0 0 2.73114,10.11435 21.427111,20.703009 0 0 0 0,20.22871 21.427065,20.702964 0 0 0 0,20.22868 21.427057,20.702956 0 0 0 0,20.22869 20.649664,19.951835 0 0 0 -2.73114,10.11433 c 0,9.14073 5.85841,16.55076 13.0852,16.55076 7.2267,0 13.08511,-7.41003 13.08511,-16.55076 a 20.649274,19.951458 0 0 0 -2.73113,-10.11433 21.427057,20.702956 0 0 0 0,-20.22869 21.427065,20.702964 0 0 0 0,-20.22868 21.427111,20.703009 0 0 0 0,-20.22871 z"
     id="path204"
     inkscape:connector-curvature="0"
     style="fill:#3f3d56;stroke-width:0.76623625" />
  <ellipse
     cx="766.85693"
     cy="454.29767"
     rx="13.085131"
     ry="16.550747"
     id="ellipse206"
     style="fill:#3f3d56;stroke-width:0.76623625" />
  <ellipse
     cx="766.85693"
     cy="434.06894"
     rx="13.085131"
     ry="16.550747"
     id="ellipse208"
     style="fill:#3f3d56;stroke-width:0.76623625" />
  <path
     d="m 815.84102,295.63758 a 62.81847,60.6956 0 0 0 4.8731,-6.93075 l -34.38232,-5.45594 37.1854,0.2672 a 62.787928,60.66609 0 0 0 1.19696,-47.98506 l -49.88856,25.00513 46.0088,-32.67697 a 62.68263,60.564351 0 1 0 -103.52248,67.77641 62.713936,60.594598 0 0 0 -7.14821,11.04416 l 44.63062,22.40335 -47.58869,-15.43187 a 62.715222,60.595841 0 0 0 10.10627,56.87012 62.677961,60.559839 0 1 0 98.52911,0 62.686435,60.568026 0 0 0 0,-74.88582 z"
     id="path210"
     inkscape:connector-curvature="0"
     style="fill:#f2f2f2;stroke-width:0.76623625" />
  <path
     d="m 703.89851,333.08049 a 62.408987,60.299955 0 0 0 13.4134,37.44291 62.677961,60.559839 0 1 0 98.52911,0 c 8.40074,-10.30435 -111.94251,-44.23997 -111.94251,-37.44291 z"
     id="path212"
     inkscape:connector-curvature="0"
     style="fill:#f2f2f2;stroke-width:0.76623625" />
  <path
     d="m 815.84102,295.63758 a 62.81847,60.6956 0 0 0 4.8731,-6.93075 l -34.38232,-5.45594 37.1854,0.2672 a 62.787928,60.66609 0 0 0 1.19696,-47.98506 l -49.88856,25.00513 46.0088,-32.67697 a 62.68263,60.564351 0 1 0 -103.52248,67.77641 62.713936,60.594598 0 0 0 -7.14821,11.04416 l 44.63062,22.40335 -47.58869,-15.43187 a 62.715222,60.595841 0 0 0 10.10627,56.87012 62.677961,60.559839 0 1 0 98.52911,0 62.686435,60.568026 0 0 0 0,-74.88582 z"
     id="path214"
     inkscape:connector-curvature="0"
     style="fill:#57b894;stroke-width:0.76623625" />
  <path
     d="m 703.89851,333.08049 a 62.408987,60.299955 0 0 0 13.4134,37.44291 62.677961,60.559839 0 1 0 98.52911,0 c 8.40074,-10.30435 -111.94251,-44.23997 -111.94251,-37.44291 z"
     id="path216"
     inkscape:connector-curvature="0"
     style="opacity:0.1;stroke-width:0.76623625" />
  <path
     d="m 118.51577,484.64067 a 20.649282,19.951465 0 0 0 2.73113,-10.11435 c 0,-9.14073 -5.85843,-16.55074 -13.08513,-16.55074 -7.22671,0 -13.08514,7.41001 -13.08514,16.55074 a 20.649672,19.951842 0 0 0 2.731136,10.11435 21.427111,20.703009 0 0 0 0,20.22871 21.427065,20.702964 0 0 0 0,20.22868 21.427057,20.702956 0 0 0 0,20.22869 20.649664,19.951835 0 0 0 -2.731136,10.11433 c 0,9.14073 5.8584,16.55076 13.08514,16.55076 7.22672,0 13.08513,-7.41003 13.08513,-16.55076 a 20.649274,19.951458 0 0 0 -2.73113,-10.11433 21.427057,20.702956 0 0 0 0,-20.22869 21.427065,20.702964 0 0 0 0,-20.22868 21.427111,20.703009 0 0 0 0,-20.22871 z"
     id="path218"
     inkscape:connector-curvature="0"
     style="fill:#3f3d56;stroke-width:0.76623625" />
  <ellipse
     cx="108.16176"
     cy="454.29767"
     rx="13.085131"
     ry="16.550747"
     id="ellipse220"
     style="fill:#3f3d56;stroke-width:0.76623625" />
  <ellipse
     cx="108.16176"
     cy="434.06894"
     rx="13.085131"
     ry="16.550747"
     id="ellipse222"
     style="fill:#3f3d56;stroke-width:0.76623625" />
  <path
     d="m 157.14589,295.63758 a 62.81847,60.6956 0 0 0 4.87306,-6.93075 l -34.38226,-5.45594 37.18534,0.2672 a 62.787928,60.66609 0 0 0 1.19694,-47.98506 l -49.88855,25.00513 46.00887,-32.67697 A 62.68263,60.564351 0 1 0 58.616779,295.6376 62.713936,60.594598 0 0 0 51.468573,306.68176 l 44.63061,22.40335 -47.588682,-15.43187 a 62.715222,60.595841 0 0 0 10.106263,56.87012 62.677961,60.559839 0 1 0 98.529096,0 62.686435,60.568026 0 0 0 0,-74.88582 z"
     id="path224"
     inkscape:connector-curvature="0"
     style="fill:#f2f2f2;stroke-width:0.76623625" />
  <path
     d="m 45.203369,333.08049 a 62.408987,60.299955 0 0 0 13.413395,37.44291 62.677961,60.559839 0 1 0 98.529096,0 C 165.54661,360.21905 45.203369,326.28343 45.203369,333.08049 Z"
     id="path226"
     inkscape:connector-curvature="0"
     style="fill:#f2f2f2;stroke-width:0.76623625" />
  <path
     d="m 157.14589,295.63758 a 62.81847,60.6956 0 0 0 4.87306,-6.93075 l -34.38226,-5.45594 37.18534,0.2672 a 62.787928,60.66609 0 0 0 1.19694,-47.98506 l -49.88855,25.00513 46.00887,-32.67697 A 62.68263,60.564351 0 1 0 58.616779,295.6376 62.713936,60.594598 0 0 0 51.468573,306.68176 l 44.63061,22.40335 -47.588682,-15.43187 a 62.715222,60.595841 0 0 0 10.106263,56.87012 62.677961,60.559839 0 1 0 98.529096,0 62.686435,60.568026 0 0 0 0,-74.88582 z"
     id="path228"
     inkscape:connector-curvature="0"
     style="fill:#57b894;stroke-width:0.76623625" />
  <path
     d="m 45.203369,333.08049 a 62.408987,60.299955 0 0 0 13.413395,37.44291 62.677961,60.559839 0 1 0 98.529096,0 C 165.54661,360.21905 45.203369,326.28343 45.203369,333.08049 Z"
     id="path230"
     inkscape:connector-curvature="0"
     style="opacity:0.1;stroke-width:0.76623625" />
  <polygon
     points="520.653,375.55 513.294,382.909 539.531,409.146 586.812,361.915 579.452,354.556 539.556,394.452 "
     id="polygon232"
     style="fill:#57b894"
     transform="matrix(0.77952088,0,0,0.75317797,45.203369,25.271186)" />
  <polygon
     points="647.653,284.55 640.294,291.909 666.531,318.146 713.812,270.915 706.452,263.556 666.556,303.452 "
     id="polygon234"
     style="fill:#57b894"
     transform="matrix(0.77952088,0,0,0.75317797,45.203369,25.271186)" />
</svg>
