<?xml version="1.0" encoding="UTF-8" standalone="no"?>
<svg
   xmlns:dc="http://purl.org/dc/elements/1.1/"
   xmlns:cc="http://creativecommons.org/ns#"
   xmlns:rdf="http://www.w3.org/1999/02/22-rdf-syntax-ns#"
   xmlns:svg="http://www.w3.org/2000/svg"
   xmlns="http://www.w3.org/2000/svg"
   xmlns:sodipodi="http://sodipodi.sourceforge.net/DTD/sodipodi-0.dtd"
   xmlns:inkscape="http://www.inkscape.org/namespaces/inkscape"
   id="a139742c-031f-4297-9910-0b661ecf4262"
   data-name="Layer 1"
   width="900"
   height="600"
   viewBox="0 0 900 600.00003"
   version="1.1"
   sodipodi:docname="pagamentos.svg"
   inkscape:version="0.92.3 (2405546, 2018-03-11)">
  <metadata
     id="metadata81">
    <rdf:RDF>
      <cc:Work
         rdf:about="">
        <dc:format>image/svg+xml</dc:format>
        <dc:type
           rdf:resource="http://purl.org/dc/dcmitype/StillImage" />
        <dc:title>online_payments</dc:title>
      </cc:Work>
    </rdf:RDF>
  </metadata>
  <defs
     id="defs79" />
  <sodipodi:namedview
     pagecolor="#ffffff"
     bordercolor="#666666"
     borderopacity="1"
     objecttolerance="10"
     gridtolerance="10"
     guidetolerance="10"
     inkscape:pageopacity="0"
     inkscape:pageshadow="2"
     inkscape:window-width="1920"
     inkscape:window-height="1015"
     id="namedview77"
     showgrid="false"
     inkscape:zoom="0.42113337"
     inkscape:cx="444.03986"
     inkscape:cy="267.48489"
     inkscape:window-x="0"
     inkscape:window-y="28"
     inkscape:window-maximized="1"
     inkscape:current-layer="a139742c-031f-4297-9910-0b661ecf4262" />
  <title
     id="title2">online_payments</title>
  <path
     d="M 62.67223,444.81719 57.367736,422.38246 A 271.67439,291.32027 0 0 0 28.544811,411.29387 l -0.669772,10.42634 -2.715831,-11.48664 c -12.146699,-3.71934 -20.4100968,-5.35765 -20.4100968,-5.35765 0,0 11.1619348,45.51486 34.5733228,80.31155 l 27.279338,5.1383 -21.1926,3.27654 a 109.91153,117.85968 0 0 0 9.479753,10.77259 c 34.056909,33.8981 71.989965,49.45075 84.725785,34.73775 12.73581,-14.71302 -4.54837,-54.12008 -38.60531,-88.01821 C 90.451425,440.5857 77.188344,432.15251 63.912096,425.51541 Z"
     id="path4"
     inkscape:connector-curvature="0"
     style="fill:#e6e6e6;stroke-width:1.02998853" />
  <path
     d="m 113.12179,420.45357 6.27365,-22.14531 a 271.67269,291.31845 0 0 0 -19.32858,-25.46832 l -5.599292,8.55416 3.212154,-11.3384 c -8.605237,-9.91661 -14.889363,-15.89936 -14.889363,-15.89936 0,0 -12.384976,45.14963 -9.117287,87.91362 l 20.87549,19.51906 -19.721248,-8.94179 a 109.91349,117.86178 0 0 0 2.922298,14.47626 c 12.813913,47.89542 37.789238,82.23471 55.783978,76.69894 17.99474,-5.53575 22.19459,-48.85029 9.38067,-96.7457 -3.97244,-14.84805 -11.26106,-29.4187 -19.42678,-42.45911 z"
     id="path6"
     inkscape:connector-curvature="0"
     style="fill:#e6e6e6;stroke-width:1.02998853" />
  <rect
     x="4.8283768"
     y="547.15497"
     width="883.25128"
     height="2.3899066"
     id="rect8"
     style="fill:#3f3d56;stroke-width:1.02998853" />
  <path
     d="m 144.37626,299.66904 c 0,0 -6.87831,88.6845 -8.35513,107.68799 a 126.03261,135.14653 0 0 1 -7.38414,34.83972 c 0,0 -2.95366,6.33451 -2.95366,12.66899 v 80.76485 c 0,0 -5.90732,0 -4.43049,6.3345 1.47683,6.33449 2.95366,17.41986 2.95366,17.41986 h 22.15243 c 0,0 -1.47682,-4.75087 2.95366,-6.33449 4.43048,-1.58364 0,-14.25262 0,-14.25262 l 23.62926,-95.01746 35.44389,-79.1812 c 0,0 20.6756,71.26308 25.10609,79.1812 0,0 16.24511,88.68296 19.19878,96.60108 2.95367,7.91812 4.43048,7.91812 2.95365,11.08536 -1.47683,3.16726 -1.47682,6.3345 0,7.91813 1.47682,1.58363 29.53658,0 29.53658,0 L 277.7967,446.94763 264.50524,312.33951 196.57112,290.16879 Z"
     id="path10"
     inkscape:connector-curvature="0"
     style="fill:#2f2e41;stroke-width:1.02998853" />
  <path
     d="m 140.45162,546.7159 c 0,0 -7.38413,-28.50522 -19.19878,-6.33449 -11.81464,22.17074 -11.81463,30.08887 -11.81463,30.08887 0,0 -19.198774,30.08886 7.38415,26.9216 26.58292,-3.16724 20.67559,-17.41985 20.67559,-17.41985 0,0 10.33781,-6.33451 10.33781,-11.08537 0,-4.75088 -7.38414,-22.17076 -7.38414,-22.17076 z"
     id="path12"
     inkscape:connector-curvature="0"
     style="fill:#2f2e41;stroke-width:1.02998853" />
  <path
     d="m 260.07476,543.54867 c 0,0 7.38412,-28.50524 19.19878,-6.33451 11.81464,22.17074 11.81463,30.08887 11.81463,30.08887 0,0 19.19878,30.08885 -7.38414,26.92161 -26.58293,-3.16726 -20.6756,-17.41987 -20.6756,-17.41987 0,0 -10.33781,-6.33449 -10.33781,-11.08537 0,-4.75086 7.38414,-22.17073 7.38414,-22.17073 z"
     id="path14"
     inkscape:connector-curvature="0"
     style="fill:#2f2e41;stroke-width:1.02998853" />
  <path
     d="m 190.66379,85.881263 c 0,0 2.95367,20.587137 -5.9073,25.337987 -8.86097,4.75085 19.19878,22.17075 26.58292,22.17075 7.38414,0 20.67561,-15.83626 20.67561,-15.83626 0,0 -7.38416,-23.754357 -5.90733,-28.505231 z"
     id="path16"
     inkscape:connector-curvature="0"
     style="fill:#a0616a;stroke-width:1.02998853" />
  <ellipse
     cx="206.90892"
     cy="68.461411"
     id="circle18"
     rx="31.013403"
     ry="33.256107"
     style="fill:#a0616a;stroke-width:1.02998853" />
  <path
     d="m 267.45888,136.55724 -36.9195,-23.98589 c 0,0 -21.00616,25.56952 -43.73234,-2.93571 l -38.97128,11.08536 5.90732,107.68643 c 0,0 -8.86097,42.75786 -5.90732,50.67599 2.95364,7.91811 -7.38415,11.08537 -4.43048,12.669 2.95366,1.58361 0,12.66898 0,12.66898 0,0 57.59634,31.67248 121.09992,7.91811 l -5.90732,-20.58711 a 15.496853,16.617495 0 0 0 -2.95365,-15.83624 c 0,0 5.9073,-9.50174 -1.47683,-17.41986 0,0 2.95366,-14.25262 -4.43049,-20.58712 l -1.47683,-22.17074 4.43049,-11.08538 z"
     id="path20"
     inkscape:connector-curvature="0"
     style="fill:#cfcce0;stroke-width:1.02998853" />
  <path
     d="m 191.03716,53.019657 c 0,0 -3.69744,8.5803 11.09227,5.148183 0,0 5.54619,3.432117 5.54619,-1.716053 0,0 7.39485,8.580301 9.24357,3.432118 1.8487,-5.148196 5.54617,1.716052 5.54617,1.716052 l 3.69742,-8.5803 3.69743,5.148183 h 12.94088 c 0,0 3.69742,-34.321203 -40.67169,-30.889085 -44.36912,3.43213 -22.5418,57.810693 -22.5418,57.810693 0,0 0.35727,-9.761007 4.0547,-4.612811 3.69741,5.148183 7.39486,-27.45698 7.39486,-27.45698 z"
     id="path22"
     inkscape:connector-curvature="0"
     style="fill:#2f2e41;stroke-width:1.02998853" />
  <path
     d="m 280.75036,199.90224 1.47683,33.25612 c 0,0 5.90731,61.76135 -5.90732,88.6829 v 14.25261 c 0,0 -2.95366,36.42336 -17.72195,34.83973 -14.76829,-1.58362 4.4305,-52.25959 4.4305,-52.25959 l -2.95366,-69.67947 -2.95366,-39.5906 z"
     id="path24"
     inkscape:connector-curvature="0"
     style="fill:#a0616a;stroke-width:1.02998853" />
  <path
     d="m 251.21378,138.14088 14.73211,-2.56661 a 71.926668,77.127978 0 0 1 20.71178,40.57358 c 4.43049,25.33799 5.90732,30.08887 5.90732,30.08887 l -35.44389,9.50174 -19.19878,-39.59061 z"
     id="path26"
     inkscape:connector-curvature="0"
     style="fill:#cfcce0;stroke-width:1.02998853" />
  <rect
     x="187.78169"
     y="120.06802"
     width="233.05757"
     height="124.14407"
     id="rect28"
     style="fill:#ffffff;stroke-width:1.02998853" />
  <path
     d="m 213.23014,127.53355 c -5.98748,-3.86102 -13.20699,-3.56612 -15.95155,-3.27121 1.04519,2.73629 4.18123,9.71568 10.16872,13.57862 6.00209,3.8708 13.21202,3.56708 15.95246,3.27417 -1.04476,-2.73535 -4.18124,-9.71765 -10.16963,-13.58158 z"
     id="path30"
     inkscape:connector-curvature="0"
     style="fill:#ff7a5c;stroke-width:1.02998853" />
  <path
     d="m 241.36586,204.14901 h -37.42232 a 8.4200311,9.0289178 0 1 0 0,18.05783 h 37.42232 a 8.4200311,9.0289178 0 1 0 0,-18.05783 z"
     id="path32"
     inkscape:connector-curvature="0"
     style="fill:#ff7a5c;stroke-width:1.02998853" />
  <path
     d="M 410.82718,108.84382 H 201.01163 a 18.585905,19.929929 0 0 0 -18.58594,19.92997 v 109.61872 a 18.585947,19.929972 0 0 0 18.58594,19.92997 h 209.81555 a 18.585947,19.929972 0 0 0 18.58595,-19.92997 V 128.77379 a 18.585905,19.929929 0 0 0 -18.58595,-19.92997 z m -215.00673,13.5953 c 0.41431,-0.0805 10.23906,-1.8732 18.37447,3.37604 8.13498,5.24823 11.26051,15.39695 11.38935,15.82606 l 0.3289,1.09431 -1.05572,0.20085 a 28.023964,30.05049 0 0 1 -4.55306,0.35857 27.110564,29.07104 0 0 1 -13.82188,-3.7356 c -8.13496,-5.24728 -11.26004,-15.39599 -11.38886,-15.82509 l -0.32892,-1.09431 z m 45.54541,101.7741 h -37.42232 a 10.291146,11.03534 0 0 1 0,-22.07067 h 37.42232 a 10.291146,11.03534 0 1 1 0,22.07067 z m 170.27166,-2.00643 a 11.259734,12.07397 0 0 1 -11.22671,12.03856 h -28.06673 a 11.259734,12.07397 0 0 1 -11.22671,-12.03856 v -18.05778 a 11.259694,12.073928 0 0 1 11.22671,-12.03855 h 28.06673 a 11.259694,12.073928 0 0 1 11.22671,12.03855 z"
     id="path34"
     inkscape:connector-curvature="0"
     style="fill:#ff7a5c;stroke-width:1.02998853" />
  <path
     d="m 381.23184,218.69559 h -12.16223 a 3.2744595,3.5112491 0 0 0 0,7.02249 h 12.16223 a 3.2744595,3.5112491 0 0 0 0,-7.02249 z m 0,5.01606 h -12.16223 a 1.4033451,1.5048267 0 1 1 0,-3.00965 h 12.16223 a 1.4033451,1.5048267 0 0 1 0,3.00965 z"
     id="path36"
     inkscape:connector-curvature="0"
     style="fill:#ff7a5c;stroke-width:1.02998853" />
  <path
     d="m 403.68527,218.69559 h -12.16226 a 3.2744595,3.5112491 0 0 0 0,7.02249 h 12.16226 a 3.2744595,3.5112491 0 0 0 0,-7.02249 z m 0,5.01606 h -12.16226 a 1.4033451,1.5048267 0 1 1 0,-3.00965 h 12.16226 a 1.4033451,1.5048267 0 0 1 0,3.00965 z"
     id="path38"
     inkscape:connector-curvature="0"
     style="fill:#ff7a5c;stroke-width:1.02998853" />
  <path
     d="m 381.23184,209.66668 h -12.16223 a 3.2744554,3.5112446 0 0 0 0,7.02248 h 12.16223 a 3.2744554,3.5112446 0 0 0 0,-7.02248 z m 0,5.01605 h -12.16223 a 1.4033374,1.5048183 0 1 1 0,-3.00963 h 12.16223 a 1.4033374,1.5048183 0 1 1 0,3.00963 z"
     id="path40"
     inkscape:connector-curvature="0"
     style="fill:#ff7a5c;stroke-width:1.02998853" />
  <path
     d="m 403.68527,209.66668 h -12.16226 a 3.2744554,3.5112446 0 0 0 0,7.02248 h 12.16226 a 3.2744554,3.5112446 0 0 0 0,-7.02248 z m 0,5.01605 h -12.16226 a 1.4033374,1.5048183 0 1 1 0,-3.00963 h 12.16226 a 1.4033374,1.5048183 0 1 1 0,3.00963 z"
     id="path42"
     inkscape:connector-curvature="0"
     style="fill:#ff7a5c;stroke-width:1.02998853" />
  <path
     d="m 381.23184,200.63776 h -12.16223 a 3.2744558,3.511245 0 0 0 0,7.02249 h 12.16223 a 3.2744558,3.511245 0 0 0 0,-7.02249 z m 0,5.01606 h -12.16223 a 1.4033451,1.5048267 0 1 1 0,-3.00963 h 12.16223 a 1.4033451,1.5048267 0 0 1 0,3.00963 z"
     id="path44"
     inkscape:connector-curvature="0"
     style="fill:#ff7a5c;stroke-width:1.02998853" />
  <path
     d="m 403.68527,200.63776 h -12.16226 a 3.2744558,3.511245 0 0 0 0,7.02249 h 12.16226 a 3.2744558,3.511245 0 0 0 0,-7.02249 z m 0,5.01606 h -12.16226 a 1.4033451,1.5048267 0 1 1 0,-3.00963 h 12.16226 a 1.4033451,1.5048267 0 0 1 0,3.00963 z"
     id="path46"
     inkscape:connector-curvature="0"
     style="fill:#ff7a5c;stroke-width:1.02998853" />
  <path
     d="m 125.68334,180.89873 c 0,0 -13.29146,60.17771 2.95366,60.17771 16.24511,0 54.64266,-68.09584 54.64266,-68.09584 0,0 39.87437,-22.17074 23.62926,-30.08887 -16.24512,-7.91811 -36.92073,12.66901 -36.92073,12.66901 l -23.85674,35.51699 -1.24937,-18.09713 z"
     id="path48"
     inkscape:connector-curvature="0"
     style="fill:#a0616a;stroke-width:1.02998853" />
  <path
     d="m 156.69675,130.22275 -8.86098,-9.50175 c 0,0 -17.72194,11.08537 -19.19878,22.17073 -1.47684,11.08538 -8.86098,45.92511 -8.86098,45.92511 l 27.32133,2.37544 8.86097,-14.25262 z"
     id="path50"
     inkscape:connector-curvature="0"
     style="fill:#cfcce0;stroke-width:1.02998853" />
  <path
     d="m 576.4581,107.69525 c -1.11257,-3.52269 -15.06437,-15.497207 -6.51506,-17.509899 l 7.01096,10.024349 32.23332,-34.563593 3.24186,3.476297 z"
     id="path52"
     inkscape:connector-curvature="0"
     style="fill:#ff7a5c;stroke-width:1.02998853" />
  <path
     d="m 576.4581,225.22591 c -1.11257,-3.52269 -15.06437,-15.49719 -6.51506,-17.50988 l 7.01096,10.02433 32.23332,-34.56359 3.24186,3.47628 z"
     id="path54"
     inkscape:connector-curvature="0"
     style="fill:#ff7a5c;stroke-width:1.02998853" />
  <path
     d="m 576.4581,344.43559 c -1.11257,-3.52269 -15.06437,-15.49719 -6.51506,-17.50988 l 7.01096,10.02433 32.23332,-34.56357 3.24186,3.47629 z"
     id="path56"
     inkscape:connector-curvature="0"
     style="fill:#ff7a5c;stroke-width:1.02998853" />
  <ellipse
     cx="674.09186"
     cy="93.403557"
     id="circle58"
     rx="9.9465256"
     ry="10.665797"
     style="fill:#3f3d56;stroke-width:1.02998853" />
  <rect
     x="711.39111"
     y="92.336899"
     width="160.13904"
     height="2.1331596"
     id="rect60"
     style="fill:#3f3d56;stroke-width:1.02998853" />
  <ellipse
     cx="674.09186"
     cy="210.93423"
     id="circle62"
     rx="9.9465256"
     ry="10.665797"
     style="fill:#3f3d56;stroke-width:1.02998853" />
  <rect
     x="711.39111"
     y="209.86742"
     width="160.13904"
     height="2.1331596"
     id="rect64"
     style="fill:#3f3d56;stroke-width:1.02998853" />
  <ellipse
     cx="674.09186"
     cy="330.14395"
     id="circle66"
     rx="9.9465256"
     ry="10.665797"
     style="fill:#3f3d56;stroke-width:1.02998853" />
  <rect
     x="711.39111"
     y="329.077"
     width="160.13904"
     height="2.1331596"
     id="rect68"
     style="fill:#3f3d56;stroke-width:1.02998853" />
  <polygon
     points="550.04,312.485 550.04,261.485 584.04,261.485 584.04,263.485 552.04,263.485 552.04,310.485 598.04,310.485 598.04,287.485 600.04,287.485 600.04,312.485 "
     id="polygon70"
     transform="matrix(0.99465241,0,0,1.0665798,4.7490878,27.037498)"
     style="fill:#3f3d56" />
  <polygon
     points="550.04,200.485 550.04,149.485 584.04,149.485 584.04,151.485 552.04,151.485 552.04,198.485 598.04,198.485 598.04,175.485 600.04,175.485 600.04,200.485 "
     id="polygon72"
     transform="matrix(0.99465241,0,0,1.0665798,4.7490878,27.037498)"
     style="fill:#3f3d56" />
  <polygon
     points="550.04,86.485 550.04,35.485 584.04,35.485 584.04,37.485 552.04,37.485 552.04,84.485 598.04,84.485 598.04,61.485 600.04,61.485 600.04,86.485 "
     id="polygon74"
     transform="matrix(0.99465241,0,0,1.0665798,4.7490878,27.037498)"
     style="fill:#3f3d56" />
</svg>
