<?xml version="1.0" encoding="UTF-8" standalone="no"?>
<svg
   xmlns:dc="http://purl.org/dc/elements/1.1/"
   xmlns:cc="http://creativecommons.org/ns#"
   xmlns:rdf="http://www.w3.org/1999/02/22-rdf-syntax-ns#"
   xmlns:svg="http://www.w3.org/2000/svg"
   xmlns="http://www.w3.org/2000/svg"
   xmlns:sodipodi="http://sodipodi.sourceforge.net/DTD/sodipodi-0.dtd"
   xmlns:inkscape="http://www.inkscape.org/namespaces/inkscape"
   id="eb846191-07fb-429d-a36d-4b9eed5e0368"
   data-name="Layer 1"
   width="900"
   height="600"
   viewBox="0 0 900 599.99998"
   version="1.1"
   sodipodi:docname="circulares.svg"
   inkscape:version="0.92.3 (2405546, 2018-03-11)">
  <metadata
     id="metadata83">
    <rdf:RDF>
      <cc:Work
         rdf:about="">
        <dc:format>image/svg+xml</dc:format>
        <dc:type
           rdf:resource="http://purl.org/dc/dcmitype/StillImage" />
        <dc:title></dc:title>
      </cc:Work>
    </rdf:RDF>
  </metadata>
  <defs
     id="defs81" />
  <sodipodi:namedview
     pagecolor="#ffffff"
     bordercolor="#666666"
     borderopacity="1"
     objecttolerance="10"
     gridtolerance="10"
     guidetolerance="10"
     inkscape:pageopacity="0"
     inkscape:pageshadow="2"
     inkscape:window-width="1920"
     inkscape:window-height="1015"
     id="namedview79"
     showgrid="false"
     inkscape:zoom="0.72413334"
     inkscape:cx="451.38701"
     inkscape:cy="165.48827"
     inkscape:window-x="0"
     inkscape:window-y="28"
     inkscape:window-maximized="1"
     inkscape:current-layer="eb846191-07fb-429d-a36d-4b9eed5e0368" />
  <path
     d="M 636.90363,366.93561 527.56671,310.56403 a 7.00721,7.00721 0 0 1 -3.01416,-9.4292 l 6.76343,-13.11816 a 7.00758,7.00758 0 0 1 9.42944,-3.01416 l 109.33728,56.37158 a 7.00731,7.00731 0 0 1 3.014,9.4292 l -6.76355,13.11816 a 6.95171,6.95171 0 0 1 -4.09155,3.457 7.03373,7.03373 0 0 1 -2.1438,0.33692 6.95572,6.95572 0 0 1 -3.19417,-0.77976 z"
     id="path2"
     inkscape:connector-curvature="0"
     style="fill:#ff7a5c" />
  <path
     d="m 603.56922,314.20224 a 6.96559,6.96559 0 0 1 5.39414,0.14084 l 35.831,19.812 a 17.46934,17.46934 0 0 1 7.25338,22.95166 l -0.44889,-0.21865 0.44928,0.21893 a 17.48361,17.48361 0 0 1 -21.47644,8.84216 l -38.859,-13.582 a 6.99947,6.99947 0 0 1 -3.5732,-9.237 l 11.55364,-25.23064 a 7.03706,7.03706 0 0 1 0.74314,-1.2945 6.95794,6.95794 0 0 1 3.13295,-2.4028 z"
     id="path4"
     inkscape:connector-curvature="0"
     style="fill:#2f2e41" />
  <circle
     cx="686.01215"
     cy="254.63033"
     r="53.519161"
     id="circle6"
     style="fill:#ff7a5c" />
  <path
     d="M 679.44501,587.47614 V 464.46247 a 7.00786,7.00786 0 0 1 7,-7 h 14.75928 a 7.00786,7.00786 0 0 1 7,7 v 123.01367 a 7.00787,7.00787 0 0 1 -7,7 h -14.75928 a 7.00787,7.00787 0 0 1 -7,-7 z"
     id="path8"
     inkscape:connector-curvature="0"
     style="fill:#ff7a5c" />
  <path
     d="M 647.44501,587.47614 V 464.46247 a 7.00786,7.00786 0 0 1 7,-7 h 14.75928 a 7.00786,7.00786 0 0 1 7,7 v 123.01367 a 7.00787,7.00787 0 0 1 -7,7 h -14.75928 a 7.00787,7.00787 0 0 1 -7,-7 z"
     id="path10"
     inkscape:connector-curvature="0"
     style="fill:#ff7a5c" />
  <path
     d="m 687.13661,274.46632 0.0557,-2 c -3.72071,-0.10352 -7.001,-0.33692 -9.46583,-2.1377 a 6.148,6.148 0 0 1 -2.38132,-4.5283 3.51435,3.51435 0 0 1 1.15283,-2.89453 c 1.63623,-1.38183 4.269,-0.93457 6.188,-0.0547 l 1.65478,0.75879 -3.17334,-23.19043 -1.98144,0.27149 2.69922,19.72656 c -2.60743,-0.7666 -5.02344,-0.43652 -6.67823,0.96094 a 5.471,5.471 0 0 0 -1.86035,4.49219 8.13264,8.13264 0 0 0 3.2002,6.07324 c 3.16696,2.31444 7.28268,2.42966 10.58981,2.52244 z"
     id="path12"
     inkscape:connector-curvature="0"
     style="fill:#2f2e41" />
  <rect
     x="658.61511"
     y="242.39207"
     width="10.77148"
     height="2"
     id="rect14"
     style="fill:#2f2e41" />
  <rect
     x="692.61511"
     y="242.39207"
     width="10.77148"
     height="2"
     id="rect16"
     style="fill:#2f2e41" />
  <path
     d="M 737.2265,484.81794 718.71588,363.20465 a 7.00713,7.00713 0 0 1 5.867,-7.97314 l 14.59125,-2.22119 a 7.00806,7.00806 0 0 1 7.97351,5.86719 l 18.51049,121.61281 a 7.00788,7.00788 0 0 1 -5.86694,7.97363 L 745.2,490.68466 a 6.99379,6.99379 0 0 1 -7.97351,-5.8667 z"
     id="path18"
     inkscape:connector-curvature="0"
     style="fill:#ff7a5c" />
  <path
     d="m 722.92084,406.76032 a 6.96563,6.96563 0 0 1 -3.05518,-4.44776 L 714.8465,361.6778 a 17.46934,17.46934 0 0 1 14.31128,-19.354 l 0.0868,0.49169 -0.0868,-0.49218 a 17.48361,17.48361 0 0 1 19.773,12.18408 l 11.8396,39.4248 a 6.99948,6.99948 0 0 1 -5.37537,8.31836 l -27.205,5.47412 a 7.03708,7.03708 0 0 1 -1.48413,0.15918 6.95794,6.95794 0 0 1 -3.78504,-1.12353 z"
     id="path20"
     inkscape:connector-curvature="0"
     style="fill:#2f2e41" />
  <path
     d="M 724.3573,494.6625 H 581.3346 a 8.50018,8.50018 0 0 1 -7.594,-12.31885 l 69.14893,-137.51172 a 47.51643,47.51643 0 0 1 89.96777,21.34668 V 486.1625 a 8.50951,8.50951 0 0 1 -8.5,8.5 z"
     id="path22"
     inkscape:connector-curvature="0"
     style="fill:#2f2e41" />
  <path
     d="m 687.90828,210.47594 c -10.95586,2.44614 -20.19653,9.58683 -31.21246,11.80713 -5.01962,1.01171 -10.548,0.97035 -15.15826,-1.50054 a 15.79948,15.79948 0 0 1 -7.33469,-8.55937 23.62064,23.62064 0 0 1 3.76742,-22.34144 c 6.18353,-7.56951 16.04269,-11.05754 25.50177,-12.04062 18.93043,-1.96743 38.37476,4.27063 53.78292,15.13717 15.90921,11.2199 28.11373,28.06738 32.20772,47.24127 2.18846,10.24952 1.97258,21.15269 -1.764,31.0226 a 39.52833,39.52833 0 0 1 -19.76885,21.54486 38.7961,38.7961 0 0 1 -6.76575,2.51921 1.50128,1.50128 0 0 0 0.79752,2.89283 42.73058,42.73058 0 0 0 24.7672,-18.23872 c 5.8611,-9.375 7.82732,-20.85222 6.92455,-31.75949 -1.74634,-21.09933 -13.34881,-40.492 -29.56871,-53.768 -15.58247,-12.75428 -35.73976,-20.5145 -56.00724,-19.89794 -10.16442,0.30921 -20.71525,2.88942 -28.6193,9.5874 a 26.91885,26.91885 0 0 0 -9.34161,23.78683 21.57085,21.57085 0 0 0 4.73556,11.2939 19.518,19.518 0 0 0 12.52842,6.47021 c 11.984,1.56007 22.37578,-5.233 32.96559,-9.59955 a 51.26323,51.26323 0 0 1 8.35972,-2.70489 c 1.88344,-0.42052 1.08637,-3.31346 -0.79752,-2.89284 z"
     id="path24"
     inkscape:connector-curvature="0"
     style="fill:#2f2e41" />
  <path
     d="m 718.00977,189.27407 c -4.30291,-16.10736 6.92623,-32.87153 22.18366,-37.90167 a 43.58532,43.58532 0 0 1 26.84,0.29943 52.9419,52.9419 0 0 1 22.11841,14.44056 c 13.37427,14.22833 19.299,33.43205 22.07122,52.36571 2.86236,19.54929 1.247,40.96059 11.25028,58.72519 4.14738,7.36522 10.3033,13.81434 18.25719,16.98577 7.4202,2.95861 16.3097,2.9725 23.4187,-0.87294 a 22.458,22.458 0 0 0 4.7055,-3.437 c 1.4071,-1.32778 -0.7171,-3.44639 -2.1214,-2.12132 -5.9527,5.61708 -14.8253,6.67662 -22.47644,4.47236 -8.34538,-2.40426 -14.76863,-8.81808 -19.00146,-16.2035 -4.89491,-8.54061 -6.93322,-18.30285 -8.04481,-27.98892 -1.21346,-10.57366 -1.681,-21.20427 -3.30151,-31.73482 -2.92281,-18.99328 -9.23825,-38.05862 -22.63595,-52.31188 a 56.3627,56.3627 0 0 0 -22.27491,-14.82068 47.22383,47.22383 0 0 0 -27.27767,-1.37732 37.20289,37.20289 0 0 0 -20.50635,13.79 34.67929,34.67929 0 0 0 -7.07262,22.53589 30.61611,30.61611 0 0 0 0.97529,5.95259 1.50128,1.50128 0 0 0 2.89284,-0.79752 z"
     id="path26"
     inkscape:connector-curvature="0"
     style="fill:#2f2e41" />
  <path
     d="M 126.35515,382.2819 H 39.095378 a 17.01917,17.01917 0 0 1 -17,-17 V 16.281903 a 17.01917,17.01917 0 0 1 17,-17.00000069 H 275.77629 L 319.09538,37.960123 V 108.2819 h -2 V 38.855633 L 275.01311,1.2819023 H 39.095378 a 15.017,15.017 0 0 0 -15,15.0000007 V 365.2819 a 15.017,15.017 0 0 0 15,15 h 87.259772 z"
     id="path28"
     inkscape:connector-curvature="0"
     style="fill:#cccccc" />
  <path
     d="m 318.09538,39.281903 h -27 a 17.01917,17.01917 0 0 1 -17,-17 V 0.28190231 a 1,1 0 1 1 2,0 V 22.281903 a 15.017,15.017 0 0 0 15,15 h 27 a 1,1 0 0 1 0,2 z"
     id="path30"
     inkscape:connector-curvature="0"
     style="fill:#cccccc" />
  <path
     d="M 284.63542,89.781903 H 56.635418 a 8,8 0 0 0 0,15.999997 H 284.63542 a 8,8 0 0 0 0,-15.999997 z"
     id="path32"
     inkscape:connector-curvature="0"
     style="fill:#e6e6e6" />
  <path
     d="M 169.63542,55.781903 H 56.635418 a 8,8 0 0 0 0,16 H 169.63542 a 8,8 0 0 0 0,-16 z"
     id="path34"
     inkscape:connector-curvature="0"
     style="fill:#e6e6e6" />
  <path
     d="m 56.635418,156.7819 a 8,8 0 0 0 0,16 h 71.460002 v -16 z"
     id="path36"
     inkscape:connector-curvature="0"
     style="fill:#e6e6e6" />
  <path
     d="m 56.635418,122.7819 a 8,8 0 1 0 0,16 h 71.460002 v -16 z"
     id="path38"
     inkscape:connector-curvature="0"
     style="fill:#e6e6e6" />
  <path
     d="M 128.59538,326.2819 H 64.555378 a 16.51867,16.51867 0 0 1 -16.5,-16.5 v -84 a 16.51868,16.51868 0 0 1 16.5,-16.5 h 64.040002 z"
     id="path40"
     inkscape:connector-curvature="0"
     style="fill:#e6e6e6" />
  <path
     d="m 231.85515,489.7819 h -87.25977 a 17.01917,17.01917 0 0 1 -17,-17 v -349 a 17.01917,17.01917 0 0 1 17,-17 h 236.68091 l 43.31909,38.67822 v 66.32178 h -2 V 146.35563 L 380.51311,108.7819 H 144.59538 a 15.017,15.017 0 0 0 -15,15 v 349 a 15.017,15.017 0 0 0 15,15 h 87.25977 z"
     id="path42"
     inkscape:connector-curvature="0"
     style="fill:#cccccc" />
  <path
     d="m 423.59538,146.7819 h -27 a 17.01917,17.01917 0 0 1 -17,-17 v -22 a 1,1 0 1 1 2,0 v 22 a 15.017,15.017 0 0 0 15,15 h 27 a 1,1 0 0 1 0,2 z"
     id="path44"
     inkscape:connector-curvature="0"
     style="fill:#cccccc" />
  <path
     d="m 390.13542,197.2819 h -228 a 8,8 0 0 0 0,16 h 228 a 8,8 0 0 0 0,-16 z"
     id="path46"
     inkscape:connector-curvature="0"
     style="fill:#e6e6e6" />
  <path
     d="m 275.13542,163.2819 h -113 a 8,8 0 0 0 0,16 h 113 a 8,8 0 0 0 0,-16 z"
     id="path48"
     inkscape:connector-curvature="0"
     style="fill:#e6e6e6" />
  <path
     d="m 390.13542,197.2819 h -228 a 8,8 0 0 0 0,16 h 228 a 8,8 0 0 0 0,-16 z"
     id="path50"
     inkscape:connector-curvature="0"
     style="fill:#e6e6e6" />
  <path
     d="m 275.13542,163.2819 h -113 a 8,8 0 0 0 0,16 h 113 a 8,8 0 0 0 0,-16 z"
     id="path52"
     inkscape:connector-curvature="0"
     style="fill:#e6e6e6" />
  <path
     d="m 162.13542,264.2819 a 8,8 0 0 0 0,16 h 71.46 v -16 z"
     id="path54"
     inkscape:connector-curvature="0"
     style="fill:#e6e6e6" />
  <path
     d="m 162.13542,230.2819 a 8,8 0 0 0 0,16 h 71.46 v -16 z"
     id="path56"
     inkscape:connector-curvature="0"
     style="fill:#e6e6e6" />
  <path
     d="m 162.13542,264.2819 a 8,8 0 0 0 0,16 h 71.46 v -16 z"
     id="path58"
     inkscape:connector-curvature="0"
     style="fill:#e6e6e6" />
  <path
     d="m 162.13542,230.2819 a 8,8 0 0 0 0,16 h 71.46 v -16 z"
     id="path60"
     inkscape:connector-curvature="0"
     style="fill:#e6e6e6" />
  <path
     d="m 234.09538,433.7819 h -64.04 a 16.51867,16.51867 0 0 1 -16.5,-16.5 v -84 a 16.51868,16.51868 0 0 1 16.5,-16.5 h 64.04 z"
     id="path62"
     inkscape:connector-curvature="0"
     style="fill:#e6e6e6" />
  <path
     d="m 239.73552,215.2819 a 16.99409,16.99409 0 0 0 -8.14014,14.5 v 2.5 h 2 v -2.5 a 15.02721,15.02721 0 0 1 11.1499,-14.5 z m 245.54,-2.5 H 248.59538 a 17.01989,17.01989 0 0 0 -17,17 v 349 a 17.0241,17.0241 0 0 0 17,17 h 263 a 17.0241,17.0241 0 0 0 17,-17 v -327.32 z m 41.31982,366 a 15.01828,15.01828 0 0 1 -15,15 h -263 a 15.01828,15.01828 0 0 1 -15,-15 v -349 a 15.02721,15.02721 0 0 1 11.1499,-14.5 14.83265,14.83265 0 0 1 3.8501,-0.5 H 484.5153 l 42.08008,37.57 z m -286.85986,-363.5 a 16.99409,16.99409 0 0 0 -8.14014,14.5 v 2.5 h 2 v -2.5 a 15.02721,15.02721 0 0 1 11.1499,-14.5 z"
     id="path64"
     inkscape:connector-curvature="0"
     style="fill:#3f3d56" />
  <path
     d="m 527.59538,252.7819 h -27 a 17.01917,17.01917 0 0 1 -17,-17 v -22 a 1,1 0 0 1 2,0 v 22 a 15.017,15.017 0 0 0 15,15 h 27 a 1,1 0 0 1 0,2 z"
     id="path66"
     inkscape:connector-curvature="0"
     style="fill:#3f3d56" />
  <path
     d="m 494.13675,319.2819 h -228 a 8,8 0 1 1 0,-16 h 228 a 8,8 0 0 1 0,16 z"
     id="path68"
     inkscape:connector-curvature="0"
     style="fill:#cccccc" />
  <path
     d="m 379.13675,285.2819 h -113 a 8,8 0 1 1 0,-16 h 113 a 8,8 0 0 1 0,16 z"
     id="path70"
     inkscape:connector-curvature="0"
     style="fill:#cccccc" />
  <path
     d="m 494.13675,386.2819 h -228 a 8,8 0 1 1 0,-16 h 228 a 8,8 0 0 1 0,16 z"
     id="path72"
     inkscape:connector-curvature="0"
     style="fill:#cccccc" />
  <path
     d="m 379.13675,352.2819 h -113 a 8,8 0 1 1 0,-16 h 113 a 8,8 0 0 1 0,16 z"
     id="path74"
     inkscape:connector-curvature="0"
     style="fill:#cccccc" />
  <path
     d="m 486.05412,539.7819 h -212 a 16.51867,16.51867 0 0 1 -16.5,-16.5 v -84 a 16.51868,16.51868 0 0 1 16.5,-16.5 h 212 a 16.51867,16.51867 0 0 1 16.5,16.5 v 84 a 16.51866,16.51866 0 0 1 -16.5,16.5 z"
     id="path76"
     inkscape:connector-curvature="0"
     style="fill:#ff7a5c" />
</svg>
