<?xml version="1.0" encoding="UTF-8" standalone="no"?>
<svg
   xmlns:dc="http://purl.org/dc/elements/1.1/"
   xmlns:cc="http://creativecommons.org/ns#"
   xmlns:rdf="http://www.w3.org/1999/02/22-rdf-syntax-ns#"
   xmlns:svg="http://www.w3.org/2000/svg"
   xmlns="http://www.w3.org/2000/svg"
   xmlns:xlink="http://www.w3.org/1999/xlink"
   xmlns:sodipodi="http://sodipodi.sourceforge.net/DTD/sodipodi-0.dtd"
   xmlns:inkscape="http://www.inkscape.org/namespaces/inkscape"
   id="72abf1fc-af5c-4a12-adab-83afeedac95e"
   data-name="Layer 1"
   width="900"
   height="600"
   viewBox="0 0 900 600"
   version="1.1"
   sodipodi:docname="document.svg"
   inkscape:version="0.92.3 (2405546, 2018-03-11)">
  <metadata
     id="metadata125">
    <rdf:RDF>
      <cc:Work
         rdf:about="">
        <dc:format>image/svg+xml</dc:format>
        <dc:type
           rdf:resource="http://purl.org/dc/dcmitype/StillImage" />
        <dc:title>add file2</dc:title>
      </cc:Work>
    </rdf:RDF>
  </metadata>
  <sodipodi:namedview
     pagecolor="#ffffff"
     bordercolor="#666666"
     borderopacity="1"
     objecttolerance="10"
     gridtolerance="10"
     guidetolerance="10"
     inkscape:pageopacity="0"
     inkscape:pageshadow="2"
     inkscape:window-width="1920"
     inkscape:window-height="1015"
     id="namedview123"
     showgrid="false"
     inkscape:zoom="0.59268188"
     inkscape:cx="740.23208"
     inkscape:cy="310.71008"
     inkscape:window-x="0"
     inkscape:window-y="28"
     inkscape:window-maximized="1"
     inkscape:current-layer="72abf1fc-af5c-4a12-adab-83afeedac95e" />
  <defs
     id="defs20">
    <linearGradient
       id="44dab5fe-2df9-47ba-adb2-140775afca0e"
       x1="506"
       y1="757.81"
       x2="506"
       y2="51.810001"
       gradientUnits="userSpaceOnUse">
      <stop
         offset="0"
         stop-color="#b3b3b3"
         stop-opacity="0.25"
         id="stop2" />
      <stop
         offset="0.54"
         stop-color="#b3b3b3"
         stop-opacity="0.1"
         id="stop4" />
      <stop
         offset="1"
         stop-color="#b3b3b3"
         stop-opacity="0.05"
         id="stop6" />
    </linearGradient>
    <linearGradient
       id="b071ddd1-33a6-4512-b8b6-1cee124e019a"
       x1="49.459999"
       y1="96.5"
       x2="49.459999"
       y2="3.5"
       xlink:href="#44dab5fe-2df9-47ba-adb2-140775afca0e" />
    <linearGradient
       id="d200849e-56d5-45c5-85eb-e9070e3330a6"
       x1="627.87"
       y1="796.38"
       x2="627.87"
       y2="596.12"
       gradientUnits="userSpaceOnUse">
      <stop
         offset="0"
         stop-color="gray"
         stop-opacity="0.25"
         id="stop10" />
      <stop
         offset="0.54"
         stop-color="gray"
         stop-opacity="0.12"
         id="stop12" />
      <stop
         offset="1"
         stop-color="gray"
         stop-opacity="0.1"
         id="stop14" />
    </linearGradient>
    <linearGradient
       id="39846f9a-c4dd-4a41-91c8-743bb7d77e65"
       x1="627.87"
       y1="746.82001"
       x2="627.87"
       y2="645.67999"
       xlink:href="#d200849e-56d5-45c5-85eb-e9070e3330a6" />
    <linearGradient
       id="af8f0828-33b7-4bd6-b50f-ae3d37501acf"
       x1="611"
       y1="802.81"
       x2="611"
       y2="96.809998"
       xlink:href="#44dab5fe-2df9-47ba-adb2-140775afca0e"
       gradientTransform="matrix(0.75201195,0,0,0.73940678,26.681913,-30.531928)" />
    <linearGradient
       id="152252ce-949a-4e00-886c-6a46b2444b40"
       x1="154.46001"
       y1="141.5"
       x2="154.46001"
       y2="48.5"
       xlink:href="#44dab5fe-2df9-47ba-adb2-140775afca0e" />
    <linearGradient
       inkscape:collect="always"
       xlink:href="#44dab5fe-2df9-47ba-adb2-140775afca0e"
       id="linearGradient932"
       gradientUnits="userSpaceOnUse"
       x1="506"
       y1="757.81"
       x2="506"
       y2="51.810001"
       gradientTransform="matrix(0.75201195,0,0,0.73940678,26.681913,-30.531928)" />
    <linearGradient
       inkscape:collect="always"
       xlink:href="#d200849e-56d5-45c5-85eb-e9070e3330a6"
       id="linearGradient934"
       gradientUnits="userSpaceOnUse"
       x1="627.87"
       y1="796.38"
       x2="627.87"
       y2="596.12" />
  </defs>
  <title
     id="title22">add file2</title>
  <path
     d="m 515.48968,483.2153 c 0,-38.2717 38.43534,-73.55619 77.35948,-73.55619 5.96345,0 11.74643,-1.47881 17.29627,-0.1183 0.0752,-1.67106 0.12032,-11.49038 0.12032,-13.17623 V 7.7767384 H 273.34185 L 204.15674,77.650679 V 529.79793 H 522.2578 c -6.84331,-10.67704 -6.76812,-33.02191 -6.76812,-46.58263 z"
     id="path24"
     inkscape:connector-curvature="0"
     style="fill:url(#linearGradient932);stroke-width:0.74568272" />
  <path
     d="m 509.4736,490.60937 a 87.985398,86.510593 0 0 1 87.98539,-86.5106 c 2.6546,0 5.26409,0.1257 7.88108,0.34752 V 203.86002 H 210.53381 v 317.06502 h 304.49715 a 87.789875,86.318347 0 0 1 -5.55736,-30.31567 z"
     id="path26"
     inkscape:connector-curvature="0"
     style="fill:#fcfcfc;stroke-width:0.74568272" />
  <polygon
     points="92,5.5 533.09,5.5 533.09,269.19 6.91,269.19 6.91,94.5 "
     id="polygon28"
     style="fill:#fcfcfc"
     transform="matrix(0.75201195,0,0,0.73940678,204.15674,7.7767384)" />
  <rect
     x="473.0687"
     y="51.098572"
     width="107.33466"
     height="8.0521402"
     id="rect30"
     style="fill:#e0e0e0;stroke-width:0.74568272" />
  <rect
     x="473.0687"
     y="80.67485"
     width="107.33466"
     height="8.0521402"
     id="rect32"
     style="fill:#e0e0e0;stroke-width:0.74568272" />
  <rect
     x="473.0687"
     y="110.25112"
     width="107.33466"
     height="8.0521402"
     id="rect34"
     style="fill:#e0e0e0;stroke-width:0.74568272" />
  <rect
     x="473.0687"
     y="139.82739"
     width="107.33466"
     height="8.0521402"
     id="rect36"
     style="opacity:0.5;fill:#ff7a5c;stroke-width:0.74568272" />
  <rect
     x="473.0687"
     y="169.40366"
     width="107.33466"
     height="8.0521402"
     id="rect38"
     style="fill:#e0e0e0;stroke-width:0.74568272" />
  <rect
     x="473.0687"
     y="198.97993"
     width="107.33466"
     height="8.0521402"
     id="rect40"
     style="fill:#e0e0e0;stroke-width:0.74568272" />
  <rect
     x="267.86719"
     y="261.82953"
     width="107.33466"
     height="8.0521402"
     id="rect42"
     style="opacity:0.5;fill:#ff7a5c;stroke-width:0.74568272" />
  <rect
     x="267.86719"
     y="294.02328"
     width="107.33466"
     height="8.0521402"
     id="rect44"
     style="fill:#e0e0e0;stroke-width:0.74568272" />
  <rect
     x="267.86719"
     y="277.92639"
     width="280.16956"
     height="8.0521402"
     id="rect46"
     style="opacity:0.5;fill:#69f0ae;stroke-width:0.74568272" />
  <rect
     x="267.86719"
     y="339.63733"
     width="107.33466"
     height="8.0521402"
     id="rect48"
     style="opacity:0.5;fill:#ff7a5c;stroke-width:0.74568272" />
  <rect
     x="267.86719"
     y="371.83847"
     width="107.33466"
     height="8.0521402"
     id="rect50"
     style="fill:#e0e0e0;stroke-width:0.74568272" />
  <rect
     x="267.86719"
     y="355.73419"
     width="280.16956"
     height="8.0521402"
     id="rect52"
     style="fill:#e0e0e0;stroke-width:0.74568272" />
  <rect
     x="267.86719"
     y="417.45245"
     width="107.33466"
     height="8.0521402"
     id="rect54"
     style="opacity:0.5;fill:#ff7a5c;stroke-width:0.74568272" />
  <rect
     x="267.86719"
     y="449.64621"
     width="107.33466"
     height="8.0521402"
     id="rect56"
     style="fill:#e0e0e0;stroke-width:0.74568272" />
  <rect
     x="267.86719"
     y="433.54935"
     width="229.67198"
     height="8.0521402"
     id="rect58"
     style="fill:#e0e0e0;stroke-width:0.74568272" />
  <polygon
     points="50,54 59,43 79.75,43 310,43 310,281 50,281 "
     id="polygon60"
     style="fill:#ff7a5c"
     transform="matrix(0.75201195,0,0,0.73940678,204.15674,7.7767384)" />
  <polygon
     points="94,3.5 4.91,96.5 94,96.5 "
     id="polygon62"
     style="fill:url(#b071ddd1-33a6-4512-b8b6-1cee124e019a)"
     transform="matrix(0.75201195,0,0,0.73940678,204.15674,7.7767384)" />
  <polygon
     points="92,5.5 6.91,94.5 92,94.5 "
     id="polygon64"
     style="fill:#f5f5f5"
     transform="matrix(0.75201195,0,0,0.73940678,204.15674,7.7767384)" />
  <g
     id="g68"
     style="opacity:0.5"
     transform="matrix(0.75201195,0,0,0.73940678,204.15674,7.7767384)">
    <circle
       cx="627.87"
       cy="696.25"
       r="100.13"
       id="circle66"
       style="fill:url(#linearGradient934)" />
  </g>
  <ellipse
     cx="676.32245"
     cy="522.58868"
     id="circle70"
     style="fill:#3ad29f;stroke-width:0.74568272"
     rx="70.478561"
     ry="69.297203" />
  <g
     id="g74"
     style="opacity:0.5"
     transform="matrix(0.75201195,0,0,0.73940678,204.15674,7.7767384)">
    <polygon
       points="616.58,746.82 639.16,746.82 639.16,707.54 678.44,707.54 678.44,684.95 639.16,684.95 639.16,645.68 616.58,645.68 616.58,684.95 577.3,684.95 577.3,707.54 616.58,707.54 "
       id="polygon72"
       style="fill:url(#39846f9a-c4dd-4a41-91c8-743bb7d77e65)" />
  </g>
  <rect
     x="669.10321"
     y="490.80164"
     width="14.43863"
     height="63.566803"
     id="rect76"
     style="fill:#ffffff;stroke-width:0.74568272" />
  <rect
     x="515.49042"
     y="-708.65149"
     width="14.19661"
     height="64.650467"
     transform="rotate(90)"
     id="rect78"
     style="fill:#ffffff;stroke-width:0.74568272" />
  <path
     d="m 594.45094,516.4886 c 0,-38.27169 38.43534,-73.55618 77.35948,-73.55618 5.96345,0 11.74641,-1.47882 17.29627,-0.11831 0.0752,-1.67106 0.12032,-11.49038 0.12032,-13.17623 V 41.050043 H 352.30309 L 283.118,110.92398 v 452.14725 h 318.10105 c -6.84331,-10.67703 -6.76811,-33.02191 -6.76811,-46.58263 z"
     id="path80"
     inkscape:connector-curvature="0"
     style="fill:url(#af8f0828-33b7-4bd6-b50f-ae3d37501acf);stroke-width:0.74568272" />
  <path
     d="m 588.43484,523.88267 a 87.985398,86.510593 0 0 1 87.98541,-86.51059 c 2.6546,0 5.26408,0.1257 7.88108,0.34752 V 237.13333 H 289.49506 v 317.06502 h 304.49716 a 87.789875,86.318347 0 0 1 -5.55738,-30.31568 z"
     id="path82"
     inkscape:connector-curvature="0"
     style="fill:#ffffff;stroke-width:0.74568272" />
  <polygon
     points="197,50.5 638.09,50.5 638.09,314.19 111.91,314.19 111.91,139.5 "
     id="polygon84"
     style="fill:#ffffff"
     transform="matrix(0.75201195,0,0,0.73940678,204.15674,7.7767384)" />
  <rect
     x="552.02991"
     y="84.37188"
     width="107.33466"
     height="8.0521402"
     id="rect86"
     style="fill:#e0e0e0;stroke-width:0.74568272" />
  <rect
     x="552.02991"
     y="113.94815"
     width="107.33466"
     height="8.0521402"
     id="rect88"
     style="fill:#e0e0e0;stroke-width:0.74568272" />
  <rect
     x="552.02991"
     y="143.52443"
     width="107.33466"
     height="8.0521402"
     id="rect90"
     style="fill:#e0e0e0;stroke-width:0.74568272" />
  <rect
     x="552.02991"
     y="173.10069"
     width="107.33466"
     height="8.0521402"
     id="rect92"
     style="opacity:0.5;fill:#ff7a5c;stroke-width:0.74568272" />
  <rect
     x="552.02991"
     y="202.67697"
     width="107.33466"
     height="8.0521402"
     id="rect94"
     style="fill:#e0e0e0;stroke-width:0.74568272" />
  <rect
     x="552.02991"
     y="232.25323"
     width="107.33466"
     height="8.0521402"
     id="rect96"
     style="fill:#e0e0e0;stroke-width:0.74568272" />
  <rect
     x="346.82846"
     y="295.10284"
     width="107.33466"
     height="8.0521402"
     id="rect98"
     style="opacity:0.5;fill:#ff7a5c;stroke-width:0.74568272" />
  <rect
     x="346.82846"
     y="327.2966"
     width="107.33466"
     height="8.0521402"
     id="rect100"
     style="fill:#e0e0e0;stroke-width:0.74568272" />
  <rect
     x="346.82846"
     y="311.19971"
     width="280.16956"
     height="8.0521402"
     id="rect102"
     style="opacity:0.5;fill:#69f0ae;stroke-width:0.74568272" />
  <rect
     x="346.82846"
     y="372.91061"
     width="107.33466"
     height="8.0521402"
     id="rect104"
     style="opacity:0.5;fill:#ff7a5c;stroke-width:0.74568272" />
  <rect
     x="346.82846"
     y="405.11176"
     width="107.33466"
     height="8.0521402"
     id="rect106"
     style="fill:#e0e0e0;stroke-width:0.74568272" />
  <rect
     x="346.82846"
     y="389.00748"
     width="280.16956"
     height="8.0521402"
     id="rect108"
     style="fill:#e0e0e0;stroke-width:0.74568272" />
  <rect
     x="346.82846"
     y="450.72574"
     width="107.33466"
     height="8.0521402"
     id="rect110"
     style="opacity:0.5;fill:#ff7a5c;stroke-width:0.74568272" />
  <rect
     x="346.82846"
     y="482.91953"
     width="107.33466"
     height="8.0521402"
     id="rect112"
     style="fill:#e0e0e0;stroke-width:0.74568272" />
  <rect
     x="346.82846"
     y="466.82266"
     width="229.67198"
     height="8.0521402"
     id="rect114"
     style="fill:#e0e0e0;stroke-width:0.74568272" />
  <polygon
     points="155,99 164,88 184.75,88 415,88 415,326 155,326 "
     id="polygon116"
     style="fill:#ff7a5c"
     transform="matrix(0.75201195,0,0,0.73940678,204.15674,7.7767384)" />
  <polygon
     points="199,48.5 109.91,141.5 199,141.5 "
     id="polygon118"
     style="fill:url(#152252ce-949a-4e00-886c-6a46b2444b40)"
     transform="matrix(0.75201195,0,0,0.73940678,204.15674,7.7767384)" />
  <polygon
     points="197,50.5 111.91,139.5 197,139.5 "
     id="polygon120"
     style="fill:#fcfcfc"
     transform="matrix(0.75201195,0,0,0.73940678,204.15674,7.7767384)" />
</svg>
