<?xml version="1.0" encoding="UTF-8" standalone="no"?>
<svg
   xmlns:dc="http://purl.org/dc/elements/1.1/"
   xmlns:cc="http://creativecommons.org/ns#"
   xmlns:rdf="http://www.w3.org/1999/02/22-rdf-syntax-ns#"
   xmlns:svg="http://www.w3.org/2000/svg"
   xmlns="http://www.w3.org/2000/svg"
   xmlns:xlink="http://www.w3.org/1999/xlink"
   xmlns:sodipodi="http://sodipodi.sourceforge.net/DTD/sodipodi-0.dtd"
   xmlns:inkscape="http://www.inkscape.org/namespaces/inkscape"
   id="72abf1fc-af5c-4a12-adab-83afeedac95e"
   data-name="Layer 1"
   width="900"
   height="600"
   viewBox="0 0 900 600"
   version="1.1"
   sodipodi:docname="document.svg"
   inkscape:version="0.92.3 (2405546, 2018-03-11)">
  <metadata
     id="metadata125">
    <rdf:RDF>
      <cc:Work
         rdf:about="">
        <dc:format>image/svg+xml</dc:format>
        <dc:type
           rdf:resource="http://purl.org/dc/dcmitype/StillImage" />
        <dc:title>add file2</dc:title>
      </cc:Work>
    </rdf:RDF>
  </metadata>
  <sodipodi:namedview
     pagecolor="#ffffff"
     bordercolor="#666666"
     borderopacity="1"
     objecttolerance="10"
     gridtolerance="10"
     guidetolerance="10"
     inkscape:pageopacity="0"
     inkscape:pageshadow="2"
     inkscape:window-width="1920"
     inkscape:window-height="1015"
     id="namedview123"
     showgrid="false"
     inkscape:zoom="0.59268188"
     inkscape:cx="424.71712"
     inkscape:cy="175.73042"
     inkscape:window-x="0"
     inkscape:window-y="28"
     inkscape:window-maximized="1"
     inkscape:current-layer="72abf1fc-af5c-4a12-adab-83afeedac95e" />
  <defs
     id="defs20">
    <linearGradient
       id="44dab5fe-2df9-47ba-adb2-140775afca0e"
       x1="506"
       y1="757.81"
       x2="506"
       y2="51.810001"
       gradientUnits="userSpaceOnUse">
      <stop
         offset="0"
         stop-color="#b3b3b3"
         stop-opacity="0.25"
         id="stop2" />
      <stop
         offset="0.54"
         stop-color="#b3b3b3"
         stop-opacity="0.1"
         id="stop4" />
      <stop
         offset="1"
         stop-color="#b3b3b3"
         stop-opacity="0.05"
         id="stop6" />
    </linearGradient>
    <linearGradient
       id="b071ddd1-33a6-4512-b8b6-1cee124e019a"
       x1="49.459999"
       y1="96.5"
       x2="49.459999"
       y2="3.5"
       xlink:href="#44dab5fe-2df9-47ba-adb2-140775afca0e" />
    <linearGradient
       id="d200849e-56d5-45c5-85eb-e9070e3330a6"
       x1="627.87"
       y1="796.38"
       x2="627.87"
       y2="596.12"
       gradientUnits="userSpaceOnUse">
      <stop
         offset="0"
         stop-color="gray"
         stop-opacity="0.25"
         id="stop10" />
      <stop
         offset="0.54"
         stop-color="gray"
         stop-opacity="0.12"
         id="stop12" />
      <stop
         offset="1"
         stop-color="gray"
         stop-opacity="0.1"
         id="stop14" />
    </linearGradient>
    <linearGradient
       id="39846f9a-c4dd-4a41-91c8-743bb7d77e65"
       x1="627.87"
       y1="746.82001"
       x2="627.87"
       y2="645.67999"
       xlink:href="#d200849e-56d5-45c5-85eb-e9070e3330a6" />
    <linearGradient
       id="af8f0828-33b7-4bd6-b50f-ae3d37501acf"
       x1="611"
       y1="802.81"
       x2="611"
       y2="96.809998"
       xlink:href="#44dab5fe-2df9-47ba-adb2-140775afca0e"
       gradientTransform="matrix(0.7543296,0,0,0.75,24.447703,-36.1425)" />
    <linearGradient
       id="152252ce-949a-4e00-886c-6a46b2444b40"
       x1="154.46001"
       y1="141.5"
       x2="154.46001"
       y2="48.5"
       xlink:href="#44dab5fe-2df9-47ba-adb2-140775afca0e" />
    <linearGradient
       inkscape:collect="always"
       xlink:href="#44dab5fe-2df9-47ba-adb2-140775afca0e"
       id="linearGradient932"
       gradientUnits="userSpaceOnUse"
       x1="506"
       y1="757.81"
       x2="506"
       y2="51.810001"
       gradientTransform="matrix(0.7543296,0,0,0.75,24.447703,-36.1425)" />
    <linearGradient
       inkscape:collect="always"
       xlink:href="#d200849e-56d5-45c5-85eb-e9070e3330a6"
       id="linearGradient934"
       gradientUnits="userSpaceOnUse"
       x1="627.87"
       y1="796.38"
       x2="627.87"
       y2="596.12" />
  </defs>
  <title
     id="title22">add file2</title>
  <path
     d="m 514.76194,484.965 c 0,-38.82 38.55379,-74.61 77.59789,-74.61 5.98183,0 11.78263,-1.5 17.34958,-0.12 0.0754,-1.695 0.12069,-11.655 0.12069,-13.365 V 2.7150012 H 271.86782 L 202.46949,73.590001 V 532.215 h 319.08142 c -6.8644,-10.83 -6.78897,-33.495 -6.78897,-47.25 z"
     id="path24"
     inkscape:connector-curvature="0"
     style="fill:url(#linearGradient932);stroke-width:0.75216168" />
  <path
     d="m 508.72731,492.465 a 88.256563,87.75 0 0 1 88.25656,-87.75 c 2.66278,0 5.28031,0.1275 7.90537,0.3525 v -203.46 H 208.86621 V 523.215 H 514.3018 a 88.060437,87.555 0 0 1 -5.57449,-30.75 z"
     id="path26"
     inkscape:connector-curvature="0"
     style="fill:#fcfcfc;stroke-width:0.75216168" />
  <polygon
     points="6.91,269.19 6.91,94.5 92,5.5 533.09,5.5 533.09,269.19 "
     id="polygon28"
     style="fill:#fcfcfc"
     transform="matrix(0.7543296,0,0,0.75,202.46949,2.7150012)" />
  <rect
     x="472.21021"
     y="46.657494"
     width="107.66546"
     height="8.1675005"
     id="rect30"
     style="fill:#e0e0e0;stroke-width:0.75216168" />
  <rect
     x="472.21021"
     y="76.657494"
     width="107.66546"
     height="8.1675005"
     id="rect32"
     style="fill:#e0e0e0;stroke-width:0.75216168" />
  <rect
     x="472.21021"
     y="106.65749"
     width="107.66546"
     height="8.1675005"
     id="rect34"
     style="fill:#e0e0e0;stroke-width:0.75216168" />
  <rect
     x="472.21021"
     y="136.6575"
     width="107.66546"
     height="8.1675005"
     id="rect36"
     style="opacity:0.5;fill:#ff7a5c;stroke-width:0.75216168" />
  <rect
     x="472.21021"
     y="166.6575"
     width="107.66546"
     height="8.1675005"
     id="rect38"
     style="fill:#e0e0e0;stroke-width:0.75216168" />
  <rect
     x="472.21021"
     y="196.6575"
     width="107.66546"
     height="8.1675005"
     id="rect40"
     style="fill:#e0e0e0;stroke-width:0.75216168" />
  <rect
     x="266.37628"
     y="260.4075"
     width="107.66546"
     height="8.1675005"
     id="rect42"
     style="opacity:0.5;fill:#ff7a5c;stroke-width:0.75216168" />
  <rect
     x="266.37628"
     y="293.0625"
     width="107.66546"
     height="8.1675005"
     id="rect44"
     style="fill:#e0e0e0;stroke-width:0.75216168" />
  <rect
     x="266.37628"
     y="276.73499"
     width="281.03302"
     height="8.1675005"
     id="rect46"
     style="opacity:0.5;fill:#69f0ae;stroke-width:0.75216168" />
  <rect
     x="266.37628"
     y="339.33002"
     width="107.66546"
     height="8.1675005"
     id="rect48"
     style="opacity:0.5;fill:#ff7a5c;stroke-width:0.75216168" />
  <rect
     x="266.37628"
     y="371.99249"
     width="107.66546"
     height="8.1675005"
     id="rect50"
     style="fill:#e0e0e0;stroke-width:0.75216168" />
  <rect
     x="266.37628"
     y="355.6575"
     width="281.03302"
     height="8.1675005"
     id="rect52"
     style="fill:#e0e0e0;stroke-width:0.75216168" />
  <rect
     x="266.37628"
     y="418.25998"
     width="107.66546"
     height="8.1675005"
     id="rect54"
     style="opacity:0.5;fill:#ff7a5c;stroke-width:0.75216168" />
  <rect
     x="266.37628"
     y="450.91498"
     width="107.66546"
     height="8.1675005"
     id="rect56"
     style="fill:#e0e0e0;stroke-width:0.75216168" />
  <rect
     x="266.37628"
     y="434.58749"
     width="230.37981"
     height="8.1675005"
     id="rect58"
     style="fill:#e0e0e0;stroke-width:0.75216168" />
  <polygon
     points="310,281 50,281 50,54 59,43 79.75,43 310,43 "
     id="polygon60"
     style="fill:#ff7a5c"
     transform="matrix(0.7543296,0,0,0.75,202.46949,2.7150012)" />
  <polygon
     points="4.91,96.5 94,96.5 94,3.5 "
     id="polygon62"
     style="fill:url(#b071ddd1-33a6-4512-b8b6-1cee124e019a)"
     transform="matrix(0.7543296,0,0,0.75,202.46949,2.7150012)" />
  <polygon
     points="6.91,94.5 92,94.5 92,5.5 "
     id="polygon64"
     style="fill:#f5f5f5"
     transform="matrix(0.7543296,0,0,0.75,202.46949,2.7150012)" />
  <g
     id="g68"
     style="opacity:0.5"
     transform="matrix(0.7543296,0,0,0.75,202.46949,2.7150012)">
    <circle
       cx="627.87"
       cy="696.25"
       r="100.13"
       id="circle66"
       style="fill:url(#linearGradient934)" />
  </g>
  <ellipse
     cx="676.09039"
     cy="524.90247"
     id="circle70"
     style="fill:#3ad29f;stroke-width:0.75216168"
     rx="70.69577"
     ry="70.290001" />
  <g
     id="g74"
     style="opacity:0.5"
     transform="matrix(0.7543296,0,0,0.75,202.46949,2.7150012)">
    <polygon
       points="577.3,707.54 616.58,707.54 616.58,746.82 639.16,746.82 639.16,707.54 678.44,707.54 678.44,684.95 639.16,684.95 639.16,645.68 616.58,645.68 616.58,684.95 577.3,684.95 "
       id="polygon72"
       style="fill:url(#39846f9a-c4dd-4a41-91c8-743bb7d77e65)" />
  </g>
  <rect
     x="668.84888"
     y="492.66"
     width="14.483129"
     height="64.477501"
     id="rect76"
     style="fill:#ffffff;stroke-width:0.75216168" />
  <rect
     x="517.70251"
     y="-708.51904"
     width="14.400001"
     height="64.849716"
     transform="rotate(90)"
     id="rect78"
     style="fill:#ffffff;stroke-width:0.75216168" />
  <path
     d="m 593.96655,518.715 c 0,-38.82 38.55379,-74.61 77.59789,-74.61 5.98183,0 11.78262,-1.5 17.34958,-0.12 0.0754,-1.695 0.12069,-11.655 0.12069,-13.365 V 36.465001 H 351.07242 L 281.6741,107.34 v 458.625 h 319.08142 c -6.8644,-10.83 -6.78897,-33.495 -6.78897,-47.25 z"
     id="path80"
     inkscape:connector-curvature="0"
     style="fill:url(#af8f0828-33b7-4bd6-b50f-ae3d37501acf);stroke-width:0.75216168" />
  <path
     d="m 587.93191,526.215 a 88.256563,87.75 0 0 1 88.25657,-87.75 c 2.66278,0 5.2803,0.1275 7.90537,0.3525 v -203.46 H 288.07082 V 556.965 h 305.43559 a 88.060437,87.555 0 0 1 -5.5745,-30.75 z"
     id="path82"
     inkscape:connector-curvature="0"
     style="fill:#ffffff;stroke-width:0.75216168" />
  <polygon
     points="111.91,314.19 111.91,139.5 197,50.5 638.09,50.5 638.09,314.19 "
     id="polygon84"
     style="fill:#ffffff"
     transform="matrix(0.7543296,0,0,0.75,202.46949,2.7150012)" />
  <rect
     x="551.41479"
     y="80.407494"
     width="107.66546"
     height="8.1675005"
     id="rect86"
     style="fill:#e0e0e0;stroke-width:0.75216168" />
  <rect
     x="551.41479"
     y="110.40749"
     width="107.66546"
     height="8.1675005"
     id="rect88"
     style="fill:#e0e0e0;stroke-width:0.75216168" />
  <rect
     x="551.41479"
     y="140.4075"
     width="107.66546"
     height="8.1675005"
     id="rect90"
     style="fill:#e0e0e0;stroke-width:0.75216168" />
  <rect
     x="551.41479"
     y="170.4075"
     width="107.66546"
     height="8.1675005"
     id="rect92"
     style="opacity:0.5;fill:#ff7a5c;stroke-width:0.75216168" />
  <rect
     x="551.41479"
     y="200.4075"
     width="107.66546"
     height="8.1675005"
     id="rect94"
     style="fill:#e0e0e0;stroke-width:0.75216168" />
  <rect
     x="551.41479"
     y="230.4075"
     width="107.66546"
     height="8.1675005"
     id="rect96"
     style="fill:#e0e0e0;stroke-width:0.75216168" />
  <rect
     x="345.5809"
     y="294.1575"
     width="107.66546"
     height="8.1675005"
     id="rect98"
     style="opacity:0.5;fill:#ff7a5c;stroke-width:0.75216168" />
  <rect
     x="345.5809"
     y="326.8125"
     width="107.66546"
     height="8.1675005"
     id="rect100"
     style="fill:#e0e0e0;stroke-width:0.75216168" />
  <rect
     x="345.5809"
     y="310.48499"
     width="281.03302"
     height="8.1675005"
     id="rect102"
     style="opacity:0.5;fill:#69f0ae;stroke-width:0.75216168" />
  <rect
     x="345.5809"
     y="373.08002"
     width="107.66546"
     height="8.1675005"
     id="rect104"
     style="opacity:0.5;fill:#ff7a5c;stroke-width:0.75216168" />
  <rect
     x="345.5809"
     y="405.74249"
     width="107.66546"
     height="8.1675005"
     id="rect106"
     style="fill:#e0e0e0;stroke-width:0.75216168" />
  <rect
     x="345.5809"
     y="389.4075"
     width="281.03302"
     height="8.1675005"
     id="rect108"
     style="fill:#e0e0e0;stroke-width:0.75216168" />
  <rect
     x="345.5809"
     y="452.00998"
     width="107.66546"
     height="8.1675005"
     id="rect110"
     style="opacity:0.5;fill:#ff7a5c;stroke-width:0.75216168" />
  <rect
     x="345.5809"
     y="484.66498"
     width="107.66546"
     height="8.1675005"
     id="rect112"
     style="fill:#e0e0e0;stroke-width:0.75216168" />
  <rect
     x="345.5809"
     y="468.33749"
     width="230.37981"
     height="8.1675005"
     id="rect114"
     style="fill:#e0e0e0;stroke-width:0.75216168" />
  <polygon
     points="415,326 155,326 155,99 164,88 184.75,88 415,88 "
     id="polygon116"
     style="fill:#ff7a5c"
     transform="matrix(0.7543296,0,0,0.75,202.46949,2.7150012)" />
  <polygon
     points="109.91,141.5 199,141.5 199,48.5 "
     id="polygon118"
     style="fill:url(#152252ce-949a-4e00-886c-6a46b2444b40)"
     transform="matrix(0.7543296,0,0,0.75,202.46949,2.7150012)" />
  <polygon
     points="111.91,139.5 197,139.5 197,50.5 "
     id="polygon120"
     style="fill:#fcfcfc"
     transform="matrix(0.7543296,0,0,0.75,202.46949,2.7150012)" />
</svg>
