<?xml version="1.0" encoding="UTF-8" standalone="no"?>
<svg
   xmlns:dc="http://purl.org/dc/elements/1.1/"
   xmlns:cc="http://creativecommons.org/ns#"
   xmlns:rdf="http://www.w3.org/1999/02/22-rdf-syntax-ns#"
   xmlns:svg="http://www.w3.org/2000/svg"
   xmlns="http://www.w3.org/2000/svg"
   xmlns:sodipodi="http://sodipodi.sourceforge.net/DTD/sodipodi-0.dtd"
   xmlns:inkscape="http://www.inkscape.org/namespaces/inkscape"
   id="218ce321-9800-4e36-9dda-4c1d0ef9719a"
   data-name="Layer 1"
   width="900"
   height="600"
   viewBox="0 0 899.99998 600"
   version="1.1"
   sodipodi:docname="fracao.svg"
   inkscape:version="0.92.3 (2405546, 2018-03-11)">
  <metadata
     id="metadata218">
    <rdf:RDF>
      <cc:Work
         rdf:about="">
        <dc:format>image/svg+xml</dc:format>
        <dc:type
           rdf:resource="http://purl.org/dc/dcmitype/StillImage" />
        <dc:title>relaxing at home</dc:title>
      </cc:Work>
    </rdf:RDF>
  </metadata>
  <sodipodi:namedview
     pagecolor="#ffffff"
     bordercolor="#666666"
     borderopacity="1"
     objecttolerance="10"
     gridtolerance="10"
     guidetolerance="10"
     inkscape:pageopacity="0"
     inkscape:pageshadow="2"
     inkscape:window-width="1920"
     inkscape:window-height="1015"
     id="namedview216"
     showgrid="false"
     inkscape:zoom="0.40390943"
     inkscape:cx="-340.80602"
     inkscape:cy="140.21081"
     inkscape:window-x="0"
     inkscape:window-y="28"
     inkscape:window-maximized="1"
     inkscape:current-layer="218ce321-9800-4e36-9dda-4c1d0ef9719a" />
  <defs
     id="defs9">
    <linearGradient
       id="8608c656-43fd-4907-84f3-eb091890c985"
       x1="454.31"
       y1="591.79999"
       x2="454.31"
       y2="311.53"
       gradientUnits="userSpaceOnUse"
       gradientTransform="matrix(0.75771123,0,0,0.72434563,-4.6602265,-27.694726)">
      <stop
         offset="0"
         stop-color="gray"
         stop-opacity="0.25"
         id="stop2" />
      <stop
         offset="0.54"
         stop-color="gray"
         stop-opacity="0.12"
         id="stop4" />
      <stop
         offset="1"
         stop-color="gray"
         stop-opacity="0.1"
         id="stop6" />
    </linearGradient>
  </defs>
  <title
     id="title11">relaxing at home</title>
  <path
     d="m 780.08614,411.0704 c -4.85692,11.19114 -11.22928,21.9187 -20.14754,30.14726 -10.86558,10.02495 -24.36041,15.49376 -38.80997,18.10864 a 116.89212,111.7448 0 0 1 -12.88109,1.59357 c -11.41871,0.84024 -23.11019,0.28249 -34.32432,-0.88371 a 405.82256,387.95227 0 0 1 -80.84779,-16.53681 q -6.47842,-1.99919 -12.88109,-4.20845 -9.66082,-3.3175 -19.14736,-7.10583 c -25.76218,-10.29295 -52.39573,-23.41809 -79.80215,-19.34727 -13.28268,1.97747 -25.76218,7.9678 -39.07517,9.74969 a 69.868553,66.79191 0 0 1 -27.91408,-1.91227 95.918668,91.694913 0 0 1 -12.88109,-4.25191 146.57166,140.11742 0 0 1 -26.76236,-14.45069 C 354.53278,388.55774 336.51441,371.92676 315.37427,360.30826 292.06707,347.49458 266.267,341.40284 239.982,336.86119 q -6.41782,-1.10825 -12.88109,-2.11509 c -12.16127,-1.91952 -24.35284,-3.69416 -36.37014,-5.79476 -11.57783,-2.04266 -23.36024,-4.54165 -33.4378,-10.6841 -7.19068,-4.38229 -13.23721,-10.45231 -18.78366,-16.84828 a 210.25729,200.99867 0 0 1 -26.15619,-38.54968 q -0.56828,-1.08651 -1.11384,-2.17303 C 100.10851,238.86447 92.622318,215.06247 88.030588,190.43472 87.8942,189.71038 87.765389,188.98603 87.636578,188.26169 83.317625,164.11925 81.741585,139.1583 82.218943,114.37843 l 0.04546,-2.17303 c 0.295508,-12.234203 1.091104,-24.4177 2.273134,-36.42735 0.848636,-8.44587 1.985203,-17.210452 6.561779,-24.309039 4.576576,-7.098587 12.024874,-11.661965 19.480754,-15.457536 32.8089,-16.710653 64.2615,-21.360952 99.55569,-13.262768 5.66767,1.296578 11.31263,2.694565 16.95757,4.143257 4.29623,1.101005 8.59245,2.238228 12.8811,3.382694 29.65681,7.888124 59.20754,16.297776 89.8797,18.811256 q 4.44019,0.369416 8.88795,0.564989 8.79703,0.391147 17.59405,0.173843 a 303.98617,290.60022 0 0 0 45.03836,-4.432995 q 6.4557,-1.064788 12.88109,-2.361367 c 18.48816,-3.686919 36.80961,-8.605226 54.83556,-14.045061 q 5.52372,-1.665995 11.03228,-3.389938 c 8.27421,-2.585914 16.54841,-5.222532 24.83777,-7.786715 24.74686,-7.663577 49.64524,-14.6679989 75.23315,-17.49294685 q 3.28089,-0.3549293 6.57694,-0.6301807 c 2.09886,-0.1738429 4.20529,-0.3114686 6.30415,-0.412877 39.74196,-2.02816775 79.93854,7.13480435 115.17211,25.88811255 q 6.5542,3.491346 12.88109,7.417299 8.76672,5.454322 16.99547,11.734399 c 11.24443,8.583496 21.76904,18.354918 29.78562,30.096561 7.81201,11.437417 12.8811,24.28007 15.79829,37.781873 0.15912,0.72434 0.31066,1.44869 0.44705,2.17304 4.28106,21.79556 2.94749,45.17019 -1.8564,67.00921 -0.50766,2.28893 -1.04564,4.58511 -1.60635,6.87404 -0.17427,0.72435 -0.35612,1.44869 -0.53797,2.17304 -5.18274,20.65109 -11.80515,41.24424 -10.07756,62.35891 0.21973,2.65835 0.56828,5.29497 1.02291,7.90261 0.12881,0.72435 0.25762,1.44869 0.40159,2.17304 3.37939,17.22494 11.06258,33.56617 15.66946,50.62451 a 163.15039,155.9661 0 0 1 -7.0846,97.59109 z"
     id="path13"
     inkscape:connector-curvature="0"
     style="opacity:0.1;fill:#ff7a5c;stroke-width:0.74084061" />
  <path
     d="m 721.12863,114.36395 h 63.02643 c -0.13639,-0.72435 -0.28793,-1.4487 -0.44705,-2.17304 H 721.12863 V 32.578077 q -6.31931,-3.925953 -12.88109,-7.417299 V 112.19091 H 593.07543 V -0.72733455 c -2.09886,0.1014084 -4.20529,0.2390341 -6.30415,0.412877 -2.09886,0.173843 -4.38715,0.3911467 -6.57694,0.6301807 V 112.19091 H 415.77101 l -0.39401,-0.41288 89.58419,-93.96936 c -8.28936,2.564183 -16.56356,5.200801 -24.83777,7.786715 L 414.25558,94.719689 V 43.030384 q -6.43296,1.289335 -12.88109,2.361367 V 97.073813 L 356.33613,49.810259 q -8.79702,0.202817 -17.59405,-0.173843 l 59.22271,62.127134 -0.39401,0.41287 H 239.96685 V 30.252927 c -4.28865,-1.144466 -8.58487,-2.281688 -12.8811,-3.382694 V 112.19091 H 82.249252 l -0.04546,2.17304 H 227.10091 V 188.2472 H 87.621424 c 0.128811,0.72435 0.257622,1.44869 0.39401,2.17304 H 227.10091 v 70.26152 H 111.22413 q 0.54555,1.08652 1.11384,2.17304 h 114.76294 v 71.89854 q 6.45569,1.00684 12.88109,2.11509 V 262.8548 h 161.39249 v 153.56127 a 95.918668,91.694913 0 0 0 12.88109,4.25191 V 262.8548 h 165.93876 v 176.42886 q 6.41024,2.2165 12.88109,4.20845 V 262.8548 h 115.17211 v 198.05782 a 116.89212,111.7448 0 0 0 12.88109,-1.59356 V 262.8548 h 50.37265 c -0.14397,-0.72435 -0.27278,-1.44869 -0.40159,-2.17304 h -50.00895 v -70.26152 h 59.02571 c 0.18185,-0.72435 0.3637,-1.44869 0.53798,-2.17304 h -59.5258 z m -12.88109,0 V 188.2472 H 593.07543 V 114.36395 Z M 580.19434,188.2472 H 414.25558 V 114.36395 H 580.19434 Z M 239.982,114.36395 h 159.11936 l 2.27313,1.97746 V 188.2472 H 239.982 Z m 0,146.31781 v -70.26152 h 161.39249 v 70.26152 z m 174.27358,0 v -70.26152 h 165.93876 v 70.26152 z m 293.99196,0 H 593.07543 v -70.26152 h 115.17211 z"
     id="path15"
     inkscape:connector-curvature="0"
     style="opacity:0.1;fill:#ff7a5c;stroke-width:0.74084061" />
  <path
     d="m 652.87401,63.485905 h -1.00018 a 2.4549844,2.3468798 0 0 0 1.21991,-1.897786 v 0 c 0,-1.499395 -1.91701,-2.723539 -4.25834,-2.723539 h -29.89928 c -2.34132,0 -4.26591,1.224144 -4.26591,2.723539 v 0 c 0,1.499396 1.92459,2.72354 4.26591,2.72354 h 1.00018 a 2.4474073,2.3396364 0 0 0 -1.21992,1.897785 c 0,1.274849 1.39419,2.34688 3.25816,2.636618 h -8.56213 c -2.34891,0 -4.26592,1.224144 -4.26592,2.72354 0,1.499395 1.91701,2.723539 4.26592,2.723539 h 29.8614 c 2.34889,0 4.26591,-1.231387 4.26591,-2.723539 0,-1.274848 -1.40177,-2.354123 -3.26573,-2.643862 h 8.60002 c 2.34132,0 4.25833,-1.224144 4.25833,-2.716296 0,-1.492152 -1.91701,-2.723539 -4.25833,-2.723539 z"
     id="path17"
     inkscape:connector-curvature="0"
     style="opacity:0.1;fill:#ff7a5c;stroke-width:0.74084061" />
  <path
     d="m 329.21007,89.388504 h -1.00018 a 2.4777158,2.3686102 0 0 0 1.21992,-1.897785 v 0 c 0,-1.492152 -1.91701,-2.716296 -4.26591,-2.716296 h -29.8614 c -2.34891,0 -4.26592,1.224144 -4.26592,2.716296 v 0 c 0,1.499395 1.91701,2.723539 4.26592,2.723539 h 0.9926 a 2.4701387,2.3613667 0 0 0 -1.21234,1.897787 c 0,1.274849 1.39419,2.354124 3.25815,2.643862 h -8.60002 c -2.34132,0 -4.25833,1.224144 -4.25833,2.716296 0,1.492154 1.91701,2.723547 4.25833,2.723547 h 29.89929 c 2.34133,0 4.26592,-1.224153 4.26592,-2.723547 0,-1.274848 -1.40177,-2.34688 -3.26574,-2.636618 h 8.60002 c 2.34133,0 4.25834,-1.224144 4.25834,-2.72354 0,-1.499395 -1.94732,-2.723541 -4.28865,-2.723541 z"
     id="path19"
     inkscape:connector-curvature="0"
     style="opacity:0.1;fill:#ff7a5c;stroke-width:0.74084061" />
  <path
     d="m 698.68523,200.25685 h -1.00018 a 2.4777158,2.3686102 0 0 0 1.21991,-1.89779 v 0 c 0,-1.49939 -1.91701,-2.72354 -4.26591,-2.72354 h -29.86141 c -2.34889,0 -4.2659,1.22415 -4.2659,2.72354 v 0 c 0,1.4994 1.91701,2.72354 4.2659,2.72354 h 0.99261 a 2.4701387,2.3613667 0 0 0 -1.21234,1.89779 c 0,1.27485 1.39419,2.34688 3.25816,2.63662 h -8.60002 c -2.34133,0 -4.25834,1.22414 -4.25834,2.72354 0,1.49939 1.91701,2.72354 4.25834,2.72354 h 29.86898 c 2.34133,0 4.26591,-1.22415 4.26591,-2.72354 0,-1.27485 -1.40176,-2.35413 -3.26573,-2.64386 h 8.60002 c 2.34133,0 4.25833,-1.22415 4.25833,-2.7163 0,-1.49215 -1.917,-2.72354 -4.25833,-2.72354 z"
     id="path21"
     inkscape:connector-curvature="0"
     style="opacity:0.1;fill:#ff7a5c;stroke-width:0.74084061" />
  <ellipse
     cx="437.85074"
     cy="526.58179"
     rx="320.17844"
     ry="33.790726"
     id="ellipse23"
     style="opacity:0.1;fill:#ff7a5c;stroke-width:0.74084061" />
  <path
     d="m 504.41564,286.16424 v 106.2615 a 20.609746,19.702201 0 0 1 -0.7577,5.33843 20.958293,20.0354 0 0 1 -20.20059,14.70422 h -93.95619 a 20.958293,20.0354 0 0 1 -20.96587,-20.04265 v -106.2615 a 20.958293,20.0354 0 0 1 20.96587,-20.04264 h 93.95619 a 20.958293,20.0354 0 0 1 20.20059,14.70421 20.609746,19.702201 0 0 1 0.7577,5.33843 z"
     id="path25"
     inkscape:connector-curvature="0"
     style="fill:#e9ccdb;stroke-width:0.74084061" />
  <path
     d="m 370.05071,286.16424 v 106.2615 a 20.927985,20.006426 0 0 1 -0.75771,5.34567 20.927985,20.006426 0 0 1 -0.75771,-5.34567 v -106.2615 a 20.927985,20.006426 0 0 1 0.75771,-5.34567 20.927985,20.006426 0 0 1 0.75771,5.34567 z"
     id="path27"
     inkscape:connector-curvature="0"
     style="opacity:0.1;stroke-width:0.74084061" />
  <rect
     x="203.86192"
     y="266.12161"
     width="164.67337"
     height="146.31781"
     rx="20.96587"
     ry="20.042643"
     id="rect29"
     style="fill:#e9ccdb;stroke-width:0.74084061" />
  <path
     d="m 504.41564,286.16424 v 106.2615 a 20.609746,19.702201 0 0 1 -0.7577,5.33843 20.91283,19.991939 0 0 1 -0.75772,-5.33843 v -106.2615 a 20.91283,19.991939 0 0 1 0.75772,-5.33843 20.609746,19.702201 0 0 1 0.7577,5.33843 z"
     id="path31"
     inkscape:connector-curvature="0"
     style="opacity:0.1;stroke-width:0.74084061" />
  <rect
     x="504.41562"
     y="266.12161"
     width="164.68095"
     height="146.31781"
     rx="20.96587"
     ry="20.042643"
     id="rect33"
     style="fill:#e9ccdb;stroke-width:0.74084061" />
  <path
     d="M 360.20046,423.3046 H 209.77205 l -0.75771,-12.5674 c -0.83348,-14.11025 18.24569,-25.82292 42.0757,-25.82292 h 102.38195 c 7.99385,0 14.16162,4.15774 13.13871,8.8515 z"
     id="path35"
     inkscape:connector-curvature="0"
     style="opacity:0.1;stroke-width:0.74084061" />
  <path
     d="M 360.20046,424.75329 H 209.77205 l -0.75771,-12.5674 c -0.83348,-14.11025 18.24569,-25.82292 42.0757,-25.82292 h 102.38195 c 7.99385,0 14.16162,4.15774 13.13871,8.8515 z"
     id="path37"
     inkscape:connector-curvature="0"
     style="fill:#caa4bc;stroke-width:0.74084061" />
  <path
     d="m 510.93954,424.13759 h 150.42841 l 0.75771,-12.56739 c 0.83349,-14.11025 -18.24568,-25.82292 -42.07571,-25.82292 H 517.66801 c -7.98627,0 -14.16162,4.15774 -13.13871,8.8515 z"
     id="path39"
     inkscape:connector-curvature="0"
     style="opacity:0.1;stroke-width:0.74084061" />
  <path
     d="m 510.93954,425.58629 h 150.42841 l 0.75771,-12.5674 c 0.83349,-14.11025 -18.24568,-25.82292 -42.07571,-25.82292 H 517.66801 c -7.98627,0 -14.16162,4.15774 -13.13871,8.8515 z"
     id="path41"
     inkscape:connector-curvature="0"
     style="fill:#caa4bc;stroke-width:0.74084061" />
  <path
     d="m 386.25057,385.74728 h 101.92732 a 21.662964,20.709041 0 0 1 21.66297,20.70904 V 419.3207 H 362.4736 v -10.86519 a 23.769402,22.722722 0 0 1 23.77697,-22.70823 z"
     id="path43"
     inkscape:connector-curvature="0"
     style="opacity:0.1;stroke-width:0.74084061" />
  <path
     d="m 386.25057,387.19597 h 101.92732 a 21.662964,20.709041 0 0 1 21.66297,20.70904 v 12.86438 H 362.4736 V 409.9042 a 23.769402,22.722722 0 0 1 23.77697,-22.70823 z"
     id="path45"
     inkscape:connector-curvature="0"
     style="fill:#caa4bc;stroke-width:0.74084061" />
  <path
     d="m 220.04662,400.12554 h 121.99151 a 20.458203,19.557332 0 0 1 20.4582,19.55733 v 26.43861 H 210.97682 v -37.32553 a 9.0925348,8.6921475 0 0 1 9.0698,-8.67041 z"
     id="path47"
     inkscape:connector-curvature="0"
     style="fill:#e9ccdb;stroke-width:0.74084061" />
  <path
     d="m 377.62782,400.12554 h 115.92982 a 20.458203,19.557332 0 0 1 20.4582,19.55733 v 26.43861 H 358.31376 v -27.52513 a 19.321636,18.470813 0 0 1 19.31406,-18.47081 z"
     id="path49"
     inkscape:connector-curvature="0"
     style="opacity:0.1;stroke-width:0.74084061" />
  <path
     d="m 380.65867,400.12554 h 115.92981 a 20.458203,19.557332 0 0 1 20.45821,19.55733 v 26.43861 H 361.34461 v -27.52513 a 19.321636,18.470813 0 0 1 19.31406,-18.47081 z"
     id="path51"
     inkscape:connector-curvature="0"
     style="opacity:0.1;stroke-width:0.74084061" />
  <path
     d="m 379.14325,400.12554 h 115.92981 a 20.458203,19.557332 0 0 1 20.4582,19.55733 v 26.43861 H 359.82919 v -27.52513 a 19.321636,18.470813 0 0 1 19.31406,-18.47081 z"
     id="path53"
     inkscape:connector-curvature="0"
     style="fill:#e9ccdb;stroke-width:0.74084061" />
  <path
     d="m 520.2897,400.12554 h 123.86305 a 19.511064,18.6519 0 0 1 19.51107,18.6519 v 27.34404 H 512.16703 v -38.23096 a 8.1226644,7.7649851 0 0 1 8.12267,-7.76498 z"
     id="path55"
     inkscape:connector-curvature="0"
     style="opacity:0.1;stroke-width:0.74084061" />
  <path
     d="m 521.80512,400.12554 h 123.86305 a 19.511064,18.6519 0 0 1 19.51106,18.6519 v 27.34404 H 513.68245 v -38.23096 a 8.1226644,7.7649851 0 0 1 8.12267,-7.76498 z"
     id="path57"
     inkscape:connector-curvature="0"
     style="fill:#e9ccdb;stroke-width:0.74084061" />
  <path
     d="m 213.20449,507.32869 v 19.73842 a 10.426107,9.9669958 0 0 1 -10.41853,9.95975 h -7.19827 a 10.426107,9.9669958 0 0 1 -10.41852,-9.95975 v -19.73842 z"
     id="path59"
     inkscape:connector-curvature="0"
     style="fill:#9c7aa5;stroke-width:0.74084061" />
  <path
     d="m 690.16098,507.32869 v 19.73842 a 10.426107,9.9669958 0 0 1 -10.41853,9.95975 h -7.19826 a 10.426107,9.9669958 0 0 1 -10.41853,-9.95975 v -19.73842 z"
     id="path61"
     inkscape:connector-curvature="0"
     style="fill:#9c7aa5;stroke-width:0.74084061" />
  <path
     d="m 220.84979,377.77947 a 27.65646,26.438615 0 1 0 -33.0059,25.93882 v 106.86995 h 31.06616 V 387.53641 a 27.671614,26.453102 0 0 0 1.93974,-9.75694 z"
     id="path63"
     inkscape:connector-curvature="0"
     style="fill:#e9ccdb;stroke-width:0.74084061" />
  <path
     d="m 653.36652,377.77947 a 27.65646,26.438615 0 1 1 33.0059,25.93882 V 510.58824 H 655.30625 V 387.53641 a 27.671614,26.453102 0 0 1 -1.93973,-9.75694 z"
     id="path65"
     inkscape:connector-curvature="0"
     style="fill:#e9ccdb;stroke-width:0.74084061" />
  <path
     d="m 220.84979,377.77947 a 27.65646,26.438615 0 1 0 -33.0059,25.93882 v 106.86995 h 31.06616 V 387.53641 a 27.671614,26.453102 0 0 0 1.93974,-9.75694 z"
     id="path67"
     inkscape:connector-curvature="0"
     style="opacity:0.1;stroke-width:0.74084061" />
  <path
     d="m 653.36652,377.77947 a 27.65646,26.438615 0 1 1 33.0059,25.93882 V 510.58824 H 655.30625 V 387.53641 a 27.671614,26.453102 0 0 1 -1.93973,-9.75694 z"
     id="path69"
     inkscape:connector-curvature="0"
     style="opacity:0.1;stroke-width:0.74084061" />
  <rect
     x="203.86192"
     y="492.11743"
     width="468.13675"
     height="20.64385"
     id="rect71"
     style="fill:#9c7aa5;stroke-width:0.74084061" />
  <rect
     x="209.02951"
     y="446.12146"
     width="460.06711"
     height="47.444637"
     id="rect73"
     style="opacity:0.1;stroke-width:0.74084061" />
  <rect
     x="209.02951"
     y="444.67279"
     width="460.06711"
     height="47.444637"
     id="rect75"
     style="fill:#caa4bc;stroke-width:0.74084061" />
  <rect
     x="662.16351"
     y="507.32867"
     width="27.989853"
     height="6.8812833"
     id="rect77"
     style="opacity:0.1;stroke-width:0.74084061" />
  <path
     d="m 660.20865,379.95251 a 27.65646,26.438615 0 1 1 32.98317,25.93882 V 512.76128 H 662.12566 V 389.70945 a 27.520072,26.308233 0 0 1 -1.91701,-9.75694 z"
     id="path79"
     inkscape:connector-curvature="0"
     style="fill:#e9ccdb;stroke-width:0.74084061" />
  <rect
     x="185.16919"
     y="507.32867"
     width="27.641306"
     height="6.8812833"
     id="rect81"
     style="opacity:0.1;stroke-width:0.74084061" />
  <path
     d="m 214.76537,379.95251 a 27.65646,26.438615 0 1 0 -33.02863,25.93882 V 512.76128 H 212.8029 V 389.70945 a 27.520072,26.308233 0 0 0 1.96247,-9.75694 z"
     id="path83"
     inkscape:connector-curvature="0"
     style="fill:#e9ccdb;stroke-width:0.74084061" />
  <rect
     x="218.90248"
     y="444.67279"
     width="436.55536"
     height="1.3255526"
     id="rect85"
     style="opacity:0.1;stroke-width:0.74084061" />
  <ellipse
     cx="185.16919"
     cy="379.11951"
     id="circle87"
     style="fill:#caa4bc;stroke-width:0.74084061"
     rx="12.502236"
     ry="11.951703" />
  <ellipse
     cx="690.15332"
     cy="379.11951"
     id="circle89"
     style="fill:#caa4bc;stroke-width:0.74084061"
     rx="12.502236"
     ry="11.951703" />
  <path
     d="m 317.40493,358.91751 c -11.91121,-2.84667 -37.05966,-32.86356 -37.05966,-32.86356 -9.45623,-6.31629 -28.73998,-44.57623 -28.73998,-44.57623 0,0 -7.31949,-3.29577 -13.76761,11.52434 -6.44812,14.82011 -43.94725,26.67041 -55.17653,28.32916 -6.3269,0.93441 -5.71315,3.62173 -3.97041,5.79476 a 10.062405,9.6193099 0 0 0 4.5008,3.04226 c 4.77358,1.73118 19.58684,18.73157 19.58684,18.73157 13.81307,8.92394 29.134,50.14645 34.22581,60.91747 2.82627,5.99034 5.97076,3.12193 8.21359,-0.60845 a 59.404561,56.788697 0 0 1 17.37432,-18.18107 c 19.27617,-12.95855 39.93896,-18.33319 41.34831,-18.35492 1.78062,-0.0435 25.37574,-10.90865 13.46452,-13.75533 z"
     id="path91"
     inkscape:connector-curvature="0"
     style="opacity:0.1;stroke-width:0.74084061" />
  <path
     d="m 159.05844,323.61291 a 11.683908,11.16941 0 0 1 -4.96301,-3.44789 c -1.99278,-2.44104 -2.84142,-5.46881 3.78855,-6.51911 11.69907,-1.83984 50.35749,-15.07363 56.07063,-31.7698 5.71315,-16.69616 13.63881,-12.95854 13.63881,-12.95854 0,0 23.09504,43.18549 33.52114,50.34926 0,0 28.68695,33.92111 41.43923,37.17342 12.75229,3.25231 -11.30505,15.42132 -13.1766,15.45029 -1.51541,0 -22.86014,6.01932 -42.21966,20.56418 a 59.737953,57.107409 0 0 0 -16.98031,20.44827 c -2.09129,4.20121 -5.19791,7.42455 -8.61518,0.6664 -6.14504,-12.16176 -25.29998,-58.67199 -40.49967,-68.81283 0,0 -16.85149,-19.21689 -22.00393,-21.14365 z"
     id="path93"
     inkscape:connector-curvature="0"
     style="fill:#ff7a5c;stroke-width:0.74084061" />
  <path
     d="m 159.05844,323.61291 a 11.683908,11.16941 0 0 1 -4.96301,-3.44789 c -1.99278,-2.44104 -2.84142,-5.46881 3.78855,-6.51911 11.69907,-1.83984 50.35749,-15.07363 56.07063,-31.7698 5.71315,-16.69616 13.63881,-12.95854 13.63881,-12.95854 0,0 23.09504,43.18549 33.52114,50.34926 0,0 28.68695,33.92111 41.43923,37.17342 12.75229,3.25231 -11.30505,15.42132 -13.1766,15.45029 -1.51541,0 -22.86014,6.01932 -42.21966,20.56418 a 59.737953,57.107409 0 0 0 -16.98031,20.44827 c -2.09129,4.20121 -5.19791,7.42455 -8.61518,0.6664 -6.14504,-12.16176 -25.29998,-58.67199 -40.49967,-68.81283 0,0 -16.85149,-19.21689 -22.00393,-21.14365 z"
     id="path95"
     inkscape:connector-curvature="0"
     style="opacity:0.1;stroke-width:0.74084061" />
  <path
     d="m 167.2796,322.71472 a 10.463992,10.003213 0 0 1 -4.62203,-3.07847 c -1.84124,-2.17304 -2.59138,-4.95452 3.64459,-5.99758 11.055,-1.85433 47.7358,-14.48691 53.37318,-29.85028 5.63737,-15.36337 13.09324,-12.03863 13.09324,-12.03863 0,0 21.09469,39.11467 30.80855,45.53237 0,0 26.51989,30.58187 38.48415,33.3706 11.96426,2.78873 -10.90347,14.24788 -12.66894,14.31307 -1.40175,0.0435 -21.6478,5.79477 -40.15868,19.40522 a 57.46482,54.934372 0 0 0 -16.31353,18.91991 c -2.03824,3.868 -5.02362,6.85955 -8.13782,0.72434 -5.59948,-11.03178 -22.92076,-53.28286 -37.08997,-62.29372 0,0 -15.58611,-17.29013 -20.41274,-19.00683 z"
     id="path97"
     inkscape:connector-curvature="0"
     style="fill:#ff7a5c;stroke-width:0.74084061" />
  <path
     d="m 209.77205,336.54248 c 0,0 -3.97041,3.57102 15.01784,-3.27404 18.98824,-6.84507 -15.01784,3.27404 -15.01784,3.27404 z"
     id="path99"
     inkscape:connector-curvature="0"
     style="opacity:0.1;stroke-width:0.74084061" />
  <path
     d="m 225.35817,353.96299 c 0,0 2.89446,0.39839 13.78277,-3.85352 10.88831,-4.25191 -13.78277,3.85352 -13.78277,3.85352 z"
     id="path101"
     inkscape:connector-curvature="0"
     style="opacity:0.1;stroke-width:0.74084061" />
  <path
     d="m 224.40345,385.95009 c 0,0 2.70503,0 13.57062,-4.30261 10.86558,-4.30261 -13.57062,4.30261 -13.57062,4.30261 z"
     id="path103"
     inkscape:connector-curvature="0"
     style="opacity:0.1;stroke-width:0.74084061" />
  <path
     d="m 667.58118,314.34128 v 13.82052 c -3.12177,6.17142 -6.17534,14.0523 -6.17534,14.0523 -9.09254,11.31428 -7.65289,49.00923 -8.25148,59.18629 -0.33339,5.64989 -4.2053,4.30261 -7.57712,1.9847 A 59.927381,57.288495 0 0 0 623.346,394.0193 c -21.97363,-4.59959 -42.43183,-2.68732 -43.7351,-2.28169 -1.60634,0.50705 -26.70174,-1.10824 -17.09396,-6.98269 9.60778,-5.87444 21.09468,-37.5211 21.09468,-37.5211 6.14504,-7.90985 9.35016,-44.41687 9.35016,-44.41687 0,0 5.30398,-4.84588 16.55599,5.07042 10.67615,9.51065 45.56117,8.3517 58.06341,6.45391 z"
     id="path105"
     inkscape:connector-curvature="0"
     style="opacity:0.1;stroke-width:0.74084061" />
  <path
     d="m 675.84781,319.12197 a 8.6454852,8.2647836 0 0 0 2.90961,-3.79558 c 0.75771,-2.25995 0.33339,-4.59959 -5.67525,-3.44788 -10.64585,2.04265 -48.56172,3.83179 -59.77584,-6.12072 -11.21413,-9.95251 -16.55599,-5.10664 -16.55599,-5.10664 0,0 -3.20512,36.49978 -9.35016,44.41688 0,0 -11.47933,31.64666 -21.09468,37.5211 -9.61536,5.87444 15.48761,7.48973 17.09396,6.97545 1.27296,-0.40564 21.73116,-2.31066 43.73509,2.28893 a 60.033461,57.389904 0 0 1 22.23125,9.35855 c 3.37182,2.3179 7.24372,3.67243 7.57711,-1.98471 0.59859,-10.14084 -0.8259,-47.86476 8.25148,-59.17904 0,0 7.01641,-18.1014 10.65342,-20.92634 z"
     id="path107"
     inkscape:connector-curvature="0"
     style="fill:#ff7a5c;stroke-width:0.74084061" />
  <path
     d="m 675.84781,319.12197 a 8.6454852,8.2647836 0 0 0 2.90961,-3.79558 c 0.75771,-2.25995 0.33339,-4.59959 -5.67525,-3.44788 -10.64585,2.04265 -48.56172,3.83179 -59.77584,-6.12072 -11.21413,-9.95251 -16.55599,-5.10664 -16.55599,-5.10664 0,0 -3.20512,36.49978 -9.35016,44.41688 0,0 -11.47933,31.64666 -21.09468,37.5211 -9.61536,5.87444 15.48761,7.48973 17.09396,6.97545 1.27296,-0.40564 21.73116,-2.31066 43.73509,2.28893 a 60.033461,57.389904 0 0 1 22.23125,9.35855 c 3.37182,2.3179 7.24372,3.67243 7.57711,-1.98471 0.59859,-10.14084 -0.8259,-47.86476 8.25148,-59.17904 0,0 7.01641,-18.1014 10.65342,-20.92634 z"
     id="path109"
     inkscape:connector-curvature="0"
     style="opacity:0.1;stroke-width:0.74084061" />
  <path
     d="m 673.1049,320.75174 a 8.2135898,7.8519066 0 0 0 2.75806,-3.62172 c 0.75771,-2.17304 0.31824,-4.34608 -5.37974,-3.2668 -10.11545,1.934 -46.11431,3.62172 -56.76015,-5.79477 -10.64585,-9.41649 -15.72251,-4.84587 -15.72251,-4.84587 0,0 -3.03085,34.65269 -8.8728,42.16416 0,0 -10.89588,30.0531 -20.02631,35.63056 -9.13042,5.57746 14.70718,7.10583 16.2226,6.62052 1.21234,-0.3839 20.64006,-2.17304 41.53015,2.17304 a 56.78288,54.282461 0 0 1 21.10226,8.88772 c 3.20512,2.17303 6.88001,3.4841 7.19825,-1.8833 0.56829,-9.66277 -0.7577,-45.44545 7.83474,-56.19474 0,-0.007 6.66028,-17.18872 10.11545,-19.8688 z"
     id="path111"
     inkscape:connector-curvature="0"
     style="fill:#ff7a5c;stroke-width:0.74084061" />
  <path
     d="m 646.42588,340.7292 c 0,0 -2.65198,1.44869 -15.34365,5.61367 -12.69167,4.16499 13.25995,-1.62977 15.34365,-5.61367 z"
     id="path113"
     inkscape:connector-curvature="0"
     style="opacity:0.1;stroke-width:0.74084061" />
  <path
     d="m 645.09989,353.5139 c 0,0 -7.95597,6.22937 -11.93395,6.77263 -3.97799,0.54326 9.66082,-0.68813 11.93395,-6.77263 z"
     id="path115"
     inkscape:connector-curvature="0"
     style="opacity:0.1;stroke-width:0.74084061" />
  <path
     d="m 651.42678,382.2849 c 0,0 -7.95597,6.22938 -11.93396,6.77264 -3.97798,0.54326 9.66082,-0.67365 11.93396,-6.77264 z"
     id="path117"
     inkscape:connector-curvature="0"
     style="opacity:0.1;stroke-width:0.74084061" />
  <path
     d="m 530.76884,387.51468 a 17.169737,16.413672 0 0 1 -3.33393,-0.45634 c -0.0758,-0.34044 -0.68194,-0.57223 -1.96247,-0.62294 h -0.25763 a 27.004828,25.815678 0 0 1 -10.32002,-6.70744 c -3.65217,-3.83903 -13.98735,-8.64144 -13.98735,-8.64144 0,0 -7.30433,-5.88893 -12.12338,-6.367 -4.81904,-0.47807 -18.13961,-13.32796 -29.47497,-25.22171 -11.33536,-11.89376 -28.85364,-24.85954 -28.85364,-24.85954 l -7.43315,-7.92434 c 0,0 -8.66822,-5.90342 -10.67615,-9.17746 -1.09868,-1.77465 -4.54626,-2.68733 -8.0772,-3.00604 -3.78855,-1.44869 -10.03968,-1.44869 -12.95686,-0.84024 -1.78062,0.3839 -6.70575,4.83863 -11.5551,9.58309 l 3.98556,-48.89333 a 3.1445016,3.0060343 0 0 0 -2.19736,-3.1002 l -13.41149,6.25111 a 3.030845,2.8973825 0 0 0 -1.70485,2.41931 l -3.59912,52.48609 -15.83618,11.068 a 12.009723,11.480878 0 0 0 -2.42467,-5.07042 c -8.88038,-11.068 -22.68587,9.93078 -27.83073,18.71709 -0.24247,0 -0.47736,0.0724 -0.69709,0.12314 a 1.8336611,1.7529164 0 0 1 -0.46221,0.68088 65.685987,62.793522 0 0 1 -11.09289,-6.54084 3.6521681,3.4913459 0 0 1 -0.59859,-0.85473 c -0.75772,-1.80362 -3.73552,-4.90382 -5.45553,-6.62052 -5.2282,-5.62816 -13.02505,-13.1686 -14.13889,-13.64667 -0.59101,-0.24627 -3.38697,-2.29617 -6.85728,-4.89657 a 35.407846,33.848671 0 0 0 -1.77305,-3.20886 c -2.47014,-3.91146 -6.68301,-5.07041 -9.63051,-5.38188 -2.72776,-2.02817 -4.81147,-3.54205 -5.3646,-3.80282 -1.88669,-0.89819 -6.23596,-7.38832 -8.33482,-11.53158 -2.09885,-4.14326 -17.35159,-4.67927 -17.35159,-4.67927 a 35.559388,33.99354 0 0 1 4.01588,-16.37021 c 0.15912,-0.28974 0.31066,-0.57224 0.46978,-0.84749 a 27.603421,26.387911 0 0 0 18.3745,-33.95732 c 1.95489,-0.65915 4.34168,-0.36942 6.39507,-1.05754 2.75808,-0.91992 5.25853,-3.0495 5.68284,-5.79477 a 8.8803756,8.4893307 0 0 0 -1.27295,-5.2515 18.18507,17.384295 0 0 0 -3.4779,-4.20845 c -3.7431,-3.75211 -9.13042,-6.06278 -14.39651,-7.79396 -6.67544,-2.17304 -13.68427,-3.84628 -20.73856,-3.47686 -7.05429,0.36942 -14.19951,2.96257 -18.74577,8.10543 a 15.472464,14.791138 0 0 1 -2.82627,2.83943 c -1.6215,1.05755 -3.69763,1.23139 -5.6601,1.15895 -6.47086,-0.22454 -13.22964,-2.66559 -19.2004,-0.27525 -7.17553,2.89739 -9.68355,11.25633 -10.60796,18.62293 -0.96229,7.5839 -1.19718,15.29818 -3.29605,22.66477 -2.09886,7.3666 -6.42538,14.56659 -13.45694,18.22454 -2.0534,1.06479 -4.29623,1.81086 -6.2284,3.07122 -1.93216,1.26036 -3.57639,3.2161 -3.58396,5.44708 0,3.04225 2.85656,5.28048 4.34925,7.9678 0.75772,1.36902 1.19719,2.9336 1.94732,4.28089 v 0 c 0.0758,0.13762 0.15155,0.26801 0.23489,0.39839 l 0.0455,0.0724 c 0.0681,0.10141 0.13639,0.20282 0.21216,0.30423 a 0.53797498,0.51428539 0 0 0 0.0758,0.10141 l 0.21216,0.27525 a 1.2956862,1.238631 0 0 1 0.0834,0.10141 c 0.10608,0.11589 0.21215,0.23179 0.32581,0.34044 0.11366,0.10865 0.27278,0.24628 0.41674,0.35493 0.14397,0.10865 0.21974,0.24627 0.34097,0.36217 3.25058,3.13642 9.02434,1.36177 13.19175,3.2668 a 9.1379975,8.7356082 0 0 1 2.17463,1.44869 c 1.39419,1.44869 2.51561,3.23782 3.78856,4.84587 l 0.0758,0.0869 0.39401,0.47807 0.20458,0.22455 c 0.0909,0.10865 0.18943,0.2173 0.28793,0.31871 0.0985,0.10141 0.34855,0.36217 0.52282,0.52877 l 0.34097,0.29698 c 0.13639,0.14487 0.27278,0.28974 0.41674,0.42737 3.42486,3.25955 8.48637,4.39678 13.32057,4.71549 2.6444,0.1666 5.37974,0.12314 7.82715,-0.86197 a 10.517032,10.053917 0 0 0 3.03085,-1.8833 30.073559,28.749278 0 0 0 4.54627,2.81046 c 3.98556,2.49175 8.40301,4.8169 12.57043,7.46076 4.34168,3.94768 9.6002,9.54688 9.66839,13.62494 0.0985,5.41086 7.8802,16.03701 11.36566,20.51347 0.17428,0.89094 0.25005,1.39799 0.25005,1.39799 l 15.99529,22.5199 c 0,0 1.19719,3.51308 7.44072,3.70865 -1.15172,6.77988 -0.75771,18.70261 4.78116,19.94848 6.42539,1.44869 16.88181,0.23903 18.39722,2.04265 1.51543,1.80363 26.45171,-0.96338 26.45171,-0.96338 0,0 13.85853,-2.99879 23.05715,-0.35492 a 25.625794,24.497369 0 0 0 17.25308,-1.20242 c 0,0 9.94117,-0.89819 11.22928,-4.61408 a 2.9853822,2.8539218 0 0 0 0.49252,-1.15171 5.2509389,5.0197152 0 0 1 0.33339,-1.18068 c 1.00018,-1.55735 2.55349,-2.01368 1.97005,-2.36137 0.75771,-0.62294 0.91683,-0.76781 -1.4245,-1.14447 a 12.881091,12.313876 0 0 0 -4.65992,0.15212 q 0.84105,-0.81127 1.65938,-1.7167 a 9.4410819,9.0253465 0 0 0 1.04565,0 c 3.47789,0.18833 3.23543,-1.25312 6.48601,-2.02817 3.78855,-0.89819 7.57711,-1.26036 12.47192,-1.80362 4.89482,-0.54326 10.01694,-3.23783 12.12338,-5.79477 2.10644,-2.55694 10.95651,-1.08651 13.41149,-5.41086 2.10644,-3.69416 -5.34186,-6.86679 -9.31227,-6.57706 a 4.6750783,4.4692125 0 0 0 -2.7808,0.45634 c -2.33375,1.44869 -10.70646,2.11509 -13.57819,2.28893 -0.6289,-0.2173 -3.15965,-1.0503 -6.13745,-1.77464 2.57622,-4.03461 6.18292,-9.53239 9.44865,-13.96539 5.9253,-8.04748 9.44866,-10.93037 9.44866,-10.93037 a 21.094681,20.165782 0 0 1 4.54627,-4.96177 c 4.43261,10.7348 30.5888,28.70582 43.18954,30.78469 13.85854,2.28169 27.46703,13.08893 27.46703,13.08893 0,0 -1.2578,5.07041 -1.2578,7.24345 0,0.97062 2.51561,1.44869 5.67526,1.68773 2.12159,1.52112 12.41889,1.35452 16.36657,0.72434 4.40987,-0.72434 16.8818,2.28169 27.08817,2.89738 10.20637,0.6157 19.60957,-4.00563 13.44179,-4.24466 z"
     id="path119"
     inkscape:connector-curvature="0"
     style="fill:url(#8608c656-43fd-4907-84f3-eb091890c985);stroke-width:0.74084061" />
  <path
     d="m 279.03444,305.43183 -0.94714,11.50261 5.84195,12.11106 8.25905,6.95372 8.98646,5.07042 8.33482,5.54849 8.33482,-7.15654 c 0,0 -12.20672,-7.48973 -13.29782,-10.03219 -1.09111,-2.54245 -6.57694,-7.69255 -6.57694,-7.69255 l -7.74381,-7.15653 -6.289,-5.4833 z"
     id="path121"
     inkscape:connector-curvature="0"
     style="fill:#fd6f8d;stroke-width:0.74084061" />
  <path
     d="m 279.03444,305.43183 -0.94714,11.50261 5.84195,12.11106 8.25905,6.95372 8.98646,5.07042 8.33482,5.54849 8.33482,-7.15654 c 0,0 -12.20672,-7.48973 -13.29782,-10.03219 -1.09111,-2.54245 -6.57694,-7.69255 -6.57694,-7.69255 l -7.74381,-7.15653 -6.289,-5.4833 z"
     id="path123"
     inkscape:connector-curvature="0"
     style="opacity:0.1;stroke-width:0.74084061" />
  <path
     d="m 241.2095,260.77593 c -3.03085,5.67887 -5.59192,14.02333 -2.66715,23.43258 5.41005,17.38429 -34.24855,-6.93923 -34.24855,-6.93923 0,0 8.54699,-12.19798 11.04743,-22.72997 0.81075,-3.41167 0.98502,-6.65674 0,-9.24989 -3.93252,-10.58269 31.24043,7.75774 31.24043,7.75774 a 37.78706,36.123116 0 0 0 -5.37216,7.72877 z"
     id="path125"
     inkscape:connector-curvature="0"
     style="fill:#ffbec5;stroke-width:0.74084061" />
  <path
     d="m 236.17071,276.79845 c 0,0 14.91933,0.52877 16.95,4.58511 2.03067,4.05633 6.26628,10.40885 8.11509,11.29255 1.84881,0.8837 21.39776,16.22534 23.05715,16.92795 1.65939,0.70262 18.45027,17.45673 18.45027,19.22414 0,1.7674 17.34401,11.99516 28.41417,13.58148 11.07017,1.58631 28.03532,20.6366 33.02105,19.92675 4.98575,-0.70986 15.15423,2.82494 15.15423,2.82494 0,0 11.44145,-0.52877 14.20708,-2.29617 2.76565,-1.76741 13.09326,1.7674 10.69889,5.99758 -2.39437,4.23018 -11.07016,2.82495 -13.10082,5.29497 -2.03067,2.47001 -7.00884,5.11388 -11.80515,5.64265 -4.79631,0.52877 -8.48636,0.87646 -12.17642,1.76016 -3.69005,0.8837 -2.76565,2.64386 -8.33482,1.7674 -5.56917,-0.87646 -27.11848,-37.57181 -27.11848,-37.57181 l -23.98157,-10.4016 c 0,0 -9.0395,-7.05513 -9.78205,-9.3513 -0.74255,-2.29618 -18.07899,-17.9855 -18.07899,-17.9855 l -22.69345,-15.87766 z"
     id="path127"
     inkscape:connector-curvature="0"
     style="opacity:0.1;stroke-width:0.74084061" />
  <path
     d="m 237.27697,276.79845 c 0,0 14.91933,0.52877 16.95,4.58511 2.03067,4.05633 6.27385,10.40885 8.11508,11.29255 1.84125,0.8837 21.39777,16.22534 23.06474,16.92795 1.66697,0.70262 18.44269,17.45673 18.44269,19.22414 0,1.7674 17.34401,11.99516 28.41417,13.58148 11.07016,1.58631 28.03532,20.6366 33.02105,19.92675 4.98575,-0.70986 15.15423,2.82494 15.15423,2.82494 0,0 11.44144,-0.52877 14.20708,-2.29617 2.76565,-1.76741 13.10084,1.7674 10.69889,5.99758 -2.40195,4.23018 -11.07016,2.82495 -13.10083,5.29497 -2.03066,2.47001 -7.00883,5.11388 -11.80514,5.64265 -4.79631,0.52877 -8.51667,0.87646 -12.19915,1.76016 -3.68248,0.8837 -2.76565,2.64386 -8.33482,1.7674 -5.56918,-0.87646 -27.11849,-37.57181 -27.11849,-37.57181 l -23.98156,-10.4016 c 0,0 -9.0395,-7.05513 -9.78206,-9.3513 -0.74255,-2.29618 -18.02594,-17.9855 -18.02594,-17.9855 l -22.73134,-15.87766 z"
     id="path129"
     inkscape:connector-curvature="0"
     style="fill:#fd6f8d;stroke-width:0.74084061" />
  <path
     d="m 314.98026,355.57828 c 0,0 22.39036,-18.93439 23.48904,-20.33962 0.54556,-0.72435 7.63015,-5.83099 14.64657,-10.86519 a 199.45233,190.6695 0 0 0 24.43618,-20.60039 c 5.05393,-5.01247 10.46399,-10.0177 12.32797,-10.41609 3.78855,-0.82575 13.4039,-0.47082 15.37395,2.70181 1.97005,3.17263 10.45642,8.93843 10.45642,8.93843 l 7.25887,7.75049 c 0,0 17.10154,12.69778 28.1717,24.33802 11.07017,11.64023 24.1028,24.22211 28.79303,24.69294 4.69024,0.47082 11.80515,6.22937 11.80515,6.22937 0,0 10.08513,4.70825 13.63879,8.4676 3.55367,3.75936 9.47139,7.41006 15.4952,7.64185 6.0238,0.23179 -3.19754,4.70825 -13.16144,4.11428 -9.96391,-0.59396 -22.13275,-3.52756 -26.44412,-2.8177 -4.31139,0.70986 -16.35141,0.81851 -16.35141,-1.29658 0,-2.11509 1.22749,-7.05513 1.22749,-7.05513 0,0 -13.28268,-10.55371 -26.7851,-12.7847 -13.50241,-2.23098 -43.07588,-23.28047 -42.83341,-33.0374 0,0 -4.17499,-0.35493 -8.97888,6.7002 0,0 -3.44001,2.82494 -9.22134,10.69858 -5.78134,7.87364 -12.66894,19.15894 -12.66894,19.15894 0,0 -10.69888,20.68007 -19.30648,20.51347 -8.6076,-0.1666 -17.83652,-1.11549 -17.83652,-1.11549 l -11.44144,-7.75774 -0.75771,-9.4165 z"
     id="path131"
     inkscape:connector-curvature="0"
     style="fill:#ffbec5;stroke-width:0.74084061" />
  <path
     d="m 314.98026,355.57828 c 0,0 22.39036,-18.93439 23.48904,-20.33962 0.54556,-0.72435 7.63015,-5.83099 14.64657,-10.86519 a 199.45233,190.6695 0 0 0 24.43618,-20.60039 c 5.05393,-5.01247 10.46399,-10.0177 12.32797,-10.41609 3.78855,-0.82575 13.4039,-0.47082 15.37395,2.70181 1.97005,3.17263 10.45642,8.93843 10.45642,8.93843 l 7.25887,7.75049 c 0,0 17.10154,12.69778 28.1717,24.33802 11.07017,11.64023 24.1028,24.22211 28.79303,24.69294 4.69024,0.47082 11.80515,6.22937 11.80515,6.22937 0,0 10.08513,4.70825 13.63879,8.4676 3.55367,3.75936 9.47139,7.41006 15.4952,7.64185 6.0238,0.23179 -3.19754,4.70825 -13.16144,4.11428 -9.96391,-0.59396 -22.13275,-3.52756 -26.44412,-2.8177 -4.31139,0.70986 -16.35141,0.81851 -16.35141,-1.29658 0,-2.11509 1.22749,-7.05513 1.22749,-7.05513 0,0 -13.28268,-10.55371 -26.7851,-12.7847 -13.50241,-2.23098 -43.07588,-23.28047 -42.83341,-33.0374 0,0 -4.17499,-0.35493 -8.97888,6.7002 0,0 -3.44001,2.82494 -9.22134,10.69858 -5.78134,7.87364 -12.66894,19.15894 -12.66894,19.15894 0,0 -10.69888,20.68007 -19.30648,20.51347 -8.6076,-0.1666 -17.83652,-1.11549 -17.83652,-1.11549 l -11.44144,-7.75774 -0.75771,-9.4165 z"
     id="path133"
     inkscape:connector-curvature="0"
     style="opacity:0.05;stroke-width:0.74084061" />
  <path
     d="m 320.14785,356.63583 c 0,0 22.38279,-18.92716 23.48905,-20.33963 1.10626,-1.41247 28.89911,-20.93359 28.89911,-20.93359 0,0 18.69273,-20.10059 22.51159,-20.92634 3.81887,-0.82576 13.40392,-0.47083 15.37397,2.70181 1.97004,3.17263 10.44883,8.93842 10.44883,8.93842 l 7.25888,7.75774 c 0,0 17.09396,12.69778 28.16413,24.33802 11.07015,11.64023 24.11036,24.22211 28.79302,24.69294 4.68265,0.47082 11.80514,6.23661 11.80514,6.23661 0,0 10.08513,4.70101 13.6388,8.46036 3.55366,3.75935 9.47139,7.41006 15.4952,7.64185 6.02381,0.23179 -3.19754,4.70824 -13.16144,4.11428 -9.96391,-0.59396 -22.14033,-3.52032 -26.44413,-2.8177 -4.3038,0.70261 -16.34383,0.85472 -16.34383,-1.31831 0,-2.17304 1.23507,-7.05513 1.23507,-7.05513 0,0 -13.28268,-10.57545 -26.8154,-12.81367 -13.53273,-2.23823 -43.02285,-23.25874 -42.80311,-33.00843 0,0 -4.18256,-0.35493 -8.97888,6.70019 0,0 -3.44,2.82495 -9.22135,10.69859 -5.78133,7.87363 -12.66892,19.16618 -12.66892,19.16618 0,0 -10.69889,20.65834 -19.31406,20.50623 -8.61518,-0.15211 -17.82895,-1.11549 -17.82895,-1.11549 l -11.44144,-7.75775 -0.75771,-9.41649 z"
     id="path135"
     inkscape:connector-curvature="0"
     style="fill:#ffbec5;stroke-width:0.74084061" />
  <path
     d="m 392.19103,367.65312 c -0.60616,0.24628 -1.19718,0.54326 -1.78062,0.84024 l -3.78856,1.93401 a 37.362741,35.717483 0 0 0 9.98664,0.28249 c 1.84882,-0.18833 4.44776,-1.68772 2.34133,-3.46237 -1.67454,-1.39074 -5.05394,-0.30423 -6.75879,0.40563 z"
     id="path137"
     inkscape:connector-curvature="0"
     style="opacity:0.1;stroke-width:0.74084061" />
  <path
     d="m 374.87733,370.15936 c 2.0534,-0.39115 4.26592,-0.77505 6.18293,0 a 10.607958,10.140839 0 0 1 1.85638,1.09376 l 3.28847,2.2672 a 41.802928,39.962148 0 0 1 -8.69094,1.52113 3.3869692,3.2378249 0 0 1 -1.17446,-0.0435 3.5460886,3.3899375 0 0 1 -1.34115,-0.81127 c -2.56863,-2.04265 -4.30379,-3.23058 -0.12123,-4.02736 z"
     id="path139"
     inkscape:connector-curvature="0"
     style="opacity:0.1;stroke-width:0.74084061" />
  <path
     d="m 246.59682,253.04716 a 37.78706,36.123116 0 0 0 -5.38732,7.72877 27.118485,25.92433 0 0 1 -25.86827,-6.23662 c 0.81075,-3.41167 0.98502,-6.65674 0,-9.24989 -3.91736,-10.58269 31.25559,7.75774 31.25559,7.75774 z"
     id="path141"
     inkscape:connector-curvature="0"
     style="opacity:0.1;stroke-width:0.74084061" />
  <ellipse
     cx="234.0264"
     cy="235.12685"
     id="circle143"
     style="fill:#ffbec5;stroke-width:0.74084061"
     rx="27.057867"
     ry="25.866381" />
  <polygon
     points="299.36,410.95 260.88,383.53 258.97,386.61 282.16,411.78 293.06,419.4 "
     id="polygon145"
     style="fill:#504f88"
     transform="matrix(0.75771123,0,0,0.72434563,39.61284,-1.0098294)" />
  <path
     d="m 264.32726,296.36303 c 0,0 8.66064,-1.04306 12.66136,5.30221 a 30.77823,29.422919 0 0 1 4.36441,12.05311 c 0,0 3.99314,3.05674 3.62944,4.76619 a 4.9781628,4.7589508 0 0 1 -1.97005,2.70181 c 0,0 -7.75138,-4.23018 -7.812,-4.41126 -0.0606,-0.18109 -5.96319,-6.41046 -5.96319,-6.41046 l -4.90997,-4.9328 z"
     id="path147"
     inkscape:connector-curvature="0"
     style="fill:#504f88;stroke-width:0.74084061" />
  <path
     d="m 212.15885,271.1558 c 0,0 -13.52515,1.02857 -14.88146,10.05392 -1.3563,9.02534 -1.84124,14.1682 2.95508,20.39757 4.79631,6.22937 14.6314,8.82253 14.6314,8.82253 0,0 14.88145,11.16941 15.01026,17.9855 0.12881,6.81609 12.66893,22.10703 12.66893,22.10703 0,0 23.87549,16.92796 22.1479,22.33882 -1.72758,5.41086 -2.22767,20.81045 4.04618,22.22292 6.27385,1.41248 16.48022,0.23179 17.95776,1.9992 1.47754,1.7674 25.83037,-0.94165 25.83037,-0.94165 0,0 13.52515,-2.94085 22.50403,-0.35493 a 24.959008,23.859945 0 0 0 16.8515,-1.18793 c 0,0 10.45641,-0.94165 11.07016,-4.94004 0.61374,-3.99839 5.30397,-3.87525 0.86378,-4.58511 -4.44018,-0.70985 -7.25887,1.52837 -10.4564,0.47083 -3.19755,-1.05755 -5.90258,-4.58511 -13.28269,-4.46921 -7.3801,0.11589 -9.09253,0.23903 -9.85024,0.11589 -0.75772,-0.12314 4.67508,-4.11428 1.72,-10.57544 -2.95507,-6.46117 -8.60002,-11.50986 -8.34997,-15.13158 0.25004,-3.62173 -11.07017,-15.99356 -11.07017,-15.99356 0,0 -5.41005,-7.5187 -12.42646,-9.98872 -7.01641,-2.47002 -20.17028,-17.64506 -20.17028,-17.64506 0,0 -11.26716,-16.7686 -17.38189,-17.66679 -6.11473,-0.89819 -26.15619,-18.10864 -26.15619,-18.10864 0,0 -16.99546,-6.7002 -24.2316,-4.92555 z"
     id="path149"
     inkscape:connector-curvature="0"
     style="opacity:0.1;stroke-width:0.74084061" />
  <path
     d="m 211.79514,271.85841 c 0,0 -13.53272,1.0503 -14.90418,10.05392 -1.37146,9.00362 -1.84124,14.1682 2.95508,20.40482 4.7963,6.23661 14.63897,8.81528 14.63897,8.81528 0,0 14.88146,11.16941 15.00269,17.99275 0.12123,6.82333 12.66893,22.09978 12.66893,22.09978 0,0 23.89064,16.9352 22.17063,22.3678 -1.72001,5.43259 -2.2201,20.81045 4.04618,22.22292 6.26627,1.41247 16.4878,0.23903 17.95776,1.99919 1.46996,1.76016 25.83037,-0.94164 25.83037,-0.94164 0,0 13.53273,-2.9336 22.51161,-0.34769 a 24.905968,23.809241 0 0 0 16.83634,-1.20241 c 0,0 10.45641,-0.94165 11.07016,-4.9328 0.61375,-3.99114 5.30398,-3.88249 0.86379,-4.58511 -4.44019,-0.70261 -7.25888,1.52837 -10.45641,0.46359 -3.19755,-1.06479 -5.90258,-4.58511 -13.28269,-4.46197 -7.3801,0.12313 -9.09253,0.23179 -9.85024,0.11589 -0.75771,-0.11589 4.6675,-4.11428 1.72,-10.58269 -2.9475,-6.4684 -8.60759,-11.52434 -8.33482,-15.1678 0.27278,-3.64345 -11.07016,-15.99355 -11.07016,-15.99355 0,0 -5.41006,-7.5187 -12.41889,-9.98872 -7.00883,-2.47002 -20.17028,-17.63782 -20.17028,-17.63782 0,0 -11.27473,-16.7686 -17.38189,-17.67403 -6.10715,-0.90543 -26.16377,-18.07243 -26.16377,-18.07243 0,0 -17.01061,-6.72192 -24.23918,-4.94728 z"
     id="path151"
     inkscape:connector-curvature="0"
     style="fill:#fd6f8d;stroke-width:0.74084061" />
  <path
     d="m 299.4699,373.59276 c -0.83348,1.77464 -1.01533,4.08531 0.41675,5.46156 a 8.3348236,7.9678019 0 0 0 3.09146,1.52113 c 2.31102,0.86197 4.54627,2.37585 5.30398,4.63581 a 5.5085606,5.2659927 0 0 0 0.75771,1.76016 3.5915513,3.4333983 0 0 0 1.39419,0.89095 48.986032,46.828945 0 0 0 20.9886,4.14325 16.42718,15.703813 0 0 0 -8.7061,-4.17223 c -2.60653,-0.40563 -5.3646,-0.2173 -7.77412,-1.25312 -2.40952,-1.03581 -4.01587,-3.01327 -5.59191,-4.95452 a 7.2588737,6.9392311 0 0 1 -1.34115,-2.17304 c -0.56828,-1.74567 0.34097,-3.67967 -0.18185,-5.43259 -0.30308,-1.00684 -2.83383,-4.60684 -3.90979,-4.83138 -1.64423,-0.31147 -3.89464,3.22333 -4.44777,4.40402 z"
     id="path153"
     inkscape:connector-curvature="0"
     style="opacity:0.1;stroke-width:0.74084061" />
  <path
     d="m 394.9491,329.95093 c 1.51542,-0.47082 9.22134,-1.84708 6.89517,-4.64305 -2.12158,-2.56419 -5.25094,4.09979 -6.89517,4.64305 z"
     id="path155"
     inkscape:connector-curvature="0"
     style="opacity:0.1;stroke-width:0.74084061" />
  <path
     d="m 367.26991,257.94373 13.08568,-6.09174 -4.54628,62.78628 -13.78276,-2.61489 3.57639,-51.74001 a 2.9778051,2.8466783 0 0 1 1.66697,-2.33964 z"
     id="path157"
     inkscape:connector-curvature="0"
     style="fill:#cbe3ff;stroke-width:0.74084061" />
  <path
     d="m 380.35559,251.85199 v 0 l -4.54628,62.78628 v 0 a 1.9927806,1.905029 0 0 0 1.98521,-1.76016 l 4.73569,-57.98387 a 3.0838847,2.9480867 0 0 0 -2.17462,-3.04225 z"
     id="path159"
     inkscape:connector-curvature="0"
     style="fill:#c8bfca;stroke-width:0.74084061" />
  <path
     d="m 362.07201,311.66845 -41.52258,29.17664 a 3.030845,2.8973825 0 0 0 -0.48493,4.29537 l 4.06133,4.41851 52.5397,-37.53559 -12.79017,-0.87646 a 2.697452,2.5786704 0 0 0 -1.80335,0.52153 z"
     id="path161"
     inkscape:connector-curvature="0"
     style="fill:#f1f1f2;stroke-width:0.74084061" />
  <polygon
     points="387.25,461.6 392.39,467.17 435.45,436.53 424.16,435.76 "
     id="polygon163"
     style="fill:#7e7a98"
     transform="matrix(0.75771123,0,0,0.72434563,39.61284,-1.0098294)" />
  <path
     d="m 324.14099,349.55897 v 0 l 52.52454,-37.53559 v 0 a 4.1522576,3.969414 0 0 1 -1.2578,4.89657 l -46.13704,33.08087 a 3.8264417,3.6579454 0 0 1 -5.1297,-0.44185 z"
     id="path165"
     inkscape:connector-curvature="0"
     style="fill:#c8bfca;stroke-width:0.74084061" />
  <path
     d="m 315.09392,339.46883 c 0,0 18.33661,-35.41325 29.1643,-21.86799 10.82769,13.54526 -16.60903,28.24948 -16.60903,28.24948 z"
     id="path167"
     inkscape:connector-curvature="0"
     style="fill:#ffbec5;stroke-width:0.74084061" />
  <path
     d="m 217.34916,281.27491 a 21.920586,20.955319 0 0 0 -15.4573,14.20441 c -1.18961,3.88974 -1.10626,8.15614 2.92476,11.01006 9.22892,6.51911 22.26156,11.11146 28.29293,21.81004 a 79.014128,75.534762 0 0 1 7.72867,22.28088 l 15.624,22.04183 c 0,0 2.37164,7.05513 18.18507,1.53562 15.81343,-5.51952 24.45891,-8.35171 24.45891,-8.35171 0,0 12.25977,-6.28732 17.73802,-8.58349 a 9.9335944,9.4961711 0 0 1 2.43983,-0.82576 c 1.84124,0 15.02542,-10.7855 15.63159,-12.27041 0.60617,-1.48491 -13.32814,-7.65634 -18.89731,-6.3163 0,0 -0.7956,3.18712 -11.25202,2.7163 -10.45641,-0.47083 -14.39652,3.7666 -14.39652,3.7666 0,0 -5.16758,-1.76741 -8.48636,-1.59356 -3.31877,0.17384 -9.34258,-2.89739 -13.8358,-2.52797 0,0 2.27312,-4.34607 -0.67437,-7.9678 -2.9475,-3.62173 -5.66011,-3.29577 -6.8876,-7.5839 -0.70466,-2.44829 -3.03084,-10.235 -4.91754,-16.49335 a 47.485763,45.39474 0 0 0 -14.12374,-21.57826 c -4.40988,-3.71589 -9.65323,-6.73641 -14.91176,-6.55532 a 41.310417,39.491323 0 0 0 -9.18346,1.28209 z"
     id="path169"
     inkscape:connector-curvature="0"
     style="opacity:0.1;stroke-width:0.74084061" />
  <path
     d="m 217.67498,279.5075 a 21.973626,21.006023 0 0 0 -15.48004,14.21166 c -1.18203,3.88974 -1.10626,8.14889 2.93234,11.00281 9.22134,6.51912 22.26156,11.11147 28.28536,21.81005 a 78.968665,75.491301 0 0 1 7.75139,22.28087 l 15.62401,22.04908 c 0,0 2.36406,7.05513 18.18506,1.52837 15.82101,-5.52675 24.45892,-8.34446 24.45892,-8.34446 0,0 12.25977,-6.29456 17.73044,-8.58349 a 9.6987037,9.271624 0 0 1 2.43983,-0.82576 c 1.84882,0 15.033,-10.7855 15.63159,-12.27041 0.59859,-1.48491 -13.32056,-7.65634 -18.88974,-6.3163 0,0 -0.7956,3.18712 -11.25201,2.7163 -10.45642,-0.47083 -14.39652,3.75935 -14.39652,3.75935 0,0 -5.16759,-1.76016 -8.48637,-1.58631 -3.31877,0.17384 -9.35015,-2.89739 -13.8358,-2.52797 0,0 2.27313,-4.34607 -0.68194,-7.9678 -2.95508,-3.62173 -5.65253,-3.28853 -6.8876,-7.5839 -0.69709,-2.44105 -3.03084,-10.22776 -4.90996,-16.49335 A 47.523648,45.430958 0 0 0 241.7702,284.78798 c -4.41746,-3.71589 -9.65324,-6.73641 -14.91176,-6.51911 a 41.045217,39.237803 0 0 0 -9.18346,1.23863 z"
     id="path171"
     inkscape:connector-curvature="0"
     style="opacity:0.1;stroke-width:0.74084061" />
  <path
     d="m 217.34916,280.21736 a 21.920586,20.955319 0 0 0 -15.4573,14.20442 c -1.18961,3.88974 -1.10626,8.15613 2.92476,11.01005 9.22892,6.51911 22.26156,11.11147 28.29293,21.81005 a 79.014128,75.534762 0 0 1 7.72867,22.28087 l 15.624,22.04184 c 0,0 2.37164,7.05513 18.18507,1.52837 15.81343,-5.52676 24.45891,-8.34446 24.45891,-8.34446 0,0 12.25977,-6.29457 17.73802,-8.5835 a 9.6002017,9.1774591 0 0 1 2.43983,-0.82575 c 1.84124,0 15.02542,-10.78551 15.63159,-12.27042 0.60617,-1.48491 -13.32814,-7.65633 -18.89731,-6.31629 0,0 -0.7956,3.18712 -11.25202,2.71629 -10.45641,-0.47082 -14.39652,3.75936 -14.39652,3.75936 0,0 -5.16758,-1.76016 -8.48636,-1.58632 -3.31877,0.17384 -9.34258,-2.89738 -13.8358,-2.52797 0,0 2.27312,-4.34607 -0.67437,-7.9678 -2.9475,-3.62173 -5.66011,-3.28853 -6.8876,-7.57665 -0.70466,-2.44829 -3.03084,-10.23501 -4.91754,-16.5006 a 47.463031,45.37301 0 0 0 -14.12374,-21.57101 c -4.40988,-3.72313 -9.65323,-6.73641 -14.91176,-6.51911 a 41.310417,39.491323 0 0 0 -9.18346,1.23863 z"
     id="path173"
     inkscape:connector-curvature="0"
     style="fill:#fd6f8d;stroke-width:0.74084061" />
  <path
     d="m 265.84268,225.65965 c 2.68988,-0.89819 5.13728,-2.9843 5.55402,-5.67887 a 8.7439877,8.3589485 0 0 0 -1.26538,-5.15734 c -3.36423,-5.79476 -10.14574,-8.88048 -16.66964,-11.03903 -6.52389,-2.15855 -13.35844,-3.77384 -20.24605,-3.40442 -6.88759,0.36942 -13.86611,2.89738 -18.32145,7.9678 a 15.017837,14.35653 0 0 1 -2.75807,2.78149 c -1.58361,1.03581 -3.6067,1.20241 -5.52372,1.13722 -6.3193,-0.22455 -12.91897,-2.61489 -18.74577,-0.26801 -7.00125,2.81046 -9.45624,11.0173 -10.36549,18.23178 -0.93957,7.4173 -1.16688,14.97222 -3.22027,22.18671 -2.0534,7.21448 -6.26628,14.26236 -13.13114,17.84063 -2.00794,1.04306 -4.19772,1.77465 -6.06168,3.00603 -1.86398,1.23139 -3.49306,3.15091 -3.50063,5.33843 0,2.97706 2.78838,5.16459 4.24318,7.79396 1.0608,1.91952 1.46996,4.21569 3.06873,5.7513 3.17481,3.07123 8.8046,1.3328 12.88109,3.20161 3.62187,1.666 5.18274,5.74406 8.03174,8.46036 3.34909,3.19436 8.28936,4.30986 13.00233,4.62132 2.58379,0.1666 5.25851,0.12314 7.63773,-0.84024 4.74326,-1.91951 7.25887,-7.09858 7.53922,-12.00965 0.28035,-4.91106 -1.19719,-9.7352 -2.27314,-14.5521 -0.35612,-1.58632 -0.65921,-3.28129 0,-4.79517 a 7.5771123,7.2434563 0 0 1 2.53834,-2.89738 c 5.59948,-4.23018 13.57819,-6.16418 16.79088,-12.25593 2.15948,-4.09255 1.51542,-8.95291 2.03067,-13.50905 0.197,-1.65875 0.6289,-3.41891 1.91701,-4.55613 1.57604,-1.3835 3.93251,-1.44869 6.06168,-1.62978 a 30.535762,29.191129 0 0 0 17.04851,-7.07685 c 2.31859,-1.934 3.72036,-4.34608 5.73588,-6.45392 2.01551,-2.10785 5.28124,-1.30382 8.00142,-2.19477 z"
     id="path175"
     inkscape:connector-curvature="0"
     style="opacity:0.1;stroke-width:0.74084061" />
  <path
     d="m 265.08497,224.95704 c 2.68988,-0.90544 5.13728,-2.99155 5.55402,-5.68612 a 8.7439877,8.3589485 0 0 0 -1.27294,-5.15009 c -3.35667,-5.79477 -10.14576,-8.88048 -16.66966,-11.04628 -6.52389,-2.16579 -13.36602,-3.76659 -20.24604,-3.39718 -6.88002,0.36942 -13.86612,2.89739 -18.32904,7.96781 a 14.979951,14.320313 0 0 1 -2.75048,2.78148 c -1.58362,1.03582 -3.60671,1.20966 -5.52373,1.13723 -6.3193,-0.21731 -12.91897,-2.60765 -18.75335,-0.26801 -7.00125,2.8177 -9.45623,11.02454 -10.36549,18.23178 -0.93198,7.42454 -1.15929,14.97222 -3.21269,22.1867 -2.0534,7.21448 -6.27385,14.26961 -13.13871,17.84063 -2.00794,1.05031 -4.19772,1.77465 -6.06169,3.01328 -1.86397,1.23863 -3.49305,3.15091 -3.49305,5.33119 0,2.97706 2.78838,5.17182 4.24318,7.8012 1.05322,1.91227 1.46997,4.21569 3.03084,5.7513 3.18239,3.06398 8.81218,1.32556 12.8811,3.20161 3.62944,1.666 5.19032,5.74406 8.03931,8.46036 3.34151,3.18712 8.28178,4.30985 13.00233,4.61408 2.57622,0.17384 5.25851,0.12314 7.63773,-0.84024 4.74327,-1.91952 7.25887,-7.09135 7.53922,-12.00241 0.28036,-4.91106 -1.20476,-9.74245 -2.27313,-14.5521 -0.34855,-1.58632 -0.65163,-3.28129 -0.0379,-4.79517 a 7.6528834,7.3158908 0 0 1 2.54591,-2.89738 c 5.59192,-4.22294 13.57062,-6.15694 16.7833,-12.24869 2.15948,-4.09255 1.51543,-8.95291 2.03825,-13.50904 0.19701,-1.666 0.6289,-3.42616 1.90943,-4.55614 1.58362,-1.39074 3.94011,-1.44869 6.06169,-1.62978 a 30.619111,29.270807 0 0 0 17.05609,-7.08409 c 2.31859,-1.92676 3.71278,-4.34608 5.73587,-6.45392 2.02309,-2.10785 5.37217,-1.28934 8.06962,-2.20201 z"
     id="path177"
     inkscape:connector-curvature="0"
     style="fill:#ffe2da;stroke-width:0.74084061" />
  <g
     id="g183"
     style="opacity:0.1"
     transform="matrix(0.75771123,0,0,0.72434563,39.61284,-1.0098294)">
    <path
       d="m 229.39,442.06 c -5,-2.4 -11.8,-0.48 -16.1,-3.64 a 9.25,9.25 0 0 0 1.53,2.15 c 4.2,4.23 11.63,1.83 17,4.42 a 11.5,11.5 0 0 1 3.26,2.38 15.88,15.88 0 0 0 -5.69,-5.31 z"
       transform="translate(-58.43,-36.84)"
       id="path179"
       inkscape:connector-curvature="0" />
    <path
       d="m 361.68,333.84 a 23,23 0 0 0 -3.68,-4.94 21,21 0 0 1 1.29,2 11.51,11.51 0 0 1 1.67,7.11 c -0.55,3.72 -3.78,6.6 -7.33,7.85 -3.55,1.25 -8,0.07 -10.65,3 -2.65,2.93 -4.52,6.25 -7.58,8.91 a 40.39,40.39 0 0 1 -22.5,9.78 c -2.82,0.26 -5.93,0.33 -8,2.25 -1.7,1.56 -2.27,4 -2.52,6.29 -0.72,6.28 0.16,13 -2.69,18.65 -4.24,8.4 -14.77,11.07 -22.16,16.91 a 10.09,10.09 0 0 0 -3.35,4 c -0.82,2.08 -0.42,4.43 0.05,6.62 1.42,6.64 3.38,13.3 3,20.09 -0.38,6.79 -3.7,13.92 -9.95,16.57 -3.15,1.33 -6.68,1.39 -10.09,1.16 -6.22,-0.42 -12.74,-2 -17.16,-6.37 l -0.06,-0.07 a 24,24 0 0 0 2.5,3 c 4.41,4.4 10.93,5.95 17.16,6.37 3.4,0.24 6.94,0.17 10.08,-1.16 6.26,-2.65 9.58,-9.79 9.95,-16.57 0.37,-6.78 -1.59,-13.45 -3,-20.09 -0.46,-2.19 -0.86,-4.53 -0.05,-6.62 a 10.1,10.1 0 0 1 3.36,-4 c 7.38,-5.83 17.91,-8.5 22.15,-16.91 2.85,-5.65 2,-12.36 2.69,-18.65 0.26,-2.3 0.83,-4.73 2.53,-6.29 2.08,-1.92 5.19,-2 8,-2.25 a 40.41,40.41 0 0 0 22.51,-9.78 c 3.06,-2.66 4.9,-6 7.57,-8.91 2.67,-2.91 7.07,-1.73 10.66,-3 3.59,-1.27 6.78,-4.13 7.33,-7.85 a 11.54,11.54 0 0 0 -1.73,-7.1 z"
       transform="translate(-58.43,-36.84)"
       id="path181"
       inkscape:connector-curvature="0" />
  </g>
  <ellipse
     cx="803.80243"
     cy="560.3725"
     rx="56.525257"
     ry="8.2937574"
     id="ellipse185"
     style="opacity:0.1;fill:#ff7a5c;stroke-width:0.74084061" />
  <ellipse
     cx="120.4682"
     cy="592.92462"
     rx="31.369246"
     ry="4.5995946"
     id="ellipse187"
     style="opacity:0.1;fill:#ff7a5c;stroke-width:0.74084061" />
  <path
     d="m 110.41338,403.21849 c 0,0 5.40248,6.75815 -2.49287,16.95693 -7.89535,10.19879 -14.396515,18.83299 -11.789989,25.17826 0,0 11.926379,-18.94888 21.625079,-19.20965 9.69871,-0.26076 3.36423,-11.53158 -7.34222,-22.92554 z"
     id="path189"
     inkscape:connector-curvature="0"
     style="fill:#ff7a5c;stroke-width:0.74084061" />
  <path
     d="m 110.41338,403.21849 a 8.7061021,8.3227312 0 0 1 1.10626,2.11509 c 9.46381,10.6334 14.51017,20.55693 5.41006,20.81045 -8.47879,0.23179 -18.647279,14.7187 -21.087109,18.37665 0.08335,0.2825 0.181851,0.56499 0.28793,0.833 0,0 11.926379,-18.94888 21.625079,-19.20965 9.69871,-0.26076 3.36423,-11.53158 -7.34222,-22.92554 z"
     id="path191"
     inkscape:connector-curvature="0"
     style="opacity:0.1;stroke-width:0.74084061" />
  <path
     d="m 120.46063,411.83096 c 0,2.37586 -0.28036,4.30262 -0.62133,4.30262 -0.34096,0 -0.62131,-1.92676 -0.62131,-4.30262 0,-2.37585 0.34855,-1.26036 0.68951,-1.26036 0.34097,0 0.55313,-1.12273 0.55313,1.26036 z"
     id="path193"
     inkscape:connector-curvature="0"
     style="fill:#ffd037;stroke-width:0.74084061" />
  <path
     d="m 123.90822,414.6704 c -2.18222,1.13722 -4.08407,1.82535 -4.25076,1.53561 -0.1667,-0.28974 1.46995,-1.44869 3.65974,-2.58591 2.18979,-1.13723 1.31842,-0.30423 1.51542,0 0.19701,0.30422 1.26538,-0.0869 -0.9244,1.0503 z"
     id="path195"
     inkscape:connector-curvature="0"
     style="fill:#ffd037;stroke-width:0.74084061" />
  <path
     d="m 81.855241,403.21849 c 0,0 -5.402481,6.75815 2.492871,16.95693 7.89535,10.19879 14.396513,18.83299 11.782409,25.17826 0,0 -11.918797,-18.94888 -21.625078,-19.20965 -9.706282,-0.26076 -3.326352,-11.53158 7.349798,-22.92554 z"
     id="path197"
     inkscape:connector-curvature="0"
     style="fill:#ff7a5c;stroke-width:0.74084061" />
  <path
     d="m 81.855241,403.21849 a 8.7061021,8.3227312 0 0 0 -1.106258,2.11509 c -9.463813,10.6334 -14.51017,20.55693 -5.410058,20.81045 8.478789,0.23179 18.647273,14.7187 21.079527,18.37665 a 6.9027493,6.5987886 0 0 1 -0.287931,0.833 c 0,0 -11.918797,-18.94888 -21.625078,-19.20965 -9.706282,-0.26076 -3.326352,-11.53158 7.349798,-22.92554 z"
     id="path199"
     inkscape:connector-curvature="0"
     style="opacity:0.1;stroke-width:0.74084061" />
  <path
     d="m 71.807991,411.83096 c 0,2.37586 0.280353,4.30262 0.621323,4.30262 0.34097,0 0.621323,-1.92676 0.621323,-4.30262 0,-2.37585 -0.348547,-1.26036 -0.689518,-1.26036 -0.340969,0 -0.553128,-1.12273 -0.553128,1.26036 z"
     id="path201"
     inkscape:connector-curvature="0"
     style="fill:#ffd037;stroke-width:0.74084061" />
  <path
     d="m 68.360405,414.6704 c 2.182208,1.13722 4.084063,1.82535 4.250759,1.53561 0.166697,-0.28974 -1.469959,-1.44869 -3.659745,-2.58591 -2.189786,-1.13723 -1.318418,-0.30423 -1.515422,0 -0.197005,0.30422 -1.265378,-0.0869 0.924408,1.0503 z"
     id="path203"
     inkscape:connector-curvature="0"
     style="fill:#ffd037;stroke-width:0.74084061" />
  <ellipse
     cx="96.1381"
     cy="488.7637"
     rx="56.525257"
     ry="8.2937574"
     id="ellipse205"
     style="opacity:0.1;fill:#ff7a5c;stroke-width:0.74084061" />
  <path
     d="m 125.22663,436.24865 -0.27277,2.10785 -0.37886,2.9843 -0.15912,1.23863 -0.37885,2.98431 -0.15912,1.24587 -0.37886,2.97706 -4.32653,33.90662 c -0.38643,3.02777 -5.5616,5.38189 -11.79756,5.38189 H 84.893664 c -6.243541,0 -11.365669,-2.35412 -11.789987,-5.38189 l -4.334109,-33.89937 -0.378855,-2.97706 -0.159119,-1.24588 -0.386433,-2.9843 -0.151543,-1.23863 -0.378855,-2.98431 -0.272776,-2.10784 c -0.219737,-1.70946 2.576218,-3.15815 6.11473,-3.15815 h 45.962773 c 3.51577,-0.007 6.32688,1.44145 6.10714,3.1509 z"
     id="path207"
     inkscape:connector-curvature="0"
     style="fill:#65617d;stroke-width:0.74084061" />
  <polygon
     points="112.14,610.68 37.06,610.68 36.56,606.57 112.64,606.57 "
     id="polygon209"
     style="fill:#9d9cb5"
     transform="matrix(0.75771123,0,0,0.72434563,39.61284,-1.0098294)" />
  <polygon
     points="111.43,616.52 37.78,616.52 37.27,612.4 111.93,612.4 "
     id="polygon211"
     style="fill:#9d9cb5"
     transform="matrix(0.75771123,0,0,0.72434563,39.61284,-1.0098294)" />
  <polygon
     points="110.71,622.35 38.48,622.35 37.98,618.23 111.21,618.23 "
     id="polygon213"
     style="fill:#9d9cb5"
     transform="matrix(0.75771123,0,0,0.72434563,39.61284,-1.0098294)" />
</svg>
