<?xml version="1.0" encoding="UTF-8" standalone="no"?>
<svg
   xmlns:dc="http://purl.org/dc/elements/1.1/"
   xmlns:cc="http://creativecommons.org/ns#"
   xmlns:rdf="http://www.w3.org/1999/02/22-rdf-syntax-ns#"
   xmlns:svg="http://www.w3.org/2000/svg"
   xmlns="http://www.w3.org/2000/svg"
   xmlns:sodipodi="http://sodipodi.sourceforge.net/DTD/sodipodi-0.dtd"
   xmlns:inkscape="http://www.inkscape.org/namespaces/inkscape"
   id="b5c524f0-66c4-4225-a3aa-c25cef687e0c"
   data-name="Layer 1"
   width="900"
   height="600"
   viewBox="0 0 900.00003 600.00002"
   version="1.1"
   sodipodi:docname="orcamentos.svg"
   inkscape:version="0.92.3 (2405546, 2018-03-11)">
  <metadata
     id="metadata57">
    <rdf:RDF>
      <cc:Work
         rdf:about="">
        <dc:format>image/svg+xml</dc:format>
        <dc:type
           rdf:resource="http://purl.org/dc/dcmitype/StillImage" />
        <dc:title></dc:title>
      </cc:Work>
    </rdf:RDF>
  </metadata>
  <defs
     id="defs55" />
  <sodipodi:namedview
     pagecolor="#ffffff"
     bordercolor="#666666"
     borderopacity="1"
     objecttolerance="10"
     gridtolerance="10"
     guidetolerance="10"
     inkscape:pageopacity="0"
     inkscape:pageshadow="2"
     inkscape:window-width="1920"
     inkscape:window-height="1015"
     id="namedview53"
     showgrid="false"
     inkscape:zoom="0.39519393"
     inkscape:cx="370.33768"
     inkscape:cy="298.58759"
     inkscape:window-x="0"
     inkscape:window-y="28"
     inkscape:window-maximized="1"
     inkscape:current-layer="b5c524f0-66c4-4225-a3aa-c25cef687e0c" />
  <path
     d="m 550.07778,533.66225 c -5.90895,-7.17175 -13.90792,-12.41919 -23.96426,-14.38311 -8.76905,-1.71259 -17.78599,-1.42072 -26.69986,-1.36115 l -112.71125,0.7533 c -9.65296,0.0645 -18.90819,7.31311 -18.45978,16 0.44504,8.61358 8.11278,16.06915 18.45978,16 q 49.52503,-0.331 99.04951,-0.662 c 7.78377,-0.052 15.57205,-0.17371 23.35641,-0.15155 1.74805,0.005 3.4888,0.0848 5.23517,0.102 0.42308,0.004 0.72841,9.1e-4 0.94418,-0.007 0.0541,0.0143 0.0996,0.0273 0.17013,0.0441 0.91094,0.21679 1.84552,0.36621 2.76204,0.57214 -0.32112,0.008 0.59432,0.5033 1.05402,0.671 0.0632,0.108 0.19774,0.29938 0.42251,0.59515 0.31381,0.51 1.24275,2.05866 1.28106,2.00989 a 82.794227,71.76183 0 0 1 3.446,9.39289 c 2.14523,7.04718 2.61675,8.52026 2.92547,15.13195 0.39038,8.352 8.21135,16.39783 18.45978,16 9.66704,-0.3753 18.87834,-7.04236 18.45978,-16 -0.70526,-15.09417 -3.762,-32.04962 -14.19069,-44.70758 z"
     id="path2"
     inkscape:connector-curvature="0"
     style="fill:#e6e6e6;stroke-width:1.07412124" />
  <path
     d="m 393.32795,569.76777 c -2.1171,-11.11963 -4.19357,-22.24637 -6.35174,-33.35952 -2.18979,-11.27417 -6.66216,-21.59812 -16.7844,-28.9975 -2.70462,-1.97688 -5.50896,-3.82268 -8.32515,-5.66276 -0.99035,-0.6468 -1.97903,-1.29456 -2.95756,-1.95566 -0.0586,-0.0395 -0.0958,-0.0643 -0.14653,-0.0986 -0.10765,-0.0802 -0.23659,-0.17551 -0.41011,-0.30272 -4.21892,-3.0948 -8.29537,-6.32723 -12.17846,-9.76318 q -5.17237,-4.57729 -9.89295,-9.545 -1.17964,-1.24071 -2.32887,-2.50366 c -0.13184,-0.14481 -0.84164,-0.93992 -1.30923,-1.45875 -0.43496,-0.51927 -1.22979,-1.457 -1.36331,-1.62073 q -1.34271,-1.64569 -2.63758,-3.322 A 180.12844,156.12618 0 0 1 313.42773,447.0622 q -0.63123,-1.25119 -1.2326,-2.51707 c -0.10764,-0.25754 -0.24675,-0.58834 -0.43149,-1.02876 -0.85517,-2.03833 -1.70869,-4.07418 -2.49058,-6.13665 q -2.49196,-6.57108 -4.28481,-13.3362 -0.88644,-3.34049 -1.59596,-6.7149 -0.36591,-1.73529 -0.68447,-3.47777 c -0.0349,-0.19285 -0.24229,-1.44617 -0.36449,-2.15436 -0.0901,-0.71162 -0.25803,-1.97155 -0.28055,-2.16618 q -0.2028,-1.75646 -0.35996,-3.51634 -0.35407,-3.96012 -0.47881,-7.93346 -0.21294,-7.06137 0.29181,-14.12171 c 0.19152,-2.64466 0.46421,-5.28245 0.79996,-7.91529 0.0203,-0.16178 0.036,-0.29046 0.0506,-0.40642 0.0203,-0.11756 0.044,-0.25112 0.0721,-0.41735 0.24842,-1.455 0.50983,-2.908 0.8022,-4.35644 a 183.78318,159.29393 0 0 1 4.31411,-16.31344 q 1.25488,-3.80858 2.72604,-7.55538 0.65575,-1.66325 1.35317,-3.31377 c -0.0306,0.071 1.36386,-3.01574 1.38245,-3.11945 5.53209,-11.32906 14.58057,-21.657 14.59296,-34.52643 0.007,-8.71332 -8.49641,-17.06006 -18.45979,-16.65739 a 19.181338,16.62541 0 0 0 -18.45977,16.65739 c 0,0.19565 -9.6e-4,0.36258 -9.6e-4,0.52461 -0.093,0.27127 -0.17068,0.49761 -0.24055,0.69777 -1.0788,2.032 -2.40042,3.96285 -3.58456,5.94438 -3.24265,5.42345 -6.01037,11.02482 -8.63951,16.70842 a 184.39612,159.82519 0 0 0 -9.84057,28.62825 210.09307,182.098 0 0 0 -1.11655,65.04019 c 7.15733,37.8128 30.76049,74.009 63.57433,98.33928 2.84773,2.11134 5.76474,4.15171 8.70937,6.15089 1.2185,0.82714 2.44718,1.63909 3.68204,2.44577 0.58363,0.38139 3.00152,2.034 1.93791,1.23331 2.28721,1.69183 3.24995,2.5433 3.83753,3.78944 0.0851,0.2876 0.20111,0.67762 0.35828,1.21088 0.41407,1.40538 0.80729,2.80751 1.13404,4.23259 2.85618,12.45143 4.8414,25.11159 7.22718,37.64359 1.6399,8.61064 13.87022,14.21487 22.70797,11.6342 10.28667,-3.00405 14.64985,-11.26437 12.89276,-20.49062 z"
     id="path4"
     inkscape:connector-curvature="0"
     style="fill:#e6e6e6;stroke-width:1.07412124" />
  <path
     d="m 551.94497,602.06295 a 29.275216,25.37427 0 0 1 -29.35099,-25.25 v -18.25147 c -22.04661,2.13916 -97.54056,1.64356 -119.18073,-1.37011 v 18.8916 a 29.352089,25.4409 0 0 1 -58.70252,0 v -37.0918 A 188.41345,163.30721 0 0 1 247.79687,396.60299 c 0,-49.83008 26.05483,-96.31446 71.48405,-127.5337 a 189.299,164.07476 0 0 1 103.05461,-35.17333 c 5.10759,-0.34717 10.24618,-0.52295 15.27407,-0.52295 17.71248,0 97.6276,2.37158 117.67857,7.37158 l 45.72016,-39.32176 a 4.7995429,4.16 0 0 1 5.24949,-0.90674 4.7308263,4.10044 0 0 1 2.9818,3.84668 v 6.252 l 8.9026,-7.64209 a 4.7885823,4.1505 0 0 1 5.24532,-0.90821 4.7328456,4.10219 0 0 1 2.98517,3.84815 v 69.86474 a 187.78113,162.75915 0 0 1 -45.07683,267.86621 v 33.16944 a 29.275216,25.37427 0 0 1 -29.35091,25.24994 z m -27.04358,-45.76953 v 20.51953 a 27.04441,23.44072 0 0 0 54.08702,0 v -34.43262 l 0.65878,-0.271 a 187.43171,162.45628 0 0 0 76.75895,-58.18164 184.97308,160.32526 0 0 0 -31.9576,-206.96 l -0.38337,-0.29834 v -70.75679 a 2.4264689,2.10314 0 0 0 -1.54805,-1.99561 2.47961,2.1492 0 0 0 -2.74745,0.47315 l -12.83763,11.0205 v -11.04785 a 2.4264689,2.10314 0 0 0 -1.54809,-1.9956 2.4855518,2.15435 0 0 0 -2.75195,0.47656 l -46.69899,40.16357 -0.66364,-0.18017 c -18.63975,-5.05664 -99.81281,-7.4541 -117.65996,-7.4541 -4.9679,0 -10.0459,0.17382 -15.09266,0.51709 a 186.99167,162.07488 0 0 0 -101.80201,34.74609 c -44.87403,30.83789 -70.61058,76.751 -70.61058,125.9668 A 186.11455,161.31464 0 0 0 346.423,537.52783 l 0.59519,0.28565 v 38.26953 a 27.044732,23.441 0 0 0 54.08757,0 v -21.28569 l 1.36698,0.22266 c 19.44703,3.17139 101.33472,3.67139 121.12483,1.42139 z"
     id="path6"
     inkscape:connector-curvature="0"
     style="fill:#3f3d56;stroke-width:1.07412124" />
  <path
     d="m 395.53312,124.47283 -127.76503,33.28 a 16.016513,13.8823 0 0 0 9.21864,26.59 l 111.80818,-29.13 2.34242,-0.61005 a 77.89642,67.51666 0 0 1 9.56446,-29.86 7.1126573,6.16489 0 0 0 -2.30747,-0.52 7.3458389,6.367 0 0 0 -2.8612,0.25005 z"
     id="path8"
     inkscape:connector-curvature="0"
     style="fill:#ff7a5c;stroke-width:1.07412124" />
  <path
     d="m 274.77713,191.43807 a 8.0910026,7.01287 0 0 1 -7.65828,-4.80127 l -7.98941,-20.896 a 8.0755425,6.99947 0 0 1 5.12634,-8.84668 L 368.24344,127.024 a 8.0757617,6.99966 0 0 1 10.20672,4.44189 l 7.98941,20.896 a 8.0480606,6.97565 0 0 1 -4.83775,8.75928 q -0.14406,0.0469 -0.29096,0.0884 l -103.98527,29.86914 a 8.0796152,7.003 0 0 1 -2.54846,0.35938 z"
     id="path10"
     inkscape:connector-curvature="0"
     style="fill:#2f2e41;stroke-width:1.07412124" />
  <path
     d="m 469.52205,87.362832 a 80.797629,70.03128 0 0 0 -80.72719,67.849998 c -0.0231,0.71 -0.0344,1.43 -0.0344,2.15 A 80.761539,70 0 1 0 469.522,87.362832 Z m 0,137.999998 a 78.535982,68.071 0 0 1 -78.45407,-68 q 0,-1.395 0.0694,-2.76 a 78.45176,67.998 0 1 1 78.38473,70.76 z"
     id="path12"
     inkscape:connector-curvature="0"
     style="fill:#3f3d56;stroke-width:1.07412124" />
  <path
     d="m 537.59249,157.36283 a 68.070445,59.000004 0 0 1 -136.14089,0 c 0,-1.87 0.10358,-3.71 0.2997,-5.53 a 68.070439,59 0 0 1 135.84119,5.53 z"
     id="path14"
     inkscape:connector-curvature="0"
     style="fill:#e6e6e6;stroke-width:1.07412124" />
  <path
     d="m 489.79303,161.28283 a 16.207146,14.04753 0 0 0 -6.3106,-4.33 61.308068,53.13872 0 0 0 -9.48398,-2.7 v -16.06 a 26.992664,23.39587 0 0 1 13.48711,5.33 l 3.76148,-6.95 a 24.875339,21.56068 0 0 0 -7.33817,-3.93 36.064999,31.25931 0 0 0 -9.31046,-2.07 v -8.14 h -8.71048 v 8.22 a 23.850532,20.67243 0 0 0 -9.51832,2.77 18.91989,16.3988 0 0 0 -6.44977,5.48 15.888252,13.77113 0 0 0 -2.29563,7.29 14.378727,12.46275 0 0 0 2.64205,7.8 16.740967,14.51022 0 0 0 6.57595,4.52 60.792742,52.69206 0 0 0 9.64565,2.77 v 15.39 a 28.829701,24.98812 0 0 1 -16.04861,-5.55 l -3.76092,6.96 a 28.359322,24.58042 0 0 0 8.58374,4.22 39.413269,34.16142 0 0 0 10.62591,1.92 v 8.07 h 8.71048 v -8.22 a 22.542277,19.5385 0 0 0 12.93339,-5.14 15.678803,13.58959 0 0 0 4.82282,-10.1 13.908176,12.0549 0 0 0 -2.56164,-7.55 z m -23.30512,-8.73 a 16.727526,14.49857 0 0 1 -5.80361,-2.7 6.1384077,5.32046 0 0 1 -2.0534,-4.18 7.7595341,6.72557 0 0 1 2.09959,-4.81 10.616923,9.20221 0 0 1 5.75742,-2.59 z m 12.97953,21.28 a 9.8730983,8.5575 0 0 1 -5.46899,2.47 v -13.24 a 15.275053,13.23964 0 0 1 5.46899,2.37 5.3738152,4.65775 0 0 1 1.88045,3.7 7.8499063,6.8039 0 0 1 -1.88045,4.7 z"
     id="path16"
     inkscape:connector-curvature="0"
     style="fill:#ff7a5c;stroke-width:1.07412124" />
  <path
     d="m 278.48525,276.12704 a 8.1028975,7.02318 0 0 1 -7.81657,-5.21582 l -4.34975,-14.27 a 8.0806535,7.0039 0 0 1 5.73994,-8.55127 l 137.22618,-31.42969 a 8.0938869,7.01537 0 0 1 9.86561,4.98535 l 3.68485,12.08984 -0.69038,0.0464 a 184.78533,160.16254 0 0 0 -97.03793,31.8711 l -0.20013,0.084 -44.37293,10.15967 a 8.0329812,6.96258 0 0 1 -2.04889,0.23043 z"
     id="path18"
     inkscape:connector-curvature="0"
     style="fill:#2f2e41;stroke-width:1.07412124" />
  <path
     d="m 255.75792,346.61333 a 113.19076,98.108 0 0 1 -45.13668,-14.79216 110.21297,95.527 0 0 1 -18.66045,-13.22834 c -5.57008,-4.92434 -10.89877,-10.52122 -13.6577,-17.0792 a 29.188374,25.299 0 0 1 0.38215,-18.7693 28.074464,24.33352 0 0 1 15.19328,-13.12553 c 6.91043,-2.38861 15.25953,-2.64412 21.98492,-0.0282 a 19.716498,17.08926 0 0 1 8.035,5.60584 13.192893,11.43493 0 0 1 2.08861,3.75816 8.8534491,7.67372 0 0 1 0.10429,3.75911 10.402478,9.01634 0 0 1 -5.5078,5.723 27.768344,24.06819 0 0 1 -9.40537,2.48626 c -3.29984,0.39 -8.04001,0.74485 -10.69282,-1.551 a 5.387187,4.66934 0 0 1 -1.26059,-1.61079 3.5931963,3.1144 0 0 1 -0.19887,-1.45807 c -0.0387,0.21724 0.16004,-0.47236 0.14871,-0.44486 -0.042,0.10194 -0.22363,0.3504 0.0345,-0.0314 a 3.919046,3.39683 0 0 1 0.26895,-0.363 c -0.0876,0.0983 -0.28026,0.26227 0.0634,-0.0191 a 2.263469,1.96186 0 0 1 1.05482,-0.56441 c 0.15969,-0.0403 0.3217,-0.0724 0.48184,-0.11033 0.40699,-0.0964 -0.40568,0.005 0.0104,-0.006 0.16068,-0.004 0.32328,-10e-4 0.48342,-0.007 0.40842,-0.0159 -0.40298,-0.0965 -0.0114,-0.0113 0.15199,0.0331 0.30253,0.0655 0.45228,0.10635 0.32543,0.0889 -0.23045,-0.20693 -0.0104,0.0145 0.25843,0.25945 -0.27138,-0.25235 0.0224,-10e-4 a 5.335338,4.6244 0 0 1 0.41266,0.39431 2.7219408,2.35924 0 0 0 3.82463,0 2.7682172,2.39935 0 0 0 0,-3.315 c -2.66675,-2.86535 -7.93432,-2.15735 -10.63199,0.26436 -3.44045,3.08848 -2.07801,7.98318 1.26857,10.678 3.78853,3.05076 9.15421,3.26284 14.02752,2.75114 a 34.400956,29.817 0 0 0 11.84794,-2.902 16.61183,14.39829 0 0 0 8.10382,-7.58817 15.199103,13.17381 0 0 0 -1.21881,-10.76889 c -4.30263,-7.01118 -13.21203,-10.60575 -22.01834,-11.22837 a 34.395429,29.81221 0 0 0 -25.17312,7.16278 34.790018,30.15422 0 0 0 -11.40839,20.075 c -0.7687,7.996 2.81059,15.76128 8.0291,22.21432 a 97.63777,84.62746 0 0 0 19.35905,17.3533 118.22708,102.47323 0 0 0 49.39374,20.19071 q 3.22167,0.57685 6.47794,0.98758 a 2.7936686,2.42141 0 0 0 3.32671,-1.63715 2.7242597,2.36125 0 0 0 -1.88886,-2.88343 z"
     id="path20"
     inkscape:connector-curvature="0"
     style="fill:#3f3d56;stroke-width:1.07412124" />
  <path
     d="m 513.48563,244.73708 q -35.37712,-0.43278 -70.53136,1.55634 c -8.01074,0.45338 -14.94171,2.90742 -14.94171,7.03206 0,3.44855 6.87585,7.48858 14.94171,7.032 q 35.13639,-1.9887 70.53136,-1.55633 c 19.2373,0.23535 19.22595,-13.82891 0,-14.06407 z"
     id="path22"
     inkscape:connector-curvature="0"
     style="fill:#cccccc;stroke-width:1.07412124" />
  <path
     d="m 478.62698,258.10458 c -2.54887,0 -62.42372,-0.0825 -62.42372,-7.251 0,-7.168 59.87485,-7.25049 62.42372,-7.25049 2.54887,0 62.42372,0.0825 62.42372,7.25049 0,7.16848 -59.87485,7.251 -62.42372,7.251 z m -60.08246,-7.251 c 1.63851,2.17334 23.64737,5.251 60.08246,5.251 36.43507,0 58.44367,-3.07764 60.08245,-5.251 -1.63849,-2.17285 -23.64738,-5.25049 -60.08245,-5.25049 -36.43509,0 -58.44395,3.07766 -60.08246,5.25051 z"
     id="path24"
     inkscape:connector-curvature="0"
     style="fill:#3f3d56;stroke-width:1.07412124" />
  <path
     d="m 668.59411,446.55492 c 13.25448,-0.319 29.75039,-0.71776 42.45864,-8.76407 a 32.606755,28.26188 0 0 0 12.83017,-21.10332 c 0.25938,-6.35459 -2.3894,-11.90149 -7.45879,-15.61408 -6.63751,-4.86143 -16.32997,-6.00169 -26.77519,-3.34108 l 10.82205,-68.548 -7.94425,-0.94343 -12.7224,80.58689 6.63407,-2.63856 c 7.69124,-3.05766 18.24901,-4.61365 24.8097,0.19174 a 14.093362,12.21541 0 0 1 4.62158,10.06213 24.644834,21.36089 0 0 1 -9.54716,15.7346 c -9.88971,6.26126 -23.03847,7.06894 -37.95159,7.43036 z"
     id="path26"
     inkscape:connector-curvature="0"
     style="fill:#3f3d56;stroke-width:1.07412124" />
  <rect
     x="603.44202"
     y="335.09604"
     width="43.186928"
     height="6.95017"
     id="rect28"
     style="fill:#3f3d56;stroke-width:1.07412124" />
  <path
     d="m 298.02782,308.09283 a 8.090495,7.01243 0 0 1 -7.9654,-5.91748 l -2.63611,-14.58152 a 8.084957,7.00763 0 0 1 6.72877,-7.99951 l 140.21529,-19.04249 a 8.0846917,7.0074 0 0 1 9.22874,5.832 l 2.6359,14.582 a 8.0845301,7.00726 0 0 1 -6.72834,7.99952 l -140.21531,19.042 a 8.1863473,7.09551 0 0 1 -1.26354,0.0855 z"
     id="path30"
     inkscape:connector-curvature="0"
     style="fill:#2f2e41;stroke-width:1.07412124" />
  <ellipse
     cx="239.99969"
     cy="86.209953"
     id="circle32"
     style="fill:#ff7a5c;stroke-width:1.07412124"
     rx="58.840553"
     ry="51" />
  <path
     d="m 273.3142,99.405892 a 13.954614,12.09515 0 0 0 5.03818,-2.67614 9.3838563,8.13345 0 0 0 2.6014,-6.483 6.3127373,5.47156 0 0 0 -2.8983,-4.16412 c -2.12945,-1.13505 -4.94328,-1.09217 -7.78415,0.0493 l -0.32791,-19.90787 -2.30711,0.0285 0.38534,23.40381 1.75634,-0.99844 c 2.0367,-1.15588 4.96312,-1.99407 7.06854,-0.87157 a 4.0539178,3.51373 0 0 1 1.81471,2.68953 7.0910824,6.14619 0 0 1 -1.93397,4.83366 c -2.50122,2.15111 -6.20343,2.87189 -10.42889,3.53112 l 0.40891,1.968138 a 38.030101,32.96256 0 0 0 6.60691,-1.402878 z"
     id="path34"
     inkscape:connector-curvature="0"
     style="fill:#2f2e41;stroke-width:1.07412124" />
  <rect
     x="266.02026"
     y="102.59241"
     width="12.392963"
     height="2.007159"
     transform="matrix(0.99149473,-0.13014686,0.17211801,0.98507634,0,0)"
     id="rect36"
     style="fill:#2f2e41;stroke-width:1.07460558" />
  <rect
     x="226.9028"
     y="102.59132"
     width="12.392963"
     height="2.007159"
     transform="matrix(0.99149473,-0.13014686,0.17211801,0.98507634,0,0)"
     id="rect38"
     style="fill:#2f2e41;stroke-width:1.07460558" />
  <path
     d="m 278.88413,307.20126 a 10.418712,9.03041 0 0 1 -9.73113,-5.855 l -40.56893,-94.16893 a 53.685149,46.53156 0 0 1 31.47875,-59.80225 l 32.98726,-10.67625 a 10.334812,8.95769 0 0 1 7.93546,0.23877 10.189637,8.83186 0 0 1 5.39419,4.98584 l 75.15031,122.98387 a 10.385357,9.0015 0 0 1 -6.06472,11.63818 l -92.95239,30.08399 a 10.356076,8.97612 0 0 1 -3.6288,0.57178 z"
     id="path40"
     inkscape:connector-curvature="0"
     style="fill:#2f2e41;stroke-width:1.07412124" />
  <path
     d="m 283.0418,139.9377 74.56482,86.42566 -50.45474,-85.51853 a 9.3210354,8.079 0 0 0 -11.94001,-4.846 z"
     id="path42"
     inkscape:connector-curvature="0"
     style="fill:#e6e6e6;stroke-width:1.07412124" />
  <path
     d="m 401.10591,205.57283 -133.1357,-7.43312 a 16.013216,13.879441 0 1 1 2.05856,-27.70148 l 133.13573,7.43258 a 7.4986628,6.49946 0 0 1 7.00184,6.90407 l -1.09434,14.72919 a 7.4999319,6.50056 0 0 1 -7.96609,6.06876 z"
     id="path44"
     inkscape:connector-curvature="0"
     style="fill:#ff7a5c;stroke-width:1.07412124" />
  <path
     d="m 365.53012,210.33797 q -0.26365,0 -0.52869,-0.0146 h -2.9e-4 l -109.32356,-6.10352 a 8.0752195,6.99919 0 0 1 -7.54041,-7.43506 l 1.86946,-25.1582 a 8.0757733,6.99967 0 0 1 8.57909,-6.53516 l 109.32344,6.103 a 8.0848647,7.00755 0 0 1 7.54014,7.43506 l -1.86921,25.15869 a 8.0979134,7.01886 0 0 1 -5.24504,6.11084 7.9907775,6.926 0 0 1 -2.80493,0.43899 z"
     id="path46"
     inkscape:connector-curvature="0"
     style="fill:#2f2e41;stroke-width:1.07412124" />
  <path
     d="m 239.32519,52.295772 c 7.74068,-5.77031 18.37046,-0.60839 27.24748,-1.512 8.49281,-0.86455 15.19897,-7.46753 16.91212,-14.48237 1.99868,-8.184 -2.90225,-16.38319 -10.1259,-21.48577 -7.9117,-5.5885796 -18.40458,-7.1929296 -28.3478,-6.1589996 -11.39621,1.185 -21.81857,5.7893496 -31.1705,11.3585396 a 140.58319,121.85037 0 0 0 -24.73799,18.16917 c -6.63526,6.35166 -12.25703,13.9227 -14.0522,22.46976 -1.63138,7.76751 -0.38571,16.375 4.91203,22.95514 a 27.92651,24.20528 0 0 0 10.9307,7.80529 c 4.54275,1.93344 9.38856,3.31565 13.78963,5.50169 6.65448,3.305318 13.12204,10.158828 11.03754,17.290938 a 11.29832,9.79281 0 0 1 -2.56821,4.19 c -1.48907,1.43275 -4.17503,-0.46055 -2.68204,-1.89708 2.62225,-2.52305 2.51897,-5.88792 1.12151,-8.90023 a 18.773977,16.27233 0 0 0 -8.34551,-7.954268 c -4.60687,-2.28294 -9.69307,-3.6921 -14.41478,-5.77156 a 31.176884,27.02254 0 0 1 -11.43518,-8.21385 c -5.65125,-6.807 -7.34166,-15.66585 -6.05999,-23.861 1.38695,-8.86841 6.644,-16.9272 13.2341,-23.68045 7.17187,-7.34944 15.98143,-13.57054 24.98123,-19.15936 9.65684,-5.99685 20.32576,-11.0667796 32.13164,-12.9004896 10.23384,-1.58954 21.32652,-0.61091 30.27556,4.2229396 8.35335,4.51209 14.75897,12.27377 15.39602,20.9467 a 25.653753,22.23537 0 0 1 -11.97148,19.94206 22.037517,19.101 0 0 1 -13.16412,2.64333 c -4.91676,-0.27279 -9.83823,-1.57778 -14.78639,-1.21548 a 10.315291,8.94077 0 0 0 -6.07796,2.1285 c -1.69124,1.26074 -3.70687,-1.1807 -2.02952,-2.43109 z"
     id="path48"
     inkscape:connector-curvature="0"
     style="fill:#2f2e41;stroke-width:1.07412124" />
  <path
     d="M 916.42988,602.53043 H 64.633294 a 1.3737423,1.19069 0 0 1 0,-2.38137 H 916.42988 a 1.3737364,1.190685 0 0 1 0,2.38137 z"
     id="path50"
     inkscape:connector-curvature="0"
     style="fill:#3f3d56;stroke-width:1.07412124" />
</svg>
