<?xml version="1.0" encoding="UTF-8" standalone="no"?>
<svg
   xmlns:dc="http://purl.org/dc/elements/1.1/"
   xmlns:cc="http://creativecommons.org/ns#"
   xmlns:rdf="http://www.w3.org/1999/02/22-rdf-syntax-ns#"
   xmlns:svg="http://www.w3.org/2000/svg"
   xmlns="http://www.w3.org/2000/svg"
   xmlns:sodipodi="http://sodipodi.sourceforge.net/DTD/sodipodi-0.dtd"
   xmlns:inkscape="http://www.inkscape.org/namespaces/inkscape"
   id="fe80fb2b-bcaf-407e-919b-306adc32f78b"
   data-name="Layer 1"
   width="900"
   height="600"
   viewBox="0 0 900 599.99998"
   version="1.1"
   sodipodi:docname="undraw_profile_6l1l.svg"
   inkscape:version="0.92.3 (2405546, 2018-03-11)">
  <metadata
     id="metadata89">
    <rdf:RDF>
      <cc:Work
         rdf:about="">
        <dc:format>image/svg+xml</dc:format>
        <dc:type
           rdf:resource="http://purl.org/dc/dcmitype/StillImage" />
        <dc:title>profile</dc:title>
      </cc:Work>
    </rdf:RDF>
  </metadata>
  <defs
     id="defs87" />
  <sodipodi:namedview
     pagecolor="#ffffff"
     bordercolor="#666666"
     borderopacity="1"
     objecttolerance="10"
     gridtolerance="10"
     guidetolerance="10"
     inkscape:pageopacity="0"
     inkscape:pageshadow="2"
     inkscape:window-width="1920"
     inkscape:window-height="1015"
     id="namedview85"
     showgrid="false"
     inkscape:zoom="0.63633059"
     inkscape:cx="310.07527"
     inkscape:cy="78.683906"
     inkscape:window-x="0"
     inkscape:window-y="28"
     inkscape:window-maximized="1"
     inkscape:current-layer="fe80fb2b-bcaf-407e-919b-306adc32f78b" />
  <title
     id="title2">profile</title>
  <line
     y1="599.56897"
     x2="145.77747"
     y2="599.56897"
     stroke-miterlimit="10"
     id="line4"
     x1="0"
     style="fill:none;stroke:#3f3d56;stroke-width:0.87032706;stroke-miterlimit:10" />
  <rect
     x="213.39714"
     y="111.99759"
     width="647.2168"
     height="432.56"
     rx="17.034571"
     id="rect6"
     style="fill:#f2f2f2;stroke-width:0.87249726" />
  <rect
     x="193.63814"
     y="84.691696"
     width="647.2168"
     height="432.56"
     rx="17.034571"
     stroke-miterlimit="10"
     id="rect8"
     style="fill:none;stroke:#3f3d56;stroke-width:0.87249726;stroke-miterlimit:10" />
  <line
     x1="193.63814"
     y1="126.16216"
     x2="840.85498"
     y2="126.16216"
     stroke-miterlimit="10"
     id="line10"
     style="fill:none;stroke:#3f3d56;stroke-width:0.87249726;stroke-miterlimit:10" />
  <rect
     x="580.47534"
     y="223.38828"
     width="176.51367"
     height="26.872465"
     rx="6.2284918"
     id="rect12"
     style="opacity:0.3;fill:#ff7a5c;stroke-width:0.87249726" />
  <rect
     x="546.66553"
     y="297.93771"
     width="244.13335"
     height="21.671343"
     rx="6.2284918"
     id="rect14"
     style="opacity:0.3;fill:#ff7a5c;stroke-width:0.87249726" />
  <rect
     x="546.66553"
     y="356.88376"
     width="244.13335"
     height="21.671343"
     rx="6.2284918"
     id="rect16"
     style="opacity:0.3;fill:#ff7a5c;stroke-width:0.87249726" />
  <rect
     x="546.66553"
     y="415.82983"
     width="244.13335"
     height="21.671343"
     rx="6.2284918"
     id="rect18"
     style="opacity:0.3;fill:#ff7a5c;stroke-width:0.87249726" />
  <rect
     x="589.25708"
     y="214.71974"
     width="176.51367"
     height="26.872465"
     rx="6.2284918"
     stroke-miterlimit="10"
     id="rect20"
     style="fill:none;stroke:#3f3d56;stroke-width:0.87249726;stroke-miterlimit:10" />
  <rect
     x="555.44727"
     y="289.2692"
     width="244.13335"
     height="21.671343"
     rx="6.2284918"
     stroke-miterlimit="10"
     id="rect22"
     style="fill:none;stroke:#3f3d56;stroke-width:0.87249726;stroke-miterlimit:10" />
  <rect
     x="555.44727"
     y="348.21524"
     width="244.13335"
     height="21.671343"
     rx="6.2284918"
     stroke-miterlimit="10"
     id="rect24"
     style="fill:none;stroke:#3f3d56;stroke-width:0.87249726;stroke-miterlimit:10" />
  <rect
     x="555.44727"
     y="407.16129"
     width="244.13335"
     height="21.671343"
     rx="6.2284918"
     stroke-miterlimit="10"
     id="rect26"
     style="fill:none;stroke:#3f3d56;stroke-width:0.87249726;stroke-miterlimit:10" />
  <ellipse
     cx="242.81609"
     cy="110.69731"
     id="circle28"
     style="opacity:0.3;fill:#ff7a5c;stroke-width:0.87249726"
     rx="13.172663"
     ry="13.002806" />
  <ellipse
     cx="279.69952"
     cy="110.69731"
     id="circle30"
     style="opacity:0.3;fill:#ff7a5c;stroke-width:0.87249726"
     rx="13.172663"
     ry="13.002806" />
  <ellipse
     cx="316.58298"
     cy="110.69731"
     id="circle32"
     style="opacity:0.3;fill:#ff7a5c;stroke-width:0.87249726"
     rx="13.172663"
     ry="13.002806" />
  <ellipse
     cx="248.08514"
     cy="105.49618"
     stroke-miterlimit="10"
     id="circle34"
     style="fill:none;stroke:#3f3d56;stroke-width:0.87249726;stroke-miterlimit:10"
     rx="13.172663"
     ry="13.002806" />
  <ellipse
     cx="284.9686"
     cy="105.49618"
     stroke-miterlimit="10"
     id="circle36"
     style="fill:none;stroke:#3f3d56;stroke-width:0.87249726;stroke-miterlimit:10"
     rx="13.172663"
     ry="13.002806" />
  <ellipse
     cx="321.85205"
     cy="105.49618"
     stroke-miterlimit="10"
     id="circle38"
     style="fill:none;stroke:#3f3d56;stroke-width:0.87249726;stroke-miterlimit:10"
     rx="13.172663"
     ry="13.002806" />
  <path
     d="m 398.12528,499.04776 c -2.20541,-10.02817 -2.79018,-23.72519 -2.04836,-33.25291 0,0 -11.15142,-48.35869 -19.9258,-52.87056 l -0.003,0.002 c -0.13436,0.17058 -4.3926,5.68121 -4.93278,22.73275 -0.54844,17.32219 -6.76171,28.68986 -6.76171,28.68986 0,0 2.01063,21.5913 0.86103,34.69822 z"
     id="path40"
     inkscape:connector-curvature="0"
     style="fill:#ff7a5c;stroke-width:0.87249726" />
  <path
     d="M 479.24629,191.31469 H 276.86454 a 20.875763,20.606578 0 0 0 -20.8758,20.60657 v 266.51996 a 20.875755,20.606569 0 0 0 20.8758,20.60654 h 71.00504 c -2.37125,-9.70819 -5.31912,-24.87061 -2.33362,-35.41306 l -0.002,-0.007 0.002,0.004 c 0.13936,-0.492 0.2874,-0.97727 0.45323,-1.44805 a 55.76205,55.043018 0 0 0 2.01257,-21.11142 44.444124,43.871034 0 0 0 0,-18.40481 c -2.19351,-10.10374 -3.72904,-20.02885 -3.72904,-20.02885 0,0 -1.20925,-13.35158 -0.15351,-21.53632 0.0234,-0.17979 0.0506,-0.35021 0.0761,-0.5248 -0.37263,-0.0837 -0.58166,-0.13201 -0.58166,-0.13201 0,0 3.1077,-13.89384 4.20435,-22.73539 0.259,-2.08723 0.5998,-4.73329 0.96876,-7.55444 a 18.388975,18.151856 0 0 1 -2.97939,-0.7458 c -9.87102,-3.42831 -12.97858,-34.46394 -12.97858,-34.46394 v -9.83375 c 0,0 -3.29039,-15.06672 8.22583,-21.74293 11.08957,-6.42897 15.51712,-8.18845 15.83014,-8.31004 0.0845,-0.0597 0.16702,-0.11379 0.25321,-0.17966 a 9.7137585,9.588503 0 0 0 2.88891,-3.67002 q 0.023,-0.37165 0.0108,-0.73865 c -0.18729,-3.52519 -2.67334,-6.73118 -5.03237,-9.52867 q -3.01789,-3.57886 -6.03608,-7.15784 a 7.0885961,6.9971912 0 0 1 -1.55461,-2.48342 5.7994842,5.724702 0 0 1 -0.16422,-1.56371 q -0.003,-0.29205 0.004,-0.5834 0.0492,-2.66849 0.14687,-5.33587 c 0.0566,-1.5536 0.45281,-3.51382 1.99412,-3.83306 0.80164,-0.16609 1.86269,0.12349 2.28646,-0.56845 a 1.3746464,1.3569207 0 0 0 0.10259,-0.91934 c -0.005,0.023 -0.006,0.0472 -0.0132,0.0698 -0.005,-0.029 -0.0102,-0.0581 -0.0156,-0.0866 a 19.703282,19.449216 0 0 1 -0.57126,-3.80233 5.1303745,5.0642201 0 0 1 0.24765,-1.70756 c 0.89286,-2.57903 3.96744,-3.63732 6.6841,-4.12387 2.71686,-0.48659 5.76657,-0.90521 7.47179,-3.0488 a 23.667411,23.362228 0 0 1 1.4831,-2.05777 5.8221324,5.7470582 0 0 1 2.78022,-1.38414 15.36628,15.168137 0 0 1 10.10451,0.88522 c 1.31416,0.59194 2.63421,1.38911 4.07583,1.2989 1.49736,-0.0936 2.77647,-1.13393 4.25485,-1.38704 2.38786,-0.40877 4.67078,1.3572 5.84751,3.44858 a 8.6509969,8.5394454 0 0 1 1.08261,4.35431 6.0699629,5.9916929 0 0 1 -1.54924,4.10984 c -1.02762,1.07615 -2.561,1.81534 -2.98765,3.23297 -0.17388,0.57702 -0.13348,1.19848 -0.28709,1.78101 -0.0191,0.0728 -0.0504,0.14078 -0.0756,0.21121 0.0282,0.0361 0.0589,0.0703 0.0869,0.10663 a 18.644587,18.404171 0 0 1 -9.07346,28.62288 c -0.007,0.18254 -0.0142,0.36523 -0.0133,0.54877 a 8.0555223,7.9516492 0 0 0 2.49368,6.12406 l 16.28776,6.59328 c 0,0 9.80543,-1.17319 13.34387,13.27117 a 25.314591,24.988168 0 0 1 0.60578,7.33137 c -0.12853,2.17799 0.17131,6.01227 2.68481,10.97437 4.02147,7.93935 3.10749,26.1637 -5.11834,27.96811 -7.79147,1.70909 -10.82232,0.99108 -11.12109,0.91039 l -0.0177,0.31909 c 0.12832,3.41965 1.36143,32.91357 5.83776,36.4824 1.23783,0.98691 1.00135,1.65355 -0.0143,2.1028 l 0.003,0.002 c 0,0 0.008,0.18945 0.0273,0.53051 0.13443,2.15713 0.82543,10.37166 3.8223,15.04597 3.47407,5.41313 3.10943,36.63098 3.10943,36.63098 l 2.37447,18.40488 c 0,0 -1.46146,11.36767 0,13.35162 0.83037,1.12505 1.83589,18.55372 2.5511,33.43424 h 61.05992 a 20.875755,20.606569 0 0 0 20.87602,-20.60618 V 211.92126 a 20.875763,20.606578 0 0 0 -20.8758,-20.60657 z"
     id="path42"
     inkscape:connector-curvature="0"
     style="fill:#ff7a5c;stroke-width:0.87249726" />
  <rect
     x="234.91248"
     y="167.90965"
     width="244.13335"
     height="307.73309"
     rx="20.875729"
     stroke-miterlimit="10"
     id="rect44"
     style="fill:none;stroke:#3f3d56;stroke-width:0.87249726;stroke-miterlimit:10" />
  <path
     d="m 88.541536,237.62522 c 0,0 -8.188294,-2.37805 -9.944649,0.2096 -1.756355,2.58764 2.394518,21.34604 2.394518,21.34604 l 18.042938,1.07698 -6.296726,-15.61773 z"
     id="path46"
     inkscape:connector-curvature="0"
     style="fill:#2f2e41;stroke-width:0.87032706" />
  <path
     d="m 25.418119,391.66753 c 0,0 16.41723,35.40092 3.774073,34.28882 -12.643156,-1.11209 -17.549455,-34.28882 -17.549455,-34.28882 z"
     id="path48"
     inkscape:connector-curvature="0"
     style="fill:#a0616a;stroke-width:0.87032706" />
  <path
     d="m 132.79034,387.97944 c 0,0 -7.20218,38.2518 4.79066,34.16615 11.99285,-4.08565 8.57485,-37.44207 8.57485,-37.44207 z"
     id="path50"
     inkscape:connector-curvature="0"
     style="fill:#a0616a;stroke-width:0.87032706" />
  <path
     d="m 85.048541,228.74916 c 0,0 -0.188703,17.79313 6.793344,18.71985 6.982047,0.92672 -3.962785,10.37932 -3.962785,10.37932 l -12.454454,2.4095 -17.926852,-1.29741 -7.925552,-10.00864 c 0,0 13.964085,-6.48707 7.925552,-26.6897 z"
     id="path52"
     inkscape:connector-curvature="0"
     style="fill:#a0616a;stroke-width:0.87032706" />
  <path
     d="m 85.048541,228.74916 c 0,0 -0.188703,17.79313 6.793344,18.71985 6.982047,0.92672 -3.962785,10.37932 -3.962785,10.37932 l -12.454454,2.4095 -17.926852,-1.29741 -7.925552,-10.00864 c 0,0 13.964085,-6.48707 7.925552,-26.6897 z"
     id="path54"
     inkscape:connector-curvature="0"
     style="opacity:0.1;stroke-width:0.87032706" />
  <path
     d="m 117.1282,379.2494 c 0,0 8.86908,18.71986 1.88703,77.47428 0,0 2.07575,20.75864 0.37742,24.65089 -1.69833,3.89225 -15.66243,56.71562 -15.66243,56.71562 0,0 -17.926859,3.89224 -20.380013,-7.78449 0,0 2.453154,-16.68106 2.264442,-19.27589 -0.188712,-2.59483 3.962785,-30.95263 3.962785,-30.95263 l -8.491678,-54.86217 -6.415965,49.48716 c 0,0 0,14.27158 -2.075739,17.42244 -2.07574,3.15087 0,66.5389 0,66.5389 0,0 5.849821,9.63794 -3.019262,9.82329 -8.869084,0.18535 -16.794645,-0.18535 -17.5495,-6.30176 -0.754855,-6.11643 -1.132225,-12.23278 -3.019262,-15.93969 -1.887036,-3.70691 -4.34019,-46.15094 -3.774073,-60.97855 0.566117,-14.8276 -12.454454,-91.00445 -8.302975,-98.9743 4.151479,-7.96985 80.19922,-7.0431 80.19922,-7.0431 z"
     id="path56"
     inkscape:connector-curvature="0"
     style="fill:#2f2e41;stroke-width:0.87032706" />
  <ellipse
     cx="75.424652"
     cy="213.18018"
     id="circle58"
     style="fill:#a0616a;stroke-width:0.87032706"
     rx="22.644464"
     ry="22.241415" />
  <path
     d="m 52.78018,249.32247 c 0,0 13.775383,10.00864 33.777992,2.0388 0,0 6.604632,-3.15088 6.038524,-7.96984 -0.566108,-4.81897 13.775384,38.73712 13.775384,38.73712 l 14.5302,75.80617 -0.75482,30.95263 c 0,0 -6.41596,-3.15088 -26.418539,3.89225 -20.002574,7.04314 -52.648383,-7.96984 -52.648383,-7.96984 l 1.132225,-79.51306 1.132217,-46.33628 3.019262,-10.19398 c 0,0 1.509605,-2.78018 6.415938,0.55603 z"
     id="path60"
     inkscape:connector-curvature="0"
     style="fill:#f2f2f2;stroke-width:0.87032706" />
  <path
     d="m 85.677843,236.88018 c 0,0 3.333482,-0.53187 6.541447,4.47245 3.207965,5.00431 10.75612,8.15518 10.75612,8.15518 0,0 18.30428,1.11207 20.94613,10.75003 2.64186,9.63795 9.24649,22.79745 12.45446,47.07766 3.20796,24.28021 9.62389,63.01734 10.56741,66.16821 0.94353,3.15086 -1.32092,12.78881 1.32093,15.75432 2.64186,2.96553 -18.68169,2.96553 -18.68169,2.96553 0,0 -1.88703,-15.19829 -3.20798,-15.19829 -1.32095,0 -0.94351,10.19397 0.37741,17.60778 1.32093,7.4138 -9.6239,0 -9.6239,0 0,0 -8.49167,-33.91815 -16.60594,-64.5001 -8.114273,-30.58195 -12.831825,-47.44836 -11.322238,-54.30613 1.509587,-6.85777 5.661118,-26.50433 2.641856,-28.3578 -3.019262,-1.85346 -6.164015,-10.58884 -6.164015,-10.58884 z"
     id="path62"
     inkscape:connector-curvature="0"
     style="fill:#2f2e41;stroke-width:0.87032706" />
  <path
     d="m 58.465115,236.86383 c 0,0 -4.930088,2.63535 -17.384577,11.34658 -12.454489,8.71121 -20.946132,15.38364 -20.946132,15.38364 0,0 -4.906299,3.7069 -7.925552,25.76297 -3.0192533,22.05607 -9.812615,79.14237 -7.1707497,86.37082 2.6418653,7.22846 3.5853793,11.4914 2.6418566,15.75434 -0.9435227,4.26294 19.8139061,4.0776 20.1913121,3.15088 0.377405,-0.92671 -0.566109,-17.79312 0.377414,-18.16381 0.943523,-0.37069 6.038515,10.00864 6.982038,18.71985 0.943523,8.71122 11.888346,15.56897 14.341517,15.56897 2.453171,0 15.09631,-50.22853 15.285013,-84.51738 0.188703,-34.28885 -4.151487,-63.20268 -7.359452,-67.28028 -3.207965,-4.0776 0.967312,-22.09658 0.967312,-22.09658 z"
     id="path64"
     inkscape:connector-curvature="0"
     style="fill:#2f2e41;stroke-width:0.87032706" />
  <path
     d="m 91.653173,539.75829 c 0,0 1.509631,-4.07759 6.793344,-2.78017 5.283713,1.29741 8.869083,-3.33622 8.869083,-3.33622 0,0 2.83056,-0.37069 0.94351,3.15089 -1.88704,3.52158 -3.39666,5.93104 -3.39666,5.93104 0,0 11.32223,25.39229 3.96278,31.50867 -7.35945,6.11639 -15.851102,2.4095 -15.851102,2.4095 0,0 -8.302967,-5.74571 -7.925552,-20.94402 0,0 -0.377406,-4.81897 -4.906299,-12.60346 -4.528893,-7.78449 -7.925552,-19.64659 -2.453154,-21.87073 5.472399,-2.22416 6.880925,-2.30677 6.880925,-2.30677 0,0 -2.560765,11.50397 4.053878,15.52391 z"
     id="path66"
     inkscape:connector-curvature="0"
     style="fill:#3f3d56;stroke-width:0.87032706" />
  <path
     d="m 56.554254,568.48678 c 0,0 -4.528893,-8.34053 3.019262,-9.26726 7.548155,-0.92671 15.662427,-1.48275 15.285013,2.40949 -0.377414,3.89224 -1.320928,9.82329 -1.320928,9.82329 l 1.320928,4.26294 c 0,0 0.377414,10.56467 1.698334,11.8621 1.320919,1.29741 8.491678,12.41808 -6.793335,12.41808 -15.285014,0 -19.813907,-1.66811 -18.492979,-5.18966 1.320929,-3.52155 1.698334,-20.94399 1.698334,-20.94399 z"
     id="path68"
     inkscape:connector-curvature="0"
     style="fill:#3f3d56;stroke-width:0.87032706" />
  <path
     d="m 68.253896,195.38704 c 0,0 10.567418,2.78018 16.039834,3.89224 5.472415,1.11208 4.906298,-2.0388 4.906298,-2.0388 0,0 7.17075,0.92674 6.793336,0.18535 -0.377415,-0.74139 3.019262,-4.6336 -0.943514,-9.08191 -3.962776,-4.44831 -2.83056,-7.78448 -2.83056,-7.78448 H 88.822623 L 87.8791,179.26201 h -5.283713 c 0,0 -3.962776,-1.48275 -14.341517,0 -10.378741,1.48277 -24.531502,1.85346 -25.663728,7.96985 -1.132225,6.1164 -6.982046,13.71554 -4.906298,17.2371 2.075748,3.52155 13.964085,17.97848 15.09631,24.09486 1.132226,6.11639 6.418889,7.47534 6.228711,3.64499 -0.190178,-3.83034 -5.4739,-17.17518 -0.945007,-17.73121 4.528894,-0.55603 12.265778,-11.8621 10.190038,-19.09056 z"
     id="path70"
     inkscape:connector-curvature="0"
     style="fill:#2f2e41;stroke-width:0.87032706" />
  <path
     d="m 820.99111,7.7190748 a 20.182275,19.922032 0 0 0 -17.3966,12.0067912 c -4.35005,10.379551 1.25096,22.571876 9.65907,30.140748 8.40811,7.568873 19.2089,11.895183 29.02227,17.581822 13.18101,7.638091 25.02525,18.241047 31.62045,31.851552 6.5952,13.610502 7.29669,30.469992 -0.45568,43.472632 -7.19553,12.06869 -20.27932,19.29175 -32.75796,25.95334"
     stroke-miterlimit="10"
     id="path72"
     inkscape:connector-curvature="0"
     style="fill:none;stroke:#3f3d56;stroke-width:0.87249726;stroke-miterlimit:10" />
  <ellipse
     cx="832.07318"
     cy="8.6228762"
     rx="15.368106"
     ry="7.3682566"
     id="ellipse74"
     style="fill:#ff7a5c;stroke-width:0.87249726" />
  <ellipse
     cx="844.36768"
     cy="57.166683"
     rx="15.368106"
     ry="7.3682566"
     id="ellipse76"
     style="fill:#ff7a5c;stroke-width:0.87249726" />
  <ellipse
     cx="816.26599"
     cy="64.968369"
     rx="15.368106"
     ry="7.3682566"
     id="ellipse78"
     style="fill:#ff7a5c;stroke-width:0.87249726" />
  <ellipse
     cx="860.17487"
     cy="105.71049"
     rx="15.368106"
     ry="7.3682566"
     id="ellipse80"
     style="fill:#ff7a5c;stroke-width:0.87249726" />
  <ellipse
     cx="890.91107"
     cy="105.71049"
     rx="15.368106"
     ry="7.3682566"
     id="ellipse82"
     style="fill:#ff7a5c;stroke-width:0.87249726" />
</svg>
