<svg id="Capa_1" enable-background="new 0 0 512 512" height="512" viewBox="0 0 512 512" width="512" xmlns="http://www.w3.org/2000/svg"><path d="m318 227.854h-44v44h44zm-12 32h-20v-20h20z"/><path d="m318 291.854h-44v44h44zm-12 32h-20v-20h20z"/><path d="m318 399.854v-44h-44v44zm-32-32h20v20h-20z"/><path d="m478 483.854v-467.708l-172 86v93.708h-52v-116h24v-44h-244v44h16v404h-50v12h512v-12zm-12-352h-84v-20h84zm-84 12h84v20h-84zm0 32h84v20h-84zm0 32h84v20h-84zm0 32h84v20h-84zm0 32h84v20h-84zm0 32h84v20h-84zm0 32h84v20h-84zm0 32h84v20h-84zm-64-160v-98.292l148-74v64.292h-96v300h96v84h-60v-64h-92v64h-60v-276zm48 224h28v52h-28zm-12 52h-28v-52h28zm-292-340h68v52h-68zm0 64h68v52h-68zm0 64h68v52h-68zm0 64h68v52h-68zm80-256h20v308h-20zm100 244h-68v-52h68zm0-64h-68v-52h68zm-68-64v-52h68v52zm0 140h68v52h-68zm68-204h-68v-52h68zm-196-84h220v20h-220zm84 32v52h-68v-52zm-68 320h180v84h-44v-52h18v-12h-128v12h18v52h-44zm84 32v52h-28v-52zm12 0h28v52h-28z"/></svg>