<?xml version="1.0" encoding="UTF-8" standalone="no"?>
<svg
   xmlns:dc="http://purl.org/dc/elements/1.1/"
   xmlns:cc="http://creativecommons.org/ns#"
   xmlns:rdf="http://www.w3.org/1999/02/22-rdf-syntax-ns#"
   xmlns:svg="http://www.w3.org/2000/svg"
   xmlns="http://www.w3.org/2000/svg"
   xmlns:sodipodi="http://sodipodi.sourceforge.net/DTD/sodipodi-0.dtd"
   xmlns:inkscape="http://www.inkscape.org/namespaces/inkscape"
   id="bc4ccc1a-6088-4a0b-8e75-630a9ab24761"
   data-name="Layer 1"
   width="900"
   height="600"
   viewBox="0 0 900 599.99999"
   version="1.1"
   sodipodi:docname="cleaning.svg"
   inkscape:version="0.92.3 (2405546, 2018-03-11)">
  <metadata
     id="metadata89">
    <rdf:RDF>
      <cc:Work
         rdf:about="">
        <dc:format>image/svg+xml</dc:format>
        <dc:type
           rdf:resource="http://purl.org/dc/dcmitype/StillImage" />
        <dc:title>interior_design</dc:title>
      </cc:Work>
    </rdf:RDF>
  </metadata>
  <defs
     id="defs87" />
  <sodipodi:namedview
     pagecolor="#ffffff"
     bordercolor="#666666"
     borderopacity="1"
     objecttolerance="10"
     gridtolerance="10"
     guidetolerance="10"
     inkscape:pageopacity="0"
     inkscape:pageshadow="2"
     inkscape:window-width="1920"
     inkscape:window-height="1015"
     id="namedview85"
     showgrid="false"
     inkscape:zoom="0.31596305"
     inkscape:cx="-519.14803"
     inkscape:cy="366.28486"
     inkscape:window-x="0"
     inkscape:window-y="28"
     inkscape:window-maximized="1"
     inkscape:current-layer="bc4ccc1a-6088-4a0b-8e75-630a9ab24761"
     fit-margin-top="0"
     fit-margin-left="0"
     fit-margin-right="0"
     fit-margin-bottom="0" />
  <title
     id="title2">interior_design</title>
  <rect
     y="580.34967"
     width="348.82236"
     height="1.7635542"
     id="rect4"
     x="0"
     style="fill:#3f3d56;stroke-width:0.91924417" />
  <path
     d="m 808.22701,285.2842 -1.21434,-0.41884 c -0.26684,-0.0925 -26.82531,-9.4554 -39.26647,-30.6853 -12.44165,-21.23093 -6.34957,-46.79303 -6.28659,-47.04822 l 0.28673,-1.16413 1.21379,0.41884 c 0.26684,0.0925 26.82476,9.4554 39.26647,30.68531 12.4417,21.23091 6.34957,46.79301 6.28659,47.04821 z m -38.48856,-32.09242 c 10.51852,17.95 31.50586,27.15122 36.82341,29.25174 1.01101,-5.24418 4.18166,-26.45067 -6.32748,-44.38342 -10.50802,-17.93068 -31.50365,-27.14614 -36.82341,-29.25174 -1.01157,5.24724 -4.18111,26.4517 6.32748,44.38342 z"
     id="path6"
     inkscape:connector-curvature="0"
     style="fill:#3f3d56;stroke-width:0.91924417" />
  <path
     d="m 778.21243,248.49646 c 22.35839,12.37736 30.9693,36.96219 30.9693,36.96219 0,0 -27.63917,4.51719 -49.99756,-7.86016 -22.35838,-12.37735 -30.96929,-36.96224 -30.96929,-36.96224 0,0 27.63918,-4.51714 49.99755,7.86021 z"
     id="path8"
     inkscape:connector-curvature="0"
     style="fill:#d0cde1;stroke-width:0.91924417" />
  <path
     d="m 804.82164,354.20792 a 68.116728,62.67721 0 0 1 -68.03953,-62.60617 v -0.88178 h 136.07906 v 0.88178 a 68.116728,62.67721 0 0 1 -68.03953,62.60617 z m -66.11637,-61.7244 a 66.123314,60.842981 0 0 0 132.23277,0 z"
     id="path10"
     inkscape:connector-curvature="0"
     style="fill:#3f3d56;stroke-width:0.91924417" />
  <path
     d="m 804.82164,343.18571 a 45.04025,41.443524 0 0 0 45.04025,-41.44353 h -90.0805 a 45.04025,41.443524 0 0 0 45.04025,41.44353 z"
     id="path12"
     inkscape:connector-curvature="0"
     style="fill:#ff7a5c;stroke-width:0.91924417" />
  <path
     d="M 665.38852,353.76703 H 420.0629 V 128.03209 H 665.38852 Z M 421.97951,352.00348 H 663.47192 V 129.79565 H 421.97951 Z"
     id="path56"
     inkscape:connector-curvature="0"
     style="fill:#3f3d56;stroke-width:0.91924417" />
  <rect
     x="449.77032"
     y="155.36719"
     width="185.91083"
     height="171.06476"
     id="rect58"
     style="fill:#ff7a5c;stroke-width:0.91924417" />
  <path
     d="m 519.10036,275.45377 c -5.56266,-15.87931 -12.57677,-27.13014 -22.07373,-35.40628 l -0.60643,-0.52872 0.48664,-0.62518 c 18.17314,-23.3447 33.16908,-46.18308 44.57139,-67.88008 l 0.84413,-1.60554 0.87408,1.59176 c 14.56265,26.52048 29.39015,48.7212 45.33037,67.87144 l 0.49506,0.59502 -0.55774,0.54552 c -11.54456,11.28355 -19.02663,22.86635 -22.87294,35.41101 l -1.84548,-0.4788 c 3.87064,-12.62088 11.3209,-24.27126 22.76626,-35.59443 -15.50786,-18.71837 -29.96663,-40.32064 -44.15308,-65.9701 -11.23948,21.11571 -25.83585,43.28114 -43.41095,65.91972 9.43424,8.43415 16.42966,19.77669 21.97734,35.6138 z"
     id="path60"
     inkscape:connector-curvature="0"
     style="fill:#3f3d56;stroke-width:0.91924417" />
  <rect
     x="541.38275"
     y="171.39763"
     width="1.9166064"
     height="68.009644"
     id="rect62"
     style="fill:#3f3d56;stroke-width:0.91924417" />
  <ellipse
     cx="542.3407"
     cy="239.4073"
     id="circle64"
     style="fill:#3f3d56;stroke-width:0.91924417"
     rx="5.38943"
     ry="4.9590526" />
  <rect
     x="223.69887"
     y="535.84119"
     width="87.382881"
     height="1.8119369"
     transform="matrix(0.8529652,-0.52196778,0.58578274,0.81046813,0,0)"
     id="rect66"
     style="fill:#cfcce0;stroke-width:0.92059803" />
  <path
     d="m 500.68308,294.56428 c -3.30283,-2.0713 -4.23597,-4.10188 -4.32753,-4.3177 l 1.78467,-0.64194 -0.89234,0.32097 0.88957,-0.32791 c 0.0557,0.12508 6.11034,12.56939 45.0975,5.77639 40.83056,-7.11514 45.58812,3.97646 45.77047,4.45191 l -1.80795,0.58772 c -0.0364,-0.0885 -4.7941,-10.06981 -43.60597,-3.30705 -25.44717,4.43456 -37.43336,0.89118 -42.90842,-2.54239 z"
     id="path68"
     inkscape:connector-curvature="0"
     style="fill:#3f3d56;stroke-width:0.91924417" />
  <rect
     x="424.49307"
     y="367.17395"
     width="9.5575619"
     height="8.8453722"
     transform="matrix(0.9851552,-0.17166604,0.2015856,0.9794709,0,0)"
     id="rect70"
     style="fill:#3f3d56;stroke-width:0.91945738" />
  <rect
     x="510.0332"
     y="391.49869"
     width="9.5575619"
     height="8.8453722"
     transform="matrix(0.9851552,-0.17166604,0.2015856,0.9794709,0,0)"
     id="rect72"
     style="fill:#3f3d56;stroke-width:0.91945738" />
  <ellipse
     cx="542.9198"
     cy="295.64886"
     id="circle74"
     style="fill:#cfcce0;stroke-width:0.91924417"
     rx="4.7915158"
     ry="4.4088855" />
  <ellipse
     cx="505.22394"
     cy="318.25186"
     id="circle76"
     style="fill:#cfcce0;stroke-width:0.91924417"
     rx="4.7915158"
     ry="4.4088855" />
  <ellipse
     cx="579.75873"
     cy="272.64084"
     id="circle78"
     style="fill:#cfcce0;stroke-width:0.91924417"
     rx="4.7915158"
     ry="4.4088855" />
  <rect
     x="541.7674"
     y="240.86551"
     width="1.9166064"
     height="15.871987"
     id="rect80"
     style="fill:#3f3d56;stroke-width:0.91924417" />
  <rect
     x="399.93854"
     y="352.8512"
     width="463.81876"
     height="1.7635542"
     id="rect82"
     style="fill:#3f3d56;stroke-width:0.91924417" />
  <path
     inkscape:connector-curvature="0"
     style="fill:#ff7a5c;stroke-width:1.91274989"
     d="m 19.248882,300.83982 v 7.32697 c 0,0 -6.125452,2.09343 -6.125452,10.46719 0,8.37375 -4.9003749,39.77531 -4.9003749,39.77531 0,0 8.5756499,6.28032 15.9261819,4.18689 a 29.927524,25.570099 0 0 0 11.025827,-5.23361 l 1.225037,-32.44827 -4.900375,-8.37376 v -14.65406 z"
     id="path24" />
  <path
     inkscape:connector-curvature="0"
     style="fill:#ff7a5c;stroke-width:1.91274989"
     d="m 253.61405,9.851998 c 0,0 -21.30593,2.093447 -21.30593,10.467184 0,8.373735 -17.04473,39.775324 -17.04473,39.775324 0,0 29.82831,6.280316 55.39542,4.18688 25.56712,-2.093436 38.35069,-5.233594 38.35069,-5.233594 l 4.26118,-32.448296 -17.04475,-8.373749 z"
     id="path26" />
  <path
     inkscape:connector-curvature="0"
     style="fill:#ffb8b8;stroke-width:1.91274989"
     d="M 255.69133,83.122317 V 63.234664 c 0,0 -25.72692,-43.962193 -4.90036,-43.962193 20.82655,0 23.27673,39.775321 23.27673,39.775321 v 28.261397 z"
     id="path28" />
  <path
     inkscape:connector-curvature="0"
     style="fill:#ffb8b8;stroke-width:1.91274989"
     d="m 35.175002,291.41934 c 0,0 -13.476005,-6.28031 -15.926182,0 -2.450177,6.28032 -9.8007286,19.88766 0,20.93439 9.800729,1.04673 19.601458,-6.28032 19.601458,-6.28032 z"
     id="path30" />
  <path
     inkscape:connector-curvature="0"
     style="fill:#2f2e41;stroke-width:1.91274989"
     d="m 101.49946,333.81827 c 0,0 -7.376892,8.324 3.32598,89.53292 10.70287,81.20893 4.53582,140.33963 24.85409,139.52921 0,0 -5.30318,17.60933 11.96218,18.25891 17.26536,0.6496 25.15302,1.67325 26.49707,-2.39523 1.34404,-4.06847 3.44837,-22.88852 -1.24047,-22.70147 0,0 0.29177,5.34153 2.25025,-16.14926 1.95849,-21.49078 -3.58722,-122.97969 3.49781,-136.64521 l 27.70694,48.41156 c 0,0 1.24048,22.70148 6.51305,33.19748 5.27259,10.49601 16.44387,71.61178 16.44387,71.61178 l -1.05217,9.41001 c 0,0 37.80253,3.84525 39.07358,-1.55861 1.27106,-5.40387 0.83328,-13.41616 -0.8756,-16.02456 -1.70889,-2.6084 -1.70889,-2.60842 1.12512,-8.07458 a 18.946518,16.18792 0 0 0 0.83326,-13.41615 c -1.78185,-3.9438 -6.52482,-90.74353 -6.52482,-90.74353 0,0 -8.89043,-105.37035 -27.93762,-109.96375 -19.04719,-4.59339 -126.45252,7.72048 -126.45252,7.72048 z"
     id="path32" />
  <path
     inkscape:connector-curvature="0"
     style="fill:#2f2e41;stroke-width:1.91274989"
     d="m 134.80617,570.70552 -11.48197,19.19407 c 0,0 -19.86517,-5.22991 -15.11867,9.97111 a 312.66936,267.14495 0 0 0 57.01103,-2.94327 c 0,0 7.96067,2.35904 9.30469,-1.70945 1.34403,-4.0685 -4.89244,-17.87177 -9.58127,-17.68474 -4.68883,0.18705 -30.13381,-6.82772 -30.13381,-6.82772 z"
     id="path34" />
  <path
     inkscape:connector-curvature="0"
     style="fill:#2f2e41;stroke-width:1.91274989"
     d="m 225.16505,561.74792 c 0,0 -11.19012,24.53561 -6.42833,25.68397 4.7618,1.14834 47.25316,4.80656 50.45207,6.01724 3.19889,1.2107 18.90125,1.92263 20.02639,-6.152 1.12513,-8.07464 -8.39848,-10.37126 -8.39848,-10.37126 0,0 -17.33831,-1.98495 -22.75683,-15.15173 -5.41854,-13.16676 -32.89482,-0.0262 -32.89482,-0.0262 z"
     id="path36" />
  <ellipse
     style="fill:#ffb8b8;stroke-width:1.91274989"
     cx="119.06402"
     cy="106.78392"
     id="circle38"
     rx="32.725159"
     ry="27.960403" />
  <path
     inkscape:connector-curvature="0"
     style="fill:#ffb8b8;stroke-width:1.91274989"
     d="m 101.84024,120.02834 c 0,0 8.61188,38.2616 5.16709,45.61961 -3.44479,7.35799 48.22656,-2.94321 48.22656,-2.94321 0,0 -10.33419,-38.2616 -8.61189,-47.0912 1.72229,-8.8296 -44.78176,4.4148 -44.78176,4.4148 z"
     id="path40" />
  <path
     inkscape:connector-curvature="0"
     style="fill:#2f2e41;stroke-width:1.91274989"
     d="m 118.07002,72.248824 a 18.496876,15.803744 0 0 0 -8.18623,0.308807 21.345024,18.237205 0 0 0 -5.81771,3.260671 68.092034,58.177887 0 0 1 -9.94701,5.630676 23.20948,19.830198 0 0 0 -7.739515,4.635343 16.468032,14.070299 0 0 0 -2.184414,3.532814 49.54777,42.333654 0 0 0 -2.605111,23.040075 12.39522,10.590485 0 0 0 1.147292,3.16368 c 1.79013,2.81798 5.743936,3.92856 9.074585,5.40573 6.323535,2.80462 11.117023,7.52722 16.303543,11.7009 a 31.872683,27.232046 0 0 0 6.4416,4.2415 c 7.39929,3.44687 16.44343,2.32239 24.74945,1.10354 a 4.4602719,3.8108599 0 0 0 4.45146,-3.84722 l 6.5562,-25.19454 a 48.109326,41.104645 0 0 0 1.68028,-11.458391 c -0.45731,-6.115971 -4.33274,-14.587988 -9.58618,-18.932407 -6.12115,-5.061939 -16.337,-5.867433 -24.33824,-6.591178 z"
     id="path42" />
  <path
     inkscape:connector-curvature="0"
     style="fill:#575a88;stroke-width:1.91274989"
     d="m 93.979369,167.90653 c 0,0 2.450178,-14.65405 17.151291,-15.70077 a 121.20031,103.55365 0 0 0 24.5018,-4.18687 c 1.22503,0 17.15129,1.04667 24.50184,7.32703 0,0 4.90036,6.28031 7.35053,2.09342 2.45018,-4.18688 2.45019,-6.28031 7.35055,-4.18686 4.90036,2.09345 4.90037,-6.28032 13.476,-5.23359 8.57563,1.04672 30.62729,48.14905 30.62729,48.14905 l -7.35056,7.32703 c 0,0 -9.80072,56.52281 7.35056,80.59731 17.15128,24.07451 24.5018,50.24251 7.35052,55.4761 -17.15127,5.23359 -137.210191,52.33593 -132.309821,23.02781 4.900377,-29.30811 1.225037,-75.36375 -3.675265,-76.41047 -4.900322,-1.04672 -31.852372,-83.7375 -31.852372,-83.7375 a 38.051774,32.511465 0 0 1 22.05164,-24.07453 c 19.601458,-7.327 13.475997,-10.46716 13.475997,-10.46716 z"
     id="path44" />
  <path
     inkscape:connector-curvature="0"
     style="fill:#575a88;stroke-width:1.91274989"
     d="m 182.18593,152.20576 6.12545,-4.18687 c 0,0 11.02583,0 12.25091,-2.09346 1.22508,-2.09344 7.35055,-2.09342 12.25092,-4.18686 4.90038,-2.09344 -1.22504,-5.23359 4.90036,-7.32702 6.1254,-2.09344 6.12545,0 6.12545,-5.23361 0,-5.23361 15.92619,-10.46719 17.15128,-16.7475 1.2251,-6.28032 13.47599,-35.588439 13.47599,-35.588439 l 23.27673,6.280316 -6.12547,37.681873 c 0,0 0,18.84094 -11.02581,31.40157 -11.02581,12.56061 -35.52764,43.96218 -47.7785,45.00891 -12.25087,1.04672 -30.62731,-45.00891 -30.62731,-45.00891 z"
     id="path46" />
  <path
     inkscape:connector-curvature="0"
     style="fill:#575a88;stroke-width:1.91274989"
     d="m 65.802351,197.21467 -7.350552,5.23358 c 0,0 -2.450176,23.02782 -2.450176,24.07453 0,1.04671 2.450176,13.60736 0,14.65407 -2.450184,1.0467 -7.350554,21.98109 -6.125456,23.02782 v 0 3.14013 l -17.15128,23.0278 v 21.98111 L 73.152878,290.3726 c 0,0 23.276736,-2.09343 19.601454,-19.88764 -3.675266,-17.79421 -26.951981,-73.27029 -26.951981,-73.27029 z"
     id="path48" />
</svg>
