<?xml version="1.0" encoding="UTF-8" standalone="no"?>
<svg
   xmlns:dc="http://purl.org/dc/elements/1.1/"
   xmlns:cc="http://creativecommons.org/ns#"
   xmlns:rdf="http://www.w3.org/1999/02/22-rdf-syntax-ns#"
   xmlns:svg="http://www.w3.org/2000/svg"
   xmlns="http://www.w3.org/2000/svg"
   xmlns:sodipodi="http://sodipodi.sourceforge.net/DTD/sodipodi-0.dtd"
   xmlns:inkscape="http://www.inkscape.org/namespaces/inkscape"
   id="a77d060e-bfde-44e4-9303-3da9960cf22f"
   data-name="Layer 1"
   width="900"
   height="600"
   viewBox="0 0 900.00001 600.00001"
   version="1.1"
   sodipodi:docname="meeting.svg"
   inkscape:version="0.92.3 (2405546, 2018-03-11)">
  <metadata
     id="metadata53">
    <rdf:RDF>
      <cc:Work
         rdf:about="">
        <dc:format>image/svg+xml</dc:format>
        <dc:type
           rdf:resource="http://purl.org/dc/dcmitype/StillImage" />
        <dc:title></dc:title>
      </cc:Work>
    </rdf:RDF>
  </metadata>
  <defs
     id="defs51" />
  <sodipodi:namedview
     pagecolor="#ffffff"
     bordercolor="#666666"
     borderopacity="1"
     objecttolerance="10"
     gridtolerance="10"
     guidetolerance="10"
     inkscape:pageopacity="0"
     inkscape:pageshadow="2"
     inkscape:window-width="1920"
     inkscape:window-height="1015"
     id="namedview49"
     showgrid="false"
     inkscape:zoom="0.41522926"
     inkscape:cx="423.96786"
     inkscape:cy="284.18036"
     inkscape:window-x="0"
     inkscape:window-y="28"
     inkscape:window-maximized="1"
     inkscape:current-layer="a77d060e-bfde-44e4-9303-3da9960cf22f" />
  <path
     d="M 884.0774,597.59169 H 490.25653 A 12.038118,11.873732 0 0 1 478.23202,585.73138 V 311.14535 a 12.038118,11.873732 0 0 1 12.02451,-11.86031 H 884.0774 a 12.038118,11.873732 0 0 1 12.02453,11.86032 V 585.7314 a 12.038118,11.873732 0 0 1 -12.02453,11.86029 z"
     id="path2"
     inkscape:connector-curvature="0"
     style="fill:#e6e6e6;stroke-width:1.04956365" />
  <path
     d="M 867.68203,315.45493 H 506.65688 a 12.045389,11.880904 0 0 0 -12.02994,11.86561 v 242.23495 a 12.045452,11.880966 0 0 0 12.02994,11.86567 h 361.02515 a 12.037674,11.873294 0 0 0 12.02084,-11.86567 V 327.32054 a 12.037621,11.873242 0 0 0 -12.02084,-11.86561 z"
     id="path4"
     inkscape:connector-curvature="0"
     style="fill:#ffffff;stroke-width:1.04956365" />
  <ellipse
     cx="674.3031"
     cy="419.97891"
     id="circle6"
     style="fill:#a0616a;stroke-width:1.04956365"
     rx="48.481125"
     ry="47.819096" />
  <path
     d="m 730.57581,519.8867 -86.57346,8.53912 c 8.00223,-35.53154 9.94189,-68.72745 0,-97.34603 h 60.60142 c -3.29216,23.84696 9.01306,55.20615 25.97204,88.80691 z"
     id="path8"
     inkscape:connector-curvature="0"
     style="fill:#a0616a;stroke-width:1.04956365" />
  <path
     d="m 790.32207,520.15104 c -1.07962,20.82304 -2.3316,41.30611 -3.87386,61.27011 H 584.02592 q -3.59266,-19.77161 -8.73667,-39.79379 a 18.516961,18.264103 0 0 1 10.38779,-21.21683 l 6.45951,-2.83665 57.05603,-25.01101 0.67134,0.14316 23.57001,4.97534 41.56043,-10.24594 0.72577,0.14316 58.26261,11.75829 a 20.760027,20.47654 0 0 1 4.9717,1.68232 20.483472,20.203761 0 0 1 11.36763,19.13184 z"
     id="path10"
     inkscape:connector-curvature="0"
     style="fill:#ff7a5c;stroke-width:1.04956365" />
  <path
     d="m 821.93925,581.42115 h -43.73783 l -7.80219,-82.03057 a 47.598453,46.948475 0 0 1 41.85076,37.00187 z"
     id="path12"
     inkscape:connector-curvature="0"
     style="fill:#ff7a5c;stroke-width:1.04956365" />
  <path
     d="m 597.12635,581.42115 h -41.94147 l 1.50604,-14.50548 a 56.272109,55.503687 0 0 1 35.364,-50.44251 l 0.0816,1.10075 z"
     id="path14"
     inkscape:connector-curvature="0"
     style="fill:#ff7a5c;stroke-width:1.04956365" />
  <path
     d="m 635.81197,392.73266 c 21.85233,-12.33159 43.73411,-4.45285 65.65395,29.19445 l 4.48133,35.84225 c 32.89791,-30.74085 31.23483,-72.69242 -5.65799,-89.7553 -3.627,-1.67745 -7.14176,-3.58531 -11.08888,-2.9111 -17.06307,-9.01241 -37.46265,-2.24336 -46.01171,12.19178 -6.81613,1.16433 -16.58772,14.52123 -16.23606,21.33559 z"
     id="path16"
     inkscape:connector-curvature="0"
     style="fill:#2f2e41;stroke-width:1.04956365" />
  <ellipse
     cx="699.40936"
     cy="422.54068"
     rx="6.0601368"
     ry="7.6852169"
     id="ellipse18"
     style="fill:#a0616a;stroke-width:1.04956365" />
  <path
     d="M 516.73768,384.96318 H 15.310068 A 15.327389,15.118086 0 0 1 0,369.86217 V 20.248884 A 15.327389,15.118086 0 0 1 15.310068,5.1478926 H 516.73768 A 15.327389,15.118086 0 0 1 532.04775,20.248884 V 369.86217 a 15.327389,15.118086 0 0 1 -15.31007,15.10101 z"
     id="path20"
     inkscape:connector-curvature="0"
     style="fill:#e6e6e6;stroke-width:1.04956365" />
  <path
     d="M 495.86243,25.735987 H 36.191659 A 15.336636,15.127207 0 0 0 20.87468,40.843744 V 349.2664 a 15.336699,15.12727 0 0 0 15.316979,15.10783 H 495.86243 A 15.326829,15.117534 0 0 0 511.16785,349.2664 V 40.843744 A 15.326712,15.117419 0 0 0 495.86243,25.735987 Z"
     id="path22"
     inkscape:connector-curvature="0"
     style="fill:#ffffff;stroke-width:1.04956365" />
  <polygon
     points="162.866,154.068 277.58,109.282 353.705,230.274 219.549,260.975 "
     id="polygon24"
     style="fill:#2f2e41"
     transform="matrix(1.056804,0,0,1.0423729,0,5.1478926)" />
  <ellipse
     cx="254.03838"
     cy="184.11465"
     id="circle26"
     style="fill:#ffb9b9;stroke-width:1.04956365"
     rx="51.354294"
     ry="50.653027" />
  <path
     d="m 248.07305,351.02709 124.66119,-17.75057 c -18.60919,-33.2224 -37.79534,-63.50085 -63.58067,-60.11553 -22.93978,-15.836 -24.26261,-41.29314 -18.4608,-69.92133 l -62.39696,16.45205 c 5.49037,17.64721 3.36671,33.14299 -11.25622,45.10698 20.4319,28.36941 33.65454,57.00562 31.03346,86.2284 z"
     id="path28"
     inkscape:connector-curvature="0"
     style="fill:#ffb9b9;stroke-width:1.04956365" />
  <path
     d="M 398.98209,364.37423 H 201.72117 q -4.19307,-5.55436 -8.91754,-10.7441 c -0.20791,-0.23928 -0.42739,-0.48991 -0.64687,-0.7292 l 5.30199,-73.93258 0.53138,-7.47414 a 10.089519,9.9517424 0 0 1 6.56112,-8.64764 h 0.0115 a 6.5480211,6.4586049 0 0 1 0.91252,-0.30766 l 16.35663,-4.30671 1.6287,-0.43296 0.23104,0.27344 9.18326,10.50479 6.13369,7.02986 27.12234,31.04734 a 28.285951,27.899694 0 0 0 19.42923,9.61613 l 10.03805,0.69499 c 17.76584,1.24186 30.34518,-12.94302 30.34518,-27.99389 a 27.338569,26.965248 0 0 0 -4.51653,-14.8685 27.904149,27.523105 0 0 0 -2.44886,-3.21298 l 11.41265,1.81153 16.35656,2.60915 18.43583,42.74853 c 18.52819,14.4925 30.22962,29.87375 33.799,46.3146 z"
     id="path30"
     inkscape:connector-curvature="0"
     style="fill:#ff7a5c;stroke-width:1.04956365" />
  <polygon
     points="152.415,283.359 175.882,325.791 162.645,338.109 155.639,344.624 94.822,344.624 131.275,305.843 "
     id="polygon32"
     style="fill:#ffb9b9"
     transform="matrix(1.056804,0,0,1.0423729,0,5.1478926)" />
  <path
     d="m 412.48551,364.37423 h -60.50544 l -6.411,-27.21915 -13.66511,-58.0272 -1.51322,-6.42596 -0.0347,-0.14802 14.31202,0.85452 a 44.126197,43.523633 0 0 1 37.46074,25.37333 z"
     id="path34"
     inkscape:connector-curvature="0"
     style="fill:#ff7a5c;stroke-width:1.04956365" />
  <path
     d="m 173.55541,360.05978 59.51295,-19.87338 -20.98279,-70.41366 a 10.13102,9.9926764 0 0 0 -11.00192,-7.09444 v 0 a 10.130936,9.992593 0 0 0 -5.44141,2.43742 l -60.79477,53.20002 c 11.63032,18.88528 24.01329,19.35934 38.70794,41.74404 z"
     id="path36"
     inkscape:connector-curvature="0"
     style="fill:#ff7a5c;stroke-width:1.04956365" />
  <path
     d="m 288.15533,101.87898 c 0,0 31.40697,5.82696 38.67,44.46233 a 71.909173,70.92722 0 0 1 0.61506,19.72763 c -0.72524,7.43689 0.32678,23.14446 16.69837,41.63995 a 410.5039,404.89828 0 0 1 29.80918,37.76028 v 0 l -32.8175,8.61714 -14.66278,-53.63009 a 278.14739,274.34917 0 0 0 -32.50191,-73.6825 l -0.30146,-0.47708 c 0,0 -10.89979,28.72623 -40.11417,32.66429 l 9.00779,-11.69767 c 0,0 -34.15181,19.47272 -53.50071,25.42126 a 12.712813,12.539214 0 0 0 -4.10232,21.8045 q 0.20585,0.15969 0.4193,0.31962 c 14.23156,10.66174 43.26504,36.1017 31.79489,60.71144 -11.47015,24.60975 1.90584,29.09674 1.90584,29.09674 l -24.66529,-9.25528 -11.28927,-4.76829 1.14075,8.23299 -55.11084,1.13881 c 0,0 -14.89238,-0.0892 11.56061,-39.29875 0,0 6.38289,-14.70205 1.14282,-25.93389 -4.01843,-8.61336 -6.5078,-17.86491 -6.10858,-27.33832 1.66595,-39.53061 18.54921,-119.951815 132.41022,-85.51511 z"
     id="path38"
     inkscape:connector-curvature="0"
     style="fill:#2f2e41;stroke-width:1.04956365" />
  <path
     d="m 709.94354,248.874 a 1.0577974,1.0433527 0 0 1 -1.03411,-0.83013 c -5.02807,-23.85548 -22.42818,-45.77839 -48.9938,-61.73056 -26.91548,-16.16137 -61.47317,-25.06225 -97.30647,-25.06225 a 1.0568061,1.042375 0 0 1 0,-2.08475 c 36.21514,0 71.16295,9.00879 98.40559,25.36661 27.07131,16.25502 44.81509,38.65993 49.96495,63.0865 a 1.0578608,1.0434153 0 0 1 -1.03616,1.25461 z"
     id="path40"
     inkscape:connector-curvature="0"
     style="fill:#3f3d56;stroke-width:1.04956365" />
  <polygon
     points="661.281,231.145 673.255,247.094 681.082,228.751 "
     id="polygon42"
     style="fill:#3f3d56"
     transform="matrix(1.056804,0,0,1.0423729,0,5.1478926)" />
  <path
     d="m 439.06784,512.58773 c -36.21514,0 -71.16295,-9.0088 -98.40507,-25.36713 -27.07183,-16.25552 -44.81613,-38.65941 -49.96495,-63.08697 a 1.0566561,1.0422269 0 1 1 2.06922,-0.42346 c 5.02807,23.85547 22.42819,45.77789 48.99484,61.73005 26.91548,16.16186 61.47317,25.06276 97.30595,25.06276 a 1.0568061,1.042375 0 0 1 0,2.08475 z"
     id="path44"
     inkscape:connector-curvature="0"
     style="fill:#3f3d56;stroke-width:1.04956365" />
  <polygon
     points="286.555,403.424 274.581,387.475 266.754,405.818 "
     id="polygon46"
     style="fill:#3f3d56"
     transform="matrix(1.056804,0,0,1.0423729,0,5.1478926)" />
</svg>
