<?xml version="1.0" encoding="UTF-8" standalone="no"?>
<svg
   xmlns:dc="http://purl.org/dc/elements/1.1/"
   xmlns:cc="http://creativecommons.org/ns#"
   xmlns:rdf="http://www.w3.org/1999/02/22-rdf-syntax-ns#"
   xmlns:svg="http://www.w3.org/2000/svg"
   xmlns="http://www.w3.org/2000/svg"
   xmlns:sodipodi="http://sodipodi.sourceforge.net/DTD/sodipodi-0.dtd"
   xmlns:inkscape="http://www.inkscape.org/namespaces/inkscape"
   id="b7da5827-4560-4d63-9360-f6e9beb837fe"
   data-name="Layer 1"
   width="900"
   height="600"
   viewBox="0 0 899.99999 600"
   version="1.1"
   sodipodi:docname="other.svg"
   inkscape:version="0.92.3 (2405546, 2018-03-11)">
  <metadata
     id="metadata145">
    <rdf:RDF>
      <cc:Work
         rdf:about="">
        <dc:format>image/svg+xml</dc:format>
        <dc:type
           rdf:resource="http://purl.org/dc/dcmitype/StillImage" />
        <dc:title>searching</dc:title>
      </cc:Work>
    </rdf:RDF>
  </metadata>
  <defs
     id="defs143" />
  <sodipodi:namedview
     pagecolor="#ffffff"
     bordercolor="#666666"
     borderopacity="1"
     objecttolerance="10"
     gridtolerance="10"
     guidetolerance="10"
     inkscape:pageopacity="0"
     inkscape:pageshadow="2"
     inkscape:window-width="1920"
     inkscape:window-height="1015"
     id="namedview141"
     showgrid="false"
     inkscape:zoom="0.59183834"
     inkscape:cx="625.35537"
     inkscape:cy="124.49202"
     inkscape:window-x="0"
     inkscape:window-y="28"
     inkscape:window-maximized="1"
     inkscape:current-layer="b7da5827-4560-4d63-9360-f6e9beb837fe" />
  <title
     id="title2">searching</title>
  <rect
     x="776.31854"
     y="293.25497"
     width="7.9063277"
     height="289.6134"
     id="rect4"
     style="fill:#3f3d56;stroke-width:0.77442151" />
  <path
     d="m 857.19128,330.16285 c 0.50333,101.27058 -76.3272,183.69673 -76.3272,183.69673 0,0 -77.64647,-81.7659 -78.14976,-183.03649 -0.50331,-101.27059 76.32715,-183.69674 76.32715,-183.69674 0,0 77.64655,81.76591 78.14981,183.0365 z"
     id="path6"
     inkscape:connector-curvature="0"
     style="fill:#3f3d56;stroke-width:0.77442151" />
  <rect
     x="622.07239"
     y="429.52231"
     width="4.0664167"
     height="148.95503"
     id="rect8"
     style="fill:#3f3d56;stroke-width:0.77442151" />
  <path
     d="m 663.66718,448.50485 c 0.25886,52.08586 -39.25688,94.47958 -39.25688,94.47958 0,0 -39.93542,-42.05414 -40.19429,-94.14 -0.25887,-52.08586 39.25688,-94.47958 39.25688,-94.47958 0,0 39.93543,42.05416 40.19429,94.14 z"
     id="path10"
     inkscape:connector-curvature="0"
     style="fill:#3f3d56;stroke-width:0.77442151" />
  <ellipse
     cx="706.2901"
     cy="582.64935"
     rx="110.17288"
     ry="15.661017"
     id="ellipse12"
     style="fill:#3f3d56;stroke-width:0.77442151" />
  <path
     d="m 715.37675,217.64783 c -9.33406,-14.62597 -27.80077,-15.3076 -27.80077,-15.3076 0,0 -17.99475,-2.13399 -29.53828,20.14155 -10.75948,20.76263 -25.60894,40.80937 -2.39063,45.66977 l 4.19389,-12.10506 2.59726,13.00626 a 90.84575,84.246361 0 0 0 9.93425,0.15745 c 24.86492,-0.74447 48.54501,0.2178 47.78253,-8.05661 -1.01355,-10.99967 4.203,-29.43266 -4.77825,-43.50576 z"
     id="path14"
     inkscape:connector-curvature="0"
     style="fill:#2f2e41;stroke-width:0.77442151" />
  <path
     d="m 681.76254,245.19169 c 0,0 12.06271,15.66102 4.82508,28.33899 -7.23764,12.67796 16.88782,26.10168 16.88782,26.10168 l 17.69199,-35.7966 c 0,0 -20.90872,-12.67797 -15.27945,-24.61018 z"
     id="path16"
     inkscape:connector-curvature="0"
     style="fill:#fbbebe;stroke-width:0.77442151" />
  <ellipse
     cx="689.80438"
     cy="232.51373"
     id="circle18"
     style="fill:#fbbebe;stroke-width:0.77442151"
     rx="20.90872"
     ry="19.389832" />
  <path
     d="m 617.4445,254.92827 17.47329,-20.90654 c 0,0 6.15248,-21.91411 15.06334,-20.80316 8.91085,1.11093 -3.51958,26.28053 -3.51958,26.28053 l -17.36185,23.14144 z"
     id="path20"
     inkscape:connector-curvature="0"
     style="fill:#fbbebe;stroke-width:0.77442151" />
  <polygon
     points="871.469,710.015 878.469,747.015 893.469,751.015 889.469,707.015 "
     id="polygon22"
     style="fill:#fbbebe"
     transform="matrix(0.8041816,0,0,0.74576271,5.0689505,3.5533381)" />
  <polygon
     points="1069.469,697.015 1042.469,662.015 1022.469,670.015 1049.469,707.015 1060.469,712.015 "
     id="polygon24"
     style="fill:#fbbebe"
     transform="matrix(0.8041816,0,0,0.74576271,5.0689505,3.5533381)" />
  <path
     d="m 701.06289,287.70017 -13.41464,-16.37646 c 0,0 -25.99026,4.44425 -28.4028,6.68154 -2.41254,2.23729 6.43345,43.25424 6.43345,43.25424 0,0 1.60837,11.18644 8.846,17.15254 l 7.23764,4.47457 59.50944,-11.18643 2.23759,-24.55484 a 69.489421,64.441439 0 0 0 -18.32121,-49.27565 v 0 l -10.35448,1.31271 z"
     id="path26"
     inkscape:connector-curvature="0"
     style="fill:#575a89;stroke-width:0.77442151" />
  <path
     d="m 662.46217,279.49677 -4.0209,-1.49152 -18.49618,-1.49153 c 0,0 -6.43345,-1.49152 -4.82509,-4.47457 1.60836,-2.98306 3.21673,-3.72882 0,-4.47458 -3.21673,-0.74576 -4.0209,-1.49153 -3.21673,-3.72881 0.80418,-2.23729 5.62928,-6.71186 5.62928,-6.71186 l -13.67109,-10.44068 c 0,0 -0.73993,0.48535 -1.93591,1.38332 -6.78764,5.09636 -28.26472,23.48364 -12.53937,41.87091 18.49618,21.62712 40.20908,34.30509 57.90109,29.83051 z"
     id="path28"
     inkscape:connector-curvature="0"
     style="fill:#575a89;stroke-width:0.77442151" />
  <path
     d="m 680.15417,339.15779 v 10.44068 c 0,0 -7.23764,12.67797 -4.82509,24.61017 2.41255,11.9322 3.21673,17.89831 3.21673,17.89831 a 109.79758,101.82145 0 0 0 5.62927,29.8305 c 5.62927,14.91526 -12.8669,112.61018 10.45436,114.1017 23.32127,1.49153 36.18817,2.98305 43.4258,-4.47458 7.23764,-7.45762 -12.06272,-135.72881 -12.06272,-135.72881 0,0 65.94289,127.52542 79.61397,122.30508 13.67108,-5.22034 48.25089,-17.15254 44.22998,-23.8644 C 845.81556,487.56457 744.4887,338.41203 744.4887,338.41203 l -3.21672,-6.71186 z"
     id="path30"
     inkscape:connector-curvature="0"
     style="fill:#2f2e41;stroke-width:0.77442151" />
  <path
     d="m 718.75489,555.42898 c 0,0 -12.86691,-0.74576 -12.86691,2.98305 0,3.72881 -6.43345,16.40678 -6.43345,16.40678 0,0 -4.82509,14.91525 8.04182,13.42373 12.8669,-1.49153 20.90872,-14.91526 20.90872,-14.91526 l -3.21673,-14.16949 z"
     id="path32"
     inkscape:connector-curvature="0"
     style="fill:#2f2e41;stroke-width:0.77442151" />
  <path
     d="m 853.0532,529.32728 c 0,0 -11.25855,-6.71186 -10.45436,-2.23729 0.80418,4.47458 1.60836,16.40678 7.23763,17.15255 5.62927,0.74576 22.51709,5.22034 23.32126,6.71187 0.80419,1.49152 20.10455,7.45762 20.10455,-2.23729 0,-9.69492 -12.06273,-17.15255 -12.06273,-17.15255 l -13.67108,-9.69491 c 0,0 -8.84601,-0.74576 -10.45436,4.47457 -1.60837,5.22034 -4.02091,2.98305 -4.02091,2.98305 z"
     id="path34"
     inkscape:connector-curvature="0"
     style="fill:#2f2e41;stroke-width:0.77442151" />
  <ellipse
     cx="689.83612"
     cy="202.41431"
     id="circle36"
     style="fill:#2f2e41;stroke-width:0.77442151"
     rx="13.352438"
     ry="12.382465" />
  <path
     d="m 675.07815,199.15576 a 13.352961,12.382949 0 0 1 11.94692,-12.31286 13.487887,12.508074 0 0 0 -1.40552,-0.0696 13.352443,12.38247 0 1 0 0,24.76494 13.487887,12.508074 0 0 0 1.40552,-0.0696 13.352969,12.382957 0 0 1 -11.94692,-12.31286 z"
     id="path38"
     inkscape:connector-curvature="0"
     style="fill:#2f2e41;stroke-width:0.77442151" />
  <polygon
     points="850.048,288.972 852.749,306.797 879.217,306.257 878.136,285.191 855.45,273.307 824.12,278.169 817.638,306.797 833.774,306.176 838.282,295.659 838.282,306.003 845.727,305.717 "
     id="polygon40"
     style="fill:#2f2e41"
     transform="matrix(0.8041816,0,0,0.74576271,5.0689505,3.5533381)" />
  <path
     d="m 710.15757,340.88552 -28.13608,0.70543 c 0,0 -24.00796,4.33213 -22.66099,-4.6541 1.34698,-8.98621 24.76839,-5.84323 24.76839,-5.84323 l 25.63748,-3.62693 z"
     id="path42"
     inkscape:connector-curvature="0"
     style="fill:#fbbebe;stroke-width:0.77442151" />
  <path
     d="m 732.41895,256.60549 a 6.0045586,5.5683641 0 0 1 6.62312,3.82427 c 5.50822,16.09654 22.4775,69.96251 5.61747,77.35264 -19.85812,8.70427 -34.34981,8.32157 -34.34981,8.32157 l -7.7566,-17.71038 7.06112,-6.14531 7.53873,-44.95113 3.61239,-19.0546 z"
     id="path44"
     inkscape:connector-curvature="0"
     style="fill:#575a89;stroke-width:0.77442151" />
  <polygon
     points="897.969,379.515 893.969,419.515 858.969,434.515 897.969,425.515 "
     id="polygon46"
     style="opacity:0.4"
     transform="matrix(0.8041816,0,0,0.74576271,5.0689505,3.5533381)" />
  <path
     d="m 575.40605,188.10178 v 0 a 37.667818,34.931481 0 0 1 21.99636,14.81801 l 2.63034,3.7778 0.13236,0.15625 46.14805,12.52239 a 3.3637951,3.1194359 0 0 1 2.30059,3.81469 l -3.58273,12.18204 a 3.3637951,3.1194359 0 0 1 -4.15077,2.18348 l -46.15962,-11.96493 -8.1e-4,0.002 -4.63599,1.62539 a 41.427633,38.418167 0 0 1 -26.63599,0.83949 v 0 z"
     id="path48"
     inkscape:connector-curvature="0"
     style="fill:#3f3d56;stroke-width:0.77442151" />
  <ellipse
     cx="-52.260658"
     cy="657.60999"
     rx="2.6300483"
     ry="5.2545571"
     transform="matrix(0.30090646,-0.95365366,0.96509982,0.2618823,0,0)"
     id="ellipse50"
     style="fill:#575a89;stroke-width:0.77474189" />
  <ellipse
     cx="621.64789"
     cy="222.9118"
     id="circle52"
     style="fill:#3f3d56;stroke-width:0.77442151"
     rx="1.9374021"
     ry="1.7966616" />
  <ellipse
     cx="-35.45681"
     cy="606.96027"
     rx="21.110415"
     ry="10.147107"
     transform="matrix(0.33006501,-0.9439582,0.95764043,0.28796669,0,0)"
     id="ellipse54"
     style="fill:#ff7a5c;stroke-width:0.77480114" />
  <path
     d="m 577.82963,210.78692 c 3.70802,-10.60459 2.69954,-20.48774 -2.18006,-22.6377 a 4.7378198,4.3936462 0 0 1 0.86493,0.1775 c 5.36669,1.61383 6.5977,11.8438 2.7495,22.84942 -3.8482,11.00562 -11.31836,18.61909 -16.68508,17.00531 a 4.7152545,4.37272 0 0 1 -0.56941,-0.21168 c 5.27885,0.62335 12.17459,-6.75692 15.82012,-17.18285 z"
     id="path56"
     inkscape:connector-curvature="0"
     style="opacity:0.4;stroke-width:0.77442151" />
  <path
     d="M 576.01265,188.14085 471.27784,112.79999 A 693.14158,642.78907 0 0 1 418.02886,70.004017 C 388.17337,43.613183 347.64412,22.513259 300.45652,11.279462 185.81143,-16.013701 94.989205,32.380401 53.680651,103.43952 -9.4432381,212.02546 -57.819297,388.23093 222.07145,294.43688 283.28321,273.92422 345.24376,271.74383 392.22497,260.93891 l 170.11658,-32.52688 z"
     id="path58"
     inkscape:connector-curvature="0"
     style="fill:#ff7a5c;stroke-width:0.77442151" />
  <ellipse
     cx="261.57767"
     cy="56.14085"
     id="circle60"
     style="fill:#f2f2f2;stroke-width:0.77442151"
     rx="5.629271"
     ry="5.2203393" />
  <polygon
     points="452.771,88.873 453.127,88.873 453.127,87.051 454.949,87.051 454.949,86.695 453.127,86.695 453.127,84.873 452.771,84.873 452.771,86.695 450.949,86.695 450.949,87.051 452.771,87.051 "
     id="polygon62"
     style="fill:#f2f2f2"
     transform="matrix(0.8041816,0,0,0.74576271,5.0689505,3.5533381)" />
  <polygon
     points="635.771,240.873 636.127,240.873 636.127,239.051 637.949,239.051 637.949,238.695 636.127,238.695 636.127,236.873 635.771,236.873 635.771,238.695 633.949,238.695 633.949,239.051 635.771,239.051 "
     id="polygon64"
     style="fill:#f2f2f2"
     transform="matrix(0.8041816,0,0,0.74576271,5.0689505,3.5533381)" />
  <polygon
     points="622.771,287.873 623.127,287.873 623.127,286.051 624.949,286.051 624.949,285.695 623.127,285.695 623.127,283.873 622.771,283.873 622.771,285.695 620.949,285.695 620.949,286.051 622.771,286.051 "
     id="polygon66"
     style="fill:#f2f2f2"
     transform="matrix(0.8041816,0,0,0.74576271,5.0689505,3.5533381)" />
  <polygon
     points="63.771,327.873 64.127,327.873 64.127,326.051 65.949,326.051 65.949,325.695 64.127,325.695 64.127,323.873 63.771,323.873 63.771,325.695 61.949,325.695 61.949,326.051 63.771,326.051 "
     id="polygon68"
     style="fill:#f2f2f2"
     transform="matrix(0.8041816,0,0,0.74576271,5.0689505,3.5533381)" />
  <polygon
     points="143.771,109.873 144.127,109.873 144.127,108.051 145.949,108.051 145.949,107.695 144.127,107.695 144.127,105.873 143.771,105.873 143.771,107.695 141.949,107.695 141.949,108.051 143.771,108.051 "
     id="polygon70"
     style="fill:#f2f2f2"
     transform="matrix(0.8041816,0,0,0.74576271,5.0689505,3.5533381)" />
  <polygon
     points="454.771,295.873 455.127,295.873 455.127,294.051 456.949,294.051 456.949,293.695 455.127,293.695 455.127,291.873 454.771,291.873 454.771,293.695 452.949,293.695 452.949,294.051 454.771,294.051 "
     id="polygon72"
     style="fill:#f2f2f2"
     transform="matrix(0.8041816,0,0,0.74576271,5.0689505,3.5533381)" />
  <polygon
     points="263.771,45.873 264.127,45.873 264.127,44.051 265.949,44.051 265.949,43.695 264.127,43.695 264.127,41.873 263.771,41.873 263.771,43.695 261.949,43.695 261.949,44.051 263.771,44.051 "
     id="polygon74"
     style="fill:#f2f2f2"
     transform="matrix(0.8041816,0,0,0.74576271,5.0689505,3.5533381)" />
  <path
     d="m 219.50337,143.51286 -1.82549,0.26102 c 0.57097,3.38576 1.02131,6.8461 1.35103,10.26915 l 1.84157,-0.14915 c -0.32973,-3.46778 -0.78811,-6.95795 -1.36711,-10.38102 z"
     id="path76"
     inkscape:connector-curvature="0"
     style="fill:#e6e6e6;stroke-width:0.77442151" />
  <path
     d="m 214.50939,123.12369 -1.76921,0.49966 c 1.06958,3.28135 2.02654,6.64475 2.83877,9.99322 l 1.80941,-0.38033 c -0.82832,-3.38575 -1.80134,-6.78643 -2.87897,-10.11255 z"
     id="path78"
     inkscape:connector-curvature="0"
     style="fill:#e6e6e6;stroke-width:0.77442151" />
  <path
     d="m 206.53997,103.56982 -1.68074,0.71593 c 1.54403,3.12474 2.99156,6.33152 4.30237,9.5383 l 1.72899,-0.60406 c -1.32685,-3.2441 -2.78243,-6.49561 -4.35062,-9.65017 z"
     id="path80"
     inkscape:connector-curvature="0"
     style="fill:#e6e6e6;stroke-width:0.77442151" />
  <path
     d="m 195.76392,85.238953 -1.56011,0.917288 c 1.98633,2.893515 3.89224,5.891526 5.66144,8.896949 l 1.62444,-0.820338 c -1.78526,-3.042682 -3.71532,-6.070524 -5.72577,-8.993899 z"
     id="path82"
     inkscape:connector-curvature="0"
     style="fill:#e6e6e6;stroke-width:0.77442151" />
  <path
     d="m 182.36631,68.436938 -1.40731,1.111187 c 2.39646,2.610169 4.72858,5.339661 6.93204,8.098986 l 1.4797,-1.021695 c -2.21963,-2.789163 -4.57587,-5.548492 -7.00443,-8.188478 z"
     id="path84"
     inkscape:connector-curvature="0"
     style="fill:#e6e6e6;stroke-width:0.77442151" />
  <path
     d="m 166.62038,53.476938 -1.2304,1.275255 c 2.76638,2.289491 5.47648,4.698304 8.05791,7.151864 l 1.32689,-1.200677 c -2.61353,-2.483399 -5.35585,-4.914592 -8.1544,-7.226442 z"
     id="path86"
     inkscape:connector-curvature="0"
     style="fill:#e6e6e6;stroke-width:0.77442151" />
  <path
     d="m 148.83189,40.634882 -1.03739,1.41695 c 3.07198,1.916609 6.11178,3.96 9.03096,6.070508 l 1.14194,-1.349875 c -2.9594,-2.132837 -6.03137,-4.19857 -9.13551,-6.137583 z"
     id="path88"
     inkscape:connector-curvature="0"
     style="fill:#e6e6e6;stroke-width:0.77442151" />
  <path
     d="m 132.64371,31.71559 v 1.938983 c 1.92199,0.932204 3.8279,1.909153 5.6936,2.908475 l 0.92482,-1.484068 q -3.25697,-1.745123 -6.61842,-3.36339 z"
     id="path90"
     inkscape:connector-curvature="0"
     style="fill:#e6e6e6;stroke-width:0.77442151" />
  <path
     d="m 219.62799,164.62222 1.84852,-0.0312 c 0.0339,1.731 0.0365,3.47116 0.007,5.17267 l -1.84837,-0.0268 c 0.0281,-1.68213 0.0256,-3.40301 -0.008,-5.11473 z"
     id="path92"
     inkscape:connector-curvature="0"
     style="fill:#e6e6e6;stroke-width:0.77442151" />
  <path
     d="m 110.93886,290.42811 -1.8255,0.26102 c 0.57097,3.38576 1.02131,6.8461 1.35103,10.26915 l 1.84158,-0.14915 c -0.32974,-3.46778 -0.78812,-6.95794 -1.36711,-10.38102 z"
     id="path94"
     inkscape:connector-curvature="0"
     style="fill:#e6e6e6;stroke-width:0.77442151" />
  <path
     d="m 105.94487,270.03894 -1.7692,0.49967 c 1.06956,3.28135 2.02654,6.64474 2.83876,9.99322 l 1.80941,-0.38035 c -0.82831,-3.38574 -1.80131,-6.78642 -2.87897,-10.11254 z"
     id="path96"
     inkscape:connector-curvature="0"
     style="fill:#e6e6e6;stroke-width:0.77442151" />
  <path
     d="m 97.975497,250.48507 -1.680735,0.71593 c 1.544024,3.12475 2.991552,6.33153 4.302368,9.53831 l 1.72899,-0.60407 c -1.3269,-3.2441 -2.782472,-6.49561 -4.350623,-9.65017 z"
     id="path98"
     inkscape:connector-curvature="0"
     style="fill:#e6e6e6;stroke-width:0.77442151" />
  <path
     d="m 87.199409,232.15421 -1.560112,0.91728 c 1.986322,2.89352 3.892237,5.89153 5.66144,8.89695 l 1.624443,-0.82033 c -1.785229,-3.04269 -3.715322,-6.07053 -5.725771,-8.9939 z"
     id="path100"
     inkscape:connector-curvature="0"
     style="fill:#e6e6e6;stroke-width:0.77442151" />
  <path
     d="m 73.801797,215.35219 -1.407318,1.11119 c 2.396462,2.61018 4.728588,5.33967 6.932046,8.09899 l 1.479697,-1.0217 c -2.219625,-2.78916 -4.575869,-5.54849 -7.004425,-8.18848 z"
     id="path102"
     inkscape:connector-curvature="0"
     style="fill:#e6e6e6;stroke-width:0.77442151" />
  <path
     d="m 58.055865,200.39219 -1.230398,1.27526 c 2.766385,2.28949 5.476477,4.69831 8.057899,7.15187 l 1.3269,-1.20068 c -2.613534,-2.4834 -5.355858,-4.9146 -8.154401,-7.22645 z"
     id="path104"
     inkscape:connector-curvature="0"
     style="fill:#e6e6e6;stroke-width:0.77442151" />
  <path
     d="m 40.267376,187.55014 -1.037394,1.41695 c 3.071933,1.91661 6.11178,3.96 9.030959,6.07051 l 1.141938,-1.34988 c -2.959396,-2.13283 -6.03137,-4.19857 -9.135503,-6.13758 z"
     id="path106"
     inkscape:connector-curvature="0"
     style="fill:#e6e6e6;stroke-width:0.77442151" />
  <path
     d="m 24.079192,178.63085 v 1.93899 c 1.921994,0.93219 3.827905,1.90914 5.693606,2.90847 l 0.924809,-1.48407 q -3.256968,-1.74512 -6.618415,-3.36339 z"
     id="path108"
     inkscape:connector-curvature="0"
     style="fill:#e6e6e6;stroke-width:0.77442151" />
  <path
     d="m 111.06347,311.53747 1.84851,-0.0312 c 0.0339,1.73099 0.0365,3.47116 0.007,5.17266 l -1.84836,-0.0268 c 0.0282,-1.68213 0.0256,-3.40301 -0.008,-5.11474 z"
     id="path110"
     inkscape:connector-curvature="0"
     style="fill:#e6e6e6;stroke-width:0.77442151" />
  <path
     d="m 482.47075,216.59761 -1.82549,0.26102 c 0.57097,3.38576 1.02132,6.84609 1.35103,10.26914 l 1.84157,-0.14915 c -0.32973,-3.46778 -0.78811,-6.95794 -1.36711,-10.38101 z"
     id="path112"
     inkscape:connector-curvature="0"
     style="fill:#e6e6e6;stroke-width:0.77442151" />
  <path
     d="m 477.47677,196.20843 -1.7692,0.49967 c 1.06957,3.28135 2.02654,6.64475 2.83876,9.99322 l 1.80941,-0.38033 c -0.82832,-3.38576 -1.8013,-6.78644 -2.87897,-10.11256 z"
     id="path114"
     inkscape:connector-curvature="0"
     style="fill:#e6e6e6;stroke-width:0.77442151" />
  <path
     d="m 469.50739,176.65456 -1.68073,0.71594 c 1.54402,3.12474 2.99155,6.33152 4.30237,9.5383 l 1.72899,-0.60407 c -1.3269,-3.2441 -2.78247,-6.4956 -4.35063,-9.65017 z"
     id="path116"
     inkscape:connector-curvature="0"
     style="fill:#e6e6e6;stroke-width:0.77442151" />
  <path
     d="m 458.73131,158.3237 -1.56012,0.91729 c 1.98634,2.89351 3.89224,5.89152 5.66144,8.89695 l 1.62445,-0.82034 c -1.78522,-3.04268 -3.71531,-6.07053 -5.72577,-8.9939 z"
     id="path118"
     inkscape:connector-curvature="0"
     style="fill:#e6e6e6;stroke-width:0.77442151" />
  <path
     d="m 445.3337,141.52169 -1.40732,1.11118 c 2.39646,2.61018 4.72858,5.33967 6.93205,8.09899 l 1.47969,-1.0217 c -2.21962,-2.78916 -4.57586,-5.54848 -7.00442,-8.18847 z"
     id="path120"
     inkscape:connector-curvature="0"
     style="fill:#e6e6e6;stroke-width:0.77442151" />
  <path
     d="m 429.58776,126.56169 -1.2304,1.27525 c 2.76639,2.28949 5.47648,4.69831 8.05791,7.15187 l 1.32689,-1.20068 c -2.61353,-2.4834 -5.35585,-4.91459 -8.1544,-7.22644 z"
     id="path122"
     inkscape:connector-curvature="0"
     style="fill:#e6e6e6;stroke-width:0.77442151" />
  <path
     d="m 411.79927,113.71963 -1.03739,1.41695 c 3.07198,1.91661 6.11179,3.96 9.03096,6.07051 l 1.14194,-1.34987 c -2.9594,-2.13284 -6.03137,-4.19857 -9.13551,-6.13759 z"
     id="path124"
     inkscape:connector-curvature="0"
     style="fill:#e6e6e6;stroke-width:0.77442151" />
  <path
     d="m 395.61109,104.80034 v 1.93898 c 1.92199,0.93221 3.82791,1.90915 5.69361,2.90848 l 0.92481,-1.48407 q -3.25697,-1.74512 -6.61842,-3.36339 z"
     id="path126"
     inkscape:connector-curvature="0"
     style="fill:#e6e6e6;stroke-width:0.77442151" />
  <path
     d="m 482.59538,237.70696 1.84851,-0.0312 c 0.0339,1.73099 0.0365,3.47116 0.007,5.17266 l -1.84837,-0.0268 c 0.0281,-1.68213 0.0256,-3.40301 -0.008,-5.11474 z"
     id="path128"
     inkscape:connector-curvature="0"
     style="fill:#e6e6e6;stroke-width:0.77442151" />
  <polygon
     points="147.269,201.921 147.6,201.921 147.6,200.225 149.295,200.225 149.295,199.895 147.6,199.895 147.6,198.199 147.269,198.199 147.269,199.895 145.573,199.895 145.573,200.225 147.269,200.225 "
     id="polygon130"
     style="fill:#f2f2f2"
     transform="matrix(0.8041816,0,0,0.74576271,5.0689505,3.5533381)" />
  <polygon
     points="127.728,304.278 128.059,304.278 128.059,302.583 129.754,302.583 129.754,302.252 128.059,302.252 128.059,300.556 127.728,300.556 127.728,302.252 126.032,302.252 126.032,302.583 127.728,302.583 "
     id="polygon132"
     style="fill:#f2f2f2"
     transform="matrix(0.8041816,0,0,0.74576271,5.0689505,3.5533381)" />
  <polygon
     points="70.39,393.986 70.721,393.986 70.721,392.29 72.417,392.29 72.417,391.959 70.721,391.959 70.721,390.264 70.39,390.264 70.39,391.959 68.695,391.959 68.695,392.29 70.39,392.29 "
     id="polygon134"
     style="fill:#f2f2f2"
     transform="matrix(0.8041816,0,0,0.74576271,5.0689505,3.5533381)" />
  <path
     d="m 191.57361,211.01177 a 98.762476,91.587984 0 1 1 45.8237,34.11967 31.946918,29.62617 0 1 1 -45.8237,-34.11967 z"
     id="path136"
     inkscape:connector-curvature="0"
     style="fill:#3f3d56;stroke-width:0.77442151" />
  <path
     d="m 272.96444,107.54022 c 22.64093,0 38.21793,11.6459 38.21793,28.38688 0,11.086 -5.79608,18.75662 -16.96561,24.85952 -10.50539,5.65498 -14.06755,9.79822 -14.06755,16.96493 v 0 a 4.7696735,4.4231858 0 0 1 -4.76968,4.42319 h -11.57455 a 4.7696815,4.4231932 0 0 1 -4.76678,-4.26898 l -0.0206,-0.54615 c -1.02639,-11.53396 3.32067,-18.70062 14.2487,-24.63552 10.20351,-5.65498 14.49019,-9.23834 14.49019,-16.18108 0,-6.94275 -7.24509,-12.03783 -16.24109,-12.03783 -6.83756,0 -12.24874,3.08644 -14.73075,8.12553 a 10.657401,9.8832054 0 0 1 -9.74026,5.64798 v 0 c -7.84237,0 -13.02313,-7.73399 -9.3555,-14.16239 5.80167,-10.16897 18.04282,-16.57608 35.2755,-16.57608 z m -15.87885,95.96667 c 0,-6.43883 5.79609,-11.53392 12.92043,-11.53392 7.18473,0 12.98079,5.03912 12.98079,11.53392 0,6.49481 -5.79608,11.53396 -12.9808,11.53396 -7.18473,0 -12.92042,-5.03911 -12.92042,-11.53396 z"
     id="path138"
     inkscape:connector-curvature="0"
     style="fill:#ff7a5c;stroke-width:0.77442151" />
</svg>
