<?xml version="1.0" encoding="UTF-8" standalone="no"?>
<svg
   xmlns:dc="http://purl.org/dc/elements/1.1/"
   xmlns:cc="http://creativecommons.org/ns#"
   xmlns:rdf="http://www.w3.org/1999/02/22-rdf-syntax-ns#"
   xmlns:svg="http://www.w3.org/2000/svg"
   xmlns="http://www.w3.org/2000/svg"
   xmlns:xlink="http://www.w3.org/1999/xlink"
   xmlns:sodipodi="http://sodipodi.sourceforge.net/DTD/sodipodi-0.dtd"
   xmlns:inkscape="http://www.inkscape.org/namespaces/inkscape"
   id="55370fff-d7e2-4a7c-8080-55f1e259b78c"
   data-name="Layer 1"
   width="900"
   height="600"
   viewBox="0 0 900.00005 600.00002"
   version="1.1"
   sodipodi:docname="repair.svg"
   inkscape:version="0.92.3 (2405546, 2018-03-11)">
  <metadata
     id="metadata255">
    <rdf:RDF>
      <cc:Work
         rdf:about="">
        <dc:format>image/svg+xml</dc:format>
        <dc:type
           rdf:resource="http://purl.org/dc/dcmitype/StillImage" />
        <dc:title>building_blocks</dc:title>
      </cc:Work>
    </rdf:RDF>
  </metadata>
  <sodipodi:namedview
     pagecolor="#ffffff"
     bordercolor="#666666"
     borderopacity="1"
     objecttolerance="10"
     gridtolerance="10"
     guidetolerance="10"
     inkscape:pageopacity="0"
     inkscape:pageshadow="2"
     inkscape:window-width="1920"
     inkscape:window-height="1015"
     id="namedview253"
     showgrid="false"
     inkscape:zoom="0.35950479"
     inkscape:cx="520.15997"
     inkscape:cy="324.57999"
     inkscape:window-x="0"
     inkscape:window-y="28"
     inkscape:window-maximized="1"
     inkscape:current-layer="55370fff-d7e2-4a7c-8080-55f1e259b78c" />
  <defs
     id="defs10">
    <linearGradient
       id="e2bf1f7d-47c1-4d5e-a8e7-eb090eb66cd5"
       x1="722.82001"
       y1="71.75"
       x2="722.82001"
       y2="27.57"
       gradientUnits="userSpaceOnUse">
      <stop
         offset="0"
         stop-color="gray"
         stop-opacity="0.25"
         id="stop2" />
      <stop
         offset="0.54"
         stop-color="gray"
         stop-opacity="0.12"
         id="stop4" />
      <stop
         offset="1"
         stop-color="gray"
         stop-opacity="0.1"
         id="stop6" />
    </linearGradient>
    <linearGradient
       id="a3595478-8223-4729-894e-2a36a16c8458"
       x1="885.65997"
       y1="728.41998"
       x2="885.65997"
       y2="125.42"
       xlink:href="#e2bf1f7d-47c1-4d5e-a8e7-eb090eb66cd5"
       gradientTransform="matrix(0.85561499,0,0,0.90232472,-68.312301,-98.922662)" />
    <linearGradient
       inkscape:collect="always"
       xlink:href="#e2bf1f7d-47c1-4d5e-a8e7-eb090eb66cd5"
       id="linearGradient1062"
       gradientUnits="userSpaceOnUse"
       x1="722.82001"
       y1="71.75"
       x2="722.82001"
       y2="27.57"
       gradientTransform="matrix(0.85561499,0,0,0.90232472,0,14.246902)" />
  </defs>
  <title
     id="title12">building_blocks</title>
  <rect
     x="137.1722"
     y="382.53979"
     width="88.128342"
     height="36.995316"
     rx="7.5636368"
     ry="7.9765506"
     id="rect14"
     style="fill:#ff7a5c;stroke-width:0.87865955" />
  <rect
     x="225.30055"
     y="382.53979"
     width="88.128342"
     height="36.995316"
     rx="7.5636368"
     ry="7.9765506"
     id="rect16"
     style="fill:#ff7a5c;stroke-width:0.87865955" />
  <rect
     x="225.30055"
     y="382.53979"
     width="88.128342"
     height="36.995316"
     rx="7.5636368"
     ry="7.9765506"
     id="rect18"
     style="opacity:0.1;stroke-width:0.87865955" />
  <rect
     x="313.42889"
     y="382.53979"
     width="88.128342"
     height="36.995316"
     rx="7.5636368"
     ry="7.9765506"
     id="rect20"
     style="fill:#ff7a5c;stroke-width:0.87865955" />
  <rect
     x="401.55722"
     y="382.53979"
     width="88.128342"
     height="36.995316"
     rx="7.5636368"
     ry="7.9765506"
     id="rect22"
     style="fill:#ff7a5c;stroke-width:0.87865955" />
  <rect
     x="401.55722"
     y="382.53979"
     width="88.128342"
     height="36.995316"
     rx="7.5636368"
     ry="7.9765506"
     id="rect24"
     style="opacity:0.1;stroke-width:0.87865955" />
  <rect
     x="489.68558"
     y="382.53979"
     width="88.128342"
     height="36.995316"
     rx="7.5636368"
     ry="7.9765506"
     id="rect26"
     style="fill:#ff7a5c;stroke-width:0.87865955" />
  <rect
     x="577.8139"
     y="382.53979"
     width="88.128342"
     height="36.995316"
     rx="7.5636368"
     ry="7.9765506"
     id="rect28"
     style="fill:#ff7a5c;stroke-width:0.87865955" />
  <rect
     x="577.8139"
     y="382.53979"
     width="88.128342"
     height="36.995316"
     rx="7.5636368"
     ry="7.9765506"
     id="rect30"
     style="opacity:0.1;stroke-width:0.87865955" />
  <rect
     x="-665.94226"
     y="-382.53979"
     width="88.128342"
     height="36.995316"
     rx="7.5636368"
     ry="7.9765506"
     transform="scale(-1)"
     id="rect32"
     style="fill:#ff7a5c;stroke-width:0.87865955" />
  <rect
     x="-577.8139"
     y="-382.53979"
     width="88.128342"
     height="36.995316"
     rx="7.5636368"
     ry="7.9765506"
     transform="scale(-1)"
     id="rect34"
     style="fill:#ff7a5c;stroke-width:0.87865955" />
  <rect
     x="-577.8139"
     y="-382.53979"
     width="88.128342"
     height="36.995316"
     rx="7.5636368"
     ry="7.9765506"
     transform="scale(-1)"
     id="rect36"
     style="opacity:0.1;stroke-width:0.87865955" />
  <rect
     x="-489.68558"
     y="-382.53979"
     width="88.128342"
     height="36.995316"
     rx="7.5636368"
     ry="7.9765506"
     transform="scale(-1)"
     id="rect38"
     style="fill:#ff7a5c;stroke-width:0.87865955" />
  <rect
     x="-401.55722"
     y="-382.53979"
     width="88.128342"
     height="36.995316"
     rx="7.5636368"
     ry="7.9765506"
     transform="scale(-1)"
     id="rect40"
     style="fill:#ff7a5c;stroke-width:0.87865955" />
  <rect
     x="-401.55722"
     y="-382.53979"
     width="88.128342"
     height="36.995316"
     rx="7.5636368"
     ry="7.9765506"
     transform="scale(-1)"
     id="rect42"
     style="opacity:0.1;stroke-width:0.87865955" />
  <rect
     x="-313.42889"
     y="-382.53979"
     width="88.128342"
     height="36.995316"
     rx="7.5636368"
     ry="7.9765506"
     transform="scale(-1)"
     id="rect44"
     style="fill:#ff7a5c;stroke-width:0.87865955" />
  <rect
     x="-225.30055"
     y="-382.53979"
     width="88.128342"
     height="36.995316"
     rx="7.5636368"
     ry="7.9765506"
     transform="scale(-1)"
     id="rect46"
     style="fill:#ff7a5c;stroke-width:0.87865955" />
  <rect
     x="-225.30055"
     y="-382.53979"
     width="88.128342"
     height="36.995316"
     rx="7.5636368"
     ry="7.9765506"
     transform="scale(-1)"
     id="rect48"
     style="opacity:0.1;stroke-width:0.87865955" />
  <rect
     x="137.1722"
     y="308.54913"
     width="88.128342"
     height="36.995316"
     rx="7.5636368"
     ry="7.9765506"
     id="rect50"
     style="fill:#ff7a5c;stroke-width:0.87865955" />
  <rect
     x="225.30055"
     y="308.54913"
     width="88.128342"
     height="36.995316"
     rx="7.5636368"
     ry="7.9765506"
     id="rect52"
     style="fill:#ff7a5c;stroke-width:0.87865955" />
  <rect
     x="225.30055"
     y="308.54913"
     width="88.128342"
     height="36.995316"
     rx="7.5636368"
     ry="7.9765506"
     id="rect54"
     style="opacity:0.1;stroke-width:0.87865955" />
  <rect
     x="313.42889"
     y="308.54913"
     width="88.128342"
     height="36.995316"
     rx="7.5636368"
     ry="7.9765506"
     id="rect56"
     style="fill:#ff7a5c;stroke-width:0.87865955" />
  <rect
     x="401.55722"
     y="308.54913"
     width="88.128342"
     height="36.995316"
     rx="7.5636368"
     ry="7.9765506"
     id="rect58"
     style="fill:#ff7a5c;stroke-width:0.87865955" />
  <rect
     x="401.55722"
     y="308.54913"
     width="88.128342"
     height="36.995316"
     rx="7.5636368"
     ry="7.9765506"
     id="rect60"
     style="opacity:0.1;stroke-width:0.87865955" />
  <rect
     x="489.68558"
     y="308.54913"
     width="88.128342"
     height="36.995316"
     rx="7.5636368"
     ry="7.9765506"
     id="rect62"
     style="fill:#ff7a5c;stroke-width:0.87865955" />
  <rect
     x="577.8139"
     y="308.54913"
     width="88.128342"
     height="36.995316"
     rx="7.5636368"
     ry="7.9765506"
     id="rect64"
     style="fill:#ff7a5c;stroke-width:0.87865955" />
  <rect
     x="577.8139"
     y="308.54913"
     width="88.128342"
     height="36.995316"
     rx="7.5636368"
     ry="7.9765506"
     id="rect66"
     style="opacity:0.1;stroke-width:0.87865955" />
  <rect
     x="-665.94226"
     y="-308.54913"
     width="88.128342"
     height="36.995316"
     rx="7.5636368"
     ry="7.9765506"
     transform="scale(-1)"
     id="rect68"
     style="fill:#ff7a5c;stroke-width:0.87865955" />
  <rect
     x="-577.8139"
     y="-308.54913"
     width="88.128342"
     height="36.995316"
     rx="7.5636368"
     ry="7.9765506"
     transform="scale(-1)"
     id="rect70"
     style="fill:#ff7a5c;stroke-width:0.87865955" />
  <rect
     x="-577.8139"
     y="-308.54913"
     width="88.128342"
     height="36.995316"
     rx="7.5636368"
     ry="7.9765506"
     transform="scale(-1)"
     id="rect72"
     style="opacity:0.1;stroke-width:0.87865955" />
  <rect
     x="-489.68558"
     y="-308.54913"
     width="88.128342"
     height="36.995316"
     rx="7.5636368"
     ry="7.9765506"
     transform="scale(-1)"
     id="rect74"
     style="fill:#ff7a5c;stroke-width:0.87865955" />
  <rect
     x="-401.55722"
     y="-308.54913"
     width="88.128342"
     height="36.995316"
     rx="7.5636368"
     ry="7.9765506"
     transform="scale(-1)"
     id="rect76"
     style="fill:#ff7a5c;stroke-width:0.87865955" />
  <rect
     x="-401.55722"
     y="-308.54913"
     width="88.128342"
     height="36.995316"
     rx="7.5636368"
     ry="7.9765506"
     transform="scale(-1)"
     id="rect78"
     style="opacity:0.1;stroke-width:0.87865955" />
  <rect
     x="-313.42889"
     y="-308.54913"
     width="88.128342"
     height="36.995316"
     rx="7.5636368"
     ry="7.9765506"
     transform="scale(-1)"
     id="rect80"
     style="fill:#ff7a5c;stroke-width:0.87865955" />
  <rect
     x="-225.30055"
     y="-308.54913"
     width="88.128342"
     height="36.995316"
     rx="7.5636368"
     ry="7.9765506"
     transform="scale(-1)"
     id="rect82"
     style="fill:#ff7a5c;stroke-width:0.87865955" />
  <rect
     x="-225.30055"
     y="-308.54913"
     width="88.128342"
     height="36.995316"
     rx="7.5636368"
     ry="7.9765506"
     transform="scale(-1)"
     id="rect84"
     style="opacity:0.1;stroke-width:0.87865955" />
  <rect
     x="137.1722"
     y="236.36317"
     width="88.128342"
     height="36.995316"
     rx="7.5636368"
     ry="7.9765506"
     id="rect86"
     style="fill:#ff7a5c;stroke-width:0.87865955" />
  <rect
     x="225.30055"
     y="236.36317"
     width="88.128342"
     height="36.995316"
     rx="7.5636368"
     ry="7.9765506"
     id="rect88"
     style="fill:#ff7a5c;stroke-width:0.87865955" />
  <rect
     x="225.30055"
     y="236.36317"
     width="88.128342"
     height="36.995316"
     rx="7.5636368"
     ry="7.9765506"
     id="rect90"
     style="opacity:0.1;stroke-width:0.87865955" />
  <rect
     x="313.42889"
     y="236.36317"
     width="88.128342"
     height="36.995316"
     rx="7.5636368"
     ry="7.9765506"
     id="rect92"
     style="fill:#ff7a5c;stroke-width:0.87865955" />
  <rect
     x="401.55722"
     y="236.36317"
     width="88.128342"
     height="36.995316"
     rx="7.5636368"
     ry="7.9765506"
     id="rect94"
     style="fill:#ff7a5c;stroke-width:0.87865955" />
  <rect
     x="401.55722"
     y="236.36317"
     width="88.128342"
     height="36.995316"
     rx="7.5636368"
     ry="7.9765506"
     id="rect96"
     style="opacity:0.1;stroke-width:0.87865955" />
  <rect
     x="489.68558"
     y="236.36317"
     width="88.128342"
     height="36.995316"
     rx="7.5636368"
     ry="7.9765506"
     id="rect98"
     style="fill:#ff7a5c;stroke-width:0.87865955" />
  <rect
     x="577.8139"
     y="236.36317"
     width="88.128342"
     height="36.995316"
     rx="7.5636368"
     ry="7.9765506"
     id="rect100"
     style="fill:#ff7a5c;stroke-width:0.87865955" />
  <rect
     x="577.8139"
     y="236.36317"
     width="88.128342"
     height="36.995316"
     rx="7.5636368"
     ry="7.9765506"
     id="rect102"
     style="opacity:0.1;stroke-width:0.87865955" />
  <rect
     x="-665.94226"
     y="-236.36317"
     width="88.128342"
     height="36.995316"
     rx="7.5636368"
     ry="7.9765506"
     transform="scale(-1)"
     id="rect104"
     style="fill:#ff7a5c;stroke-width:0.87865955" />
  <rect
     x="-577.8139"
     y="-236.36317"
     width="88.128342"
     height="36.995316"
     rx="7.5636368"
     ry="7.9765506"
     transform="scale(-1)"
     id="rect106"
     style="fill:#ff7a5c;stroke-width:0.87865955" />
  <rect
     x="-577.8139"
     y="-236.36317"
     width="88.128342"
     height="36.995316"
     rx="7.5636368"
     ry="7.9765506"
     transform="scale(-1)"
     id="rect108"
     style="opacity:0.1;stroke-width:0.87865955" />
  <rect
     x="-489.68558"
     y="-236.36317"
     width="88.128342"
     height="36.995316"
     rx="7.5636368"
     ry="7.9765506"
     transform="scale(-1)"
     id="rect110"
     style="fill:#ff7a5c;stroke-width:0.87865955" />
  <rect
     x="-401.55722"
     y="-236.36317"
     width="88.128342"
     height="36.995316"
     rx="7.5636368"
     ry="7.9765506"
     transform="scale(-1)"
     id="rect112"
     style="fill:#ff7a5c;stroke-width:0.87865955" />
  <rect
     x="-401.55722"
     y="-236.36317"
     width="88.128342"
     height="36.995316"
     rx="7.5636368"
     ry="7.9765506"
     transform="scale(-1)"
     id="rect114"
     style="opacity:0.1;stroke-width:0.87865955" />
  <rect
     x="-313.42889"
     y="-236.36317"
     width="88.128342"
     height="36.995316"
     rx="7.5636368"
     ry="7.9765506"
     transform="scale(-1)"
     id="rect116"
     style="fill:#ff7a5c;stroke-width:0.87865955" />
  <rect
     x="-225.30055"
     y="-236.36317"
     width="88.128342"
     height="36.995316"
     rx="7.5636368"
     ry="7.9765506"
     transform="scale(-1)"
     id="rect118"
     style="fill:#ff7a5c;stroke-width:0.87865955" />
  <rect
     x="-225.30055"
     y="-236.36317"
     width="88.128342"
     height="36.995316"
     rx="7.5636368"
     ry="7.9765506"
     transform="scale(-1)"
     id="rect120"
     style="opacity:0.1;stroke-width:0.87865955" />
  <rect
     x="137.1722"
     y="162.37254"
     width="88.128342"
     height="36.995316"
     rx="7.5636368"
     ry="7.9765506"
     id="rect122"
     style="fill:#ff7a5c;stroke-width:0.87865955" />
  <rect
     x="225.30055"
     y="162.37254"
     width="88.128342"
     height="36.995316"
     rx="7.5636368"
     ry="7.9765506"
     id="rect124"
     style="fill:#ff7a5c;stroke-width:0.87865955" />
  <rect
     x="225.30055"
     y="162.37254"
     width="88.128342"
     height="36.995316"
     rx="7.5636368"
     ry="7.9765506"
     id="rect126"
     style="opacity:0.1;stroke-width:0.87865955" />
  <rect
     x="313.42889"
     y="162.37254"
     width="88.128342"
     height="36.995316"
     rx="7.5636368"
     ry="7.9765506"
     id="rect128"
     style="fill:#ff7a5c;stroke-width:0.87865955" />
  <rect
     x="401.55722"
     y="162.37254"
     width="88.128342"
     height="36.995316"
     rx="7.5636368"
     ry="7.9765506"
     id="rect130"
     style="fill:#ff7a5c;stroke-width:0.87865955" />
  <rect
     x="401.55722"
     y="162.37254"
     width="88.128342"
     height="36.995316"
     rx="7.5636368"
     ry="7.9765506"
     id="rect132"
     style="opacity:0.1;stroke-width:0.87865955" />
  <rect
     x="489.68558"
     y="162.37254"
     width="88.128342"
     height="36.995316"
     rx="7.5636368"
     ry="7.9765506"
     id="rect134"
     style="fill:#ff7a5c;stroke-width:0.87865955" />
  <rect
     x="577.8139"
     y="162.37254"
     width="88.128342"
     height="36.995316"
     rx="7.5636368"
     ry="7.9765506"
     id="rect136"
     style="fill:#ff7a5c;stroke-width:0.87865955" />
  <rect
     x="577.8139"
     y="162.37254"
     width="88.128342"
     height="36.995316"
     rx="7.5636368"
     ry="7.9765506"
     id="rect138"
     style="opacity:0.1;stroke-width:0.87865955" />
  <rect
     x="570.96899"
     y="39.123993"
     width="94.973267"
     height="39.864708"
     rx="7.5636368"
     ry="7.9765506"
     id="rect140"
     style="fill:url(#linearGradient1062);stroke-width:0.87865955" />
  <rect
     x="-662.51978"
     y="-77.554001"
     width="88.128342"
     height="36.995316"
     rx="7.5636368"
     ry="7.9765506"
     transform="scale(-1)"
     id="rect142"
     style="fill:#ff7a5c;stroke-width:0.87865955" />
  <rect
     x="-577.8139"
     y="-162.37254"
     width="88.128342"
     height="36.995316"
     rx="7.5636368"
     ry="7.9765506"
     transform="scale(-1)"
     id="rect144"
     style="fill:#ff7a5c;stroke-width:0.87865955" />
  <rect
     x="-577.8139"
     y="-162.37254"
     width="88.128342"
     height="36.995316"
     rx="7.5636368"
     ry="7.9765506"
     transform="scale(-1)"
     id="rect146"
     style="opacity:0.1;stroke-width:0.87865955" />
  <rect
     x="-489.68558"
     y="-162.37254"
     width="88.128342"
     height="36.995316"
     rx="7.5636368"
     ry="7.9765506"
     transform="scale(-1)"
     id="rect148"
     style="fill:#ff7a5c;stroke-width:0.87865955" />
  <rect
     x="-401.55722"
     y="-162.37254"
     width="88.128342"
     height="36.995316"
     rx="7.5636368"
     ry="7.9765506"
     transform="scale(-1)"
     id="rect150"
     style="fill:#ff7a5c;stroke-width:0.87865955" />
  <rect
     x="-401.55722"
     y="-162.37254"
     width="88.128342"
     height="36.995316"
     rx="7.5636368"
     ry="7.9765506"
     transform="scale(-1)"
     id="rect152"
     style="opacity:0.1;stroke-width:0.87865955" />
  <rect
     x="-313.42889"
     y="-162.37254"
     width="88.128342"
     height="36.995316"
     rx="7.5636368"
     ry="7.9765506"
     transform="scale(-1)"
     id="rect154"
     style="fill:#ff7a5c;stroke-width:0.87865955" />
  <rect
     x="-225.30055"
     y="-162.37254"
     width="88.128342"
     height="36.995316"
     rx="7.5636368"
     ry="7.9765506"
     transform="scale(-1)"
     id="rect156"
     style="fill:#ff7a5c;stroke-width:0.87865955" />
  <rect
     x="-225.30055"
     y="-162.37254"
     width="88.128342"
     height="36.995316"
     rx="7.5636368"
     ry="7.9765506"
     transform="scale(-1)"
     id="rect158"
     style="opacity:0.1;stroke-width:0.87865955" />
  <ellipse
     cx="426.95187"
     cy="497.58615"
     rx="426.95187"
     ry="102.41386"
     id="ellipse160"
     style="fill:#f5f5f5;stroke-width:0.87865955" />
  <path
     d="m 97.497328,451.62175 c 0,0 7.700532,-27.4397 -1.437433,-47.64275 a 41.06952,43.311587 0 0 1 -3.328342,-27.19606 69.125135,72.898815 0 0 1 3.653476,-12.7679"
     stroke-miterlimit="10"
     id="path162"
     inkscape:connector-curvature="0"
     style="fill:none;stroke:#535461;stroke-width:1.75731909;stroke-miterlimit:10" />
  <path
     d="m 90.720857,351.25617 c 0,3.36567 5.775402,13.1198 5.775402,13.1198 0,0 5.775401,-9.75413 5.775401,-13.1198 a 5.7754015,6.0906922 0 0 0 -11.550803,0 z"
     id="path164"
     inkscape:connector-curvature="0"
     style="fill:#ff7a5c;stroke-width:0.87865955" />
  <path
     d="m 81.172194,369.88917 c 1.71123,2.82428 11.610696,7.69683 11.610696,7.69683 0,0 -0.17968,-11.49562 -1.916578,-14.31989 a 5.7754012,6.0906919 0 0 0 -9.694118,6.62306 z"
     id="path166"
     inkscape:connector-curvature="0"
     style="fill:#ff7a5c;stroke-width:0.87865955" />
  <path
     d="m 81.591445,401.72319 c 2.849198,1.51591 13.68984,0.46921 13.68984,0.46921 0,0 -5.655615,-9.82632 -8.504813,-11.34222 a 5.7754012,6.0906919 0 0 0 -5.202139,10.87301 z"
     id="path168"
     inkscape:connector-curvature="0"
     style="fill:#ff7a5c;stroke-width:0.87865955" />
  <path
     d="m 87.050269,425.73405 c 2.566845,2.00317 13.433151,2.90549 13.433151,2.90549 0,0 -4.004274,-10.69255 -6.562563,-12.69571 a 5.7754012,6.0906919 0 0 0 -6.844919,9.79022 z"
     id="path170"
     inkscape:connector-curvature="0"
     style="fill:#ff7a5c;stroke-width:0.87865955" />
  <path
     d="m 104.90695,378.23567 c -2.28449,2.34605 -12.945451,4.77331 -12.945451,4.77331 0,0 2.609626,-11.16176 4.894118,-13.53488 a 5.7754108,6.0907021 0 1 1 8.051333,8.73451 z"
     id="path172"
     inkscape:connector-curvature="0"
     style="fill:#ff7a5c;stroke-width:0.87865955" />
  <path
     d="m 110.95615,406.37919 c -2.8492,1.51591 -13.689838,0.46921 -13.689838,0.46921 0,0 5.655618,-9.82632 8.504818,-11.34223 a 5.7754012,6.0906919 0 0 1 5.18502,10.87302 z"
     id="path174"
     inkscape:connector-curvature="0"
     style="fill:#ff7a5c;stroke-width:0.87865955" />
  <path
     d="m 113.26631,434.64 c -2.56684,2.00316 -13.433153,2.90548 -13.433153,2.90548 0,0 4.004283,-10.69254 6.562563,-12.6957 a 5.7754012,6.0906919 0 0 1 6.84492,9.79022 z"
     id="path176"
     inkscape:connector-curvature="0"
     style="fill:#ff7a5c;stroke-width:0.87865955" />
  <path
     d="m 510.78504,296.11511 c 0,0 28.14117,29.67745 12.2524,73.7109 -15.88877,44.03344 27.23423,117.30222 27.23423,117.30222 0,0 -0.46203,-0.0722 -1.31765,-0.23461 -57.79679,-10.80082 -86.51123,-80.51443 -54.37433,-132.28983 11.94438,-19.25561 21.75829,-41.83177 16.20535,-58.48868 z"
     id="path178"
     inkscape:connector-curvature="0"
     style="fill:#ff7a5c;stroke-width:0.87865955" />
  <path
     d="m 510.78504,296.11511 c 0,0 28.14117,29.67745 12.2524,73.7109 -15.88877,44.03344 27.23423,117.30222 27.23423,117.30222 0,0 -0.46203,-0.0722 -1.31765,-0.23461 -57.79679,-10.80082 -86.51123,-80.51443 -54.37433,-132.28983 11.94438,-19.25561 21.75829,-41.83177 16.20535,-58.48868 z"
     id="path180"
     inkscape:connector-curvature="0"
     style="opacity:0.2;stroke-width:0.87865955" />
  <path
     d="m 510.78504,296.11511 c 0,0 15.88877,36.37271 0,66.05016 -15.88877,29.67747 -2.72086,112.95301 39.5123,124.91784"
     stroke-miterlimit="10"
     id="path182"
     inkscape:connector-curvature="0"
     style="fill:none;stroke:#535461;stroke-width:0.87865955;stroke-miterlimit:10" />
  <path
     d="m 460.67167,416.13332 c 0,0 32.11123,-5.41395 35.03743,24.9583 2.9262,30.37225 61.74118,34.55001 61.74118,34.55001 l -1.10374,0.776 c -48.56471,33.62062 -94.97327,21.41217 -87.99145,-23.22584 2.60107,-16.59375 2.37005,-33.27773 -7.68342,-37.05847 z"
     id="path184"
     inkscape:connector-curvature="0"
     style="fill:#ff7a5c;stroke-width:0.87865955" />
  <path
     d="m 460.67167,416.13332 c 0,0 32.11123,-5.41395 35.03743,24.9583 2.9262,30.37225 61.74118,34.55001 61.74118,34.55001 l -1.10374,0.776 c -48.56471,33.62062 -94.97327,21.41217 -87.99145,-23.22584 2.60107,-16.59375 2.37005,-33.27773 -7.68342,-37.05847 z"
     id="path186"
     inkscape:connector-curvature="0"
     style="opacity:0.2;fill:#f5f5f5;stroke-width:0.87865955" />
  <path
     d="m 460.67167,416.13332 c 0,0 24.92406,5.76585 22.87914,29.66844 -2.04492,23.90258 37.01391,52.55139 73.89947,29.83987"
     stroke-miterlimit="10"
     id="path188"
     inkscape:connector-curvature="0"
     style="fill:none;stroke:#535461;stroke-width:0.87865955;stroke-miterlimit:10" />
  <path
     d="m 704.96686,485.99129 c 0,0 -47.65776,-10.05189 -60.37219,-23.46043 -12.71444,-13.40855 -69.90375,-36.85997 -76.26097,-20.1038 -6.35722,16.75617 -85.78396,73.72895 -31.7262,83.78085 54.05775,10.0519 127.09305,13.39953 142.98182,6.70427 15.88877,-6.69524 25.37754,-46.92089 25.37754,-46.92089 z"
     id="path190"
     inkscape:connector-curvature="0"
     style="fill:#a8a8a8;stroke-width:0.87865955" />
  <path
     d="m 536.6075,519.98187 c 54.01497,10.0519 127.09305,13.39952 142.98182,6.70427 12.09839,-5.10716 20.53476,-29.62332 23.82888,-41.03772 l 1.59144,0.3519 c 0,0 -9.53155,40.20759 -25.42032,46.92089 -15.88877,6.71329 -88.98396,3.34762 -142.98182,-6.70427 -15.58931,-2.9055 -20.04706,-9.71804 -18.37006,-18.34427 1.25776,5.62148 6.72514,9.94362 18.37006,12.1092 z"
     id="path192"
     inkscape:connector-curvature="0"
     style="opacity:0.2;stroke-width:0.87865955" />
  <path
     d="m 801.39467,39.66539 a 13.997861,14.762032 0 0 0 -3.94439,-5.765855 c -12.79144,-12.289662 -33.47166,-8.563062 -49.35187,-16.079427 -3.66203,-1.732463 -7.40963,-4.132647 -11.37968,-3.47395 -5.54438,0.902325 -10.70374,7.579528 -15.53797,4.619903 l 0.34225,1.109859 -0.34225,-0.189488 3.55936,11.423431 c 1.36899,4.385299 2.80642,8.896922 5.45882,12.551337 a 31.161498,32.862667 0 0 0 7.53797,54.662837 c 0.17113,0.378974 0.33369,0.766976 0.49626,1.154967 l 0.45348,0.19852 a 36.380749,38.366848 0 0 1 2.34438,7.958496 c -4.11551,0.60456 -11.29412,5.41395 -18.34438,12.48818 l -14.10054,-0.49628 a 46.151873,48.671396 0 0 1 -25.36043,-9.09543 L 640.99253,78.745078 a 14.126203,14.897381 0 0 0 -8.08557,3.771718 c -5.23636,-5.756832 -9.68556,-11.730226 -9.30909,-15.339525 0,0 -19.6278,-38.736801 -26.76363,-19.372912 -7.13583,19.363889 13.38181,39.702293 13.38181,39.702293 l 13.01391,17.784818 a 70.939039,74.811743 0 0 0 -0.9754,9.42929 c 16.05989,19.37291 72.25668,36.89606 72.25668,36.89606 l 8.7615,0.45116 0.0513,0.45117 a 29.835295,31.464063 0 0 0 -0.78717,7.39906 c 0,0.36092 0,0.73088 0,1.10986 0,0.37897 0,0.49627 0,0.7399 0.44492,30.8956 4.45776,125.42314 4.45776,125.42314 0.77861,-0.36995 1.59144,-0.70381 2.41283,-1.01963 l -0.6246,8.40065 c 0,0 -37.46738,5.53125 -65.12086,16.60278 -27.65347,11.07152 -28.54331,23.98378 -28.54331,23.98378 v 113.92753 c -7.89733,4.27702 -20.36364,9.92556 -26.76364,6.88473 -6.94759,-3.26641 -10.75508,-0.52335 -11.44813,2.33703 v 0 a 3.42246,3.6092989 0 0 0 0,1.72343 v 0 a 2.9262033,3.0859506 0 0 0 0.26524,0.73089 v 0.0541 a 2.7807487,2.9325554 0 0 0 0.47059,0.64967 c 2.67808,2.77014 60.6631,26.7449 74.04492,23.0544 a 9.249198,9.7541303 0 0 0 1.21498,-0.43312 c 0.12834,-0.0541 0.23957,-0.12633 0.36791,-0.18949 0.12834,-0.0632 0.49626,-0.24362 0.72727,-0.388 0.23102,-0.14437 0.26524,-0.18948 0.39359,-0.27971 0.12834,-0.0903 0.40214,-0.27973 0.59037,-0.43312 0.18824,-0.1534 0.24813,-0.23461 0.36792,-0.3519 0.11978,-0.11731 0.3508,-0.31582 0.50481,-0.49629 0.15401,-0.18047 0.22246,-0.2707 0.33369,-0.40605 0.11123,-0.13535 0.30802,-0.36093 0.44492,-0.55944 0.1369,-0.19851 0.18823,-0.29777 0.29091,-0.44213 0.10267,-0.14438 0.27379,-0.41508 0.39358,-0.63163 0.11979,-0.21656 0.16257,-0.3068 0.23957,-0.46921 0.077,-0.16242 0.23957,-0.46019 0.3508,-0.70381 0.11123,-0.24363 0.1369,-0.31582 0.1968,-0.47824 0.0599,-0.16242 0.2139,-0.51432 0.30802,-0.776 0.0941,-0.26167 0.10267,-0.31581 0.16256,-0.47822 0.0599,-0.16242 0.18824,-0.56847 0.26524,-0.90234 0,-0.15339 0.077,-0.30678 0.11979,-0.46018 0.077,-0.31581 0.16257,-0.62261 0.23102,-0.90232 0,-0.14438 0.0599,-0.28874 0.0856,-0.43312 0.0684,-0.34288 0.1369,-0.68577 0.18823,-1.02864 0,-0.12634 0,-0.26168 0.0599,-0.38801 0.0599,-0.36995 0.11123,-0.74893 0.15401,-1.11888 v -0.32484 c 0.0428,-0.40604 0.0856,-0.81209 0.11978,-1.21813 v -0.25266 q 0.0513,-0.65869 0.077,-1.31739 v -0.18047 q 0,-0.70381 0,-1.40762 v -0.0903 a 73.232087,77.229974 0 0 0 -1.71123,-16.35916 v 0 l 3.36257,-97.02697 a 501.8952,529.29467 0 0 0 52.50053,-2.03926 l 1.91658,46.30731 c 0,0 0,30.43541 9.8139,44.26805 8.40214,11.8385 18.10482,64.20041 20.723,79.06169 -3.60214,7.2186 -10.4984,16.24185 -22.51123,15.93505 0,0 -22.59679,-2.05729 -21.32193,4.51163 v 0 a 3.2000001,3.3746945 0 0 0 0.14546,0.5053 v 0 a 4.4149733,4.6559956 0 0 0 0.24813,0.55042 v 0 c 0.0941,0.17144 0.19679,0.34289 0.31657,0.52335 l 0.0684,0.10828 c 0.12834,0.18949 0.2738,0.388 0.43637,0.59554 v 0.0451 c 0.15401,0.18948 0.31657,0.37898 0.49625,0.56846 l 0.15401,0.16242 c 0.20535,0.21656 0.4107,0.43312 0.65027,0.6587 11.59358,11.07153 79.39252,12.91226 79.39252,12.91226 v -0.25265 c 0,-0.0722 0,-0.16242 0,-0.26167 v 0 c 0,-3.20325 -0.44492,-20.00454 -4.50054,-32.65514 h 0.94118 c 0,0 -9.81391,-93.156 -17.83958,-104.2185 0,0 -2.13048,-49.12256 2.67808,-79.90085 l 0.85561,-0.34289 c 22.48557,-8.86083 24.08557,-30.67904 21.76685,-46.70433 4.27807,1.44373 6.77647,2.42726 6.77647,2.42726 0,0 -0.077,-0.69479 -0.22246,-1.93098 l 0.22246,0.0903 c 0,0 -0.42781,-2.93256 -1.13797,-7.49832 -1.60855,-12.56939 -4.72299,-34.53197 -8.04278,-44.89968 -0.53904,-2.28288 -1.0524,-4.2319 -1.52299,-5.70269 a 92.457756,97.50521 0 0 1 -3.92728,-19.15635 215.31551,227.07002 0 0 1 -1.37754,-25.40947 231.24706,243.8713 0 0 1 2.46418,-33.89132 c 1.36042,-9.79925 2.56684,-20.95198 2.48128,-28.73904 a 36.337969,38.321731 0 0 0 -0.53904,-8.12092 c -1.1893,-5.74782 -6.45134,-9.48343 -11.91872,-11.86558 -0.3508,-0.15339 -0.71016,-0.27971 -1.06951,-0.42409 0.13689,-2.1746 0.30802,-4.64697 0.53048,-7.21859 a 5.878075,6.1989709 0 0 0 4.54331,0.9745 c 2.35294,-0.5414 4.03851,-2.607714 5.53583,-4.511623 7.90588,-10.241382 16.02567,-20.915882 19.0631,-33.638663 a 68.911231,72.673233 0 0 0 1.71123,-17.324634 q 0,-0.478232 0,-0.956465 a 17.865241,18.840541 0 0 0 -0.63315,-6.469668 z"
     id="path194"
     inkscape:connector-curvature="0"
     style="fill:url(#a3595478-8223-4729-894e-2a36a16c8458);stroke-width:0.87865955" />
  <path
     d="m 729.41178,89.591015 c 0,0 11.97861,18.948825 9.41176,27.972065 -2.56684,9.02326 28.2353,3.6093 28.2353,3.6093 0,0 0.85561,-35.190662 6.84492,-43.311582 5.9893,-8.120925 -44.49198,11.730217 -44.49198,11.730217 z"
     id="path196"
     inkscape:connector-curvature="0"
     style="fill:#f7c4a7;stroke-width:0.87865955" />
  <path
     d="m 650.26739,101.7724 c 0,0 -24.81283,-21.655791 -23.95722,-29.776715 0,0 -18.82353,-37.897639 -25.66845,-18.948819 -6.84492,18.948819 12.83423,38.79996 12.83423,38.79996 l 23.95722,33.386024 z"
     id="path198"
     inkscape:connector-curvature="0"
     style="fill:#f7c4a7;stroke-width:0.87865955" />
  <path
     d="m 625.02675,441.49766 c 0,0 -23.1016,15.33953 -32.51337,10.82791 -9.41176,-4.51164 -12.83422,2.70697 -10.26738,5.41394 2.56685,2.70698 58.18182,26.16742 71.01605,22.55812 12.83422,-3.6093 6.30588,-33.16946 6.30588,-33.16946 z"
     id="path200"
     inkscape:connector-curvature="0"
     style="fill:#535461;stroke-width:0.87865955" />
  <path
     d="m 747.37969,507.36737 c 0,0 -5.56149,24.81394 -24.81283,24.36277 0,0 -29.09091,-2.70698 -17.96792,8.12092 11.123,10.8279 76.14974,12.63254 76.14974,12.63254 0,0 0,-36.99531 -11.97861,-45.11623 -11.97861,-8.12093 -21.39038,0 -21.39038,0 z"
     id="path202"
     inkscape:connector-curvature="0"
     style="fill:#535461;stroke-width:0.87865955" />
  <path
     d="m 712.29948,332.31637 2.56684,63.16274 c 0,0 0,29.77671 9.41177,43.31158 9.41176,13.53488 20.53476,81.20923 20.53476,81.20923 h 32.51337 c 0,0 -9.41177,-91.1348 -17.1123,-101.9627 0,0 -3.42246,-80.3069 8.55615,-98.35339 z"
     id="path204"
     inkscape:connector-curvature="0"
     style="fill:#575988;stroke-width:0.87865955" />
  <path
     d="m 712.29948,332.31637 2.56684,63.16274 c 0,0 0,29.77671 9.41177,43.31158 9.41176,13.53488 20.53476,81.20923 20.53476,81.20923 h 32.51337 c 0,0 -9.41177,-91.1348 -17.1123,-101.9627 0,0 -3.42246,-80.3069 8.55615,-98.35339 z"
     id="path206"
     inkscape:connector-curvature="0"
     style="opacity:0.1;stroke-width:0.87865955" />
  <path
     d="m 779.89306,275.46991 c 0,0 19.67915,49.62786 -16.25668,64.06507 -35.93583,14.43719 -100.96257,12.63254 -100.96257,12.63254 l -3.42246,104.66967 c 0,0 -40.2139,5.41394 -41.06952,-8.12093 V 334.12102 c 0,0 0.85562,-12.63254 27.37968,-23.46045 26.52406,-10.82789 62.45989,-16.24183 62.45989,-16.24183 l 1.71123,-23.46045 z"
     id="path208"
     inkscape:connector-curvature="0"
     style="fill:#575988;stroke-width:0.87865955" />
  <path
     d="m 748.36365,111.9777 a 40.941177,43.176239 0 0 1 20.10695,2.99571 c 5.24492,2.328 10.26738,5.98242 11.43102,11.6039 1.35187,6.65915 -0.14545,21.59263 -1.86524,34.2342 a 223.55508,235.7594 0 0 0 -1.04385,59.8151 c 0.85561,8.29237 2.09626,15.51999 3.7647,18.74129 5.13369,9.92558 10.26738,56.84646 10.26738,56.84646 0,0 -56.47058,-22.55811 -84.70588,-9.02325 0,0 -3.85027,-92.48828 -4.27807,-122.71616 -0.33369,-23.40631 27.80748,-50.07902 37.21925,-50.98136 5.51016,-0.52334 3.61925,-0.91134 9.10374,-1.51589 z"
     id="path210"
     inkscape:connector-curvature="0"
     style="opacity:0.1;stroke-width:0.87865955" />
  <path
     d="m 748.36365,110.17305 a 40.941177,43.176239 0 0 1 20.10695,2.99571 c 5.24492,2.328 10.26738,5.98242 11.43102,11.6039 1.35187,6.65916 -0.14545,21.59262 -1.86524,34.2342 a 223.55508,235.7594 0 0 0 -1.04385,59.8151 92.00428,97.026978 0 0 0 3.7647,18.74129 c 3.85027,12.18139 10.26738,56.84646 10.26738,56.84646 0,0 -56.47058,-22.55812 -84.70588,-9.02325 0,0 -3.85027,-92.48828 -4.27807,-122.71615 -0.33369,-23.40632 27.80748,-50.07904 37.21925,-50.98136 5.51016,-0.52334 3.61925,-0.91135 9.10374,-1.5159 z"
     id="path212"
     inkscape:connector-curvature="0"
     style="fill:#e14b5a;stroke-width:0.87865955" />
  <path
     d="m 763.63638,159.97235 -60.74867,-3.6093 c 0,0 -3.86738,-31.40993 4.90268,-31.08508 l 60.12406,2.21069 c 0,0 12.83423,16.24184 -4.27807,32.48369 z"
     id="path214"
     inkscape:connector-curvature="0"
     style="opacity:0.1;stroke-width:0.87865955" />
  <path
     d="m 763.63638,158.1677 -69.30482,-3.6093 c 0,0 -53.90374,-17.14417 -69.30481,-36.09299 0,0 0.85562,-33.386017 17.96792,-35.190666 l 40.47914,31.301646 a 43.704814,46.090748 0 0 0 24.31658,8.89692 l 60.12406,2.2107 c 0,0 12.83423,16.24184 -4.27807,32.48369 z"
     id="path216"
     inkscape:connector-curvature="0"
     style="fill:#e14b5a;stroke-width:0.87865955" />
  <path
     d="m 766.63103,93.651475 c 1.01818,-8.554037 4.69733,-11.396359 7.27273,-14.888353 5.9893,-8.120924 -44.49198,11.730217 -44.49198,11.730217 a 90.763638,95.718608 0 0 1 6.84492,13.273201 30.673797,32.348342 0 0 0 12.83422,2.96865 c 7.40963,0 12.21819,-8.454789 17.54011,-13.083715 z"
     id="path218"
     inkscape:connector-curvature="0"
     style="opacity:0.1;stroke-width:0.87865955" />
  <ellipse
     cx="749.09094"
     cy="73.349167"
     id="circle220"
     style="fill:#f7c4a7;stroke-width:0.87865955"
     rx="30.802139"
     ry="32.483692" />
  <path
     d="m 729.6428,50.583519 c -3.27701,-3.78074 -4.8599,-8.815712 -6.34867,-13.697289 l -3.42246,-11.179804 c 4.63744,2.887439 9.58289,-3.609298 14.90482,-4.511624 3.80748,-0.64065 7.40962,1.705394 10.91764,3.392742 15.22995,7.344923 35.08022,3.699531 47.33262,15.727519 a 13.68984,14.437195 0 0 1 3.78182,5.63953 17.890909,18.86761 0 0 1 0.68449,6.316274 68.722996,72.474722 0 0 1 -1.6,16.945658 c -2.90909,12.443063 -10.69518,22.891981 -18.28449,32.907785 -1.43743,1.90391 -3.05454,3.92511 -5.31337,4.45749 -4.40641,1.03767 -7.81176,-3.97926 -9.51444,-8.382604 A 84.620323,89.239916 0 0 1 757.8182,80.089537 c -0.44492,-2.625768 -0.79573,-5.332741 -2.03637,-7.651713 -2.6524,-4.953763 -9.1893,-9.645852 -13.15936,-13.489755 -3.97005,-3.843903 -9.33475,-4.16874 -12.97967,-8.36455 z"
     id="path222"
     inkscape:connector-curvature="0"
     style="opacity:0.1;stroke-width:0.87865955" />
  <path
     d="m 729.6428,49.681195 c -3.27701,-3.780741 -4.8599,-8.815713 -6.34867,-13.69729 l -3.42246,-11.179803 c 4.63744,2.887439 9.58289,-3.6093 14.90482,-4.511624 3.80748,-0.64065 7.40962,1.705394 10.91764,3.392741 15.22995,7.344923 35.08022,3.699532 47.33262,15.72752 a 13.68984,14.437195 0 0 1 3.78182,5.63953 17.890909,18.86761 0 0 1 0.68449,6.316272 68.722996,72.474722 0 0 1 -1.6,16.945659 c -2.90909,12.443053 -10.69518,22.891982 -18.28449,32.90778 -1.43743,1.90391 -3.05454,3.92511 -5.31337,4.45749 -4.40641,1.03767 -7.81176,-3.97925 -9.51444,-8.382598 A 84.620323,89.239916 0 0 1 757.8182,79.187213 c -0.44492,-2.625768 -0.79573,-5.332739 -2.03637,-7.651713 -2.6524,-4.953763 -9.1893,-9.645852 -13.15936,-13.489755 -3.97005,-3.843904 -9.33475,-4.168741 -12.97967,-8.36455 z"
     id="path224"
     inkscape:connector-curvature="0"
     style="fill:#632652;stroke-width:0.87865955" />
  <ellipse
     cx="757.21924"
     cy="76.958473"
     rx="2.5668449"
     ry="5.8651109"
     id="ellipse226"
     style="fill:#f7c4a7;stroke-width:0.87865955" />
  <path
     d="m 772.62034,233.51182 c 0,0 -1.71123,5.41394 -10.26738,4.51162 -8.55615,-0.90232 -33.36899,-2.70697 -33.36899,0"
     id="path228"
     inkscape:connector-curvature="0"
     style="opacity:0.1;stroke-width:0.87865955" />
  <path
     d="m 704.59894,538.94874 c -1.5401,-1.49786 -2.31016,-2.70697 -2.48984,-3.7627 -0.22246,1.17302 0.46204,2.70698 2.48984,4.66502 11.123,10.8279 76.14974,12.63254 76.14974,12.63254 0,0 0,-0.31581 0,-0.90232 -0.41925,-0.009 -65.06097,-1.84074 -76.14974,-12.63254 z"
     id="path230"
     inkscape:connector-curvature="0"
     style="opacity:0.5;fill:#ffffff;stroke-width:0.87865955" />
  <path
     d="m 653.26205,478.49298 c -12.83423,3.6093 -68.4492,-19.85114 -71.01605,-22.55812 a 2.7807487,2.9325554 0 0 1 -0.71016,-1.31739 3.080214,3.2483691 0 0 0 0.71016,3.12204 c 2.56685,2.70698 58.18182,26.16742 71.01605,22.55812 6.60534,-1.85879 8.077,-10.58428 7.95721,-18.62398 -0.12834,7.48929 -1.84812,15.08686 -7.95721,16.81933 z"
     id="path232"
     inkscape:connector-curvature="0"
     style="opacity:0.5;fill:#ffffff;stroke-width:0.87865955" />
  <path
     d="m 429.59573,468.78397 a 1.2834225,1.3534871 0 0 0 0,-2.70697 1.2834225,1.3534871 0 0 0 0,2.70697 z"
     id="path234"
     inkscape:connector-curvature="0"
     style="fill:#67647e;stroke-width:0.87865955" />
  <path
     d="m 78.280215,444.84529 c 0,0 31.931555,-1.03767 41.548665,-8.2653 9.61711,-7.22762 49.1123,-15.85384 51.49947,-4.26799 2.38716,11.58585 47.99144,57.6405 11.91016,57.98339 -36.08129,0.34288 -83.756155,-5.91925 -93.364711,-12.09116 -9.608557,-6.17189 -11.593584,-33.35894 -11.593584,-33.35894 z"
     id="path236"
     inkscape:connector-curvature="0"
     style="fill:#a8a8a8;stroke-width:0.87865955" />
  <path
     d="m 183.91444,486.2259 c -36.04706,0.30679 -83.75615,-5.91925 -93.364706,-12.09115 -7.315508,-4.70111 -10.267379,-21.55654 -11.2,-29.33458 h -1.069519 c 0,0 2.019252,27.15998 11.627808,33.32286 9.608557,6.16287 57.317647,12.44306 93.330487,12.17236 10.40427,-0.0903 13.99786,-3.98828 13.80107,-9.77218 -1.41177,3.45591 -5.38182,5.63953 -13.12514,5.70269 z"
     id="path238"
     inkscape:connector-curvature="0"
     style="opacity:0.2;stroke-width:0.87865955" />
  <rect
     x="-890.11346"
     y="-531.42334"
     width="88.128342"
     height="36.995316"
     rx="7.5636368"
     ry="7.9765506"
     transform="scale(-1)"
     id="rect240"
     style="fill:#ff7a5c;stroke-width:0.87865955" />
  <rect
     x="-890.11346"
     y="-531.42334"
     width="88.128342"
     height="36.995316"
     rx="7.5636368"
     ry="7.9765506"
     transform="scale(-1)"
     id="rect242"
     style="opacity:0.1;stroke-width:0.87865955" />
  <rect
     x="801.98505"
     y="459.23737"
     width="88.128342"
     height="36.995316"
     rx="7.5636368"
     ry="7.9765506"
     id="rect244"
     style="fill:#ff7a5c;stroke-width:0.87865955" />
  <rect
     x="-890.11346"
     y="-459.23734"
     width="88.128342"
     height="36.995316"
     rx="7.5636368"
     ry="7.9765506"
     transform="scale(-1)"
     id="rect246"
     style="fill:#ff7a5c;stroke-width:0.87865955" />
  <rect
     x="-890.11346"
     y="-459.23734"
     width="88.128342"
     height="36.995316"
     rx="7.5636368"
     ry="7.9765506"
     transform="scale(-1)"
     id="rect248"
     style="opacity:0.1;stroke-width:0.87865955" />
  <rect
     x="801.98505"
     y="385.24673"
     width="88.128342"
     height="36.995316"
     rx="7.5636368"
     ry="7.9765506"
     id="rect250"
     style="fill:#ff7a5c;stroke-width:0.87865955" />
</svg>
