<?xml version="1.0" encoding="UTF-8" standalone="no"?>
<svg
   xmlns:dc="http://purl.org/dc/elements/1.1/"
   xmlns:cc="http://creativecommons.org/ns#"
   xmlns:rdf="http://www.w3.org/1999/02/22-rdf-syntax-ns#"
   xmlns:svg="http://www.w3.org/2000/svg"
   xmlns="http://www.w3.org/2000/svg"
   xmlns:sodipodi="http://sodipodi.sourceforge.net/DTD/sodipodi-0.dtd"
   xmlns:inkscape="http://www.inkscape.org/namespaces/inkscape"
   id="ad6b5295-7ebf-4dc3-a7a8-a4a4b8d35fca"
   data-name="Layer 1"
   width="900"
   height="600"
   viewBox="0 0 900 599.99998"
   version="1.1"
   sodipodi:docname="warning.svg"
   inkscape:version="0.92.3 (2405546, 2018-03-11)">
  <metadata
     id="metadata45">
    <rdf:RDF>
      <cc:Work
         rdf:about="">
        <dc:format>image/svg+xml</dc:format>
        <dc:type
           rdf:resource="http://purl.org/dc/dcmitype/StillImage" />
        <dc:title></dc:title>
      </cc:Work>
    </rdf:RDF>
  </metadata>
  <defs
     id="defs43" />
  <sodipodi:namedview
     pagecolor="#ffffff"
     bordercolor="#666666"
     borderopacity="1"
     objecttolerance="10"
     gridtolerance="10"
     guidetolerance="10"
     inkscape:pageopacity="0"
     inkscape:pageshadow="2"
     inkscape:window-width="1920"
     inkscape:window-height="1015"
     id="namedview41"
     showgrid="false"
     inkscape:zoom="0.46075026"
     inkscape:cx="366.78515"
     inkscape:cy="256.10403"
     inkscape:window-x="0"
     inkscape:window-y="28"
     inkscape:window-maximized="1"
     inkscape:current-layer="ad6b5295-7ebf-4dc3-a7a8-a4a4b8d35fca" />
  <path
     d="m 804.54197,598.23467 -25.60078,-79.3443 c 0,0 28.15915,28.91989 28.15915,52.64902 l -5.0542,-54.87363 c 0,0 14.44059,20.02146 12.99652,50.42442 -1.44406,30.40296 -10.50069,31.14449 -10.50069,31.14449 z"
     id="path2"
     inkscape:connector-curvature="0"
     style="fill:#e6e6e6;stroke-width:1.14984202" />
  <path
     d="m 254.77137,525.98792 -24.98534,-77.43687 c 0,0 27.48221,28.22466 27.48221,51.38335 l -4.93269,-53.55449 c 0,0 14.09344,19.54016 12.68408,49.21222 -1.40935,29.67207 -10.24826,30.39579 -10.24826,30.39579 z"
     id="path4"
     inkscape:connector-curvature="0"
     style="fill:#e6e6e6;stroke-width:1.14984202" />
  <path
     d="m 644.74485,561.72173 c 0.0428,50.93954 -98.33155,35.27062 -218.7648,35.37737 -120.43326,0.10674 -217.31978,15.94871 -217.36258,-34.99074 -0.0428,-50.93946 98.29555,-62.10558 218.72881,-62.21233 120.43325,-0.10674 217.35577,10.88617 217.39857,61.8257 z"
     id="path6"
     inkscape:connector-curvature="0"
     style="fill:#e6e6e6;stroke-width:1.14984202" />
  <rect
     y="597.06946"
     width="896.34827"
     height="2.3305407"
     id="rect8"
     x="-13.022239"
     style="fill:#3f3d56;stroke-width:1.14984202" />
  <polygon
     points="505.336,366.797 505.336,420.322 491.459,420.322 484.855,366.797 "
     id="polygon10"
     style="fill:#a0616a"
     transform="matrix(1.134618,0,0,1.1652703,-13.022239,3.1391872)" />
  <path
     d="m 531.6011,488.30811 h 32.1145 v 19.63547 h -49.48452 v -1.79625 a 17.370004,17.839262 0 0 1 17.37002,-17.83922 z"
     id="path12"
     inkscape:connector-curvature="0"
     style="fill:#2f2e41;stroke-width:1.14984202" />
  <polygon
     points="607.336,445.797 607.336,499.322 593.459,499.322 586.855,445.797 "
     id="polygon14"
     style="fill:#a0616a"
     transform="matrix(1.134618,0,0,1.1652703,-13.022239,3.1391872)" />
  <path
     d="m 647.33215,580.36446 h 32.11449 v 19.63547 h -49.48451 v -1.79625 a 17.370004,17.839262 0 0 1 17.37002,-17.83922 z"
     id="path16"
     inkscape:connector-curvature="0"
     style="fill:#2f2e41;stroke-width:1.14984202" />
  <path
     d="m 748.69778,399.69117 a 11.704618,12.020823 0 0 0 -3.2857,-18.12113 l -36.56884,-152.99159 -23.38177,10.33176 43.49597,147.92989 a 11.768089,12.086008 0 0 0 19.74034,12.85107 z"
     id="path18"
     inkscape:connector-curvature="0"
     style="fill:#a0616a;stroke-width:1.14984202" />
  <path
     d="m 720.17667,90.492006 a 12.91453,13.263421 0 0 0 -19.75962,1.342936 l -56.60086,6.673606 8.61018,22.421442 51.47511,-9.89411 a 12.98449,13.335271 0 0 0 16.27519,-20.543874 z"
     id="path20"
     inkscape:connector-curvature="0"
     style="fill:#a0616a;stroke-width:1.14984202" />
  <path
     d="m 626.90236,383.82494 24.69849,190.37507 30.74064,-6.49988 c 0,0 -4.52074,-138.64568 10.84965,-155.3598 C 708.56152,395.6262 673.4217,366.3459 673.4217,366.3459 Z"
     id="path22"
     inkscape:connector-curvature="0"
     style="fill:#2f2e41;stroke-width:1.14984202" />
  <path
     d="m 637.11393,331.38779 -11.34619,17.47905 c 0,0 -87.36559,-37.28782 -87.36559,22.14014 0,59.42795 -4.99948,99.75813 -6.80771,102.54378 -1.80823,2.78564 20.91966,10.01404 31.76931,8.15689 0,0 13.38494,-95.80717 12.4808,-101.37851 0,0 85.70173,43.15386 101.9762,39.43963 16.27448,-3.71423 20.11942,-16.86262 22.83178,-24.29112 2.71238,-7.42849 -1.13461,-66.42041 -1.13461,-66.42041 l -54.2461,-17.0017 z"
     id="path24"
     inkscape:connector-curvature="0"
     style="fill:#2f2e41;stroke-width:1.14984202" />
  <path
     d="m 638.64469,226.443 -3.23402,-3.98568 c 0,0 -36.2211,-83.6992 -21.99139,-106.2847 14.22971,-22.585503 76.32306,-25.906899 78.26349,-24.578351 1.94043,1.328547 -4.63478,18.577671 -0.10722,26.549061 0,0 -48.10101,10.71024 -51.33506,12.0388 -3.23406,1.32856 24.92318,50.42556 24.92318,50.42556 l -3.23401,29.89256 z"
     id="path26"
     inkscape:connector-curvature="0"
     style="fill:#cccccc;stroke-width:1.14984202" />
  <path
     d="m 702.03166,185.25765 c 0,0 -33.63386,3.9857 -34.92751,3.9857 -1.29366,0 -1.94039,-8.63562 -1.94039,-8.63562 l -29.75309,41.84958 c 0,0 -14.65838,121.41076 -10.77755,119.41791 3.88084,-1.99285 75.45813,9.45227 76.10495,4.13803 0.64683,-5.31422 -0.64682,-31.8854 1.29363,-33.21398 1.94045,-1.32856 33.6338,-83.69915 33.6338,-83.69915 0,0 -3.23402,-17.27126 -14.22972,-23.24979 -10.99571,-5.97852 -19.40412,-20.59268 -19.40412,-20.59268 z"
     id="path28"
     inkscape:connector-curvature="0"
     style="fill:#cccccc;stroke-width:1.14984202" />
  <path
     d="m 725.31667,217.80738 10.34885,11.29274 c 0,0 15.37632,129.76429 6.96788,133.74996 -8.40844,3.98569 -24.96159,3.49582 -24.96159,3.49582 l -16.28697,-61.51795 z"
     id="path30"
     inkscape:connector-curvature="0"
     style="fill:#cccccc;stroke-width:1.14984202" />
  <ellipse
     cx="669.71118"
     cy="146.46461"
     id="circle32"
     style="fill:#a0616a;stroke-width:1.14984202"
     rx="29.771017"
     ry="30.575293" />
  <path
     d="m 662.72528,151.23561 c -0.40213,-6.34426 -8.19541,-6.56164 -14.38558,-6.6217 -6.19015,-0.0601 -13.59085,0.16687 -17.09347,-5.07526 -2.31473,-3.46435 -1.8726,-8.2738 0.0397,-11.98806 1.91231,-3.71426 5.05781,-6.57095 8.15231,-9.31916 7.98929,-7.09514 16.22326,-14.13397 25.81507,-18.675337 9.59181,-4.541366 20.83209,-6.376354 30.77978,-2.730813 12.21992,4.47822 28.73904,27.53053 30.16552,40.77485 1.42648,13.24433 -3.72729,26.7459 -12.41488,36.64293 -8.68757,9.89704 -28.57181,5.90385 -41.0853,9.42471 7.6075,-11.05799 2.59306,-31.15068 -9.59401,-36.31448 z"
     id="path34"
     inkscape:connector-curvature="0"
     style="fill:#2f2e41;stroke-width:1.14984202" />
  <ellipse
     cx="397.39377"
     cy="473.33109"
     id="circle36"
     style="fill:#ff7a5c;stroke-width:1.14984202"
     rx="71.468811"
     ry="73.399567" />
  <path
     d="M 349.66553,394.71604 A 51.238433,52.622661 0 0 1 302.85644,363.50295 L 189.44891,101.21019 A 67.884642,69.718573 0 1 1 316.37878,52.427006 l 82.12075,274.318734 a 51.148333,52.530127 0 0 1 -48.83396,67.9703 z"
     id="path38"
     inkscape:connector-curvature="0"
     style="fill:#ff7a5c;stroke-width:1.14984202" />
</svg>
